<svg width="224" height="48" viewBox="0 0 224 48" fill="none" xmlns="http://www.w3.org/2000/svg">
<path d="M45.709 24.9965L32.0476 14.0481L30.9067 13.139C30.4319 12.7596 29.8499 12.5541 29.2449 12.5541H15.4916H14.3659H14.3353C12.9569 12.5541 12.3596 14.3485 13.4393 15.2259L26.7332 26.1348C27.1237 26.4589 27.2003 27.0439 26.9093 27.4629L21.725 34.8145C21.1813 35.5813 21.3498 36.6563 22.1002 37.2097C22.8354 37.7551 23.8615 37.5812 24.3976 36.8224L31.0445 27.3996C31.5652 26.6644 31.4274 25.6289 30.7382 25.0597L20.6606 16.7832C20.3313 16.5065 20.5151 15.9532 20.9439 15.9532H28.1575C28.7395 15.9532 29.3062 16.1508 29.7656 16.5224L41.8113 26.1743C42.2095 26.4905 42.2937 27.0755 42.0027 27.5024L32.7292 40.9171C31.8562 42.1819 30.608 43.1305 29.176 43.6048C24.7881 45.0593 19.734 44.9803 14.611 42.7274C10.2843 40.8223 6.83071 37.2334 5.02349 32.7434C-0.972526 17.9136 9.48794 3.62932 23.1264 3.62932C24.8417 3.62932 26.5034 3.85857 28.0886 4.27753C29.1377 4.56211 30.1715 3.7558 30.1715 2.6333C30.1715 1.85861 29.6661 1.17878 28.9463 0.981154C23.8768 -0.378504 18.1412 -0.00696991 12.3673 2.75187C8.5537 4.57002 5.3834 7.57391 3.30049 11.3051V1.77956C3.30049 0.846768 2.60363 0.0325546 1.70001 0.000934699C0.76577 -0.0306852 0 0.744004 0 1.70841V46.2925C0 47.2332 0.742808 48 1.65408 48C2.56535 48 3.30814 47.2332 3.30814 46.2925V36.4034C7.35909 43.344 14.7335 48 23.1417 48C26.1129 48 28.9539 47.415 31.5652 46.3558L32.04 46.1581C33.0738 45.7392 33.9774 45.0119 34.6207 44.0791L46.0307 27.5814L46.0996 27.4866C46.6127 26.6961 46.4595 25.5973 45.709 24.9965Z" fill="#FF6F3C"/>
<path d="M70.9275 14.9171C70.9275 15.1871 70.7126 15.406 70.4475 15.406H66.7845C66.5194 15.406 66.3045 15.625 66.3045 15.895V26.8593C66.3045 27.1293 66.0897 27.3482 65.8246 27.3482H63.4824C63.2173 27.3482 63.0024 27.1293 63.0024 26.8593V15.895C63.0024 15.625 62.7876 15.406 62.5225 15.406H58.8801C58.615 15.406 58.4001 15.1871 58.4001 14.9171V13.1197C58.4001 12.8497 58.615 12.6307 58.8801 12.6307H70.4475C70.7126 12.6307 70.9275 12.8497 70.9275 13.1197V14.9171Z" fill="white"/>
<path d="M84.639 12.6307C84.904 12.6307 85.1189 12.8497 85.1189 13.1197V26.8593C85.1189 27.1293 84.904 27.3482 84.639 27.3482H82.2968C82.0317 27.3482 81.8168 27.1293 81.8168 26.8593V15.895C81.8168 15.625 81.6019 15.406 81.3369 15.406H77.3275C77.0688 15.406 76.8567 15.6149 76.8478 15.8783L76.7605 18.4757C76.6917 20.5642 76.5266 22.2602 76.2652 23.5637C76.0038 24.8533 75.5635 25.8484 74.9443 26.5493C74.3389 27.2361 73.4859 27.5795 72.3852 27.5795C72.028 27.5795 71.6113 27.5318 71.1349 27.4364C70.9032 27.39 70.7468 27.1716 70.764 26.9317L70.8967 25.0801C70.9191 24.7667 71.2306 24.5519 71.539 24.5519C72.337 24.5519 72.8943 24.0753 73.2107 23.1222C73.5272 22.1551 73.7267 20.6483 73.8092 18.6018L73.9993 13.1025C74.0084 12.8393 74.2205 12.6307 74.479 12.6307H84.639Z" fill="white"/>
<path d="M94.4618 21.643C94.3734 21.5035 94.2215 21.4192 94.0585 21.4192H92.4885C92.2234 21.4192 92.0085 21.6381 92.0085 21.9081V26.8593C92.0085 27.1293 91.7936 27.3482 91.5285 27.3482H89.1657C88.9006 27.3482 88.6858 27.1293 88.6858 26.8593V13.1197C88.6858 12.8497 88.9006 12.6307 89.1657 12.6307H91.5285C91.7936 12.6307 92.0085 12.8497 92.0085 13.1197V18.0919C92.0085 18.3619 92.2234 18.5808 92.4885 18.5808H94.1421C94.3045 18.5808 94.4559 18.4971 94.5445 18.3584L98.058 12.8532C98.1465 12.7144 98.2979 12.6307 98.4604 12.6307H100.824C101.209 12.6307 101.437 13.0693 101.221 13.394L97.1818 19.4681C97.0734 19.6311 97.0716 19.8445 97.1771 20.0094L101.39 26.5922C101.598 26.9175 101.369 27.3482 100.988 27.3482H98.3376C98.1746 27.3482 98.0227 27.2639 97.9343 27.1244L94.4618 21.643Z" fill="white"/>
<path d="M115.483 21.643C115.394 21.5035 115.243 21.4192 115.08 21.4192H113.509C113.244 21.4192 113.03 21.6381 113.03 21.9081V26.8593C113.03 27.1293 112.815 27.3482 112.55 27.3482H110.187C109.922 27.3482 109.707 27.1293 109.707 26.8593V13.1197C109.707 12.8497 109.922 12.6307 110.187 12.6307H112.55C112.815 12.6307 113.03 12.8497 113.03 13.1197V18.0919C113.03 18.3619 113.244 18.5808 113.509 18.5808H115.163C115.326 18.5808 115.477 18.4971 115.566 18.3584L119.079 12.8532C119.168 12.7144 119.319 12.6307 119.481 12.6307H121.845C122.23 12.6307 122.458 13.0693 122.243 13.394L118.203 19.4681C118.094 19.6311 118.093 19.8445 118.198 20.0094L122.411 26.5922C122.619 26.9175 122.39 27.3482 122.009 27.3482H119.359C119.196 27.3482 119.044 27.2639 118.955 27.1244L115.483 21.643Z" fill="white"/>
<path d="M131.293 27.6005C129.794 27.6005 128.439 27.2711 127.228 26.6124C126.031 25.9536 125.088 25.0495 124.4 23.9001C123.726 22.7368 123.389 21.4332 123.389 19.9895C123.389 18.5458 123.726 17.2492 124.4 16.0999C125.088 14.9365 126.031 14.0254 127.228 13.3666C128.439 12.7078 129.794 12.3785 131.293 12.3785C132.793 12.3785 134.142 12.7078 135.339 13.3666C136.536 14.0254 137.478 14.9365 138.166 16.0999C138.854 17.2492 139.198 18.5458 139.198 19.9895C139.198 21.4332 138.854 22.7368 138.166 23.9001C137.478 25.0495 136.536 25.9536 135.339 26.6124C134.142 27.2711 132.793 27.6005 131.293 27.6005ZM131.293 24.6991C132.146 24.6991 132.917 24.5028 133.605 24.1104C134.293 23.7039 134.829 23.1432 135.215 22.4284C135.614 21.7135 135.813 20.9006 135.813 19.9895C135.813 19.0784 135.614 18.2654 135.215 17.5506C134.829 16.8357 134.293 16.2821 133.605 15.8896C132.917 15.4831 132.146 15.2799 131.293 15.2799C130.44 15.2799 129.67 15.4831 128.982 15.8896C128.294 16.2821 127.751 16.8357 127.352 17.5506C126.966 18.2654 126.774 19.0784 126.774 19.9895C126.774 20.9006 126.966 21.7135 127.352 22.4284C127.751 23.1432 128.294 23.7039 128.982 24.1104C129.67 24.5028 130.44 24.6991 131.293 24.6991Z" fill="white"/>
<path d="M155.399 27.3482C155.134 27.3482 154.919 27.13 154.919 26.8604L154.903 20.3032C154.902 19.8073 154.261 19.6279 154.011 20.0537L150.787 25.5541C150.701 25.7019 150.544 25.7924 150.375 25.7924H149.431C149.264 25.7924 149.109 25.7038 149.021 25.5584L145.8 20.1893C145.547 19.768 144.91 19.9506 144.91 20.4443V26.8593C144.91 27.1293 144.696 27.3482 144.43 27.3482H142.253C141.988 27.3482 141.773 27.1293 141.773 26.8593V13.1197C141.773 12.8497 141.988 12.6307 142.253 12.6307H144.268C144.436 12.6307 144.592 12.7206 144.679 12.8674L149.532 21.0758C149.719 21.3927 150.171 21.3911 150.356 21.073L155.131 12.8703C155.218 12.7218 155.375 12.6307 155.544 12.6307H157.557C157.822 12.6307 158.037 12.8492 158.037 13.119L158.056 26.8586C158.057 27.1289 157.842 27.3482 157.576 27.3482H155.399Z" fill="white"/>
<path d="M178.755 19.9474C178.755 21.8958 178.101 23.4306 176.794 24.5519C175.583 25.5892 173.87 26.196 171.656 26.3723C171.402 26.3926 171.201 26.6064 171.201 26.8668V27.511C171.201 27.7811 170.986 28 170.721 28H168.606C168.341 28 168.126 27.7811 168.126 27.511V26.8433C168.126 26.5839 167.927 26.3705 167.673 26.3491C165.444 26.161 163.717 25.5479 162.492 24.5099C161.198 23.3885 160.552 21.8677 160.552 19.9474C160.552 18.0131 161.198 16.4993 162.492 15.406C163.718 14.3675 165.446 13.7482 167.676 13.5481C167.929 13.5254 168.126 13.3125 168.126 13.0541V12.489C168.126 12.2189 168.341 12 168.606 12H170.721C170.986 12 171.201 12.2189 171.201 12.489V13.0307C171.201 13.29 171.4 13.5034 171.654 13.525C173.869 13.7142 175.582 14.3342 176.794 15.385C178.101 16.5064 178.755 18.0272 178.755 19.9474ZM171.201 23.1947C171.201 23.4829 171.445 23.7098 171.725 23.669C172.923 23.4946 173.835 23.1371 174.462 22.5966C175.177 21.9658 175.535 21.0758 175.535 19.9264C175.535 17.8225 174.264 16.5945 171.721 16.2422C171.442 16.2036 171.201 16.4301 171.201 16.7166V23.1947ZM163.792 19.9474C163.792 22.0227 165.061 23.261 167.598 23.6624C167.879 23.7069 168.126 23.4793 168.126 23.1891V16.7207C168.126 16.4327 167.883 16.2058 167.603 16.2461C166.392 16.4203 165.472 16.778 164.845 17.3193C164.143 17.922 163.792 18.7981 163.792 19.9474Z" fill="white"/>
<path d="M188.149 27.6005C186.649 27.6005 185.294 27.2711 184.083 26.6124C182.886 25.9536 181.944 25.0495 181.256 23.9001C180.582 22.7368 180.245 21.4332 180.245 19.9895C180.245 18.5458 180.582 17.2492 181.256 16.0999C181.944 14.9365 182.886 14.0254 184.083 13.3666C185.294 12.7078 186.649 12.3785 188.149 12.3785C189.649 12.3785 190.997 12.7078 192.194 13.3666C193.391 14.0254 194.334 14.9365 195.021 16.0999C195.709 17.2492 196.053 18.5458 196.053 19.9895C196.053 21.4332 195.709 22.7368 195.021 23.9001C194.334 25.0495 193.391 25.9536 192.194 26.6124C190.997 27.2711 189.649 27.6005 188.149 27.6005ZM188.149 24.6991C189.002 24.6991 189.773 24.5028 190.46 24.1104C191.148 23.7039 191.685 23.1432 192.07 22.4284C192.469 21.7135 192.669 20.9006 192.669 19.9895C192.669 19.0784 192.469 18.2654 192.07 17.5506C191.685 16.8357 191.148 16.2821 190.46 15.8896C189.773 15.4831 189.002 15.2799 188.149 15.2799C187.296 15.2799 186.525 15.4831 185.838 15.8896C185.15 16.2821 184.606 16.8357 184.207 17.5506C183.822 18.2654 183.629 19.0784 183.629 19.9895C183.629 20.9006 183.822 21.7135 184.207 22.4284C184.606 23.1432 185.15 23.7039 185.838 24.1104C186.525 24.5028 187.296 24.6991 188.149 24.6991Z" fill="white"/>
<path d="M204.882 12.6307C206.162 12.6307 207.269 12.848 208.205 13.2825C209.154 13.717 209.884 14.3338 210.393 15.1327C210.902 15.9317 211.156 16.8778 211.156 17.9711C211.156 19.0504 210.902 19.9965 210.393 20.8095C209.884 21.6084 209.154 22.2251 208.205 22.6597C207.269 23.0802 206.162 23.2904 204.882 23.2904H202.452C202.187 23.2904 201.972 23.5093 201.972 23.7794V26.8593C201.972 27.1293 201.757 27.3482 201.492 27.3482H199.109C198.844 27.3482 198.629 27.1293 198.629 26.8593V13.1197C198.629 12.8497 198.844 12.6307 199.109 12.6307H204.882ZM204.697 20.5151C205.701 20.5151 206.465 20.2979 206.987 19.8633C207.51 19.4148 207.772 18.7841 207.772 17.9711C207.772 17.1441 207.51 16.5134 206.987 16.0788C206.465 15.6303 205.701 15.406 204.697 15.406H202.452C202.187 15.406 201.972 15.625 201.972 15.895V20.0262C201.972 20.2962 202.187 20.5151 202.452 20.5151H204.697Z" fill="white"/>
<path d="M224 14.9171C224 15.1871 223.785 15.406 223.52 15.406H219.857C219.592 15.406 219.377 15.625 219.377 15.895V26.8593C219.377 27.1293 219.162 27.3482 218.897 27.3482H216.555C216.29 27.3482 216.075 27.1293 216.075 26.8593V15.895C216.075 15.625 215.86 15.406 215.595 15.406H211.953C211.688 15.406 211.473 15.1871 211.473 14.9171V13.1197C211.473 12.8497 211.688 12.6307 211.953 12.6307H223.52C223.785 12.6307 224 12.8497 224 13.1197V14.9171Z" fill="white"/>
<path d="M63.4382 40.659C63.4382 40.7943 63.3303 40.9039 63.1972 40.9039H62.7393C62.6062 40.9039 62.4983 40.7943 62.4983 40.659V35.8382C62.4983 35.703 62.3904 35.5933 62.2573 35.5933H59.5811C59.448 35.5933 59.3401 35.703 59.3401 35.8382V40.659C59.3401 40.7943 59.2322 40.9039 59.0991 40.9039H58.6412C58.5081 40.9039 58.4001 40.7943 58.4001 40.659V34.9977C58.4001 34.8625 58.5081 34.7528 58.6412 34.7528H63.1972C63.3303 34.7528 63.4382 34.8625 63.4382 34.9977V40.659Z" fill="white"/>
<path d="M68.5485 41.0567C67.6462 41.0567 66.9067 40.7596 66.3302 40.1653C65.7537 39.5625 65.4655 38.7814 65.4655 37.822C65.4655 36.922 65.7496 36.1622 66.3177 35.5424C66.8858 34.9141 67.596 34.6 68.4482 34.6C69.3422 34.6 70.0482 34.9141 70.5662 35.5424C71.0926 36.1622 71.3558 36.9475 71.3558 37.8984C71.3558 38.032 71.2492 38.1404 71.1177 38.1404H66.7141C66.5744 38.1404 66.4627 38.2612 66.4856 38.4013C66.5654 38.8904 66.7726 39.3086 67.1073 39.6559C67.4999 40.0634 68.0096 40.2671 68.6362 40.2671C69.2856 40.2671 69.8384 40.074 70.2946 39.6878C70.4093 39.5907 70.5842 39.6018 70.6726 39.7241L70.8322 39.9448C70.9027 40.0423 70.8932 40.1784 70.8038 40.2582C70.2078 40.7906 69.456 41.0567 68.5485 41.0567ZM70.1835 37.4399C70.3181 37.4399 70.4281 37.3275 70.4116 37.1917C70.3597 36.7643 70.1898 36.3758 69.902 36.0263C69.5595 35.6018 69.0707 35.3896 68.4357 35.3896C67.8341 35.3896 67.3579 35.5976 67.007 36.0136C66.72 36.3622 66.5444 36.7524 66.4803 37.1844C66.4597 37.3227 66.5707 37.4399 66.7083 37.4399H70.1835Z" fill="white"/>
<path d="M76.3623 41.0567C75.7677 41.0567 75.2564 40.8811 74.8286 40.5297C74.6464 40.3802 74.3195 40.4976 74.3195 40.7355V43.0023C74.3195 43.1375 74.2116 43.2472 74.0784 43.2472H73.6205C73.4874 43.2472 73.3795 43.1375 73.3795 43.0023V34.9977C73.3795 34.8625 73.4874 34.7528 73.6205 34.7528H74.1012C74.2217 34.7528 74.3195 34.8521 74.3195 34.9746C74.3195 35.1907 74.6216 35.301 74.7876 35.166C74.9127 35.0642 75.0491 34.9732 75.1967 34.8929C75.556 34.6976 75.9445 34.6 76.3623 34.6C77.1644 34.6 77.8119 34.8929 78.3048 35.4787C78.8061 36.056 79.0568 36.8371 79.0568 37.822C79.0568 38.8068 78.8061 39.5922 78.3048 40.178C77.8119 40.7638 77.1644 41.0567 76.3623 41.0567ZM76.1241 40.2035C76.7174 40.2035 77.1894 39.9827 77.5403 39.5412C77.8912 39.0913 78.0667 38.5182 78.0667 37.822C78.0667 37.1258 77.8912 36.557 77.5403 36.1155C77.1894 35.674 76.7174 35.4533 76.1241 35.4533C75.7649 35.4533 75.414 35.5509 75.0714 35.7462C74.7616 35.9193 74.5235 36.129 74.3573 36.3751C74.3318 36.413 74.3195 36.4582 74.3195 36.5041V39.1417C74.3195 39.1865 74.3312 39.2306 74.3555 39.2679C74.5218 39.5231 74.7604 39.7416 75.0714 39.9233C75.414 40.1101 75.7649 40.2035 76.1241 40.2035Z" fill="white"/>
<path d="M83.7849 41.0567C82.8825 41.0567 82.1431 40.7596 81.5666 40.1653C80.9901 39.5625 80.7019 38.7814 80.7019 37.822C80.7019 36.922 80.9859 36.1622 81.5541 35.5424C82.1222 34.9141 82.8324 34.6 83.6846 34.6C84.5786 34.6 85.2846 34.9141 85.8026 35.5424C86.329 36.1622 86.5922 36.9475 86.5922 37.8984C86.5922 38.032 86.4856 38.1404 86.3541 38.1404H81.9505C81.8108 38.1404 81.6991 38.2612 81.722 38.4013C81.8018 38.8904 82.009 39.3086 82.3436 39.6559C82.7363 40.0634 83.246 40.2671 83.8726 40.2671C84.522 40.2671 85.0748 40.074 85.531 39.6878C85.6457 39.5907 85.8206 39.6018 85.909 39.7241L86.0686 39.9448C86.1391 40.0423 86.1296 40.1784 86.0402 40.2582C85.4442 40.7906 84.6924 41.0567 83.7849 41.0567ZM85.4198 37.4399C85.5545 37.4399 85.6644 37.3275 85.648 37.1917C85.5961 36.7643 85.4262 36.3758 85.1384 36.0263C84.7958 35.6018 84.3071 35.3896 83.6721 35.3896C83.0705 35.3896 82.5943 35.5976 82.2434 36.0136C81.9564 36.3622 81.7808 36.7524 81.7167 37.1844C81.6961 37.3227 81.8071 37.4399 81.9447 37.4399H85.4198Z" fill="white"/>
<path d="M92.0122 40.9039H88.8569C88.7238 40.9039 88.6159 40.7943 88.6159 40.659V34.9977C88.6159 34.8625 88.7238 34.7528 88.8569 34.7528H91.9496C92.4759 34.7528 92.8895 34.8971 93.1903 35.1858C93.4994 35.4745 93.654 35.8565 93.654 36.332C93.654 36.6801 93.5579 36.9815 93.3657 37.2362C93.2214 37.4295 93.2349 38.0089 93.3879 38.1953C93.4103 38.2226 93.4321 38.251 93.4535 38.2805C93.6707 38.5691 93.7793 38.8875 93.7793 39.2356C93.7793 39.7365 93.6206 40.1398 93.3031 40.4454C92.9939 40.7511 92.5637 40.9039 92.0122 40.9039ZM91.8242 40.0634C92.125 40.0634 92.3631 39.9785 92.5386 39.8087C92.7141 39.6389 92.8018 39.4096 92.8018 39.121C92.8018 38.8578 92.7141 38.6328 92.5386 38.446C92.3631 38.2592 92.125 38.1658 91.8242 38.1658H89.7969C89.6637 38.1658 89.5558 38.2755 89.5558 38.4107V39.8185C89.5558 39.9537 89.6637 40.0634 89.7969 40.0634H91.8242ZM91.7866 37.3253C92.0707 37.3253 92.2921 37.2489 92.4509 37.0961C92.6096 36.9348 92.689 36.7268 92.689 36.4721C92.689 36.2004 92.6096 35.9881 92.4509 35.8353C92.2921 35.674 92.0707 35.5933 91.7866 35.5933H89.7969C89.6637 35.5933 89.5558 35.703 89.5558 35.8382V37.0804C89.5558 37.2157 89.6637 37.3253 89.7969 37.3253H91.7866Z" fill="white"/>
<path d="M100.869 40.1271C100.326 40.7468 99.6033 41.0567 98.701 41.0567C97.7987 41.0567 97.0718 40.7468 96.5203 40.1271C95.9773 39.5073 95.7057 38.7389 95.7057 37.822C95.7057 36.9051 95.9773 36.141 96.5203 35.5297C97.0718 34.9099 97.7987 34.6 98.701 34.6C99.6033 34.6 100.326 34.9099 100.869 35.5297C101.421 36.141 101.696 36.9051 101.696 37.822C101.696 38.7389 101.421 39.5073 100.869 40.1271ZM97.2222 39.5158C97.5898 39.9742 98.0827 40.2035 98.701 40.2035C99.3193 40.2035 99.808 39.9742 100.167 39.5158C100.527 39.0488 100.706 38.4842 100.706 37.822C100.706 37.1598 100.527 36.5994 100.167 36.141C99.808 35.6825 99.3193 35.4533 98.701 35.4533C98.0827 35.4533 97.5898 35.6867 97.2222 36.1537C96.8629 36.6122 96.6833 37.1683 96.6833 37.822C96.6833 38.4842 96.8629 39.0488 97.2222 39.5158Z" fill="white"/>
<path d="M105.873 41.0567C104.8 41.0567 103.941 40.7704 103.296 40.1977C103.204 40.1167 103.196 39.9777 103.27 39.8802L103.441 39.6551C103.528 39.5398 103.694 39.5279 103.807 39.6179C104.348 40.0507 105.037 40.2671 105.873 40.2671C106.416 40.2671 106.846 40.1695 107.164 39.9742C107.49 39.779 107.653 39.52 107.653 39.1974C107.653 38.5182 107.018 38.1786 105.748 38.1786H104.635C104.502 38.1786 104.394 38.0689 104.394 37.9337V37.6466C104.394 37.5114 104.502 37.4017 104.635 37.4017H105.748C106.274 37.4017 106.704 37.3168 107.038 37.147C107.373 36.9687 107.54 36.7098 107.54 36.3702C107.54 36.0815 107.373 35.848 107.038 35.6697C106.704 35.483 106.282 35.3896 105.773 35.3896C105.032 35.3896 104.42 35.5924 103.937 35.998C103.828 36.0897 103.663 36.0845 103.572 35.9747L103.395 35.7631C103.315 35.6669 103.319 35.5234 103.412 35.4392C104.017 34.8882 104.792 34.6127 105.735 34.6127C106.562 34.6042 107.231 34.7486 107.74 35.0457C108.258 35.3344 108.517 35.7377 108.517 36.2556C108.517 36.6801 108.346 37.0239 108.004 37.2871C107.886 37.3793 107.908 38.0773 108.032 38.1596C108.048 38.17 108.063 38.1805 108.079 38.1913C108.455 38.446 108.643 38.8026 108.643 39.2611C108.643 39.7875 108.392 40.2204 107.891 40.5601C107.398 40.8912 106.725 41.0567 105.873 41.0567Z" fill="white"/>
<path d="M115.675 40.5043C115.803 40.6643 115.691 40.9039 115.488 40.9039H114.908C114.835 40.9039 114.765 40.8702 114.72 40.8122L112.779 38.3523C112.689 38.2389 112.523 38.2292 112.421 38.3312L111.68 39.0745C111.635 39.1205 111.609 39.1833 111.609 39.2488V40.659C111.609 40.7943 111.501 40.9039 111.368 40.9039H110.91C110.777 40.9039 110.669 40.7943 110.669 40.659V34.9977C110.669 34.8625 110.777 34.7528 110.91 34.7528H111.368C111.501 34.7528 111.609 34.8625 111.609 34.9977V37.4296C111.609 37.6484 111.87 37.7574 112.021 37.6017L114.721 34.8256C114.767 34.779 114.828 34.7528 114.893 34.7528H115.41C115.624 34.7528 115.732 35.0138 115.583 35.1689L113.451 37.3855C113.365 37.4746 113.359 37.6147 113.437 37.7113L115.675 40.5043Z" fill="white"/>
<path d="M118.582 40.7965C118.537 40.8637 118.462 40.9039 118.382 40.9039H117.849C117.716 40.9039 117.608 40.7943 117.608 40.659V34.9977C117.608 34.8625 117.716 34.7528 117.849 34.7528H118.307C118.44 34.7528 118.548 34.8625 118.548 34.9977V38.6618C118.548 38.9025 118.854 38.9988 118.987 38.8003L121.647 34.8592C121.692 34.7926 121.766 34.7528 121.845 34.7528H122.405C122.538 34.7528 122.646 34.8625 122.646 34.9977V40.659C122.646 40.7943 122.538 40.9039 122.405 40.9039H121.947C121.814 40.9039 121.706 40.7943 121.706 40.659V36.9129C121.706 36.6716 121.399 36.5758 121.265 36.7755L118.582 40.7965Z" fill="white"/>
<path d="M132.153 40.9039H128.997C128.864 40.9039 128.756 40.7943 128.756 40.659V34.9977C128.756 34.8625 128.864 34.7528 128.997 34.7528H132.09C132.616 34.7528 133.03 34.8971 133.331 35.1858C133.64 35.4745 133.794 35.8565 133.794 36.332C133.794 36.6801 133.698 36.9815 133.506 37.2362C133.362 37.4295 133.375 38.0089 133.528 38.1953C133.551 38.2226 133.573 38.251 133.594 38.2805C133.811 38.5691 133.92 38.8875 133.92 39.2356C133.92 39.7365 133.761 40.1398 133.444 40.4454C133.134 40.7511 132.704 40.9039 132.153 40.9039ZM131.965 40.0634C132.266 40.0634 132.504 39.9785 132.679 39.8087C132.855 39.6389 132.942 39.4096 132.942 39.121C132.942 38.8578 132.855 38.6328 132.679 38.446C132.504 38.2592 132.266 38.1658 131.965 38.1658H129.937C129.804 38.1658 129.696 38.2755 129.696 38.4107V39.8185C129.696 39.9537 129.804 40.0634 129.937 40.0634H131.965ZM131.927 37.3253C132.211 37.3253 132.433 37.2489 132.591 37.0961C132.75 36.9348 132.829 36.7268 132.829 36.4721C132.829 36.2004 132.75 35.9881 132.591 35.8353C132.433 35.674 132.211 35.5933 131.927 35.5933H129.937C129.804 35.5933 129.696 35.703 129.696 35.8382V37.0804C129.696 37.2157 129.804 37.3253 129.937 37.3253H131.927Z" fill="white"/>
<path d="M139.804 43.3599C139.682 43.338 139.607 43.2163 139.629 43.0923L139.688 42.7533C139.715 42.5965 139.882 42.5071 140.037 42.5308C140.106 42.5414 140.179 42.5467 140.255 42.5467C140.473 42.5467 140.652 42.5 140.794 42.4067C140.936 42.3133 141.057 42.1435 141.158 41.8972L141.517 41.0632C141.544 41.0021 141.545 40.9328 141.519 40.8712L139.165 35.0914C139.099 34.9301 139.216 34.7528 139.388 34.7528H139.88C139.978 34.7528 140.066 34.8132 140.103 34.9055L141.836 39.2362C141.918 39.44 142.202 39.4397 142.283 39.2357L144.004 34.906C144.041 34.8134 144.13 34.7528 144.228 34.7528H144.731C144.903 34.7528 145.02 34.9306 144.954 35.0919L142.06 42.1519C141.726 42.967 141.133 43.383 140.28 43.4C140.112 43.4 139.953 43.3866 139.804 43.3599Z" fill="white"/>
<path d="M146.101 42.4703C145.968 42.4703 145.86 42.3607 145.86 42.2254V40.3172C145.86 40.1995 145.944 40.1017 146.052 40.0578C146.271 39.968 146.45 39.8001 146.587 39.554C146.763 39.2313 146.905 38.6413 147.013 37.7838L147.374 34.9661C147.39 34.8441 147.492 34.7528 147.613 34.7528H151.372C151.505 34.7528 151.613 34.8625 151.613 34.9977V39.8185C151.613 39.9537 151.721 40.0634 151.854 40.0634H152.074C152.207 40.0634 152.315 40.173 152.315 40.3083V42.2254C152.315 42.3607 152.207 42.4703 152.074 42.4703H151.616C151.483 42.4703 151.375 42.3607 151.375 42.2254V41.1488C151.375 41.0136 151.267 40.9039 151.134 40.9039H147.041C146.908 40.9039 146.8 41.0136 146.8 41.1488V42.2254C146.8 42.3607 146.692 42.4703 146.559 42.4703H146.101ZM148.442 35.5933C148.321 35.5933 148.218 35.6858 148.203 35.8087L147.953 37.8984C147.863 38.5867 147.711 39.1297 147.497 39.5274C147.389 39.7299 147.529 40.0634 147.756 40.0634H150.432C150.565 40.0634 150.673 39.9537 150.673 39.8185V35.8382C150.673 35.703 150.565 35.5933 150.432 35.5933H148.442Z" fill="white"/>
<path d="M158.914 40.1271C158.371 40.7468 157.648 41.0567 156.745 41.0567C155.843 41.0567 155.116 40.7468 154.565 40.1271C154.022 39.5073 153.75 38.7389 153.75 37.822C153.75 36.9051 154.022 36.141 154.565 35.5297C155.116 34.9099 155.843 34.6 156.745 34.6C157.648 34.6 158.371 34.9099 158.914 35.5297C159.465 36.141 159.741 36.9051 159.741 37.822C159.741 38.7389 159.465 39.5073 158.914 40.1271ZM155.267 39.5158C155.634 39.9742 156.127 40.2035 156.745 40.2035C157.364 40.2035 157.852 39.9742 158.212 39.5158C158.571 39.0488 158.751 38.4842 158.751 37.822C158.751 37.1598 158.571 36.5994 158.212 36.141C157.852 35.6825 157.364 35.4533 156.745 35.4533C156.127 35.4533 155.634 35.6867 155.267 36.1537C154.907 36.6122 154.728 37.1683 154.728 37.822C154.728 38.4842 154.907 39.0488 155.267 39.5158Z" fill="white"/>
<path d="M165.171 40.9039H162.015C161.882 40.9039 161.774 40.7943 161.774 40.659V34.9977C161.774 34.8625 161.882 34.7528 162.015 34.7528H165.108C165.634 34.7528 166.048 34.8971 166.349 35.1858C166.658 35.4745 166.812 35.8565 166.812 36.332C166.812 36.6801 166.716 36.9815 166.524 37.2362C166.38 37.4295 166.393 38.0089 166.546 38.1953C166.569 38.2226 166.591 38.251 166.612 38.2805C166.829 38.5691 166.938 38.8875 166.938 39.2356C166.938 39.7365 166.779 40.1398 166.462 40.4454C166.152 40.7511 165.722 40.9039 165.171 40.9039ZM164.983 40.0634C165.283 40.0634 165.522 39.9785 165.697 39.8087C165.872 39.6389 165.96 39.4096 165.96 39.121C165.96 38.8578 165.872 38.6328 165.697 38.446C165.522 38.2592 165.283 38.1658 164.983 38.1658H162.955C162.822 38.1658 162.714 38.2755 162.714 38.4107V39.8185C162.714 39.9537 162.822 40.0634 162.955 40.0634H164.983ZM164.945 37.3253C165.229 37.3253 165.451 37.2489 165.609 37.0961C165.768 36.9348 165.847 36.7268 165.847 36.4721C165.847 36.2004 165.768 35.9881 165.609 35.8353C165.451 35.674 165.229 35.5933 164.945 35.5933H162.955C162.822 35.5933 162.714 35.703 162.714 35.8382V37.0804C162.714 37.2157 162.822 37.3253 162.955 37.3253H164.945Z" fill="white"/>
<path d="M174.028 40.1271C173.485 40.7468 172.762 41.0567 171.859 41.0567C170.957 41.0567 170.23 40.7468 169.679 40.1271C169.136 39.5073 168.864 38.7389 168.864 37.822C168.864 36.9051 169.136 36.141 169.679 35.5297C170.23 34.9099 170.957 34.6 171.859 34.6C172.762 34.6 173.485 34.9099 174.028 35.5297C174.579 36.141 174.855 36.9051 174.855 37.822C174.855 38.7389 174.579 39.5073 174.028 40.1271ZM170.381 39.5158C170.748 39.9742 171.241 40.2035 171.859 40.2035C172.478 40.2035 172.966 39.9742 173.326 39.5158C173.685 39.0488 173.865 38.4842 173.865 37.822C173.865 37.1598 173.685 36.5994 173.326 36.141C172.966 35.6825 172.478 35.4533 171.859 35.4533C171.241 35.4533 170.748 35.6867 170.381 36.1537C170.021 36.6122 169.842 37.1683 169.842 37.822C169.842 38.4842 170.021 39.0488 170.381 39.5158Z" fill="white"/>
<path d="M176.415 41.0426C176.282 41.0586 176.174 40.9471 176.174 40.8118V40.5121C176.174 40.3768 176.286 40.2721 176.409 40.2189C176.59 40.1402 176.745 39.9653 176.876 39.6941C177.06 39.312 177.21 38.6752 177.327 37.7838L177.688 34.9661C177.704 34.8441 177.806 34.7528 177.927 34.7528H181.685C181.819 34.7528 181.926 34.8625 181.926 34.9977V40.659C181.926 40.7943 181.819 40.9039 181.685 40.9039H181.227C181.094 40.9039 180.986 40.7943 180.986 40.659V35.8382C180.986 35.703 180.879 35.5933 180.745 35.5933H178.756C178.634 35.5933 178.532 35.6858 178.517 35.8087L178.267 37.8984C178.133 39.0276 177.899 39.8384 177.565 40.3308C177.277 40.7473 176.894 40.9846 176.415 41.0426Z" fill="white"/>
<path d="M184.305 34.9977C184.305 34.8625 184.412 34.7528 184.546 34.7528H185.004C185.137 34.7528 185.245 34.8625 185.245 34.9977V36.8894C185.245 37.0246 185.352 37.1343 185.486 37.1343H187.513C188.114 37.1343 188.582 37.3168 188.917 37.6819C189.251 38.0385 189.418 38.4842 189.418 39.0191C189.418 39.554 189.247 40.004 188.904 40.369C188.57 40.7256 188.106 40.9039 187.513 40.9039H184.546C184.412 40.9039 184.305 40.7943 184.305 40.659V34.9977ZM187.413 37.9748H185.486C185.352 37.9748 185.245 38.0845 185.245 38.2197V39.8185C185.245 39.9537 185.352 40.0634 185.486 40.0634H187.413C187.747 40.0634 188.002 39.97 188.177 39.7832C188.361 39.5879 188.453 39.3332 188.453 39.0191C188.453 38.705 188.361 38.4545 188.177 38.2677C188.002 38.0725 187.747 37.9748 187.413 37.9748Z" fill="white"/>
<path d="M194.023 41.0567C193.129 41.0567 192.402 40.7511 191.842 40.1398C191.283 39.52 191.003 38.7474 191.003 37.822C191.003 36.8966 191.283 36.1282 191.842 35.5169C192.402 34.9056 193.129 34.6 194.023 34.6C194.88 34.6 195.572 34.899 196.1 35.4969C196.183 35.5916 196.171 35.7359 196.079 35.822L195.813 36.0699C195.708 36.1688 195.541 36.1508 195.443 36.0439C195.082 35.6501 194.625 35.4533 194.073 35.4533C193.438 35.4533 192.929 35.674 192.544 36.1155C192.168 36.557 191.98 37.1258 191.98 37.822C191.98 38.5182 192.168 39.0913 192.544 39.5412C192.929 39.9827 193.438 40.2035 194.073 40.2035C194.62 40.2035 195.076 40.0054 195.443 39.6093C195.541 39.5036 195.706 39.4866 195.811 39.585L196.079 39.8347C196.171 39.9208 196.183 40.0651 196.1 40.1598C195.572 40.7578 194.88 41.0567 194.023 41.0567Z" fill="white"/>
<path d="M200.103 40.659C200.103 40.7943 199.995 40.9039 199.862 40.9039H199.404C199.271 40.9039 199.163 40.7943 199.163 40.659V35.8382C199.163 35.703 199.055 35.5933 198.922 35.5933H197.649C197.516 35.5933 197.408 35.4837 197.408 35.3484V34.9977C197.408 34.8625 197.516 34.7528 197.649 34.7528H201.629C201.762 34.7528 201.87 34.8625 201.87 34.9977V35.3484C201.87 35.4837 201.762 35.5933 201.629 35.5933H200.344C200.211 35.5933 200.103 35.703 200.103 35.8382V40.659Z" fill="white"/>
<path d="M207 40.9039H203.845C203.712 40.9039 203.604 40.7943 203.604 40.659V34.9977C203.604 34.8625 203.712 34.7528 203.845 34.7528H206.937C207.464 34.7528 207.877 34.8971 208.178 35.1858C208.487 35.4745 208.642 35.8565 208.642 36.332C208.642 36.6801 208.546 36.9815 208.354 37.2362C208.209 37.4295 208.223 38.0089 208.376 38.1953C208.398 38.2226 208.42 38.251 208.441 38.2805C208.659 38.5691 208.767 38.8875 208.767 39.2356C208.767 39.7365 208.608 40.1398 208.291 40.4454C207.982 40.7511 207.552 40.9039 207 40.9039ZM206.812 40.0634C207.113 40.0634 207.351 39.9785 207.526 39.8087C207.702 39.6389 207.79 39.4096 207.79 39.121C207.79 38.8578 207.702 38.6328 207.526 38.446C207.351 38.2592 207.113 38.1658 206.812 38.1658H204.785C204.652 38.1658 204.544 38.2755 204.544 38.4107V39.8185C204.544 39.9537 204.652 40.0634 204.785 40.0634H206.812ZM206.775 37.3253C207.059 37.3253 207.28 37.2489 207.439 37.0961C207.597 36.9348 207.677 36.7268 207.677 36.4721C207.677 36.2004 207.597 35.9881 207.439 35.8353C207.28 35.674 207.059 35.5933 206.775 35.5933H204.785C204.652 35.5933 204.544 35.703 204.544 35.8382V37.0804C204.544 37.2157 204.652 37.3253 204.785 37.3253H206.775Z" fill="white"/>
<path d="M212.019 40.7965C211.974 40.8637 211.899 40.9039 211.819 40.9039H211.286C211.152 40.9039 211.045 40.7943 211.045 40.659V34.9977C211.045 34.8625 211.152 34.7528 211.286 34.7528H211.743C211.877 34.7528 211.984 34.8625 211.984 34.9977V38.6618C211.984 38.9025 212.29 38.9988 212.424 38.8003L215.083 34.8592C215.128 34.7926 215.203 34.7528 215.282 34.7528H215.842C215.975 34.7528 216.083 34.8625 216.083 34.9977V40.659C216.083 40.7943 215.975 40.9039 215.842 40.9039H215.384C215.251 40.9039 215.143 40.7943 215.143 40.659V36.9129C215.143 36.6716 214.835 36.5758 214.702 36.7755L212.019 40.7965Z" fill="white"/>
<path d="M221.193 41.0567C220.291 41.0567 219.551 40.7596 218.975 40.1653C218.398 39.5625 218.11 38.7814 218.11 37.822C218.11 36.922 218.394 36.1622 218.962 35.5424C219.53 34.9141 220.24 34.6 221.093 34.6C221.987 34.6 222.693 34.9141 223.211 35.5424C223.737 36.1622 224 36.9475 224 37.8984C224 38.032 223.894 38.1404 223.762 38.1404H219.358C219.219 38.1404 219.107 38.2612 219.13 38.4013C219.21 38.8904 219.417 39.3086 219.752 39.6559C220.144 40.0634 220.654 40.2671 221.281 40.2671C221.93 40.2671 222.483 40.074 222.939 39.6878C223.054 39.5907 223.229 39.6018 223.317 39.7241L223.477 39.9448C223.547 40.0423 223.538 40.1784 223.448 40.2582C222.852 40.7906 222.1 41.0567 221.193 41.0567ZM222.828 37.4399C222.962 37.4399 223.072 37.3275 223.056 37.1917C223.004 36.7643 222.834 36.3758 222.546 36.0263C222.204 35.6018 221.715 35.3896 221.08 35.3896C220.479 35.3896 220.002 35.5976 219.651 36.0136C219.364 36.3622 219.189 36.7524 219.125 37.1844C219.104 37.3227 219.215 37.4399 219.353 37.4399H222.828Z" fill="white"/>
</svg>
