<svg width="224" height="48" viewBox="0 0 224 48" fill="none" xmlns="http://www.w3.org/2000/svg">
<path d="M45.709 24.9965L32.0476 14.0481L30.9067 13.139C30.4319 12.7596 29.8499 12.5541 29.2449 12.5541H15.4916H14.3659H14.3353C12.9569 12.5541 12.3596 14.3485 13.4393 15.2259L26.7332 26.1348C27.1237 26.4589 27.2003 27.0439 26.9093 27.4628L21.725 34.8145C21.1813 35.5813 21.3498 36.6563 22.1002 37.2097C22.8354 37.7551 23.8615 37.5812 24.3976 36.8224L31.0445 27.3996C31.5652 26.6644 31.4274 25.6289 30.7382 25.0597L20.6606 16.7832C20.3313 16.5065 20.5151 15.9532 20.9439 15.9532H28.1575C28.7395 15.9532 29.3062 16.1508 29.7656 16.5224L41.8113 26.1743C42.2095 26.4905 42.2937 27.0755 42.0027 27.5024L32.7292 40.9171C31.8562 42.1819 30.608 43.1305 29.176 43.6048C24.7881 45.0593 19.734 44.9803 14.611 42.7274C10.2843 40.8223 6.83071 37.2334 5.02349 32.7434C-0.972526 17.9136 9.48794 3.62932 23.1264 3.62932C24.8417 3.62932 26.5034 3.85857 28.0886 4.27753C29.1377 4.56211 30.1715 3.7558 30.1715 2.6333C30.1715 1.85861 29.6661 1.17878 28.9463 0.981154C23.8768 -0.378504 18.1412 -0.00696991 12.3673 2.75187C8.5537 4.57002 5.3834 7.57391 3.30049 11.3051V1.77956C3.30049 0.846768 2.60363 0.0325546 1.70001 0.000934699C0.76577 -0.0306852 0 0.744004 0 1.70841V46.2925C0 47.2332 0.742808 48 1.65408 48C2.56535 48 3.30814 47.2332 3.30814 46.2925V36.4034C7.35909 43.344 14.7335 48 23.1417 48C26.1129 48 28.9539 47.415 31.5652 46.3558L32.04 46.1581C33.0738 45.7392 33.9774 45.0119 34.6207 44.0791L46.0307 27.5814L46.0996 27.4866C46.6127 26.6961 46.4595 25.5973 45.709 24.9965Z" fill="#FF6F3C"/>
<path d="M70.9277 14.9171C70.9277 15.1871 70.7128 15.406 70.4478 15.406H66.7847C66.5197 15.406 66.3048 15.625 66.3048 15.895V26.8593C66.3048 27.1293 66.0899 27.3482 65.8248 27.3482H63.4826C63.2176 27.3482 63.0027 27.1293 63.0027 26.8593V15.895C63.0027 15.625 62.7878 15.406 62.5227 15.406H58.8803C58.6153 15.406 58.4004 15.1871 58.4004 14.9171V13.1197C58.4004 12.8497 58.6153 12.6307 58.8803 12.6307H70.4478C70.7128 12.6307 70.9277 12.8497 70.9277 13.1197V14.9171Z" fill="#142D3B"/>
<path d="M84.6392 12.6307C84.9043 12.6307 85.1192 12.8497 85.1192 13.1197V26.8593C85.1192 27.1293 84.9043 27.3482 84.6392 27.3482H82.297C82.0319 27.3482 81.8171 27.1293 81.8171 26.8593V15.895C81.8171 15.625 81.6022 15.406 81.3371 15.406H77.3277C77.069 15.406 76.8569 15.6149 76.848 15.8783L76.7607 18.4757C76.6919 20.5642 76.5268 22.2602 76.2654 23.5637C76.004 24.8533 75.5637 25.8484 74.9446 26.5493C74.3392 27.2361 73.4861 27.5795 72.3854 27.5795C72.0283 27.5795 71.6115 27.5318 71.1351 27.4364C70.9035 27.39 70.7471 27.1716 70.7642 26.9317L70.8969 25.0801C70.9194 24.7667 71.2309 24.5519 71.5393 24.5519V24.5519C72.3373 24.5519 72.8945 24.0753 73.211 23.1222C73.5274 22.1551 73.7269 20.6483 73.8095 18.6018L73.9996 13.1025C74.0086 12.8393 74.2207 12.6307 74.4792 12.6307H84.6392Z" fill="#142D3B"/>
<path d="M94.462 21.643C94.3736 21.5035 94.2217 21.4192 94.0587 21.4192H92.4887C92.2236 21.4192 92.0087 21.6381 92.0087 21.9081V26.8593C92.0087 27.1293 91.7939 27.3482 91.5288 27.3482H89.166C88.9009 27.3482 88.686 27.1293 88.686 26.8593V13.1197C88.686 12.8497 88.9009 12.6307 89.166 12.6307H91.5288C91.7939 12.6307 92.0087 12.8497 92.0087 13.1197V18.0919C92.0087 18.3619 92.2236 18.5808 92.4887 18.5808H94.1423C94.3048 18.5808 94.4562 18.4971 94.5447 18.3584L98.0582 12.8532C98.1468 12.7144 98.2982 12.6307 98.4606 12.6307H100.824C101.209 12.6307 101.438 13.0693 101.222 13.394L97.1821 19.4681C97.0737 19.6311 97.0718 19.8445 97.1774 20.0094L101.39 26.5922C101.598 26.9175 101.369 27.3482 100.988 27.3482H98.3378C98.1748 27.3482 98.0229 27.2639 97.9346 27.1244L94.462 21.643Z" fill="#142D3B"/>
<path d="M115.483 21.643C115.395 21.5035 115.243 21.4192 115.08 21.4192H113.51C113.245 21.4192 113.03 21.6381 113.03 21.9081V26.8593C113.03 27.1293 112.815 27.3482 112.55 27.3482H110.187C109.922 27.3482 109.707 27.1293 109.707 26.8593V13.1197C109.707 12.8497 109.922 12.6307 110.187 12.6307H112.55C112.815 12.6307 113.03 12.8497 113.03 13.1197V18.0919C113.03 18.3619 113.245 18.5808 113.51 18.5808H115.163C115.326 18.5808 115.477 18.4971 115.566 18.3584L119.079 12.8532C119.168 12.7144 119.319 12.6307 119.482 12.6307H121.845C122.23 12.6307 122.459 13.0693 122.243 13.394L118.203 19.4681C118.095 19.6311 118.093 19.8445 118.198 20.0094L122.411 26.5922C122.619 26.9175 122.39 27.3482 122.009 27.3482H119.359C119.196 27.3482 119.044 27.2639 118.956 27.1244L115.483 21.643Z" fill="#142D3B"/>
<path d="M131.294 27.6005C129.794 27.6005 128.439 27.2711 127.228 26.6124C126.031 25.9536 125.089 25.0495 124.401 23.9001C123.726 22.7368 123.389 21.4332 123.389 19.9895C123.389 18.5458 123.726 17.2492 124.401 16.0999C125.089 14.9365 126.031 14.0254 127.228 13.3666C128.439 12.7078 129.794 12.3785 131.294 12.3785C132.793 12.3785 134.142 12.7078 135.339 13.3666C136.536 14.0254 137.478 14.9365 138.166 16.0999C138.854 17.2492 139.198 18.5458 139.198 19.9895C139.198 21.4332 138.854 22.7368 138.166 23.9001C137.478 25.0495 136.536 25.9536 135.339 26.6124C134.142 27.2711 132.793 27.6005 131.294 27.6005ZM131.294 24.6991C132.147 24.6991 132.917 24.5028 133.605 24.1104C134.293 23.7039 134.83 23.1432 135.215 22.4284C135.614 21.7135 135.813 20.9006 135.813 19.9895C135.813 19.0784 135.614 18.2654 135.215 17.5506C134.83 16.8357 134.293 16.2821 133.605 15.8896C132.917 15.4831 132.147 15.2799 131.294 15.2799C130.441 15.2799 129.67 15.4831 128.982 15.8896C128.294 16.2821 127.751 16.8357 127.352 17.5506C126.967 18.2654 126.774 19.0784 126.774 19.9895C126.774 20.9006 126.967 21.7135 127.352 22.4284C127.751 23.1432 128.294 23.7039 128.982 24.1104C129.67 24.5028 130.441 24.6991 131.294 24.6991Z" fill="#142D3B"/>
<path d="M155.399 27.3482C155.134 27.3482 154.92 27.13 154.919 26.8604L154.904 20.3032C154.902 19.8073 154.261 19.6279 154.012 20.0537L150.788 25.5541C150.701 25.7019 150.545 25.7924 150.376 25.7924H149.431C149.264 25.7924 149.109 25.7038 149.022 25.5584L145.8 20.1893C145.547 19.768 144.911 19.9506 144.911 20.4443V26.8593C144.911 27.1293 144.696 27.3482 144.431 27.3482H142.254C141.989 27.3482 141.774 27.1293 141.774 26.8593V13.1197C141.774 12.8497 141.989 12.6307 142.254 12.6307H144.268C144.436 12.6307 144.592 12.7206 144.679 12.8674L149.532 21.0758C149.719 21.3927 150.171 21.3911 150.356 21.073L155.132 12.8703C155.218 12.7218 155.375 12.6307 155.544 12.6307H157.557C157.822 12.6307 158.037 12.8492 158.037 13.119L158.056 26.8586C158.057 27.1289 157.842 27.3482 157.576 27.3482H155.399Z" fill="#142D3B"/>
<path d="M178.755 19.9474C178.755 21.8958 178.101 23.4306 176.794 24.5519C175.583 25.5892 173.87 26.196 171.657 26.3723C171.402 26.3926 171.201 26.6064 171.201 26.8668V27.511C171.201 27.7811 170.986 28 170.721 28H168.606C168.341 28 168.126 27.7811 168.126 27.511V26.8433C168.126 26.5839 167.927 26.3705 167.674 26.3491C165.445 26.161 163.717 25.5479 162.492 24.5099C161.199 23.3885 160.552 21.8677 160.552 19.9474C160.552 18.0131 161.199 16.4993 162.492 15.406C163.718 14.3675 165.446 13.7482 167.676 13.5481C167.929 13.5254 168.126 13.3125 168.126 13.0541V12.489C168.126 12.2189 168.341 12 168.606 12H170.721C170.986 12 171.201 12.2189 171.201 12.489V13.0307C171.201 13.29 171.4 13.5034 171.654 13.525C173.869 13.7142 175.582 14.3342 176.794 15.385C178.101 16.5064 178.755 18.0272 178.755 19.9474ZM171.201 23.1947C171.201 23.4829 171.445 23.7098 171.725 23.669C172.923 23.4946 173.835 23.1371 174.462 22.5966C175.178 21.9658 175.535 21.0758 175.535 19.9264C175.535 17.8225 174.264 16.5945 171.721 16.2422C171.442 16.2036 171.201 16.4301 171.201 16.7166V23.1947ZM163.792 19.9474C163.792 22.0227 165.061 23.261 167.598 23.6624C167.879 23.7069 168.126 23.4793 168.126 23.1891V16.7207C168.126 16.4327 167.883 16.2058 167.603 16.2461C166.392 16.4203 165.473 16.778 164.845 17.3193C164.143 17.922 163.792 18.7981 163.792 19.9474Z" fill="#142D3B"/>
<path d="M188.149 27.6005C186.65 27.6005 185.294 27.2711 184.084 26.6124C182.887 25.9536 181.944 25.0495 181.256 23.9001C180.582 22.7368 180.245 21.4332 180.245 19.9895C180.245 18.5458 180.582 17.2492 181.256 16.0999C181.944 14.9365 182.887 14.0254 184.084 13.3666C185.294 12.7078 186.65 12.3785 188.149 12.3785C189.649 12.3785 190.997 12.7078 192.194 13.3666C193.391 14.0254 194.334 14.9365 195.022 16.0999C195.71 17.2492 196.054 18.5458 196.054 19.9895C196.054 21.4332 195.71 22.7368 195.022 23.9001C194.334 25.0495 193.391 25.9536 192.194 26.6124C190.997 27.2711 189.649 27.6005 188.149 27.6005ZM188.149 24.6991C189.002 24.6991 189.773 24.5028 190.461 24.1104C191.149 23.7039 191.685 23.1432 192.071 22.4284C192.47 21.7135 192.669 20.9006 192.669 19.9895C192.669 19.0784 192.47 18.2654 192.071 17.5506C191.685 16.8357 191.149 16.2821 190.461 15.8896C189.773 15.4831 189.002 15.2799 188.149 15.2799C187.296 15.2799 186.526 15.4831 185.838 15.8896C185.15 16.2821 184.606 16.8357 184.207 17.5506C183.822 18.2654 183.63 19.0784 183.63 19.9895C183.63 20.9006 183.822 21.7135 184.207 22.4284C184.606 23.1432 185.15 23.7039 185.838 24.1104C186.526 24.5028 187.296 24.6991 188.149 24.6991Z" fill="#142D3B"/>
<path d="M204.883 12.6307C206.162 12.6307 207.27 12.848 208.205 13.2825C209.155 13.717 209.884 14.3338 210.393 15.1327C210.902 15.9317 211.157 16.8778 211.157 17.9711C211.157 19.0504 210.902 19.9965 210.393 20.8095C209.884 21.6084 209.155 22.2251 208.205 22.6597C207.27 23.0802 206.162 23.2904 204.883 23.2904H202.453C202.187 23.2904 201.973 23.5093 201.973 23.7794V26.8593C201.973 27.1293 201.758 27.3482 201.493 27.3482H199.109C198.844 27.3482 198.629 27.1293 198.629 26.8593V13.1197C198.629 12.8497 198.844 12.6307 199.109 12.6307H204.883ZM204.697 20.5151C205.701 20.5151 206.465 20.2979 206.988 19.8633C207.51 19.4148 207.772 18.7841 207.772 17.9711C207.772 17.1441 207.51 16.5134 206.988 16.0788C206.465 15.6303 205.701 15.406 204.697 15.406H202.453C202.187 15.406 201.973 15.625 201.973 15.895V20.0262C201.973 20.2962 202.187 20.5151 202.453 20.5151H204.697Z" fill="#142D3B"/>
<path d="M224 14.9171C224 15.1871 223.786 15.406 223.52 15.406H219.857C219.592 15.406 219.377 15.625 219.377 15.895V26.8593C219.377 27.1293 219.163 27.3482 218.898 27.3482H216.555C216.29 27.3482 216.075 27.1293 216.075 26.8593V15.895C216.075 15.625 215.86 15.406 215.595 15.406H211.953C211.688 15.406 211.473 15.1871 211.473 14.9171V13.1197C211.473 12.8497 211.688 12.6307 211.953 12.6307H223.52C223.786 12.6307 224 12.8497 224 13.1197V14.9171Z" fill="#142D3B"/>
<path d="M63.4385 40.659C63.4385 40.7942 63.3306 40.9039 63.1975 40.9039H62.7396C62.6064 40.9039 62.4985 40.7942 62.4985 40.659V35.8382C62.4985 35.703 62.3906 35.5933 62.2575 35.5933H59.5813C59.4482 35.5933 59.3403 35.703 59.3403 35.8382V40.659C59.3403 40.7942 59.2324 40.9039 59.0993 40.9039H58.6414C58.5083 40.9039 58.4004 40.7942 58.4004 40.659V34.9977C58.4004 34.8624 58.5083 34.7528 58.6414 34.7528H63.1975C63.3306 34.7528 63.4385 34.8624 63.4385 34.9977V40.659Z" fill="#142D3B"/>
<path d="M68.5487 41.0567C67.6464 41.0567 66.907 40.7596 66.3305 40.1652C65.754 39.5624 65.4657 38.7814 65.4657 37.822C65.4657 36.922 65.7498 36.1622 66.3179 35.5424C66.8861 34.9141 67.5963 34.6 68.4485 34.6C69.3425 34.6 70.0485 34.9141 70.5665 35.5424C71.0929 36.1622 71.356 36.9475 71.356 37.8984V37.8984C71.356 38.032 71.2494 38.1404 71.1179 38.1404H66.7144C66.5746 38.1404 66.463 38.2612 66.4858 38.4013C66.5656 38.8904 66.7729 39.3086 67.1075 39.6558C67.5002 40.0634 68.0098 40.2671 68.6365 40.2671C69.2859 40.2671 69.8387 40.074 70.2949 39.6878C70.4095 39.5907 70.5845 39.6018 70.6728 39.724L70.8325 39.9448C70.9029 40.0423 70.8935 40.1783 70.804 40.2582C70.208 40.7905 69.4563 41.0567 68.5487 41.0567ZM70.1837 37.4399C70.3183 37.4399 70.4283 37.3275 70.4118 37.1917C70.3599 36.7643 70.1901 36.3758 69.9023 36.0263C69.5597 35.6018 69.0709 35.3896 68.436 35.3896C67.8344 35.3896 67.3581 35.5976 67.0072 36.0136C66.7202 36.3621 66.5447 36.7524 66.4805 37.1844C66.46 37.3227 66.571 37.4399 66.7086 37.4399H70.1837Z" fill="#142D3B"/>
<path d="M76.3625 41.0567C75.7679 41.0567 75.2567 40.881 74.8288 40.5297C74.6467 40.3802 74.3197 40.4976 74.3197 40.7355V43.0022C74.3197 43.1375 74.2118 43.2472 74.0787 43.2472H73.6208C73.4877 43.2472 73.3798 43.1375 73.3798 43.0022V34.9977C73.3798 34.8624 73.4877 34.7528 73.6208 34.7528H74.1014C74.222 34.7528 74.3197 34.8521 74.3197 34.9746V34.9746C74.3197 35.1907 74.6219 35.301 74.7878 35.166C74.9129 35.0642 75.0493 34.9732 75.197 34.8929C75.5562 34.6976 75.9448 34.6 76.3625 34.6C77.1646 34.6 77.8121 34.8929 78.3051 35.4787C78.8064 36.056 79.057 36.8371 79.057 37.822C79.057 38.8068 78.8064 39.5922 78.3051 40.178C77.8121 40.7638 77.1646 41.0567 76.3625 41.0567ZM76.1244 40.2034C76.7176 40.2034 77.1897 39.9827 77.5406 39.5412C77.8915 39.0912 78.0669 38.5182 78.0669 37.822C78.0669 37.1258 77.8915 36.5569 77.5406 36.1155C77.1897 35.674 76.7176 35.4532 76.1244 35.4532C75.7651 35.4532 75.4142 35.5509 75.0717 35.7461C74.7618 35.9193 74.5238 36.129 74.3576 36.3751C74.332 36.4129 74.3197 36.4582 74.3197 36.5041V39.1417C74.3197 39.1864 74.3314 39.2306 74.3557 39.2679C74.522 39.5231 74.7607 39.7416 75.0717 39.9233C75.4142 40.1101 75.7651 40.2034 76.1244 40.2034Z" fill="#142D3B"/>
<path d="M83.7851 41.0567C82.8828 41.0567 82.1434 40.7596 81.5669 40.1652C80.9904 39.5624 80.7021 38.7814 80.7021 37.822C80.7021 36.922 80.9862 36.1622 81.5543 35.5424C82.1225 34.9141 82.8327 34.6 83.6849 34.6C84.5789 34.6 85.2849 34.9141 85.8029 35.5424C86.3292 36.1622 86.5924 36.9475 86.5924 37.8984V37.8984C86.5924 38.032 86.4858 38.1404 86.3543 38.1404H81.9508C81.811 38.1404 81.6994 38.2612 81.7222 38.4013C81.802 38.8904 82.0092 39.3086 82.3439 39.6558C82.7366 40.0634 83.2462 40.2671 83.8729 40.2671C84.5222 40.2671 85.075 40.074 85.5313 39.6878C85.6459 39.5907 85.8209 39.6018 85.9092 39.724L86.0689 39.9448C86.1393 40.0423 86.1298 40.1783 86.0404 40.2582C85.4444 40.7905 84.6926 41.0567 83.7851 41.0567ZM85.4201 37.4399C85.5547 37.4399 85.6647 37.3275 85.6482 37.1917C85.5963 36.7643 85.4264 36.3758 85.1386 36.0263C84.7961 35.6018 84.3073 35.3896 83.6723 35.3896C83.0708 35.3896 82.5945 35.5976 82.2436 36.0136C81.9566 36.3621 81.781 36.7524 81.7169 37.1844C81.6964 37.3227 81.8073 37.4399 81.9449 37.4399H85.4201Z" fill="#142D3B"/>
<path d="M92.0125 40.9039H88.8572C88.724 40.9039 88.6161 40.7942 88.6161 40.659V34.9977C88.6161 34.8624 88.724 34.7528 88.8572 34.7528H91.9498C92.4762 34.7528 92.8898 34.8971 93.1905 35.1858C93.4997 35.4745 93.6542 35.8565 93.6542 36.332C93.6542 36.6801 93.5582 36.9815 93.366 37.2362V37.2362C93.2216 37.4295 93.2351 38.0089 93.3881 38.1953C93.4105 38.2226 93.4324 38.2509 93.4537 38.2804C93.671 38.5691 93.7796 38.8875 93.7796 39.2356C93.7796 39.7365 93.6208 40.1398 93.3033 40.4454C92.9942 40.7511 92.5639 40.9039 92.0125 40.9039ZM91.8245 40.0634C92.1253 40.0634 92.3634 39.9785 92.5388 39.8087C92.7143 39.6389 92.802 39.4096 92.802 39.121C92.802 38.8578 92.7143 38.6328 92.5388 38.446C92.3634 38.2592 92.1253 38.1658 91.8245 38.1658H89.7971C89.664 38.1658 89.5561 38.2755 89.5561 38.4107V39.8185C89.5561 39.9537 89.664 40.0634 89.7971 40.0634H91.8245ZM91.7869 37.3253C92.071 37.3253 92.2924 37.2489 92.4511 37.0961C92.6099 36.9348 92.6892 36.7267 92.6892 36.472C92.6892 36.2004 92.6099 35.9881 92.4511 35.8353C92.2924 35.674 92.071 35.5933 91.7869 35.5933H89.7971C89.664 35.5933 89.5561 35.703 89.5561 35.8382V37.0804C89.5561 37.2157 89.664 37.3253 89.7971 37.3253H91.7869Z" fill="#142D3B"/>
<path d="M100.869 40.127C100.326 40.7468 99.6036 41.0567 98.7012 41.0567C97.7989 41.0567 97.072 40.7468 96.5206 40.127C95.9775 39.5073 95.706 38.7389 95.706 37.822C95.706 36.905 95.9775 36.1409 96.5206 35.5296C97.072 34.9099 97.7989 34.6 98.7012 34.6C99.6036 34.6 100.326 34.9099 100.869 35.5296C101.421 36.1409 101.697 36.905 101.697 37.822C101.697 38.7389 101.421 39.5073 100.869 40.127ZM97.2224 39.5158C97.59 39.9742 98.083 40.2034 98.7012 40.2034C99.3195 40.2034 99.8083 39.9742 100.168 39.5158C100.527 39.0488 100.706 38.4842 100.706 37.822C100.706 37.1597 100.527 36.5994 100.168 36.1409C99.8083 35.6825 99.3195 35.4532 98.7012 35.4532C98.083 35.4532 97.59 35.6867 97.2224 36.1537C96.8631 36.6121 96.6835 37.1682 96.6835 37.822C96.6835 38.4842 96.8631 39.0488 97.2224 39.5158Z" fill="#142D3B"/>
<path d="M105.873 41.0567C104.8 41.0567 103.941 40.7703 103.296 40.1976C103.205 40.1166 103.196 39.9776 103.27 39.8801L103.441 39.6551C103.529 39.5398 103.695 39.5279 103.807 39.6179C104.348 40.0507 105.037 40.2671 105.873 40.2671C106.416 40.2671 106.847 40.1695 107.164 39.9742C107.49 39.7789 107.653 39.52 107.653 39.1974C107.653 38.5182 107.018 38.1786 105.748 38.1786H104.635C104.502 38.1786 104.394 38.0689 104.394 37.9337V37.6466C104.394 37.5114 104.502 37.4017 104.635 37.4017H105.748C106.274 37.4017 106.705 37.3168 107.039 37.147C107.373 36.9687 107.54 36.7098 107.54 36.3702C107.54 36.0815 107.373 35.848 107.039 35.6697C106.705 35.4829 106.283 35.3896 105.773 35.3896C105.032 35.3896 104.42 35.5924 103.937 35.998C103.828 36.0897 103.664 36.0845 103.572 35.9747L103.396 35.7631C103.315 35.6668 103.319 35.5234 103.412 35.4392C104.017 34.8882 104.792 34.6127 105.735 34.6127C106.563 34.6042 107.231 34.7486 107.741 35.0457C108.259 35.3344 108.518 35.7377 108.518 36.2555C108.518 36.6801 108.346 37.0239 108.004 37.2871V37.2871C107.887 37.3793 107.908 38.0773 108.032 38.1596C108.048 38.1699 108.063 38.1805 108.079 38.1913C108.455 38.446 108.643 38.8026 108.643 39.261C108.643 39.7874 108.392 40.2204 107.891 40.56C107.398 40.8911 106.725 41.0567 105.873 41.0567Z" fill="#142D3B"/>
<path d="M115.675 40.5043C115.803 40.6643 115.691 40.9039 115.488 40.9039H114.908C114.835 40.9039 114.766 40.8702 114.72 40.8122L112.779 38.3522C112.689 38.2389 112.523 38.2291 112.421 38.3312L111.681 39.0745C111.635 39.1205 111.609 39.1833 111.609 39.2488V40.659C111.609 40.7942 111.501 40.9039 111.368 40.9039H110.91C110.777 40.9039 110.669 40.7942 110.669 40.659V34.9977C110.669 34.8624 110.777 34.7528 110.91 34.7528H111.368C111.501 34.7528 111.609 34.8624 111.609 34.9977V37.4295C111.609 37.6484 111.87 37.7574 112.021 37.6017L114.722 34.8255C114.767 34.779 114.829 34.7528 114.893 34.7528H115.41C115.624 34.7528 115.732 35.0138 115.583 35.1689L113.451 37.3855C113.366 37.4745 113.359 37.6147 113.437 37.7113L115.675 40.5043Z" fill="#142D3B"/>
<path d="M118.582 40.7964C118.537 40.8636 118.463 40.9039 118.383 40.9039H117.849C117.716 40.9039 117.608 40.7942 117.608 40.659V34.9977C117.608 34.8624 117.716 34.7528 117.849 34.7528H118.307C118.44 34.7528 118.548 34.8624 118.548 34.9977V38.6618C118.548 38.9025 118.854 38.9988 118.988 38.8003L121.647 34.8592C121.692 34.7926 121.766 34.7528 121.846 34.7528H122.405C122.538 34.7528 122.646 34.8624 122.646 34.9977V40.659C122.646 40.7942 122.538 40.9039 122.405 40.9039H121.947C121.814 40.9039 121.706 40.7942 121.706 40.659V36.9129C121.706 36.6716 121.399 36.5757 121.266 36.7754L118.582 40.7964Z" fill="#142D3B"/>
<path d="M132.153 40.9039H128.998C128.865 40.9039 128.757 40.7942 128.757 40.659V34.9977C128.757 34.8624 128.865 34.7528 128.998 34.7528H132.09C132.617 34.7528 133.03 34.8971 133.331 35.1858C133.64 35.4745 133.795 35.8565 133.795 36.332C133.795 36.6801 133.699 36.9815 133.506 37.2362V37.2362C133.362 37.4295 133.376 38.0089 133.529 38.1953C133.551 38.2226 133.573 38.2509 133.594 38.2804C133.811 38.5691 133.92 38.8875 133.92 39.2356C133.92 39.7365 133.761 40.1398 133.444 40.4454C133.135 40.7511 132.704 40.9039 132.153 40.9039ZM131.965 40.0634C132.266 40.0634 132.504 39.9785 132.679 39.8087C132.855 39.6389 132.943 39.4096 132.943 39.121C132.943 38.8578 132.855 38.6328 132.679 38.446C132.504 38.2592 132.266 38.1658 131.965 38.1658H129.938C129.804 38.1658 129.697 38.2755 129.697 38.4107V39.8185C129.697 39.9537 129.804 40.0634 129.938 40.0634H131.965ZM131.927 37.3253C132.211 37.3253 132.433 37.2489 132.592 37.0961C132.75 36.9348 132.83 36.7267 132.83 36.472C132.83 36.2004 132.75 35.9881 132.592 35.8353C132.433 35.674 132.211 35.5933 131.927 35.5933H129.938C129.804 35.5933 129.697 35.703 129.697 35.8382V37.0804C129.697 37.2157 129.804 37.3253 129.938 37.3253H131.927Z" fill="#142D3B"/>
<path d="M139.804 43.3598C139.682 43.338 139.608 43.2163 139.629 43.0923L139.688 42.7533C139.715 42.5965 139.882 42.507 140.037 42.5308C140.107 42.5414 140.179 42.5467 140.256 42.5467C140.473 42.5467 140.652 42.5 140.794 42.4066C140.936 42.3132 141.058 42.1434 141.158 41.8972L141.518 41.0631C141.544 41.0021 141.545 40.9327 141.52 40.8711L139.165 35.0914C139.1 34.9301 139.216 34.7528 139.388 34.7528H139.88C139.978 34.7528 140.067 34.8132 140.104 34.9055L141.836 39.2362C141.918 39.44 142.202 39.4396 142.283 39.2357L144.005 34.906C144.041 34.8134 144.13 34.7528 144.228 34.7528H144.732C144.904 34.7528 145.02 34.9306 144.954 35.0919L142.06 42.1519C141.726 42.967 141.133 43.383 140.281 43.4C140.112 43.4 139.954 43.3866 139.804 43.3598Z" fill="#142D3B"/>
<path d="M146.102 42.4703C145.968 42.4703 145.861 42.3607 145.861 42.2254V40.3172C145.861 40.1995 145.945 40.1017 146.052 40.0578C146.272 39.968 146.45 39.8001 146.587 39.554C146.763 39.2313 146.905 38.6413 147.014 37.7838L147.375 34.9661C147.39 34.8441 147.493 34.7528 147.614 34.7528H151.372C151.505 34.7528 151.613 34.8624 151.613 34.9977V39.8185C151.613 39.9537 151.721 40.0634 151.854 40.0634H152.074C152.207 40.0634 152.315 40.173 152.315 40.3083V42.2254C152.315 42.3607 152.207 42.4703 152.074 42.4703H151.616C151.483 42.4703 151.375 42.3607 151.375 42.2254V41.1488C151.375 41.0135 151.267 40.9039 151.134 40.9039H147.042C146.908 40.9039 146.801 41.0135 146.801 41.1488V42.2254C146.801 42.3607 146.693 42.4703 146.559 42.4703H146.102ZM148.443 35.5933C148.321 35.5933 148.218 35.6857 148.203 35.8087L147.954 37.8984C147.863 38.5867 147.711 39.1297 147.498 39.5274C147.389 39.7299 147.529 40.0634 147.756 40.0634H150.432C150.565 40.0634 150.673 39.9537 150.673 39.8185V35.8382C150.673 35.703 150.565 35.5933 150.432 35.5933H148.443Z" fill="#142D3B"/>
<path d="M158.914 40.127C158.371 40.7468 157.648 41.0567 156.746 41.0567C155.843 41.0567 155.116 40.7468 154.565 40.127C154.022 39.5073 153.75 38.7389 153.75 37.822C153.75 36.905 154.022 36.1409 154.565 35.5296C155.116 34.9099 155.843 34.6 156.746 34.6C157.648 34.6 158.371 34.9099 158.914 35.5296C159.465 36.1409 159.741 36.905 159.741 37.822C159.741 38.7389 159.465 39.5073 158.914 40.127ZM155.267 39.5158C155.634 39.9742 156.127 40.2034 156.746 40.2034C157.364 40.2034 157.853 39.9742 158.212 39.5158C158.571 39.0488 158.751 38.4842 158.751 37.822C158.751 37.1597 158.571 36.5994 158.212 36.1409C157.853 35.6825 157.364 35.4532 156.746 35.4532C156.127 35.4532 155.634 35.6867 155.267 36.1537C154.908 36.6121 154.728 37.1682 154.728 37.822C154.728 38.4842 154.908 39.0488 155.267 39.5158Z" fill="#142D3B"/>
<path d="M165.171 40.9039H162.016C161.882 40.9039 161.775 40.7942 161.775 40.659V34.9977C161.775 34.8624 161.882 34.7528 162.016 34.7528H165.108C165.635 34.7528 166.048 34.8971 166.349 35.1858C166.658 35.4745 166.813 35.8565 166.813 36.332C166.813 36.6801 166.717 36.9815 166.524 37.2362V37.2362C166.38 37.4295 166.394 38.0089 166.547 38.1953C166.569 38.2226 166.591 38.2509 166.612 38.2804C166.829 38.5691 166.938 38.8875 166.938 39.2356C166.938 39.7365 166.779 40.1398 166.462 40.4454C166.153 40.7511 165.722 40.9039 165.171 40.9039ZM164.983 40.0634C165.284 40.0634 165.522 39.9785 165.697 39.8087C165.873 39.6389 165.96 39.4096 165.96 39.121C165.96 38.8578 165.873 38.6328 165.697 38.446C165.522 38.2592 165.284 38.1658 164.983 38.1658H162.956C162.822 38.1658 162.715 38.2755 162.715 38.4107V39.8185C162.715 39.9537 162.822 40.0634 162.956 40.0634H164.983ZM164.945 37.3253C165.229 37.3253 165.451 37.2489 165.61 37.0961C165.768 36.9348 165.848 36.7267 165.848 36.472C165.848 36.2004 165.768 35.9881 165.61 35.8353C165.451 35.674 165.229 35.5933 164.945 35.5933H162.956C162.822 35.5933 162.715 35.703 162.715 35.8382V37.0804C162.715 37.2157 162.822 37.3253 162.956 37.3253H164.945Z" fill="#142D3B"/>
<path d="M174.028 40.127C173.485 40.7468 172.762 41.0567 171.86 41.0567C170.957 41.0567 170.23 40.7468 169.679 40.127C169.136 39.5073 168.864 38.7389 168.864 37.822C168.864 36.905 169.136 36.1409 169.679 35.5296C170.23 34.9099 170.957 34.6 171.86 34.6C172.762 34.6 173.485 34.9099 174.028 35.5296C174.579 36.1409 174.855 36.905 174.855 37.822C174.855 38.7389 174.579 39.5073 174.028 40.127ZM170.381 39.5158C170.748 39.9742 171.241 40.2034 171.86 40.2034C172.478 40.2034 172.967 39.9742 173.326 39.5158C173.685 39.0488 173.865 38.4842 173.865 37.822C173.865 37.1597 173.685 36.5994 173.326 36.1409C172.967 35.6825 172.478 35.4532 171.86 35.4532C171.241 35.4532 170.748 35.6867 170.381 36.1537C170.022 36.6121 169.842 37.1682 169.842 37.822C169.842 38.4842 170.022 39.0488 170.381 39.5158Z" fill="#142D3B"/>
<path d="M176.415 41.0426C176.283 41.0586 176.174 40.9471 176.174 40.8118V40.512C176.174 40.3768 176.286 40.2721 176.409 40.2189C176.59 40.1402 176.746 39.9653 176.876 39.694C177.06 39.312 177.21 38.6752 177.327 37.7838L177.688 34.9661C177.704 34.8441 177.806 34.7528 177.927 34.7528H181.686C181.819 34.7528 181.927 34.8624 181.927 34.9977V40.659C181.927 40.7942 181.819 40.9039 181.686 40.9039H181.228C181.095 40.9039 180.987 40.7942 180.987 40.659V35.8382C180.987 35.703 180.879 35.5933 180.746 35.5933H178.756C178.635 35.5933 178.532 35.6857 178.517 35.8087L178.267 37.8984C178.133 39.0276 177.9 39.8384 177.565 40.3308C177.278 40.7473 176.894 40.9845 176.415 41.0426Z" fill="#142D3B"/>
<path d="M184.305 34.9977C184.305 34.8624 184.413 34.7528 184.546 34.7528H185.004C185.137 34.7528 185.245 34.8624 185.245 34.9977V36.8894C185.245 37.0246 185.353 37.1343 185.486 37.1343H187.513C188.115 37.1343 188.583 37.3168 188.917 37.6819C189.251 38.0385 189.418 38.4842 189.418 39.0191C189.418 39.554 189.247 40.0039 188.904 40.369C188.57 40.7256 188.106 40.9039 187.513 40.9039H184.546C184.413 40.9039 184.305 40.7942 184.305 40.659V34.9977ZM187.413 37.9748H185.486C185.353 37.9748 185.245 38.0844 185.245 38.2197V39.8185C185.245 39.9537 185.353 40.0634 185.486 40.0634H187.413C187.747 40.0634 188.002 39.97 188.177 39.7832C188.361 39.5879 188.453 39.3332 188.453 39.0191C188.453 38.7049 188.361 38.4545 188.177 38.2677C188.002 38.0724 187.747 37.9748 187.413 37.9748Z" fill="#142D3B"/>
<path d="M194.023 41.0567C193.129 41.0567 192.402 40.7511 191.843 40.1398C191.283 39.52 191.003 38.7474 191.003 37.822C191.003 36.8966 191.283 36.1282 191.843 35.5169C192.402 34.9056 193.129 34.6 194.023 34.6C194.88 34.6 195.572 34.8989 196.1 35.4969C196.184 35.5916 196.171 35.7359 196.079 35.822L195.814 36.0698C195.708 36.1688 195.542 36.1508 195.443 36.0439C195.082 35.6501 194.625 35.4532 194.073 35.4532C193.439 35.4532 192.929 35.674 192.545 36.1155C192.169 36.5569 191.981 37.1258 191.981 37.822C191.981 38.5182 192.169 39.0912 192.545 39.5412C192.929 39.9827 193.439 40.2034 194.073 40.2034C194.62 40.2034 195.077 40.0054 195.444 39.6093C195.542 39.5036 195.706 39.4866 195.812 39.5849L196.079 39.8347C196.171 39.9208 196.184 40.0651 196.1 40.1598C195.572 40.7577 194.88 41.0567 194.023 41.0567Z" fill="#142D3B"/>
<path d="M200.103 40.659C200.103 40.7942 199.995 40.9039 199.862 40.9039H199.404C199.271 40.9039 199.163 40.7942 199.163 40.659V35.8382C199.163 35.703 199.055 35.5933 198.922 35.5933H197.65C197.517 35.5933 197.409 35.4837 197.409 35.3484V34.9977C197.409 34.8624 197.517 34.7528 197.65 34.7528H201.629C201.762 34.7528 201.87 34.8624 201.87 34.9977V35.3484C201.87 35.4837 201.762 35.5933 201.629 35.5933H200.344C200.211 35.5933 200.103 35.703 200.103 35.8382V40.659Z" fill="#142D3B"/>
<path d="M207 40.9039H203.845C203.712 40.9039 203.604 40.7942 203.604 40.659V34.9977C203.604 34.8624 203.712 34.7528 203.845 34.7528H206.938C207.464 34.7528 207.878 34.8971 208.178 35.1858C208.488 35.4745 208.642 35.8565 208.642 36.332C208.642 36.6801 208.546 36.9815 208.354 37.2362V37.2362C208.209 37.4295 208.223 38.0089 208.376 38.1953C208.398 38.2226 208.42 38.2509 208.442 38.2804C208.659 38.5691 208.767 38.8875 208.767 39.2356C208.767 39.7365 208.609 40.1398 208.291 40.4454C207.982 40.7511 207.552 40.9039 207 40.9039ZM206.812 40.0634C207.113 40.0634 207.351 39.9785 207.527 39.8087C207.702 39.6389 207.79 39.4096 207.79 39.121C207.79 38.8578 207.702 38.6328 207.527 38.446C207.351 38.2592 207.113 38.1658 206.812 38.1658H204.785C204.652 38.1658 204.544 38.2755 204.544 38.4107V39.8185C204.544 39.9537 204.652 40.0634 204.785 40.0634H206.812ZM206.775 37.3253C207.059 37.3253 207.28 37.2489 207.439 37.0961C207.598 36.9348 207.677 36.7267 207.677 36.472C207.677 36.2004 207.598 35.9881 207.439 35.8353C207.28 35.674 207.059 35.5933 206.775 35.5933H204.785C204.652 35.5933 204.544 35.703 204.544 35.8382V37.0804C204.544 37.2157 204.652 37.3253 204.785 37.3253H206.775Z" fill="#142D3B"/>
<path d="M212.019 40.7964C211.974 40.8636 211.899 40.9039 211.819 40.9039H211.286C211.153 40.9039 211.045 40.7942 211.045 40.659V34.9977C211.045 34.8624 211.153 34.7528 211.286 34.7528H211.744C211.877 34.7528 211.985 34.8624 211.985 34.9977V38.6618C211.985 38.9025 212.291 38.9988 212.424 38.8003L215.084 34.8592C215.129 34.7926 215.203 34.7528 215.282 34.7528H215.842C215.975 34.7528 216.083 34.8624 216.083 34.9977V40.659C216.083 40.7942 215.975 40.9039 215.842 40.9039H215.384C215.251 40.9039 215.143 40.7942 215.143 40.659V36.9129C215.143 36.6716 214.836 36.5757 214.702 36.7754L212.019 40.7964Z" fill="#142D3B"/>
<path d="M221.193 41.0567C220.291 41.0567 219.551 40.7596 218.975 40.1652C218.398 39.5624 218.11 38.7814 218.11 37.822C218.11 36.922 218.394 36.1622 218.962 35.5424C219.53 34.9141 220.241 34.6 221.093 34.6C221.987 34.6 222.693 34.9141 223.211 35.5424C223.737 36.1622 224 36.9475 224 37.8984V37.8984C224 38.032 223.894 38.1404 223.762 38.1404H219.359C219.219 38.1404 219.107 38.2612 219.13 38.4013C219.21 38.8904 219.417 39.3086 219.752 39.6558C220.145 40.0634 220.654 40.2671 221.281 40.2671C221.93 40.2671 222.483 40.074 222.939 39.6878C223.054 39.5907 223.229 39.6018 223.317 39.724L223.477 39.9448C223.547 40.0423 223.538 40.1783 223.448 40.2582C222.852 40.7905 222.101 41.0567 221.193 41.0567ZM222.828 37.4399C222.963 37.4399 223.073 37.3275 223.056 37.1917C223.004 36.7643 222.834 36.3758 222.547 36.0263C222.204 35.6018 221.715 35.3896 221.08 35.3896C220.479 35.3896 220.003 35.5976 219.652 36.0136C219.365 36.3621 219.189 36.7524 219.125 37.1844C219.104 37.3227 219.215 37.4399 219.353 37.4399H222.828Z" fill="#142D3B"/>
</svg>
