<svg width="438" height="95" viewBox="0 0 438 95" fill="none" xmlns="http://www.w3.org/2000/svg">
<path d="M88.8609 49.7273L88.8607 49.7271L62.2099 28.3689L62.2088 28.368L59.9839 26.5954L59.9834 26.5949C59.1449 25.9248 58.1193 25.5631 57.0536 25.5631H30.2225H28.0264H27.9666C25.785 25.5631 24.7641 28.4493 26.534 29.8876L26.5359 29.8892L52.4707 51.1712L52.4728 51.1729C53.4374 51.9734 53.6214 53.4064 52.9078 54.4338L52.9057 54.4367L42.7917 68.779L42.791 68.78C41.8858 70.0566 42.1701 71.8455 43.4119 72.7612L43.4131 72.762C44.6153 73.654 46.3001 73.3774 47.1886 72.1195L60.1558 53.737L60.1564 53.7362C61.0214 52.5149 60.7903 50.7896 59.6492 49.8465C59.6489 49.8463 59.6487 49.8461 59.6484 49.8459L39.9892 33.7002L39.9849 33.6966L39.9849 33.6966C39.0208 32.8865 39.51 31.1945 40.8593 31.1945H54.9322C56.181 31.1945 57.3974 31.6186 58.3832 32.4154C58.3834 32.4156 58.3837 32.4158 58.3839 32.416L81.8802 51.2433C81.8804 51.2434 81.8806 51.2436 81.8808 51.2438C82.8677 52.028 83.0671 53.4639 82.3559 54.5073L82.354 54.51L64.2626 80.6804L88.8609 49.7273ZM88.8609 49.7273C90.1143 50.7307 90.3803 52.5788 89.5228 53.9119L89.3963 54.086L89.3962 54.0859L89.3896 54.0955L67.1299 86.2807L67.1295 86.2813C65.9293 88.0217 64.2437 89.3775 62.3187 90.1576L62.3144 90.1594L61.3923 90.5432C61.3917 90.5435 61.391 90.5438 61.3904 90.544C56.3546 92.5865 50.8764 93.7143 45.1469 93.7143C28.9343 93.7143 14.7058 84.7369 6.88565 71.3385L5.95382 69.742V71.5906V90.8832C5.95382 92.4574 4.71372 93.7143 3.22693 93.7143C1.74013 93.7143 0.5 92.4573 0.5 90.8832V3.90446C0.5 2.28628 1.77868 1.02175 3.29936 1.07306C4.75409 1.12414 5.9389 2.45234 5.9389 4.04325V22.6265V24.5479L6.87548 22.8702C10.8897 15.6794 16.9983 9.89281 24.3423 6.39146L24.3427 6.39128C35.5014 1.05957 46.5682 0.34771 56.3399 2.96817C57.516 3.29171 58.3613 4.41214 58.3613 5.70881C58.3613 7.58402 56.6434 8.8991 54.9287 8.43396L54.9256 8.43313C51.793 7.60519 48.5083 7.15195 45.1171 7.15195C18.1421 7.15195 -2.48871 35.3902 9.33673 64.6377C12.9102 73.5154 19.7404 80.6153 28.3029 84.3856L28.3031 84.3857M88.8609 49.7273L28.3031 84.3857M28.3031 84.3857C38.4099 88.8303 48.3976 88.9913 57.0765 86.1144M28.3031 84.3857L57.0765 86.1144M57.0765 86.1144C59.9765 85.1539 62.4995 83.2347 64.2624 80.6807L57.0765 86.1144Z" stroke="white" stroke-opacity="0.1"/>
<mask id="path-2-outside-1_532_760" maskUnits="userSpaceOnUse" x="112.932" y="22.9819" width="326" height="34" fill="black">
<rect fill="white" x="112.932" y="22.9819" width="326" height="34"/>
<path d="M138.372 29.6729C138.372 30.1997 137.952 30.6268 137.435 30.6268H130.289C129.772 30.6268 129.353 31.0538 129.353 31.5806V52.9708C129.353 53.4976 128.934 53.9247 128.417 53.9247H123.847C123.33 53.9247 122.911 53.4976 122.911 52.9708V31.5806C122.911 31.0538 122.492 30.6268 121.974 30.6268H114.869C114.351 30.6268 113.932 30.1997 113.932 29.6729V26.1663C113.932 25.6395 114.351 25.2125 114.869 25.2125H137.435C137.952 25.2125 138.372 25.6395 138.372 26.1663V29.6729Z"/>
<path d="M165.121 25.2125C165.638 25.2125 166.058 25.6395 166.058 26.1663V52.9708C166.058 53.4976 165.638 53.9247 165.121 53.9247H160.552C160.035 53.9247 159.616 53.4976 159.616 52.9708V31.5806C159.616 31.0538 159.196 30.6268 158.679 30.6268H150.857C150.353 30.6268 149.939 31.0342 149.922 31.548L149.751 36.6153C149.617 40.6897 149.295 43.9984 148.785 46.5415C148.275 49.0573 147.416 50.9987 146.208 52.366C145.027 53.7059 143.363 54.3758 141.216 54.3758C140.519 54.3758 139.706 54.2828 138.776 54.0966C138.324 54.0061 138.019 53.5801 138.053 53.1121L138.312 49.4998C138.355 48.8884 138.963 48.4693 139.565 48.4693C141.122 48.4693 142.209 47.5396 142.826 45.6801C143.443 43.7933 143.833 40.8538 143.994 36.8614L144.365 26.1328C144.382 25.6193 144.796 25.2125 145.3 25.2125H165.121Z"/>
<path d="M184.285 42.7944C184.112 42.5222 183.816 42.3577 183.498 42.3577H180.435C179.918 42.3577 179.498 42.7848 179.498 43.3116V52.9708C179.498 53.4976 179.079 53.9247 178.562 53.9247H173.953C173.435 53.9247 173.016 53.4976 173.016 52.9708V26.1663C173.016 25.6395 173.435 25.2125 173.953 25.2125H178.562C179.079 25.2125 179.498 25.6395 179.498 26.1663V35.8665C179.498 36.3933 179.918 36.8204 180.435 36.8204H183.661C183.978 36.8204 184.273 36.6571 184.446 36.3865L191.3 25.6464C191.473 25.3757 191.768 25.2125 192.085 25.2125H196.697C197.448 25.2125 197.893 26.068 197.472 26.7014L189.591 38.5515C189.38 38.8695 189.376 39.2857 189.582 39.6075L197.8 52.4498C198.206 53.0843 197.759 53.9247 197.016 53.9247H191.846C191.528 53.9247 191.232 53.7602 191.059 53.488L184.285 42.7944Z"/>
<path d="M225.294 42.7944C225.122 42.5222 224.826 42.3577 224.508 42.3577H221.445C220.927 42.3577 220.508 42.7848 220.508 43.3116V52.9708C220.508 53.4976 220.089 53.9247 219.572 53.9247H214.962C214.445 53.9247 214.026 53.4976 214.026 52.9708V26.1663C214.026 25.6395 214.445 25.2125 214.962 25.2125H219.572C220.089 25.2125 220.508 25.6395 220.508 26.1663V35.8665C220.508 36.3933 220.927 36.8204 221.445 36.8204H224.671C224.988 36.8204 225.283 36.6571 225.456 36.3865L232.31 25.6464C232.483 25.3757 232.778 25.2125 233.095 25.2125H237.707C238.458 25.2125 238.903 26.068 238.482 26.7014L230.601 38.5515C230.389 38.8695 230.386 39.2857 230.592 39.6075L238.81 52.4498C239.216 53.0843 238.769 53.9247 238.026 53.9247H232.856C232.538 53.9247 232.241 53.7602 232.069 53.488L225.294 42.7944Z"/>
<path d="M256.139 54.4169C253.213 54.4169 250.57 53.7743 248.207 52.489C245.872 51.2038 244.034 49.4401 242.691 47.1978C241.376 44.9282 240.719 42.3851 240.719 39.5686C240.719 36.752 241.376 34.2226 242.691 31.9803C244.034 29.7107 245.872 27.9333 248.207 26.6481C250.57 25.3629 253.213 24.7202 256.139 24.7202C259.065 24.7202 261.695 25.3629 264.031 26.6481C266.366 27.9333 268.205 29.7107 269.547 31.9803C270.889 34.2226 271.56 36.752 271.56 39.5686C271.56 42.3851 270.889 44.9282 269.547 47.1978C268.205 49.4401 266.366 51.2038 264.031 52.489C261.695 53.7743 259.065 54.4169 256.139 54.4169ZM256.139 48.7565C257.803 48.7565 259.307 48.3736 260.649 47.608C261.991 46.815 263.038 45.7212 263.789 44.3266C264.567 42.932 264.957 41.346 264.957 39.5686C264.957 37.7911 264.567 36.2051 263.789 34.8105C263.038 33.4159 261.991 32.3358 260.649 31.5702C259.307 30.7772 257.803 30.3807 256.139 30.3807C254.475 30.3807 252.972 30.7772 251.63 31.5702C250.288 32.3358 249.227 33.4159 248.449 34.8105C247.697 36.2051 247.322 37.7911 247.322 39.5686C247.322 41.346 247.697 42.932 248.449 44.3266C249.227 45.7212 250.288 46.815 251.63 47.608C252.972 48.3736 254.475 48.7565 256.139 48.7565Z"/>
<path d="M303.166 53.9247C302.65 53.9247 302.231 53.499 302.23 52.973L302.2 40.1805C302.197 39.2132 300.946 38.8632 300.459 39.6938L294.17 50.4245C294.001 50.7128 293.696 50.8894 293.366 50.8894H291.524C291.197 50.8894 290.895 50.7165 290.725 50.433L284.44 39.9584C283.946 39.1365 282.704 39.4926 282.704 40.4559V52.9708C282.704 53.4976 282.285 53.9247 281.768 53.9247H277.521C277.004 53.9247 276.584 53.4976 276.584 52.9708V26.1663C276.584 25.6395 277.004 25.2125 277.521 25.2125H281.451C281.779 25.2125 282.083 25.3877 282.253 25.6742L291.72 41.6879C292.086 42.306 292.966 42.3029 293.328 41.6824L302.644 25.6797C302.813 25.3901 303.119 25.2125 303.45 25.2125H307.376C307.893 25.2125 308.312 25.6387 308.313 26.165L308.35 52.9694C308.351 53.4968 307.932 53.9247 307.414 53.9247H303.166Z"/>
<path d="M348.731 39.4865C348.731 43.2875 347.456 46.2817 344.906 48.4693C342.542 50.4929 339.201 51.6767 334.883 52.0207C334.386 52.0603 333.995 52.4775 333.995 52.9855V54.2423C333.995 54.7691 333.575 55.1962 333.058 55.1962H328.932C328.415 55.1962 327.996 54.7691 327.996 54.2423V52.9397C327.996 52.4336 327.607 52.0173 327.112 51.9755C322.764 51.6086 319.394 50.4125 317.004 48.3873C314.481 46.1997 313.219 43.2328 313.219 39.4865C313.219 35.7129 314.481 32.7597 317.004 30.6268C319.395 28.6008 322.767 27.3925 327.118 27.002C327.61 26.9578 327.996 26.5424 327.996 26.0384V24.9358C327.996 24.409 328.415 23.9819 328.932 23.9819H333.058C333.575 23.9819 333.995 24.409 333.995 24.9358V25.9926C333.995 26.4986 334.383 26.9148 334.877 26.9571C339.199 27.3261 342.541 28.5357 344.906 30.5857C347.456 32.7733 348.731 35.7403 348.731 39.4865ZM333.995 45.8215C333.995 46.3837 334.47 46.8265 335.016 46.747C337.353 46.4066 339.133 45.7092 340.356 44.6547C341.752 43.4242 342.45 41.6878 342.45 39.4455C342.45 35.341 339.969 32.9452 335.009 32.2581C334.465 32.1828 333.995 32.6246 333.995 33.1836V45.8215ZM319.54 39.4865C319.54 43.535 322.015 45.9508 326.965 46.7339C327.514 46.8208 327.996 46.3767 327.996 45.8106V33.1916C327.996 32.6297 327.521 32.1871 326.974 32.2657C324.612 32.6055 322.819 33.3034 321.594 34.3593C320.225 35.5352 319.54 37.2442 319.54 39.4865Z"/>
<path d="M367.058 54.4169C364.132 54.4169 361.489 53.7743 359.126 52.489C356.791 51.2038 354.953 49.4401 353.61 47.1978C352.295 44.9282 351.638 42.3851 351.638 39.5686C351.638 36.752 352.295 34.2226 353.61 31.9803C354.953 29.7107 356.791 27.9333 359.126 26.6481C361.489 25.3629 364.132 24.7202 367.058 24.7202C369.984 24.7202 372.614 25.3629 374.95 26.6481C377.285 27.9333 379.124 29.7107 380.466 31.9803C381.808 34.2226 382.479 36.752 382.479 39.5686C382.479 42.3851 381.808 44.9282 380.466 47.1978C379.124 49.4401 377.285 51.2038 374.95 52.489C372.614 53.7743 369.984 54.4169 367.058 54.4169ZM367.058 48.7565C368.722 48.7565 370.226 48.3736 371.568 47.608C372.91 46.815 373.957 45.7212 374.708 44.3266C375.487 42.932 375.876 41.346 375.876 39.5686C375.876 37.7911 375.487 36.2051 374.708 34.8105C373.957 33.4159 372.91 32.3358 371.568 31.5702C370.226 30.7772 368.722 30.3807 367.058 30.3807C365.394 30.3807 363.891 30.7772 362.549 31.5702C361.207 32.3358 360.146 33.4159 359.368 34.8105C358.616 36.2051 358.241 37.7911 358.241 39.5686C358.241 41.346 358.616 42.932 359.368 44.3266C360.146 45.7212 361.207 46.815 362.549 47.608C363.891 48.3736 365.394 48.7565 367.058 48.7565Z"/>
<path d="M399.703 25.2125C402.199 25.2125 404.36 25.6363 406.185 26.484C408.037 27.3317 409.46 28.5349 410.453 30.0935C411.446 31.6522 411.943 33.498 411.943 35.6309C411.943 37.7364 411.446 39.5822 410.453 41.1682C409.46 42.7269 408.037 43.9301 406.185 44.7778C404.36 45.5981 402.199 46.0083 399.703 46.0083H394.962C394.445 46.0083 394.026 46.4354 394.026 46.9622V52.9708C394.026 53.4976 393.607 53.9247 393.09 53.9247H388.44C387.923 53.9247 387.503 53.4976 387.503 52.9708V26.1663C387.503 25.6395 387.923 25.2125 388.44 25.2125H399.703ZM399.341 40.594C401.3 40.594 402.79 40.1701 403.81 39.3225C404.83 38.4474 405.34 37.2169 405.34 35.6309C405.34 34.0175 404.83 32.787 403.81 31.9393C402.79 31.0643 401.3 30.6268 399.341 30.6268H394.962C394.445 30.6268 394.026 31.0538 394.026 31.5806V39.6401C394.026 40.1669 394.445 40.594 394.962 40.594H399.341Z"/>
<path d="M437 29.6729C437 30.1997 436.581 30.6268 436.064 30.6268H428.917C428.4 30.6268 427.981 31.0538 427.981 31.5806V52.9708C427.981 53.4976 427.562 53.9247 427.045 53.9247H422.475C421.958 53.9247 421.539 53.4976 421.539 52.9708V31.5806C421.539 31.0538 421.12 30.6268 420.603 30.6268H413.497C412.98 30.6268 412.56 30.1997 412.56 29.6729V26.1663C412.56 25.6395 412.98 25.2125 413.497 25.2125H436.064C436.581 25.2125 437 25.6395 437 26.1663V29.6729Z"/>
</mask>
<path d="M138.372 29.6729C138.372 30.1997 137.952 30.6268 137.435 30.6268H130.289C129.772 30.6268 129.353 31.0538 129.353 31.5806V52.9708C129.353 53.4976 128.934 53.9247 128.417 53.9247H123.847C123.33 53.9247 122.911 53.4976 122.911 52.9708V31.5806C122.911 31.0538 122.492 30.6268 121.974 30.6268H114.869C114.351 30.6268 113.932 30.1997 113.932 29.6729V26.1663C113.932 25.6395 114.351 25.2125 114.869 25.2125H137.435C137.952 25.2125 138.372 25.6395 138.372 26.1663V29.6729Z" stroke="white" stroke-opacity="0.1" stroke-width="2" mask="url(#path-2-outside-1_532_760)"/>
<path d="M165.121 25.2125C165.638 25.2125 166.058 25.6395 166.058 26.1663V52.9708C166.058 53.4976 165.638 53.9247 165.121 53.9247H160.552C160.035 53.9247 159.616 53.4976 159.616 52.9708V31.5806C159.616 31.0538 159.196 30.6268 158.679 30.6268H150.857C150.353 30.6268 149.939 31.0342 149.922 31.548L149.751 36.6153C149.617 40.6897 149.295 43.9984 148.785 46.5415C148.275 49.0573 147.416 50.9987 146.208 52.366C145.027 53.7059 143.363 54.3758 141.216 54.3758C140.519 54.3758 139.706 54.2828 138.776 54.0966C138.324 54.0061 138.019 53.5801 138.053 53.1121L138.312 49.4998C138.355 48.8884 138.963 48.4693 139.565 48.4693C141.122 48.4693 142.209 47.5396 142.826 45.6801C143.443 43.7933 143.833 40.8538 143.994 36.8614L144.365 26.1328C144.382 25.6193 144.796 25.2125 145.3 25.2125H165.121Z" stroke="white" stroke-opacity="0.1" stroke-width="2" mask="url(#path-2-outside-1_532_760)"/>
<path d="M184.285 42.7944C184.112 42.5222 183.816 42.3577 183.498 42.3577H180.435C179.918 42.3577 179.498 42.7848 179.498 43.3116V52.9708C179.498 53.4976 179.079 53.9247 178.562 53.9247H173.953C173.435 53.9247 173.016 53.4976 173.016 52.9708V26.1663C173.016 25.6395 173.435 25.2125 173.953 25.2125H178.562C179.079 25.2125 179.498 25.6395 179.498 26.1663V35.8665C179.498 36.3933 179.918 36.8204 180.435 36.8204H183.661C183.978 36.8204 184.273 36.6571 184.446 36.3865L191.3 25.6464C191.473 25.3757 191.768 25.2125 192.085 25.2125H196.697C197.448 25.2125 197.893 26.068 197.472 26.7014L189.591 38.5515C189.38 38.8695 189.376 39.2857 189.582 39.6075L197.8 52.4498C198.206 53.0843 197.759 53.9247 197.016 53.9247H191.846C191.528 53.9247 191.232 53.7602 191.059 53.488L184.285 42.7944Z" stroke="white" stroke-opacity="0.1" stroke-width="2" mask="url(#path-2-outside-1_532_760)"/>
<path d="M225.294 42.7944C225.122 42.5222 224.826 42.3577 224.508 42.3577H221.445C220.927 42.3577 220.508 42.7848 220.508 43.3116V52.9708C220.508 53.4976 220.089 53.9247 219.572 53.9247H214.962C214.445 53.9247 214.026 53.4976 214.026 52.9708V26.1663C214.026 25.6395 214.445 25.2125 214.962 25.2125H219.572C220.089 25.2125 220.508 25.6395 220.508 26.1663V35.8665C220.508 36.3933 220.927 36.8204 221.445 36.8204H224.671C224.988 36.8204 225.283 36.6571 225.456 36.3865L232.31 25.6464C232.483 25.3757 232.778 25.2125 233.095 25.2125H237.707C238.458 25.2125 238.903 26.068 238.482 26.7014L230.601 38.5515C230.389 38.8695 230.386 39.2857 230.592 39.6075L238.81 52.4498C239.216 53.0843 238.769 53.9247 238.026 53.9247H232.856C232.538 53.9247 232.241 53.7602 232.069 53.488L225.294 42.7944Z" stroke="white" stroke-opacity="0.1" stroke-width="2" mask="url(#path-2-outside-1_532_760)"/>
<path d="M256.139 54.4169C253.213 54.4169 250.57 53.7743 248.207 52.489C245.872 51.2038 244.034 49.4401 242.691 47.1978C241.376 44.9282 240.719 42.3851 240.719 39.5686C240.719 36.752 241.376 34.2226 242.691 31.9803C244.034 29.7107 245.872 27.9333 248.207 26.6481C250.57 25.3629 253.213 24.7202 256.139 24.7202C259.065 24.7202 261.695 25.3629 264.031 26.6481C266.366 27.9333 268.205 29.7107 269.547 31.9803C270.889 34.2226 271.56 36.752 271.56 39.5686C271.56 42.3851 270.889 44.9282 269.547 47.1978C268.205 49.4401 266.366 51.2038 264.031 52.489C261.695 53.7743 259.065 54.4169 256.139 54.4169ZM256.139 48.7565C257.803 48.7565 259.307 48.3736 260.649 47.608C261.991 46.815 263.038 45.7212 263.789 44.3266C264.567 42.932 264.957 41.346 264.957 39.5686C264.957 37.7911 264.567 36.2051 263.789 34.8105C263.038 33.4159 261.991 32.3358 260.649 31.5702C259.307 30.7772 257.803 30.3807 256.139 30.3807C254.475 30.3807 252.972 30.7772 251.63 31.5702C250.288 32.3358 249.227 33.4159 248.449 34.8105C247.697 36.2051 247.322 37.7911 247.322 39.5686C247.322 41.346 247.697 42.932 248.449 44.3266C249.227 45.7212 250.288 46.815 251.63 47.608C252.972 48.3736 254.475 48.7565 256.139 48.7565Z" stroke="white" stroke-opacity="0.1" stroke-width="2" mask="url(#path-2-outside-1_532_760)"/>
<path d="M303.166 53.9247C302.65 53.9247 302.231 53.499 302.23 52.973L302.2 40.1805C302.197 39.2132 300.946 38.8632 300.459 39.6938L294.17 50.4245C294.001 50.7128 293.696 50.8894 293.366 50.8894H291.524C291.197 50.8894 290.895 50.7165 290.725 50.433L284.44 39.9584C283.946 39.1365 282.704 39.4926 282.704 40.4559V52.9708C282.704 53.4976 282.285 53.9247 281.768 53.9247H277.521C277.004 53.9247 276.584 53.4976 276.584 52.9708V26.1663C276.584 25.6395 277.004 25.2125 277.521 25.2125H281.451C281.779 25.2125 282.083 25.3877 282.253 25.6742L291.72 41.6879C292.086 42.306 292.966 42.3029 293.328 41.6824L302.644 25.6797C302.813 25.3901 303.119 25.2125 303.45 25.2125H307.376C307.893 25.2125 308.312 25.6387 308.313 26.165L308.35 52.9694C308.351 53.4968 307.932 53.9247 307.414 53.9247H303.166Z" stroke="white" stroke-opacity="0.1" stroke-width="2" mask="url(#path-2-outside-1_532_760)"/>
<path d="M348.731 39.4865C348.731 43.2875 347.456 46.2817 344.906 48.4693C342.542 50.4929 339.201 51.6767 334.883 52.0207C334.386 52.0603 333.995 52.4775 333.995 52.9855V54.2423C333.995 54.7691 333.575 55.1962 333.058 55.1962H328.932C328.415 55.1962 327.996 54.7691 327.996 54.2423V52.9397C327.996 52.4336 327.607 52.0173 327.112 51.9755C322.764 51.6086 319.394 50.4125 317.004 48.3873C314.481 46.1997 313.219 43.2328 313.219 39.4865C313.219 35.7129 314.481 32.7597 317.004 30.6268C319.395 28.6008 322.767 27.3925 327.118 27.002C327.61 26.9578 327.996 26.5424 327.996 26.0384V24.9358C327.996 24.409 328.415 23.9819 328.932 23.9819H333.058C333.575 23.9819 333.995 24.409 333.995 24.9358V25.9926C333.995 26.4986 334.383 26.9148 334.877 26.9571C339.199 27.3261 342.541 28.5357 344.906 30.5857C347.456 32.7733 348.731 35.7403 348.731 39.4865ZM333.995 45.8215C333.995 46.3837 334.47 46.8265 335.016 46.747C337.353 46.4066 339.133 45.7092 340.356 44.6547C341.752 43.4242 342.45 41.6878 342.45 39.4455C342.45 35.341 339.969 32.9452 335.009 32.2581C334.465 32.1828 333.995 32.6246 333.995 33.1836V45.8215ZM319.54 39.4865C319.54 43.535 322.015 45.9508 326.965 46.7339C327.514 46.8208 327.996 46.3767 327.996 45.8106V33.1916C327.996 32.6297 327.521 32.1871 326.974 32.2657C324.612 32.6055 322.819 33.3034 321.594 34.3593C320.225 35.5352 319.54 37.2442 319.54 39.4865Z" stroke="white" stroke-opacity="0.1" stroke-width="2" mask="url(#path-2-outside-1_532_760)"/>
<path d="M367.058 54.4169C364.132 54.4169 361.489 53.7743 359.126 52.489C356.791 51.2038 354.953 49.4401 353.61 47.1978C352.295 44.9282 351.638 42.3851 351.638 39.5686C351.638 36.752 352.295 34.2226 353.61 31.9803C354.953 29.7107 356.791 27.9333 359.126 26.6481C361.489 25.3629 364.132 24.7202 367.058 24.7202C369.984 24.7202 372.614 25.3629 374.95 26.6481C377.285 27.9333 379.124 29.7107 380.466 31.9803C381.808 34.2226 382.479 36.752 382.479 39.5686C382.479 42.3851 381.808 44.9282 380.466 47.1978C379.124 49.4401 377.285 51.2038 374.95 52.489C372.614 53.7743 369.984 54.4169 367.058 54.4169ZM367.058 48.7565C368.722 48.7565 370.226 48.3736 371.568 47.608C372.91 46.815 373.957 45.7212 374.708 44.3266C375.487 42.932 375.876 41.346 375.876 39.5686C375.876 37.7911 375.487 36.2051 374.708 34.8105C373.957 33.4159 372.91 32.3358 371.568 31.5702C370.226 30.7772 368.722 30.3807 367.058 30.3807C365.394 30.3807 363.891 30.7772 362.549 31.5702C361.207 32.3358 360.146 33.4159 359.368 34.8105C358.616 36.2051 358.241 37.7911 358.241 39.5686C358.241 41.346 358.616 42.932 359.368 44.3266C360.146 45.7212 361.207 46.815 362.549 47.608C363.891 48.3736 365.394 48.7565 367.058 48.7565Z" stroke="white" stroke-opacity="0.1" stroke-width="2" mask="url(#path-2-outside-1_532_760)"/>
<path d="M399.703 25.2125C402.199 25.2125 404.36 25.6363 406.185 26.484C408.037 27.3317 409.46 28.5349 410.453 30.0935C411.446 31.6522 411.943 33.498 411.943 35.6309C411.943 37.7364 411.446 39.5822 410.453 41.1682C409.46 42.7269 408.037 43.9301 406.185 44.7778C404.36 45.5981 402.199 46.0083 399.703 46.0083H394.962C394.445 46.0083 394.026 46.4354 394.026 46.9622V52.9708C394.026 53.4976 393.607 53.9247 393.09 53.9247H388.44C387.923 53.9247 387.503 53.4976 387.503 52.9708V26.1663C387.503 25.6395 387.923 25.2125 388.44 25.2125H399.703ZM399.341 40.594C401.3 40.594 402.79 40.1701 403.81 39.3225C404.83 38.4474 405.34 37.2169 405.34 35.6309C405.34 34.0175 404.83 32.787 403.81 31.9393C402.79 31.0643 401.3 30.6268 399.341 30.6268H394.962C394.445 30.6268 394.026 31.0538 394.026 31.5806V39.6401C394.026 40.1669 394.445 40.594 394.962 40.594H399.341Z" stroke="white" stroke-opacity="0.1" stroke-width="2" mask="url(#path-2-outside-1_532_760)"/>
<path d="M437 29.6729C437 30.1997 436.581 30.6268 436.064 30.6268H428.917C428.4 30.6268 427.981 31.0538 427.981 31.5806V52.9708C427.981 53.4976 427.562 53.9247 427.045 53.9247H422.475C421.958 53.9247 421.539 53.4976 421.539 52.9708V31.5806C421.539 31.0538 421.12 30.6268 420.603 30.6268H413.497C412.98 30.6268 412.56 30.1997 412.56 29.6729V26.1663C412.56 25.6395 412.98 25.2125 413.497 25.2125H436.064C436.581 25.2125 437 25.6395 437 26.1663V29.6729Z" stroke="white" stroke-opacity="0.1" stroke-width="2" mask="url(#path-2-outside-1_532_760)"/>
<mask id="path-3-outside-2_532_760" maskUnits="userSpaceOnUse" x="112.932" y="67.0725" width="326" height="20" fill="black">
<rect fill="white" x="112.932" y="67.0725" width="326" height="20"/>
<path d="M123.761 79.893C123.761 80.1568 123.551 80.3707 123.291 80.3707H122.398C122.138 80.3707 121.927 80.1568 121.927 79.893V70.4882C121.927 70.2243 121.717 70.0104 121.457 70.0104H116.236C115.977 70.0104 115.766 70.2243 115.766 70.4882V79.893C115.766 80.1568 115.556 80.3707 115.296 80.3707H114.403C114.143 80.3707 113.932 80.1568 113.932 79.893V68.8484C113.932 68.5846 114.143 68.3706 114.403 68.3706H123.291C123.551 68.3706 123.761 68.5846 123.761 68.8484V79.893Z"/>
<path d="M133.731 80.6689C131.97 80.6689 130.528 80.0892 129.403 78.9297C128.278 77.7537 127.716 76.2299 127.716 74.3583C127.716 72.6026 128.27 71.1202 129.379 69.911C130.487 68.6854 131.873 68.0725 133.535 68.0725C135.279 68.0725 136.657 68.6854 137.667 69.911C138.694 71.1202 139.207 72.6523 139.207 74.5073C139.207 74.7681 138.999 74.9794 138.743 74.9794H130.152C129.879 74.9794 129.662 75.2151 129.706 75.4884C129.862 76.4426 130.266 77.2584 130.919 77.9359C131.685 78.731 132.679 79.1285 133.902 79.1285C135.169 79.1285 136.247 78.7517 137.137 77.9982C137.361 77.8088 137.702 77.8306 137.875 78.069L138.186 78.4997C138.323 78.6899 138.305 78.9553 138.131 79.1111C136.968 80.1496 135.501 80.6689 133.731 80.6689ZM136.92 73.6129C137.183 73.6129 137.398 73.3936 137.365 73.1287C137.264 72.2949 136.933 71.537 136.371 70.8551C135.703 70.027 134.749 69.6129 133.511 69.6129C132.337 69.6129 131.408 70.0187 130.723 70.8303C130.163 71.5103 129.821 72.2717 129.696 73.1144C129.656 73.3842 129.872 73.6129 130.141 73.6129H136.92Z"/>
<path d="M148.975 80.6689C147.814 80.6689 146.817 80.3262 145.982 79.6408C145.627 79.349 144.989 79.578 144.989 80.0423V84.4644C144.989 84.7283 144.779 84.9422 144.519 84.9422H143.626C143.366 84.9422 143.155 84.7283 143.155 84.4644V68.8484C143.155 68.5846 143.366 68.3706 143.626 68.3706H144.563C144.799 68.3706 144.989 68.5644 144.989 68.8034C144.989 69.2249 145.579 69.4402 145.902 69.1767C146.147 68.9781 146.413 68.8005 146.701 68.6439C147.402 68.263 148.16 68.0725 148.975 68.0725C150.539 68.0725 151.803 68.6439 152.764 69.7868C153.742 70.9131 154.231 72.4369 154.231 74.3583C154.231 76.2796 153.742 77.8117 152.764 78.9546C151.803 80.0975 150.539 80.6689 148.975 80.6689ZM148.51 79.0043C149.667 79.0043 150.588 78.5736 151.273 77.7123C151.957 76.8345 152.3 75.7165 152.3 74.3583C152.3 73.0001 151.957 71.8903 151.273 71.0291C150.588 70.1678 149.667 69.7371 148.51 69.7371C147.809 69.7371 147.124 69.9276 146.456 70.3086C145.852 70.6464 145.387 71.0554 145.063 71.5356C145.013 71.6094 144.989 71.6977 144.989 71.7872V76.9329C144.989 77.0202 145.012 77.1063 145.06 77.1791C145.384 77.677 145.85 78.1032 146.456 78.4577C147.124 78.8221 147.809 79.0043 148.51 79.0043Z"/>
<path d="M163.455 80.6689C161.695 80.6689 160.252 80.0892 159.128 78.9297C158.003 77.7537 157.441 76.2299 157.441 74.3583C157.441 72.6026 157.995 71.1202 159.103 69.911C160.212 68.6854 161.597 68.0725 163.26 68.0725C165.004 68.0725 166.381 68.6854 167.392 69.911C168.419 71.1202 168.932 72.6523 168.932 74.5073C168.932 74.7681 168.724 74.9794 168.467 74.9794H159.877C159.604 74.9794 159.386 75.2151 159.431 75.4884C159.586 76.4426 159.991 77.2584 160.644 77.9359C161.41 78.731 162.404 79.1285 163.626 79.1285C164.893 79.1285 165.972 78.7517 166.862 77.9982C167.085 77.8088 167.427 77.8306 167.599 78.069L167.911 78.4997C168.048 78.6899 168.03 78.9553 167.855 79.1111C166.692 80.1496 165.226 80.6689 163.455 80.6689ZM166.645 73.6129C166.908 73.6129 167.122 73.3936 167.09 73.1287C166.989 72.2949 166.657 71.537 166.096 70.8551C165.428 70.027 164.474 69.6129 163.235 69.6129C162.062 69.6129 161.133 70.0187 160.448 70.8303C159.888 71.5103 159.545 72.2717 159.42 73.1144C159.38 73.3842 159.597 73.6129 159.865 73.6129H166.645Z"/>
<path d="M179.506 80.3707H173.35C173.091 80.3707 172.88 80.1568 172.88 79.893V68.8484C172.88 68.5846 173.091 68.3706 173.35 68.3706H179.384C180.411 68.3706 181.217 68.6522 181.804 69.2154C182.407 69.7785 182.709 70.5239 182.709 71.4514C182.709 72.1305 182.521 72.7185 182.146 73.2154C181.865 73.5927 181.891 74.7229 182.19 75.0865C182.233 75.1398 182.276 75.1951 182.318 75.2527C182.741 75.8158 182.953 76.437 182.953 77.1161C182.953 78.0933 182.644 78.88 182.024 79.4763C181.421 80.0726 180.582 80.3707 179.506 80.3707ZM179.139 78.731C179.726 78.731 180.19 78.5653 180.533 78.2341C180.875 77.9028 181.046 77.4556 181.046 76.8925C181.046 76.379 180.875 75.9401 180.533 75.5757C180.19 75.2113 179.726 75.0291 179.139 75.0291H175.184C174.924 75.0291 174.714 75.243 174.714 75.5069V78.2532C174.714 78.5171 174.924 78.731 175.184 78.731H179.139ZM179.066 73.3893C179.62 73.3893 180.052 73.2403 180.362 72.9421C180.671 72.6274 180.826 72.2216 180.826 71.7247C180.826 71.1947 180.671 70.7806 180.362 70.4825C180.052 70.1678 179.62 70.0104 179.066 70.0104H175.184C174.924 70.0104 174.714 70.2243 174.714 70.4882V72.9115C174.714 73.1754 174.924 73.3893 175.184 73.3893H179.066Z"/>
<path d="M196.785 78.8552C195.725 80.0643 194.315 80.6689 192.555 80.6689C190.795 80.6689 189.377 80.0643 188.301 78.8552C187.241 77.6461 186.711 76.1471 186.711 74.3583C186.711 72.5694 187.241 71.0787 188.301 69.8862C189.377 68.6771 190.795 68.0725 192.555 68.0725C194.315 68.0725 195.725 68.6771 196.785 69.8862C197.861 71.0787 198.398 72.5694 198.398 74.3583C198.398 76.1471 197.861 77.6461 196.785 78.8552ZM189.67 77.6627C190.387 78.5571 191.349 79.0043 192.555 79.0043C193.761 79.0043 194.715 78.5571 195.416 77.6627C196.116 76.7517 196.467 75.6502 196.467 74.3583C196.467 73.0663 196.116 71.9732 195.416 71.0787C194.715 70.1843 193.761 69.7371 192.555 69.7371C191.349 69.7371 190.387 70.1926 189.67 71.1036C188.969 71.998 188.619 73.0829 188.619 74.3583C188.619 75.6502 188.969 76.7517 189.67 77.6627Z"/>
<path d="M206.547 80.6689C204.453 80.6689 202.777 80.1102 201.518 78.9929C201.34 78.8349 201.325 78.5638 201.469 78.3735L201.802 77.9345C201.973 77.7096 202.296 77.6863 202.516 77.8619C203.572 78.7063 204.915 79.1285 206.547 79.1285C207.606 79.1285 208.446 78.938 209.065 78.5571C209.701 78.1761 210.019 77.6709 210.019 77.0415C210.019 75.7165 208.78 75.0539 206.302 75.0539H204.132C203.872 75.0539 203.662 74.84 203.662 74.5761V74.0162C203.662 73.7523 203.872 73.5384 204.132 73.5384H206.302C207.329 73.5384 208.169 73.3728 208.821 73.0415C209.473 72.6937 209.799 72.1885 209.799 71.526C209.799 70.9628 209.473 70.5073 208.821 70.1595C208.169 69.7951 207.345 69.6129 206.351 69.6129C204.906 69.6129 203.712 70.0085 202.769 70.7998C202.556 70.9787 202.236 70.9686 202.057 70.7544L201.713 70.3417C201.556 70.1538 201.565 69.874 201.745 69.7097C202.926 68.6348 204.437 68.0974 206.278 68.0974C207.891 68.0808 209.195 68.3624 210.19 68.9421C211.2 69.5052 211.706 70.292 211.706 71.3024C211.706 72.1305 211.371 72.8013 210.703 73.3148C210.475 73.4946 210.517 74.8564 210.758 75.0169C210.789 75.0371 210.819 75.0578 210.85 75.0788C211.583 75.5757 211.95 76.2713 211.95 77.1658C211.95 78.1927 211.461 79.0374 210.483 79.6999C209.521 80.3459 208.209 80.6689 206.547 80.6689Z"/>
<path d="M225.669 79.5912C225.919 79.9034 225.701 80.3707 225.305 80.3707H224.173C224.03 80.3707 223.895 80.3049 223.806 80.1918L220.019 75.3928C219.844 75.1717 219.52 75.1526 219.322 75.3517L217.876 76.8019C217.787 76.8916 217.737 77.0141 217.737 77.1418V79.893C217.737 80.1568 217.526 80.3707 217.266 80.3707H216.373C216.113 80.3707 215.903 80.1568 215.903 79.893V68.8484C215.903 68.5846 216.113 68.3706 216.373 68.3706H217.266C217.526 68.3706 217.737 68.5846 217.737 68.8484V73.5927C217.737 74.0197 218.246 74.2322 218.541 73.9285L223.809 68.5126C223.897 68.4218 224.018 68.3706 224.143 68.3706H225.153C225.569 68.3706 225.78 68.8798 225.489 69.1824L221.331 73.5067C221.164 73.6805 221.151 73.954 221.302 74.1423L225.669 79.5912Z"/>
<path d="M231.34 80.1611C231.253 80.2922 231.107 80.3707 230.951 80.3707H229.91C229.651 80.3707 229.44 80.1568 229.44 79.893V68.8484C229.44 68.5846 229.651 68.3706 229.91 68.3706H230.804C231.063 68.3706 231.274 68.5846 231.274 68.8484V75.9967C231.274 76.4662 231.87 76.6541 232.132 76.2668L237.319 68.5783C237.407 68.4483 237.552 68.3706 237.707 68.3706H238.799C239.058 68.3706 239.269 68.5846 239.269 68.8484V79.893C239.269 80.1568 239.058 80.3707 238.799 80.3707H237.905C237.646 80.3707 237.435 80.1568 237.435 79.893V72.5848C237.435 72.114 236.836 71.927 236.576 72.3166L231.34 80.1611Z"/>
<path d="M257.816 80.3707H251.66C251.4 80.3707 251.19 80.1568 251.19 79.893V68.8484C251.19 68.5846 251.4 68.3706 251.66 68.3706H257.693C258.72 68.3706 259.527 68.6522 260.114 69.2154C260.717 69.7785 261.019 70.5239 261.019 71.4514C261.019 72.1305 260.831 72.7185 260.456 73.2154C260.175 73.5927 260.201 74.7229 260.499 75.0865C260.543 75.1398 260.586 75.1951 260.627 75.2527C261.051 75.8158 261.263 76.437 261.263 77.1161C261.263 78.0933 260.953 78.88 260.334 79.4763C259.731 80.0726 258.891 80.3707 257.816 80.3707ZM257.449 78.731C258.036 78.731 258.5 78.5653 258.842 78.2341C259.185 77.9028 259.356 77.4556 259.356 76.8925C259.356 76.379 259.185 75.9401 258.842 75.5757C258.5 75.2113 258.036 75.0291 257.449 75.0291H253.494C253.234 75.0291 253.023 75.243 253.023 75.5069V78.2532C253.023 78.5171 253.234 78.731 253.494 78.731H257.449ZM257.376 73.3893C257.93 73.3893 258.362 73.2403 258.671 72.9421C258.981 72.6274 259.136 72.2216 259.136 71.7247C259.136 71.1947 258.981 70.7806 258.671 70.4825C258.362 70.1678 257.93 70.0104 257.376 70.0104H253.494C253.234 70.0104 253.023 70.2243 253.023 70.4882V72.9115C253.023 73.1754 253.234 73.3893 253.494 73.3893H257.376Z"/>
<path d="M272.742 85.162C272.504 85.1194 272.359 84.882 272.401 84.6401L272.516 83.9787C272.569 83.6729 272.895 83.4983 273.197 83.5446C273.332 83.5654 273.475 83.5757 273.623 83.5757C274.047 83.5757 274.397 83.4846 274.674 83.3024C274.951 83.1203 275.188 82.789 275.383 82.3087L276.085 80.6814C276.137 80.5623 276.138 80.427 276.089 80.3069L271.496 69.0312C271.368 68.7166 271.595 68.3706 271.93 68.3706H272.891C273.082 68.3706 273.254 68.4884 273.326 68.6685L276.707 77.1172C276.866 77.5148 277.42 77.5142 277.578 77.1162L280.937 68.6694C281.009 68.4889 281.181 68.3706 281.373 68.3706H282.355C282.691 68.3706 282.918 68.7174 282.789 69.0321L277.144 82.8055C276.492 84.3956 275.334 85.2072 273.672 85.2404C273.344 85.2404 273.034 85.2142 272.742 85.162Z"/>
<path d="M285.028 83.4267C284.768 83.4267 284.558 83.2128 284.558 82.9489V79.2262C284.558 78.9966 284.722 78.8058 284.931 78.7201C285.359 78.5449 285.708 78.2173 285.976 77.7372C286.318 77.1078 286.595 75.9566 286.807 74.2837L287.512 68.7867C287.542 68.5487 287.742 68.3706 287.978 68.3706H295.31C295.57 68.3706 295.78 68.5846 295.78 68.8484V78.2532C295.78 78.5171 295.991 78.731 296.25 78.731H296.679C296.939 78.731 297.149 78.9449 297.149 79.2088V82.9489C297.149 83.2128 296.939 83.4267 296.679 83.4267H295.786C295.526 83.4267 295.316 83.2128 295.316 82.9489V80.8485C295.316 80.5847 295.105 80.3707 294.845 80.3707H286.862C286.602 80.3707 286.391 80.5847 286.391 80.8485V82.9489C286.391 83.2128 286.181 83.4267 285.921 83.4267H285.028ZM289.595 70.0104C289.357 70.0104 289.157 70.1907 289.128 70.4306L288.641 74.5073C288.464 75.8501 288.167 76.9095 287.751 77.6853C287.54 78.0805 287.812 78.731 288.255 78.731H293.476C293.736 78.731 293.946 78.5171 293.946 78.2532V70.4882C293.946 70.2243 293.736 70.0104 293.476 70.0104H289.595Z"/>
<path d="M310.023 78.8552C308.964 80.0643 307.554 80.6689 305.793 80.6689C304.033 80.6689 302.615 80.0643 301.539 78.8552C300.48 77.6461 299.95 76.1471 299.95 74.3583C299.95 72.5694 300.48 71.0787 301.539 69.8862C302.615 68.6771 304.033 68.0725 305.793 68.0725C307.554 68.0725 308.964 68.6771 310.023 69.8862C311.099 71.0787 311.637 72.5694 311.637 74.3583C311.637 76.1471 311.099 77.6461 310.023 78.8552ZM302.908 77.6627C303.625 78.5571 304.587 79.0043 305.793 79.0043C307 79.0043 307.953 78.5571 308.654 77.6627C309.355 76.7517 309.705 75.6502 309.705 74.3583C309.705 73.0663 309.355 71.9732 308.654 71.0787C307.953 70.1843 307 69.7371 305.793 69.7371C304.587 69.7371 303.625 70.1926 302.908 71.1036C302.207 71.998 301.857 73.0829 301.857 74.3583C301.857 75.6502 302.207 76.7517 302.908 77.6627Z"/>
<path d="M322.23 80.3707H316.074C315.815 80.3707 315.604 80.1568 315.604 79.893V68.8484C315.604 68.5846 315.815 68.3706 316.074 68.3706H322.108C323.135 68.3706 323.942 68.6522 324.528 69.2154C325.131 69.7785 325.433 70.5239 325.433 71.4514C325.433 72.1305 325.246 72.7185 324.871 73.2154C324.589 73.5927 324.615 74.7229 324.914 75.0865C324.957 75.1398 325 75.1951 325.042 75.2527C325.466 75.8158 325.677 76.437 325.677 77.1161C325.677 78.0933 325.368 78.88 324.748 79.4763C324.145 80.0726 323.306 80.3707 322.23 80.3707ZM321.863 78.731C322.45 78.731 322.915 78.5653 323.257 78.2341C323.599 77.9028 323.77 77.4556 323.77 76.8925C323.77 76.379 323.599 75.9401 323.257 75.5757C322.915 75.2113 322.45 75.0291 321.863 75.0291H317.908C317.648 75.0291 317.438 75.243 317.438 75.5069V78.2532C317.438 78.5171 317.648 78.731 317.908 78.731H321.863ZM321.79 73.3893C322.344 73.3893 322.776 73.2403 323.086 72.9421C323.396 72.6274 323.55 72.2216 323.55 71.7247C323.55 71.1947 323.396 70.7806 323.086 70.4825C322.776 70.1678 322.344 70.0104 321.79 70.0104H317.908C317.648 70.0104 317.438 70.2243 317.438 70.4882V72.9115C317.438 73.1754 317.648 73.3893 317.908 73.3893H321.79Z"/>
<path d="M339.509 78.8552C338.449 80.0643 337.04 80.6689 335.279 80.6689C333.519 80.6689 332.101 80.0643 331.025 78.8552C329.965 77.6461 329.436 76.1471 329.436 74.3583C329.436 72.5694 329.965 71.0787 331.025 69.8862C332.101 68.6771 333.519 68.0725 335.279 68.0725C337.04 68.0725 338.449 68.6771 339.509 69.8862C340.585 71.0787 341.123 72.5694 341.123 74.3583C341.123 76.1471 340.585 77.6461 339.509 78.8552ZM332.394 77.6627C333.111 78.5571 334.073 79.0043 335.279 79.0043C336.485 79.0043 337.439 78.5571 338.14 77.6627C338.841 76.7517 339.191 75.6502 339.191 74.3583C339.191 73.0663 338.841 71.9732 338.14 71.0787C337.439 70.1843 336.485 69.7371 335.279 69.7371C334.073 69.7371 333.111 70.1926 332.394 71.1036C331.693 71.998 331.343 73.0829 331.343 74.3583C331.343 75.6502 331.693 76.7517 332.394 77.6627Z"/>
<path d="M344.166 80.6414C343.908 80.6726 343.696 80.455 343.696 80.1911V79.6063C343.696 79.3424 343.915 79.1382 344.154 79.0344C344.507 78.8809 344.811 78.5396 345.066 78.0105C345.424 77.2651 345.717 76.0229 345.946 74.2837L346.65 68.7867C346.681 68.5487 346.88 68.3706 347.117 68.3706H354.449C354.708 68.3706 354.919 68.5846 354.919 68.8484V79.893C354.919 80.1568 354.708 80.3707 354.449 80.3707H353.555C353.296 80.3707 353.085 80.1568 353.085 79.893V70.4882C353.085 70.2243 352.874 70.0104 352.615 70.0104H348.734C348.496 70.0104 348.296 70.1907 348.267 70.4306L347.779 74.5073C347.519 76.7103 347.062 78.2921 346.41 79.2527C345.849 80.0652 345.101 80.5281 344.166 80.6414Z"/>
<path d="M359.558 68.8484C359.558 68.5846 359.769 68.3706 360.028 68.3706H360.922C361.181 68.3706 361.392 68.5846 361.392 68.8484V72.5389C361.392 72.8027 361.602 73.0167 361.862 73.0167H365.817C366.991 73.0167 367.904 73.3728 368.556 74.085C369.208 74.7806 369.534 75.6502 369.534 76.6937C369.534 77.7372 369.2 78.615 368.531 79.3273C367.879 80.0229 366.975 80.3707 365.817 80.3707H360.028C359.769 80.3707 359.558 80.1568 359.558 79.893V68.8484ZM365.622 74.6564H361.862C361.602 74.6564 361.392 74.8703 361.392 75.1342V78.2532C361.392 78.5171 361.602 78.731 361.862 78.731H365.622C366.274 78.731 366.771 78.5488 367.113 78.1844C367.472 77.8034 367.651 77.3065 367.651 76.6937C367.651 76.0809 367.472 75.5922 367.113 75.2278C366.771 74.8469 366.274 74.6564 365.622 74.6564Z"/>
<path d="M378.518 80.6689C376.774 80.6689 375.356 80.0726 374.264 78.8801C373.172 77.6709 372.626 76.1637 372.626 74.3583C372.626 72.5529 373.172 71.0539 374.264 69.8613C375.356 68.6688 376.774 68.0725 378.518 68.0725C380.19 68.0725 381.54 68.6558 382.569 69.8223C382.732 70.007 382.708 70.2885 382.528 70.4565L382.011 70.94C381.804 71.1332 381.48 71.098 381.288 70.8894C380.584 70.1212 379.693 69.7371 378.616 69.7371C377.377 69.7371 376.383 70.1678 375.633 71.0291C374.9 71.8903 374.533 73.0001 374.533 74.3583C374.533 75.7165 374.9 76.8345 375.633 77.7123C376.383 78.5736 377.377 79.0043 378.616 79.0043C379.682 79.0043 380.573 78.6179 381.289 77.8452C381.48 77.639 381.802 77.6058 382.007 77.7976L382.528 78.2849C382.708 78.4529 382.732 78.7344 382.569 78.9191C381.54 80.0856 380.19 80.6689 378.518 80.6689Z"/>
<path d="M390.379 79.893C390.379 80.1568 390.168 80.3707 389.909 80.3707H389.015C388.756 80.3707 388.545 80.1568 388.545 79.893V70.4882C388.545 70.2243 388.335 70.0104 388.075 70.0104H385.592C385.333 70.0104 385.122 69.7965 385.122 69.5326V68.8484C385.122 68.5846 385.333 68.3706 385.592 68.3706H393.356C393.616 68.3706 393.826 68.5846 393.826 68.8484V69.5326C393.826 69.7965 393.616 70.0104 393.356 70.0104H390.849C390.589 70.0104 390.379 70.2243 390.379 70.4882V79.893Z"/>
<path d="M403.835 80.3707H397.679C397.419 80.3707 397.209 80.1568 397.209 79.893V68.8484C397.209 68.5846 397.419 68.3706 397.679 68.3706H403.712C404.739 68.3706 405.546 68.6522 406.133 69.2154C406.736 69.7785 407.038 70.5239 407.038 71.4514C407.038 72.1305 406.85 72.7185 406.475 73.2154C406.194 73.5927 406.22 74.7229 406.518 75.0865C406.562 75.1398 406.605 75.1951 406.646 75.2527C407.07 75.8158 407.282 76.437 407.282 77.1161C407.282 78.0933 406.972 78.88 406.353 79.4763C405.75 80.0726 404.911 80.3707 403.835 80.3707ZM403.468 78.731C404.055 78.731 404.519 78.5653 404.862 78.2341C405.204 77.9028 405.375 77.4556 405.375 76.8925C405.375 76.379 405.204 75.9401 404.862 75.5757C404.519 75.2113 404.055 75.0291 403.468 75.0291H399.513C399.253 75.0291 399.043 75.243 399.043 75.5069V78.2532C399.043 78.5171 399.253 78.731 399.513 78.731H403.468ZM403.395 73.3893C403.949 73.3893 404.381 73.2403 404.69 72.9421C405 72.6274 405.155 72.2216 405.155 71.7247C405.155 71.1947 405 70.7806 404.69 70.4825C404.381 70.1678 403.949 70.0104 403.395 70.0104H399.513C399.253 70.0104 399.043 70.2243 399.043 70.4882V72.9115C399.043 73.1754 399.253 73.3893 399.513 73.3893H403.395Z"/>
<path d="M413.625 80.1611C413.538 80.2922 413.392 80.3707 413.236 80.3707H412.195C411.935 80.3707 411.725 80.1568 411.725 79.893V68.8484C411.725 68.5846 411.935 68.3706 412.195 68.3706H413.088C413.348 68.3706 413.559 68.5846 413.559 68.8484V75.9967C413.559 76.4662 414.155 76.6541 414.417 76.2668L419.604 68.5783C419.692 68.4483 419.837 68.3706 419.992 68.3706H421.084C421.343 68.3706 421.554 68.5846 421.554 68.8484V79.893C421.554 80.1568 421.343 80.3707 421.084 80.3707H420.19C419.93 80.3707 419.72 80.1568 419.72 79.893V72.5848C419.72 72.114 419.121 71.927 418.861 72.3166L413.625 80.1611Z"/>
<path d="M431.523 80.6689C429.763 80.6689 428.32 80.0892 427.196 78.9297C426.071 77.7537 425.509 76.2299 425.509 74.3583C425.509 72.6026 426.063 71.1202 427.171 69.911C428.28 68.6854 429.665 68.0725 431.328 68.0725C433.072 68.0725 434.449 68.6854 435.46 69.911C436.487 71.1202 437 72.6523 437 74.5073C437 74.7681 436.792 74.9794 436.535 74.9794H427.945C427.672 74.9794 427.454 75.2151 427.499 75.4884C427.654 76.4426 428.059 77.2584 428.712 77.9359C429.478 78.731 430.472 79.1285 431.694 79.1285C432.961 79.1285 434.04 78.7517 434.93 77.9982C435.154 77.8088 435.495 77.8306 435.667 78.069L435.979 78.4997C436.116 78.6899 436.098 78.9553 435.923 79.1111C434.76 80.1496 433.294 80.6689 431.523 80.6689ZM434.713 73.6129C434.976 73.6129 435.19 73.3936 435.158 73.1287C435.057 72.2949 434.725 71.537 434.164 70.8551C433.496 70.027 432.542 69.6129 431.303 69.6129C430.13 69.6129 429.201 70.0187 428.516 70.8303C427.956 71.5103 427.614 72.2717 427.488 73.1144C427.448 73.3842 427.665 73.6129 427.933 73.6129H434.713Z"/>
</mask>
<path d="M123.761 79.893C123.761 80.1568 123.551 80.3707 123.291 80.3707H122.398C122.138 80.3707 121.927 80.1568 121.927 79.893V70.4882C121.927 70.2243 121.717 70.0104 121.457 70.0104H116.236C115.977 70.0104 115.766 70.2243 115.766 70.4882V79.893C115.766 80.1568 115.556 80.3707 115.296 80.3707H114.403C114.143 80.3707 113.932 80.1568 113.932 79.893V68.8484C113.932 68.5846 114.143 68.3706 114.403 68.3706H123.291C123.551 68.3706 123.761 68.5846 123.761 68.8484V79.893Z" stroke="white" stroke-opacity="0.1" stroke-width="2" mask="url(#path-3-outside-2_532_760)"/>
<path d="M133.731 80.6689C131.97 80.6689 130.528 80.0892 129.403 78.9297C128.278 77.7537 127.716 76.2299 127.716 74.3583C127.716 72.6026 128.27 71.1202 129.379 69.911C130.487 68.6854 131.873 68.0725 133.535 68.0725C135.279 68.0725 136.657 68.6854 137.667 69.911C138.694 71.1202 139.207 72.6523 139.207 74.5073C139.207 74.7681 138.999 74.9794 138.743 74.9794H130.152C129.879 74.9794 129.662 75.2151 129.706 75.4884C129.862 76.4426 130.266 77.2584 130.919 77.9359C131.685 78.731 132.679 79.1285 133.902 79.1285C135.169 79.1285 136.247 78.7517 137.137 77.9982C137.361 77.8088 137.702 77.8306 137.875 78.069L138.186 78.4997C138.323 78.6899 138.305 78.9553 138.131 79.1111C136.968 80.1496 135.501 80.6689 133.731 80.6689ZM136.92 73.6129C137.183 73.6129 137.398 73.3936 137.365 73.1287C137.264 72.2949 136.933 71.537 136.371 70.8551C135.703 70.027 134.749 69.6129 133.511 69.6129C132.337 69.6129 131.408 70.0187 130.723 70.8303C130.163 71.5103 129.821 72.2717 129.696 73.1144C129.656 73.3842 129.872 73.6129 130.141 73.6129H136.92Z" stroke="white" stroke-opacity="0.1" stroke-width="2" mask="url(#path-3-outside-2_532_760)"/>
<path d="M148.975 80.6689C147.814 80.6689 146.817 80.3262 145.982 79.6408C145.627 79.349 144.989 79.578 144.989 80.0423V84.4644C144.989 84.7283 144.779 84.9422 144.519 84.9422H143.626C143.366 84.9422 143.155 84.7283 143.155 84.4644V68.8484C143.155 68.5846 143.366 68.3706 143.626 68.3706H144.563C144.799 68.3706 144.989 68.5644 144.989 68.8034C144.989 69.2249 145.579 69.4402 145.902 69.1767C146.147 68.9781 146.413 68.8005 146.701 68.6439C147.402 68.263 148.16 68.0725 148.975 68.0725C150.539 68.0725 151.803 68.6439 152.764 69.7868C153.742 70.9131 154.231 72.4369 154.231 74.3583C154.231 76.2796 153.742 77.8117 152.764 78.9546C151.803 80.0975 150.539 80.6689 148.975 80.6689ZM148.51 79.0043C149.667 79.0043 150.588 78.5736 151.273 77.7123C151.957 76.8345 152.3 75.7165 152.3 74.3583C152.3 73.0001 151.957 71.8903 151.273 71.0291C150.588 70.1678 149.667 69.7371 148.51 69.7371C147.809 69.7371 147.124 69.9276 146.456 70.3086C145.852 70.6464 145.387 71.0554 145.063 71.5356C145.013 71.6094 144.989 71.6977 144.989 71.7872V76.9329C144.989 77.0202 145.012 77.1063 145.06 77.1791C145.384 77.677 145.85 78.1032 146.456 78.4577C147.124 78.8221 147.809 79.0043 148.51 79.0043Z" stroke="white" stroke-opacity="0.1" stroke-width="2" mask="url(#path-3-outside-2_532_760)"/>
<path d="M163.455 80.6689C161.695 80.6689 160.252 80.0892 159.128 78.9297C158.003 77.7537 157.441 76.2299 157.441 74.3583C157.441 72.6026 157.995 71.1202 159.103 69.911C160.212 68.6854 161.597 68.0725 163.26 68.0725C165.004 68.0725 166.381 68.6854 167.392 69.911C168.419 71.1202 168.932 72.6523 168.932 74.5073C168.932 74.7681 168.724 74.9794 168.467 74.9794H159.877C159.604 74.9794 159.386 75.2151 159.431 75.4884C159.586 76.4426 159.991 77.2584 160.644 77.9359C161.41 78.731 162.404 79.1285 163.626 79.1285C164.893 79.1285 165.972 78.7517 166.862 77.9982C167.085 77.8088 167.427 77.8306 167.599 78.069L167.911 78.4997C168.048 78.6899 168.03 78.9553 167.855 79.1111C166.692 80.1496 165.226 80.6689 163.455 80.6689ZM166.645 73.6129C166.908 73.6129 167.122 73.3936 167.09 73.1287C166.989 72.2949 166.657 71.537 166.096 70.8551C165.428 70.027 164.474 69.6129 163.235 69.6129C162.062 69.6129 161.133 70.0187 160.448 70.8303C159.888 71.5103 159.545 72.2717 159.42 73.1144C159.38 73.3842 159.597 73.6129 159.865 73.6129H166.645Z" stroke="white" stroke-opacity="0.1" stroke-width="2" mask="url(#path-3-outside-2_532_760)"/>
<path d="M179.506 80.3707H173.35C173.091 80.3707 172.88 80.1568 172.88 79.893V68.8484C172.88 68.5846 173.091 68.3706 173.35 68.3706H179.384C180.411 68.3706 181.217 68.6522 181.804 69.2154C182.407 69.7785 182.709 70.5239 182.709 71.4514C182.709 72.1305 182.521 72.7185 182.146 73.2154C181.865 73.5927 181.891 74.7229 182.19 75.0865C182.233 75.1398 182.276 75.1951 182.318 75.2527C182.741 75.8158 182.953 76.437 182.953 77.1161C182.953 78.0933 182.644 78.88 182.024 79.4763C181.421 80.0726 180.582 80.3707 179.506 80.3707ZM179.139 78.731C179.726 78.731 180.19 78.5653 180.533 78.2341C180.875 77.9028 181.046 77.4556 181.046 76.8925C181.046 76.379 180.875 75.9401 180.533 75.5757C180.19 75.2113 179.726 75.0291 179.139 75.0291H175.184C174.924 75.0291 174.714 75.243 174.714 75.5069V78.2532C174.714 78.5171 174.924 78.731 175.184 78.731H179.139ZM179.066 73.3893C179.62 73.3893 180.052 73.2403 180.362 72.9421C180.671 72.6274 180.826 72.2216 180.826 71.7247C180.826 71.1947 180.671 70.7806 180.362 70.4825C180.052 70.1678 179.62 70.0104 179.066 70.0104H175.184C174.924 70.0104 174.714 70.2243 174.714 70.4882V72.9115C174.714 73.1754 174.924 73.3893 175.184 73.3893H179.066Z" stroke="white" stroke-opacity="0.1" stroke-width="2" mask="url(#path-3-outside-2_532_760)"/>
<path d="M196.785 78.8552C195.725 80.0643 194.315 80.6689 192.555 80.6689C190.795 80.6689 189.377 80.0643 188.301 78.8552C187.241 77.6461 186.711 76.1471 186.711 74.3583C186.711 72.5694 187.241 71.0787 188.301 69.8862C189.377 68.6771 190.795 68.0725 192.555 68.0725C194.315 68.0725 195.725 68.6771 196.785 69.8862C197.861 71.0787 198.398 72.5694 198.398 74.3583C198.398 76.1471 197.861 77.6461 196.785 78.8552ZM189.67 77.6627C190.387 78.5571 191.349 79.0043 192.555 79.0043C193.761 79.0043 194.715 78.5571 195.416 77.6627C196.116 76.7517 196.467 75.6502 196.467 74.3583C196.467 73.0663 196.116 71.9732 195.416 71.0787C194.715 70.1843 193.761 69.7371 192.555 69.7371C191.349 69.7371 190.387 70.1926 189.67 71.1036C188.969 71.998 188.619 73.0829 188.619 74.3583C188.619 75.6502 188.969 76.7517 189.67 77.6627Z" stroke="white" stroke-opacity="0.1" stroke-width="2" mask="url(#path-3-outside-2_532_760)"/>
<path d="M206.547 80.6689C204.453 80.6689 202.777 80.1102 201.518 78.9929C201.34 78.8349 201.325 78.5638 201.469 78.3735L201.802 77.9345C201.973 77.7096 202.296 77.6863 202.516 77.8619C203.572 78.7063 204.915 79.1285 206.547 79.1285C207.606 79.1285 208.446 78.938 209.065 78.5571C209.701 78.1761 210.019 77.6709 210.019 77.0415C210.019 75.7165 208.78 75.0539 206.302 75.0539H204.132C203.872 75.0539 203.662 74.84 203.662 74.5761V74.0162C203.662 73.7523 203.872 73.5384 204.132 73.5384H206.302C207.329 73.5384 208.169 73.3728 208.821 73.0415C209.473 72.6937 209.799 72.1885 209.799 71.526C209.799 70.9628 209.473 70.5073 208.821 70.1595C208.169 69.7951 207.345 69.6129 206.351 69.6129C204.906 69.6129 203.712 70.0085 202.769 70.7998C202.556 70.9787 202.236 70.9686 202.057 70.7544L201.713 70.3417C201.556 70.1538 201.565 69.874 201.745 69.7097C202.926 68.6348 204.437 68.0974 206.278 68.0974C207.891 68.0808 209.195 68.3624 210.19 68.9421C211.2 69.5052 211.706 70.292 211.706 71.3024C211.706 72.1305 211.371 72.8013 210.703 73.3148C210.475 73.4946 210.517 74.8564 210.758 75.0169C210.789 75.0371 210.819 75.0578 210.85 75.0788C211.583 75.5757 211.95 76.2713 211.95 77.1658C211.95 78.1927 211.461 79.0374 210.483 79.6999C209.521 80.3459 208.209 80.6689 206.547 80.6689Z" stroke="white" stroke-opacity="0.1" stroke-width="2" mask="url(#path-3-outside-2_532_760)"/>
<path d="M225.669 79.5912C225.919 79.9034 225.701 80.3707 225.305 80.3707H224.173C224.03 80.3707 223.895 80.3049 223.806 80.1918L220.019 75.3928C219.844 75.1717 219.52 75.1526 219.322 75.3517L217.876 76.8019C217.787 76.8916 217.737 77.0141 217.737 77.1418V79.893C217.737 80.1568 217.526 80.3707 217.266 80.3707H216.373C216.113 80.3707 215.903 80.1568 215.903 79.893V68.8484C215.903 68.5846 216.113 68.3706 216.373 68.3706H217.266C217.526 68.3706 217.737 68.5846 217.737 68.8484V73.5927C217.737 74.0197 218.246 74.2322 218.541 73.9285L223.809 68.5126C223.897 68.4218 224.018 68.3706 224.143 68.3706H225.153C225.569 68.3706 225.78 68.8798 225.489 69.1824L221.331 73.5067C221.164 73.6805 221.151 73.954 221.302 74.1423L225.669 79.5912Z" stroke="white" stroke-opacity="0.1" stroke-width="2" mask="url(#path-3-outside-2_532_760)"/>
<path d="M231.34 80.1611C231.253 80.2922 231.107 80.3707 230.951 80.3707H229.91C229.651 80.3707 229.44 80.1568 229.44 79.893V68.8484C229.44 68.5846 229.651 68.3706 229.91 68.3706H230.804C231.063 68.3706 231.274 68.5846 231.274 68.8484V75.9967C231.274 76.4662 231.87 76.6541 232.132 76.2668L237.319 68.5783C237.407 68.4483 237.552 68.3706 237.707 68.3706H238.799C239.058 68.3706 239.269 68.5846 239.269 68.8484V79.893C239.269 80.1568 239.058 80.3707 238.799 80.3707H237.905C237.646 80.3707 237.435 80.1568 237.435 79.893V72.5848C237.435 72.114 236.836 71.927 236.576 72.3166L231.34 80.1611Z" stroke="white" stroke-opacity="0.1" stroke-width="2" mask="url(#path-3-outside-2_532_760)"/>
<path d="M257.816 80.3707H251.66C251.4 80.3707 251.19 80.1568 251.19 79.893V68.8484C251.19 68.5846 251.4 68.3706 251.66 68.3706H257.693C258.72 68.3706 259.527 68.6522 260.114 69.2154C260.717 69.7785 261.019 70.5239 261.019 71.4514C261.019 72.1305 260.831 72.7185 260.456 73.2154C260.175 73.5927 260.201 74.7229 260.499 75.0865C260.543 75.1398 260.586 75.1951 260.627 75.2527C261.051 75.8158 261.263 76.437 261.263 77.1161C261.263 78.0933 260.953 78.88 260.334 79.4763C259.731 80.0726 258.891 80.3707 257.816 80.3707ZM257.449 78.731C258.036 78.731 258.5 78.5653 258.842 78.2341C259.185 77.9028 259.356 77.4556 259.356 76.8925C259.356 76.379 259.185 75.9401 258.842 75.5757C258.5 75.2113 258.036 75.0291 257.449 75.0291H253.494C253.234 75.0291 253.023 75.243 253.023 75.5069V78.2532C253.023 78.5171 253.234 78.731 253.494 78.731H257.449ZM257.376 73.3893C257.93 73.3893 258.362 73.2403 258.671 72.9421C258.981 72.6274 259.136 72.2216 259.136 71.7247C259.136 71.1947 258.981 70.7806 258.671 70.4825C258.362 70.1678 257.93 70.0104 257.376 70.0104H253.494C253.234 70.0104 253.023 70.2243 253.023 70.4882V72.9115C253.023 73.1754 253.234 73.3893 253.494 73.3893H257.376Z" stroke="white" stroke-opacity="0.1" stroke-width="2" mask="url(#path-3-outside-2_532_760)"/>
<path d="M272.742 85.162C272.504 85.1194 272.359 84.882 272.401 84.6401L272.516 83.9787C272.569 83.6729 272.895 83.4983 273.197 83.5446C273.332 83.5654 273.475 83.5757 273.623 83.5757C274.047 83.5757 274.397 83.4846 274.674 83.3024C274.951 83.1203 275.188 82.789 275.383 82.3087L276.085 80.6814C276.137 80.5623 276.138 80.427 276.089 80.3069L271.496 69.0312C271.368 68.7166 271.595 68.3706 271.93 68.3706H272.891C273.082 68.3706 273.254 68.4884 273.326 68.6685L276.707 77.1172C276.866 77.5148 277.42 77.5142 277.578 77.1162L280.937 68.6694C281.009 68.4889 281.181 68.3706 281.373 68.3706H282.355C282.691 68.3706 282.918 68.7174 282.789 69.0321L277.144 82.8055C276.492 84.3956 275.334 85.2072 273.672 85.2404C273.344 85.2404 273.034 85.2142 272.742 85.162Z" stroke="white" stroke-opacity="0.1" stroke-width="2" mask="url(#path-3-outside-2_532_760)"/>
<path d="M285.028 83.4267C284.768 83.4267 284.558 83.2128 284.558 82.9489V79.2262C284.558 78.9966 284.722 78.8058 284.931 78.7201C285.359 78.5449 285.708 78.2173 285.976 77.7372C286.318 77.1078 286.595 75.9566 286.807 74.2837L287.512 68.7867C287.542 68.5487 287.742 68.3706 287.978 68.3706H295.31C295.57 68.3706 295.78 68.5846 295.78 68.8484V78.2532C295.78 78.5171 295.991 78.731 296.25 78.731H296.679C296.939 78.731 297.149 78.9449 297.149 79.2088V82.9489C297.149 83.2128 296.939 83.4267 296.679 83.4267H295.786C295.526 83.4267 295.316 83.2128 295.316 82.9489V80.8485C295.316 80.5847 295.105 80.3707 294.845 80.3707H286.862C286.602 80.3707 286.391 80.5847 286.391 80.8485V82.9489C286.391 83.2128 286.181 83.4267 285.921 83.4267H285.028ZM289.595 70.0104C289.357 70.0104 289.157 70.1907 289.128 70.4306L288.641 74.5073C288.464 75.8501 288.167 76.9095 287.751 77.6853C287.54 78.0805 287.812 78.731 288.255 78.731H293.476C293.736 78.731 293.946 78.5171 293.946 78.2532V70.4882C293.946 70.2243 293.736 70.0104 293.476 70.0104H289.595Z" stroke="white" stroke-opacity="0.1" stroke-width="2" mask="url(#path-3-outside-2_532_760)"/>
<path d="M310.023 78.8552C308.964 80.0643 307.554 80.6689 305.793 80.6689C304.033 80.6689 302.615 80.0643 301.539 78.8552C300.48 77.6461 299.95 76.1471 299.95 74.3583C299.95 72.5694 300.48 71.0787 301.539 69.8862C302.615 68.6771 304.033 68.0725 305.793 68.0725C307.554 68.0725 308.964 68.6771 310.023 69.8862C311.099 71.0787 311.637 72.5694 311.637 74.3583C311.637 76.1471 311.099 77.6461 310.023 78.8552ZM302.908 77.6627C303.625 78.5571 304.587 79.0043 305.793 79.0043C307 79.0043 307.953 78.5571 308.654 77.6627C309.355 76.7517 309.705 75.6502 309.705 74.3583C309.705 73.0663 309.355 71.9732 308.654 71.0787C307.953 70.1843 307 69.7371 305.793 69.7371C304.587 69.7371 303.625 70.1926 302.908 71.1036C302.207 71.998 301.857 73.0829 301.857 74.3583C301.857 75.6502 302.207 76.7517 302.908 77.6627Z" stroke="white" stroke-opacity="0.1" stroke-width="2" mask="url(#path-3-outside-2_532_760)"/>
<path d="M322.23 80.3707H316.074C315.815 80.3707 315.604 80.1568 315.604 79.893V68.8484C315.604 68.5846 315.815 68.3706 316.074 68.3706H322.108C323.135 68.3706 323.942 68.6522 324.528 69.2154C325.131 69.7785 325.433 70.5239 325.433 71.4514C325.433 72.1305 325.246 72.7185 324.871 73.2154C324.589 73.5927 324.615 74.7229 324.914 75.0865C324.957 75.1398 325 75.1951 325.042 75.2527C325.466 75.8158 325.677 76.437 325.677 77.1161C325.677 78.0933 325.368 78.88 324.748 79.4763C324.145 80.0726 323.306 80.3707 322.23 80.3707ZM321.863 78.731C322.45 78.731 322.915 78.5653 323.257 78.2341C323.599 77.9028 323.77 77.4556 323.77 76.8925C323.77 76.379 323.599 75.9401 323.257 75.5757C322.915 75.2113 322.45 75.0291 321.863 75.0291H317.908C317.648 75.0291 317.438 75.243 317.438 75.5069V78.2532C317.438 78.5171 317.648 78.731 317.908 78.731H321.863ZM321.79 73.3893C322.344 73.3893 322.776 73.2403 323.086 72.9421C323.396 72.6274 323.55 72.2216 323.55 71.7247C323.55 71.1947 323.396 70.7806 323.086 70.4825C322.776 70.1678 322.344 70.0104 321.79 70.0104H317.908C317.648 70.0104 317.438 70.2243 317.438 70.4882V72.9115C317.438 73.1754 317.648 73.3893 317.908 73.3893H321.79Z" stroke="white" stroke-opacity="0.1" stroke-width="2" mask="url(#path-3-outside-2_532_760)"/>
<path d="M339.509 78.8552C338.449 80.0643 337.04 80.6689 335.279 80.6689C333.519 80.6689 332.101 80.0643 331.025 78.8552C329.965 77.6461 329.436 76.1471 329.436 74.3583C329.436 72.5694 329.965 71.0787 331.025 69.8862C332.101 68.6771 333.519 68.0725 335.279 68.0725C337.04 68.0725 338.449 68.6771 339.509 69.8862C340.585 71.0787 341.123 72.5694 341.123 74.3583C341.123 76.1471 340.585 77.6461 339.509 78.8552ZM332.394 77.6627C333.111 78.5571 334.073 79.0043 335.279 79.0043C336.485 79.0043 337.439 78.5571 338.14 77.6627C338.841 76.7517 339.191 75.6502 339.191 74.3583C339.191 73.0663 338.841 71.9732 338.14 71.0787C337.439 70.1843 336.485 69.7371 335.279 69.7371C334.073 69.7371 333.111 70.1926 332.394 71.1036C331.693 71.998 331.343 73.0829 331.343 74.3583C331.343 75.6502 331.693 76.7517 332.394 77.6627Z" stroke="white" stroke-opacity="0.1" stroke-width="2" mask="url(#path-3-outside-2_532_760)"/>
<path d="M344.166 80.6414C343.908 80.6726 343.696 80.455 343.696 80.1911V79.6063C343.696 79.3424 343.915 79.1382 344.154 79.0344C344.507 78.8809 344.811 78.5396 345.066 78.0105C345.424 77.2651 345.717 76.0229 345.946 74.2837L346.65 68.7867C346.681 68.5487 346.88 68.3706 347.117 68.3706H354.449C354.708 68.3706 354.919 68.5846 354.919 68.8484V79.893C354.919 80.1568 354.708 80.3707 354.449 80.3707H353.555C353.296 80.3707 353.085 80.1568 353.085 79.893V70.4882C353.085 70.2243 352.874 70.0104 352.615 70.0104H348.734C348.496 70.0104 348.296 70.1907 348.267 70.4306L347.779 74.5073C347.519 76.7103 347.062 78.2921 346.41 79.2527C345.849 80.0652 345.101 80.5281 344.166 80.6414Z" stroke="white" stroke-opacity="0.1" stroke-width="2" mask="url(#path-3-outside-2_532_760)"/>
<path d="M359.558 68.8484C359.558 68.5846 359.769 68.3706 360.028 68.3706H360.922C361.181 68.3706 361.392 68.5846 361.392 68.8484V72.5389C361.392 72.8027 361.602 73.0167 361.862 73.0167H365.817C366.991 73.0167 367.904 73.3728 368.556 74.085C369.208 74.7806 369.534 75.6502 369.534 76.6937C369.534 77.7372 369.2 78.615 368.531 79.3273C367.879 80.0229 366.975 80.3707 365.817 80.3707H360.028C359.769 80.3707 359.558 80.1568 359.558 79.893V68.8484ZM365.622 74.6564H361.862C361.602 74.6564 361.392 74.8703 361.392 75.1342V78.2532C361.392 78.5171 361.602 78.731 361.862 78.731H365.622C366.274 78.731 366.771 78.5488 367.113 78.1844C367.472 77.8034 367.651 77.3065 367.651 76.6937C367.651 76.0809 367.472 75.5922 367.113 75.2278C366.771 74.8469 366.274 74.6564 365.622 74.6564Z" stroke="white" stroke-opacity="0.1" stroke-width="2" mask="url(#path-3-outside-2_532_760)"/>
<path d="M378.518 80.6689C376.774 80.6689 375.356 80.0726 374.264 78.8801C373.172 77.6709 372.626 76.1637 372.626 74.3583C372.626 72.5529 373.172 71.0539 374.264 69.8613C375.356 68.6688 376.774 68.0725 378.518 68.0725C380.19 68.0725 381.54 68.6558 382.569 69.8223C382.732 70.007 382.708 70.2885 382.528 70.4565L382.011 70.94C381.804 71.1332 381.48 71.098 381.288 70.8894C380.584 70.1212 379.693 69.7371 378.616 69.7371C377.377 69.7371 376.383 70.1678 375.633 71.0291C374.9 71.8903 374.533 73.0001 374.533 74.3583C374.533 75.7165 374.9 76.8345 375.633 77.7123C376.383 78.5736 377.377 79.0043 378.616 79.0043C379.682 79.0043 380.573 78.6179 381.289 77.8452C381.48 77.639 381.802 77.6058 382.007 77.7976L382.528 78.2849C382.708 78.4529 382.732 78.7344 382.569 78.9191C381.54 80.0856 380.19 80.6689 378.518 80.6689Z" stroke="white" stroke-opacity="0.1" stroke-width="2" mask="url(#path-3-outside-2_532_760)"/>
<path d="M390.379 79.893C390.379 80.1568 390.168 80.3707 389.909 80.3707H389.015C388.756 80.3707 388.545 80.1568 388.545 79.893V70.4882C388.545 70.2243 388.335 70.0104 388.075 70.0104H385.592C385.333 70.0104 385.122 69.7965 385.122 69.5326V68.8484C385.122 68.5846 385.333 68.3706 385.592 68.3706H393.356C393.616 68.3706 393.826 68.5846 393.826 68.8484V69.5326C393.826 69.7965 393.616 70.0104 393.356 70.0104H390.849C390.589 70.0104 390.379 70.2243 390.379 70.4882V79.893Z" stroke="white" stroke-opacity="0.1" stroke-width="2" mask="url(#path-3-outside-2_532_760)"/>
<path d="M403.835 80.3707H397.679C397.419 80.3707 397.209 80.1568 397.209 79.893V68.8484C397.209 68.5846 397.419 68.3706 397.679 68.3706H403.712C404.739 68.3706 405.546 68.6522 406.133 69.2154C406.736 69.7785 407.038 70.5239 407.038 71.4514C407.038 72.1305 406.85 72.7185 406.475 73.2154C406.194 73.5927 406.22 74.7229 406.518 75.0865C406.562 75.1398 406.605 75.1951 406.646 75.2527C407.07 75.8158 407.282 76.437 407.282 77.1161C407.282 78.0933 406.972 78.88 406.353 79.4763C405.75 80.0726 404.911 80.3707 403.835 80.3707ZM403.468 78.731C404.055 78.731 404.519 78.5653 404.862 78.2341C405.204 77.9028 405.375 77.4556 405.375 76.8925C405.375 76.379 405.204 75.9401 404.862 75.5757C404.519 75.2113 404.055 75.0291 403.468 75.0291H399.513C399.253 75.0291 399.043 75.243 399.043 75.5069V78.2532C399.043 78.5171 399.253 78.731 399.513 78.731H403.468ZM403.395 73.3893C403.949 73.3893 404.381 73.2403 404.69 72.9421C405 72.6274 405.155 72.2216 405.155 71.7247C405.155 71.1947 405 70.7806 404.69 70.4825C404.381 70.1678 403.949 70.0104 403.395 70.0104H399.513C399.253 70.0104 399.043 70.2243 399.043 70.4882V72.9115C399.043 73.1754 399.253 73.3893 399.513 73.3893H403.395Z" stroke="white" stroke-opacity="0.1" stroke-width="2" mask="url(#path-3-outside-2_532_760)"/>
<path d="M413.625 80.1611C413.538 80.2922 413.392 80.3707 413.236 80.3707H412.195C411.935 80.3707 411.725 80.1568 411.725 79.893V68.8484C411.725 68.5846 411.935 68.3706 412.195 68.3706H413.088C413.348 68.3706 413.559 68.5846 413.559 68.8484V75.9967C413.559 76.4662 414.155 76.6541 414.417 76.2668L419.604 68.5783C419.692 68.4483 419.837 68.3706 419.992 68.3706H421.084C421.343 68.3706 421.554 68.5846 421.554 68.8484V79.893C421.554 80.1568 421.343 80.3707 421.084 80.3707H420.19C419.93 80.3707 419.72 80.1568 419.72 79.893V72.5848C419.72 72.114 419.121 71.927 418.861 72.3166L413.625 80.1611Z" stroke="white" stroke-opacity="0.1" stroke-width="2" mask="url(#path-3-outside-2_532_760)"/>
<path d="M431.523 80.6689C429.763 80.6689 428.32 80.0892 427.196 78.9297C426.071 77.7537 425.509 76.2299 425.509 74.3583C425.509 72.6026 426.063 71.1202 427.171 69.911C428.28 68.6854 429.665 68.0725 431.328 68.0725C433.072 68.0725 434.449 68.6854 435.46 69.911C436.487 71.1202 437 72.6523 437 74.5073C437 74.7681 436.792 74.9794 436.535 74.9794H427.945C427.672 74.9794 427.454 75.2151 427.499 75.4884C427.654 76.4426 428.059 77.2584 428.712 77.9359C429.478 78.731 430.472 79.1285 431.694 79.1285C432.961 79.1285 434.04 78.7517 434.93 77.9982C435.154 77.8088 435.495 77.8306 435.667 78.069L435.979 78.4997C436.116 78.6899 436.098 78.9553 435.923 79.1111C434.76 80.1496 433.294 80.6689 431.523 80.6689ZM434.713 73.6129C434.976 73.6129 435.19 73.3936 435.158 73.1287C435.057 72.2949 434.725 71.537 434.164 70.8551C433.496 70.027 432.542 69.6129 431.303 69.6129C430.13 69.6129 429.201 70.0187 428.516 70.8303C427.956 71.5103 427.614 72.2717 427.488 73.1144C427.448 73.3842 427.665 73.6129 427.933 73.6129H434.713Z" stroke="white" stroke-opacity="0.1" stroke-width="2" mask="url(#path-3-outside-2_532_760)"/>
</svg>
