<svg width="40" height="40" viewBox="0 0 40 40" fill="none" xmlns="http://www.w3.org/2000/svg">
<path fill-rule="evenodd" clip-rule="evenodd" d="M19.9993 10.4167C16.5476 10.4167 13.7493 13.2149 13.7493 16.6667C13.7493 20.1185 16.5476 22.9167 19.9993 22.9167C23.4511 22.9167 26.2493 20.1185 26.2493 16.6667C26.2493 13.2149 23.4511 10.4167 19.9993 10.4167ZM16.2493 16.6667C16.2493 14.5956 17.9283 12.9167 19.9993 12.9167C22.0704 12.9167 23.7493 14.5956 23.7493 16.6667C23.7493 18.7378 22.0704 20.4167 19.9993 20.4167C17.9283 20.4167 16.2493 18.7378 16.2493 16.6667Z" fill="#27869A"/>
<path fill-rule="evenodd" clip-rule="evenodd" d="M19.9993 0.416687C11.8605 0.416687 5.41602 7.48798 5.41602 16.0145C5.41602 18.7491 6.77452 21.9691 8.48375 24.9909C10.2206 28.0616 12.4375 31.1271 14.3811 33.6055L14.4459 33.6882C15.3946 34.8981 16.2027 35.9288 16.9864 36.6407C17.8414 37.4173 18.7843 37.9258 19.9993 37.9258C21.2144 37.9258 22.1573 37.4173 23.0123 36.6407C23.796 35.9288 24.6041 34.8981 25.5528 33.6882L25.6176 33.6055C27.5612 31.1271 29.7781 28.0616 31.5149 24.9909C33.2242 21.9691 34.5827 18.7491 34.5827 16.0145C34.5827 7.48798 28.1382 0.416687 19.9993 0.416687ZM7.91602 16.0145C7.91602 8.69288 13.4107 2.91669 19.9993 2.91669C26.588 2.91669 32.0827 8.69288 32.0827 16.0145C32.0827 18.0587 31.0166 20.794 29.3389 23.7601C27.6889 26.6773 25.5564 29.6323 23.6504 32.0628C22.6188 33.3783 21.9396 34.2376 21.3313 34.7901C20.7766 35.294 20.4063 35.4258 19.9993 35.4258C19.5924 35.4258 19.2221 35.294 18.6674 34.7901C18.0591 34.2376 17.3799 33.3783 16.3483 32.0628C14.4423 29.6323 12.3098 26.6773 10.6598 23.7601C8.98205 20.794 7.91602 18.0587 7.91602 16.0145Z" fill="#27869A"/>
</svg>
