<svg width="40" height="40" viewBox="0 0 40 40" fill="none" xmlns="http://www.w3.org/2000/svg">
<path fill-rule="evenodd" clip-rule="evenodd" d="M32.6437 14.6016C32.0855 11.6701 30.6725 8.868 28.407 6.59969C22.3928 0.577855 12.6411 0.577855 6.62681 6.59969C4.79213 8.43668 3.17185 11.1559 2.46324 14.1748C1.75034 17.212 1.94799 20.6236 3.87351 23.7259C3.9721 23.8848 4.03308 23.9832 4.07615 24.0568C4.09602 24.0908 4.10647 24.1102 4.11088 24.1185C4.11489 24.1291 4.11737 24.1365 4.11882 24.1411C4.1188 24.1466 4.11857 24.1559 4.11764 24.1701C4.11646 24.1767 4.1137 24.1911 4.1081 24.2159C4.09386 24.2789 4.07218 24.3632 4.03359 24.5123L4.02239 24.5556C3.80124 25.4098 3.61948 26.112 3.51263 26.6793C3.40508 27.2503 3.34286 27.8267 3.45726 28.3895C3.78346 29.9944 5.0365 31.2499 6.64143 31.577C7.20445 31.6917 7.78084 31.6293 8.35133 31.5215C8.91807 31.4145 9.61946 31.2325 10.4726 31.0111L10.5158 30.9999C10.6647 30.9612 10.7489 30.9395 10.8119 30.9253C10.8364 30.9197 10.8507 30.9169 10.8573 30.9157C10.8703 30.9149 10.8793 30.9146 10.8848 30.9146C10.8894 30.916 10.8964 30.9184 10.9061 30.9221C10.9145 30.9265 10.9341 30.937 10.9683 30.957C11.0425 31.0003 11.1417 31.0616 11.3014 31.1604C12.3346 31.7997 13.41 32.2465 14.4993 32.5294C14.9034 33.0924 15.3579 33.6296 15.8624 34.1347C17.3489 35.6231 19.6193 36.9738 22.1483 37.5796C24.6948 38.1895 27.5962 38.0617 30.2215 36.4373C30.3488 36.3585 30.4266 36.3105 30.484 36.2768C30.5297 36.2878 30.5927 36.304 30.697 36.3311L30.739 36.342C31.4361 36.5229 32.0199 36.6744 32.494 36.7639C32.9718 36.8541 33.4807 36.9121 33.9871 36.8089C35.3957 36.5219 36.4953 35.4201 36.7815 34.0118C36.8844 33.5056 36.8266 32.9968 36.7365 32.5186C36.6471 32.044 36.4958 31.4596 36.3151 30.7617L36.3043 30.7196C36.2769 30.614 36.2607 30.5508 36.2498 30.5048C36.2833 30.4478 36.3311 30.3706 36.41 30.2436C38.0328 27.6289 38.1962 24.7568 37.5987 22.2112C37.0055 19.6838 35.6502 17.4083 34.1112 15.8674C33.6475 15.4031 33.1567 14.9811 32.6437 14.6016ZM26.6381 8.36634C21.6004 3.3223 13.4334 3.3223 8.39569 8.36634C6.87906 9.88488 5.49616 12.1938 4.89709 14.7461C4.30231 17.28 4.49248 19.9825 5.99763 22.4075C6.01187 22.4305 6.02631 22.4537 6.04087 22.477C6.18436 22.7074 6.33891 22.9554 6.42851 23.1807C6.58747 23.5803 6.6425 23.942 6.60964 24.3708C6.59118 24.6118 6.52642 24.8602 6.46953 25.0784C6.46421 25.0988 6.45895 25.119 6.45381 25.1388C6.21871 26.047 6.05884 26.6673 5.96944 27.142C5.87896 27.6224 5.89109 27.8125 5.90717 27.8916C6.03387 28.5149 6.52008 29.0009 7.1406 29.1273C7.21869 29.1432 7.40781 29.1555 7.8875 29.0649C8.36138 28.9755 8.98071 28.8154 9.88783 28.58C9.90769 28.5749 9.92785 28.5696 9.94828 28.5643C10.166 28.5074 10.4142 28.4425 10.6545 28.4239C11.0829 28.3908 11.4422 28.4451 11.8416 28.6035C12.0664 28.6926 12.3153 28.8472 12.5468 28.991C12.5703 29.0056 12.5937 29.0201 12.6168 29.0344C12.6624 29.0626 12.7081 29.0903 12.7538 29.1176C11.2467 24.6177 12.282 19.4523 15.8624 15.8674C19.573 12.1521 24.9799 11.1731 29.5856 12.9286C28.9584 11.2655 27.9762 9.70607 26.6381 8.36634ZM30.7996 16.3587C26.7544 13.623 21.2117 14.0491 17.6313 17.634C14.0803 21.1895 13.6314 26.6788 16.2896 30.7214C16.6718 31.3028 17.1189 31.855 17.6313 32.3681C18.792 33.5302 20.6519 34.6505 22.7306 35.1484C24.7918 35.642 26.9753 35.506 28.9061 34.3114C28.9252 34.2995 28.9449 34.2873 28.965 34.2748C29.1509 34.1592 29.3743 34.0202 29.5793 33.939C29.9394 33.7962 30.2689 33.7463 30.6552 33.7762C30.8742 33.7932 31.0986 33.8519 31.274 33.8979C31.2915 33.9025 31.3085 33.9069 31.325 33.9112C32.075 34.1059 32.5766 34.2353 32.9578 34.3073C33.3448 34.3804 33.4664 34.3637 33.4879 34.3593C33.9121 34.2729 34.2448 33.9406 34.3316 33.5138C34.3361 33.4914 34.3527 33.3689 34.2797 32.9813C34.2078 32.5994 34.0784 32.097 33.884 31.3461C33.8798 31.3296 33.8753 31.3126 33.8707 31.2951C33.8248 31.1193 33.7661 30.8947 33.7493 30.6752C33.7197 30.2885 33.7701 29.957 33.9134 29.5967C33.9951 29.3913 34.134 29.1687 34.2494 28.9836C34.2619 28.9637 34.274 28.9442 34.2858 28.9252C35.4883 26.9878 35.6442 24.8248 35.1648 22.7825C34.6811 20.7218 33.5632 18.8565 32.3423 17.634C31.8599 17.151 31.3428 16.7261 30.7996 16.3587Z" fill="#27869A"/>
<path d="M21.6671 25C21.6671 25.9205 20.9209 26.6666 20.0004 26.6666C19.0799 26.6666 18.3337 25.9205 18.3337 25C18.3337 24.0795 19.0799 23.3333 20.0004 23.3333C20.9209 23.3333 21.6671 24.0795 21.6671 25Z" fill="#27869A"/>
<path d="M26.6671 25C26.6671 25.9205 25.9209 26.6666 25.0004 26.6666C24.0799 26.6666 23.3337 25.9205 23.3337 25C23.3337 24.0795 24.0799 23.3333 25.0004 23.3333C25.9209 23.3333 26.6671 24.0795 26.6671 25Z" fill="#27869A"/>
<path d="M31.6671 25C31.6671 25.9205 30.9209 26.6666 30.0004 26.6666C29.0799 26.6666 28.3337 25.9205 28.3337 25C28.3337 24.0795 29.0799 23.3333 30.0004 23.3333C30.9209 23.3333 31.6671 24.0795 31.6671 25Z" fill="#27869A"/>
</svg>
