<svg width="40" height="40" viewBox="0 0 40 40" fill="none" xmlns="http://www.w3.org/2000/svg">
<path d="M21.6507 4.58332C23.0855 4.58331 23.7205 4.58457 24.2442 4.63146C30.0664 5.15273 34.6806 9.76693 35.2019 15.5891C35.2487 16.1128 35.25 16.7478 35.25 18.1826V19.8325C35.25 20.5228 35.8096 21.0825 36.5 21.0825C37.1903 21.0825 37.75 20.5228 37.75 19.8325V18.0985C37.75 16.7703 37.75 16.0155 37.6919 15.3662C37.0628 8.3394 31.4939 2.77054 24.4671 2.14142C23.8177 2.08327 23.063 2.08329 21.7347 2.08331H20.0008C19.3105 2.08331 18.7508 2.64296 18.7508 3.33332C18.7508 4.02367 19.3105 4.58332 20.0008 4.58332L21.6507 4.58332Z" fill="#27869A"/>
<path fill-rule="evenodd" clip-rule="evenodd" d="M11.8537 6.70881C10.1002 5.09759 7.40497 5.09759 5.65149 6.70881C5.57968 6.77479 5.50302 6.85147 5.40348 6.95103L3.90764 8.44687C2.40245 9.95206 1.77059 12.1219 2.23236 14.1999C4.85231 25.9897 14.0599 35.1972 25.8496 37.8172C27.9276 38.2789 30.0975 37.6471 31.6027 36.1419L33.0983 34.6462C33.198 34.5466 33.2747 34.4699 33.3407 34.398C34.9519 32.6446 34.9519 29.9493 33.3407 28.1958C33.2747 28.124 33.198 28.0473 33.0983 27.9477L30.6496 25.4989C28.9494 23.7987 26.3819 23.3125 24.1777 24.2732C22.9159 24.8233 21.446 24.5449 20.4727 23.5716L16.478 19.5769C15.5046 18.6035 15.2263 17.1336 15.7763 15.8718C16.7371 13.6677 16.2508 11.1001 14.5506 9.39996L12.1017 6.95107C12.0022 6.85149 11.9255 6.7748 11.8537 6.70881ZM7.343 8.54968C8.14004 7.8173 9.36515 7.8173 10.1622 8.54968C10.1897 8.57496 10.2258 8.61062 10.3525 8.7374L12.7829 11.1677C13.7562 12.1411 14.0346 13.611 13.4846 14.8728C12.5238 17.0769 13.01 19.6445 14.7102 21.3446L18.7049 25.3393C20.4051 27.0395 22.9726 27.5257 25.1767 26.565C26.4386 26.0149 27.9085 26.2933 28.8818 27.2667L31.3121 29.697C31.4389 29.8238 31.4746 29.8598 31.4998 29.8873C32.2322 30.6844 32.2322 31.9095 31.4998 32.7065C31.4746 32.734 31.4389 32.7701 31.3121 32.8969L29.8349 34.3741C28.9341 35.2749 27.6355 35.6531 26.392 35.3767C15.5497 32.9673 7.08221 24.4998 4.67283 13.6576C4.39648 12.414 4.77462 11.1154 5.67541 10.2146L7.15265 8.7374C7.27942 8.61062 7.31549 8.57496 7.343 8.54968Z" fill="#27869A"/>
<path d="M21.1792 7.97587C20.4888 7.97587 19.9292 8.53552 19.9292 9.22587C19.9292 9.91623 20.4888 10.4759 21.1792 10.4759H22.122C22.1401 10.4759 22.157 10.4759 22.1726 10.4759C22.2821 10.4759 22.333 10.476 22.3754 10.4766C26.208 10.5315 29.3016 13.6251 29.3565 17.4578C29.3572 17.5062 29.3572 17.5658 29.3572 17.7112V18.654C29.3572 19.3443 29.9169 19.904 30.6072 19.904C31.2976 19.904 31.8572 19.3443 31.8572 18.654V17.6991C31.8572 17.6829 31.8572 17.6675 31.8572 17.6528C31.8572 17.55 31.8571 17.4821 31.8563 17.422C31.782 12.2366 27.5965 8.05112 22.4112 7.97685C22.3424 7.97587 22.2636 7.97587 22.134 7.97587H21.1792Z" fill="#27869A"/>
</svg>
