<svg width="21" height="20" viewBox="0 0 21 20" fill="none" xmlns="http://www.w3.org/2000/svg">
<g clip-path="url(#clip0_164_16274)">
<path d="M16.9354 7.973C16.9353 7.98539 16.9343 7.99776 16.9324 8.01C16.9254 8.059 16.9284 8.132 16.9314 8.21C16.9414 8.485 16.9614 9.057 16.3174 9.152C16.2524 9.162 16.1904 9.166 16.1334 9.166C15.4414 9.166 15.4034 8.54 15.3834 8.239C15.3794 8.159 15.3744 8.083 15.3634 8.022C14.9344 5.502 14.0564 4.611 11.4484 4.043C11.3834 4.029 11.3064 4.019 11.2254 4.008C10.9464 3.971 10.5994 3.924 10.4024 3.663C10.2854 3.508 10.2464 3.31 10.2874 3.074C10.3294 2.831 10.4884 2.424 11.0834 2.424C11.2334 2.424 11.3814 2.448 11.5254 2.471C11.5924 2.482 11.6554 2.492 11.7124 2.499C14.6164 2.839 16.9584 5.294 16.9354 7.973ZM10.9154 1.516C10.5954 1.493 9.92937 1.446 9.96837 0.776C9.98537 0.486 10.1194 0 10.8214 0C10.9014 0 10.9804 0.005 11.0494 0.01C11.1074 0.014 11.1614 0.017 11.2054 0.017C11.2227 0.0174166 11.2401 0.0167486 11.2574 0.015C11.2749 0.0123475 11.2926 0.0113431 11.3104 0.012C15.7214 0.157 19.5434 4.055 19.4884 8.355C19.4884 8.412 19.4914 8.478 19.4934 8.548C19.5074 8.833 19.5234 9.188 19.2894 9.428C19.1544 9.564 18.9664 9.634 18.7294 9.634H18.7064C17.9534 9.619 17.9424 8.936 17.9364 8.608C17.9367 8.52418 17.9327 8.4404 17.9244 8.357C17.3784 4.153 15.4094 2.177 11.1264 1.535C11.0654 1.526 10.9924 1.521 10.9144 1.515L10.9154 1.516ZM17.7174 13.79C18.4074 14.302 19.2644 14.94 18.7944 16.232C18.2584 17.706 16.5134 19 15.0594 19H15.0354C15.0093 18.9997 14.9835 18.996 14.9584 18.989C14.9124 18.977 14.8494 18.963 14.7774 18.947C14.5634 18.901 14.2714 18.837 13.9934 18.721C10.9034 17.425 8.23537 15.7 6.06537 13.594C3.84837 11.444 2.09037 8.837 0.839367 5.847C0.407367 4.813 0.390367 3.82 0.787367 2.973C1.20037 2.097 2.02737 1.434 3.18037 1.057C3.63837 0.907 4.08337 0.909 4.50837 1.06C5.51037 1.42 7.89037 4.58 7.94837 5.63C8.00037 6.554 7.27037 7.037 6.87837 7.296C6.18637 7.753 6.05837 8.315 6.45237 9.175C7.26437 10.953 8.68437 12.299 10.6744 13.178C10.9204 13.287 11.1464 13.342 11.3444 13.342C11.6814 13.342 11.9544 13.181 12.1784 12.849C12.6864 12.101 13.3004 11.722 14.0064 11.722C14.5294 11.722 15.0834 11.927 15.7004 12.348L15.9994 12.551C16.4804 12.878 16.9774 13.216 17.4454 13.583C17.5334 13.652 17.6274 13.722 17.7184 13.79H17.7174ZM11.5574 4.93C12.2174 4.915 12.9424 5.25 13.5444 5.845C14.1434 6.438 14.4964 7.183 14.4884 7.839C14.5094 8.467 14.2744 8.815 13.7884 8.871C13.7585 8.87426 13.7284 8.87593 13.6984 8.876C13.2944 8.876 12.9804 8.559 12.9334 8.105C12.8334 7.13 12.3334 6.605 11.3584 6.452C11.0884 6.41 10.7934 6.333 10.6384 6.082C10.5344 5.912 10.5234 5.703 10.6084 5.462C10.7904 4.949 11.3084 4.937 11.5574 4.931V4.93Z" fill="#142D3B"/>
</g>
<defs>
<clipPath id="clip0_164_16274">
<rect width="20" height="20" fill="white" transform="translate(0.5)"/>
</clipPath>
</defs>
</svg>
