<svg width="40" height="40" viewBox="0 0 40 40" fill="none" xmlns="http://www.w3.org/2000/svg">
<path fill-rule="evenodd" clip-rule="evenodd" d="M29.1052 3.95621C27.2017 3.74998 24.8023 3.74999 21.7414 3.75H18.2573C15.1964 3.74999 12.797 3.74998 10.8935 3.95621C8.95091 4.16668 7.37695 4.60387 6.03307 5.58025C5.2195 6.17135 4.50403 6.88682 3.91294 7.70039C3.65525 8.05506 3.43288 8.4289 3.24164 8.82577C2.62461 10.1063 2.34958 11.5918 2.21562 13.3651C2.08267 15.1248 2.08268 17.2846 2.08268 19.9516V20C2.08268 20.6904 2.64233 21.25 3.33268 21.25C4.02304 21.25 4.58268 20.6904 4.58268 20C4.58268 17.2747 4.58349 15.2082 4.70851 13.5534C4.76179 12.8482 4.83652 12.2393 4.93721 11.7056L7.398 14.1664C10.1184 16.8869 12.2504 19.0189 14.1375 20.4587C16.069 21.9324 17.8903 22.7982 19.9993 22.7982C22.1084 22.7982 23.9297 21.9324 25.8612 20.4587C27.7483 19.0189 29.8802 16.8869 32.6006 14.1665L35.0615 11.7056C35.1622 12.2393 35.2369 12.8482 35.2902 13.5534C35.4152 15.2082 35.416 17.2747 35.416 20C35.416 23.1526 35.4143 25.4167 35.2243 27.1699C35.0369 28.8998 34.6784 29.9835 34.0632 30.8301C33.6263 31.4315 33.0975 31.9603 32.4962 32.3972C31.6495 33.0123 30.5658 33.3709 28.8359 33.5583C27.0827 33.7483 24.8186 33.75 21.666 33.75H18.3327C17.6423 33.75 17.0827 34.3096 17.0827 35C17.0827 35.6904 17.6423 36.25 18.3327 36.25H21.7415C24.8023 36.25 27.2017 36.25 29.1052 36.0438C31.0478 35.8333 32.6218 35.3961 33.9656 34.4197C34.7792 33.8287 35.4947 33.1132 36.0858 32.2996C37.0621 30.9557 37.4993 29.3818 37.7098 27.4392C37.916 25.5357 37.916 23.1364 37.916 20.0756V19.9517C37.916 17.2846 37.916 15.1248 37.7831 13.3651C37.6491 11.5918 37.3741 10.1063 36.7571 8.82577C36.5658 8.4289 36.3434 8.05506 36.0858 7.70039C35.4947 6.88682 34.7792 6.17135 33.9656 5.58025C32.6218 4.60387 31.0478 4.16668 29.1052 3.95621ZM9.09812 12.331L5.93611 9.16899C6.37288 8.56801 6.90149 8.03948 7.50254 7.6028C8.34921 6.98765 9.43291 6.62909 11.1628 6.44167C12.916 6.25172 15.1801 6.25 18.3327 6.25H21.666C24.8186 6.25 27.0827 6.25172 28.8359 6.44167C30.5658 6.62909 31.6495 6.98765 32.4962 7.6028C33.0972 8.03949 33.6258 8.56801 34.0626 9.16899L30.9006 12.331C28.0978 15.1338 26.0828 17.145 24.3448 18.4711C22.6356 19.7752 21.342 20.2982 19.9993 20.2982C18.6567 20.2982 17.3631 19.7752 15.6539 18.4711C13.9159 17.145 11.9009 15.1338 9.09812 12.331Z" fill="#27869A"/>
<path d="M1.66602 25.4167C0.97566 25.4167 0.416016 25.9763 0.416016 26.6667C0.416016 27.357 0.97566 27.9167 1.66602 27.9167H6.66602C7.35637 27.9167 7.91602 27.357 7.91602 26.6667C7.91602 25.9763 7.35637 25.4167 6.66602 25.4167H1.66602Z" fill="#27869A"/>
<path d="M1.66602 30.4167C0.97566 30.4167 0.416016 30.9763 0.416016 31.6667C0.416016 32.357 0.97566 32.9167 1.66602 32.9167H11.666C12.3564 32.9167 12.916 32.357 12.916 31.6667C12.916 30.9763 12.3564 30.4167 11.666 30.4167H1.66602Z" fill="#27869A"/>
</svg>
