<?xml version="1.0" encoding="utf-8"?><svg xmlns="http://www.w3.org/2000/svg" xmlns:xlink="http://www.w3.org/1999/xlink"><symbol viewBox="0 0 16 16" id="arrowDown" xmlns="http://www.w3.org/2000/svg"><path d="M3.333 6l4.472 3.833a.3.3 0 00.39 0L12.667 6"/></symbol><symbol viewBox="0 0 13 12" id="arrowRight" xmlns="http://www.w3.org/2000/svg"><path d="M4.75 2.5L8.25 6l-3.5 3.5"/></symbol><symbol viewBox="0 0 32 32" id="arrowSlider" xmlns="http://www.w3.org/2000/svg"><path d="M19.057 8.915l-7.542 7.542L19.057 24l.943-.943-6.6-6.6 6.6-6.6-.943-.942z"/></symbol><symbol viewBox="0 0 34 34" id="close" xmlns="http://www.w3.org/2000/svg"><path d="M22.657 21.243L18.414 17l4.243-4.242-1.414-1.414L17 15.585l-4.243-4.242-1.414 1.414L15.586 17l-4.243 4.243 1.414 1.414L17 18.415l4.243 4.242 1.414-1.414z"/></symbol><symbol viewBox="0 0 24 36" id="directionToggle" xmlns="http://www.w3.org/2000/svg"><path d="M15.5 6.5l-1.072 1.045 3.684 3.705H3v1.5h15.113l-3.685 3.68L15.5 17.5 21 12l-5.5-5.5zm-7 23l1.072-1.045-3.684-3.705H21v-1.5H5.887l3.686-3.68L8.5 18.5 3 24l5.5 5.5z"/></symbol><symbol viewBox="0 0 36 24" id="directionToggleMobile" xmlns="http://www.w3.org/2000/svg"><path d="M6.5 8.5l1.045 1.072 3.705-3.684V21h1.5V5.887l3.68 3.686L17.5 8.5 12 3 6.5 8.5zm23 7l-1.045-1.072-3.705 3.684V3h-1.5v15.113l-3.68-3.685L18.5 15.5 24 21l5.5-5.5z"/></symbol><symbol viewBox="0 0 40 40" id="location" xmlns="http://www.w3.org/2000/svg"><path fill-rule="evenodd" clip-rule="evenodd" d="M20 10.417a6.25 6.25 0 100 12.5 6.25 6.25 0 000-12.5zm-3.75 6.25a3.75 3.75 0 117.5 0 3.75 3.75 0 01-7.5 0z"/><path fill-rule="evenodd" clip-rule="evenodd" d="M20 .417c-8.14 0-14.584 7.071-14.584 15.598 0 2.734 1.359 5.954 3.068 8.976 1.737 3.07 3.954 6.136 5.897 8.614l.065.083c.949 1.21 1.757 2.24 2.54 2.953.855.776 1.798 1.285 3.013 1.285 1.215 0 2.158-.509 3.013-1.285.784-.712 1.592-1.743 2.54-2.953l.066-.083c1.943-2.478 4.16-5.543 5.897-8.614 1.71-3.022 3.068-6.242 3.068-8.976 0-8.527-6.445-15.598-14.584-15.598zM7.915 16.015c0-7.322 5.495-13.098 12.083-13.098 6.589 0 12.084 5.776 12.084 13.098 0 2.044-1.066 4.779-2.744 7.745-1.65 2.917-3.783 5.872-5.689 8.303-1.031 1.315-1.71 2.175-2.319 2.727-.554.504-.925.636-1.332.636-.407 0-.777-.132-1.332-.636-.608-.552-1.287-1.412-2.319-2.727-1.906-2.43-4.038-5.386-5.688-8.303-1.678-2.966-2.744-5.701-2.744-7.745z"/></symbol><symbol viewBox="0 0 40 40" id="message" xmlns="http://www.w3.org/2000/svg"><path fill-rule="evenodd" clip-rule="evenodd" d="M32.644 14.602A15.358 15.358 0 0028.407 6.6C22.393.578 12.641.578 6.627 6.6c-1.835 1.837-3.455 4.556-4.164 7.575-.713 3.037-.515 6.449 1.41 9.55a17.232 17.232 0 01.238.393.43.43 0 01.008.023.48.48 0 01-.001.03 11.293 11.293 0 01-.084.342l-.012.043c-.22.854-.403 1.556-.51 2.123-.107.571-.17 1.148-.055 1.71a4.082 4.082 0 003.184 3.188c.563.115 1.14.052 1.71-.056.567-.107 1.268-.288 2.122-.51l.043-.011a10.675 10.675 0 01.341-.084.484.484 0 01.028-.001.345.345 0 01.021.007l.062.035c.075.043.174.105.333.203a11.595 11.595 0 003.198 1.37c.404.562.859 1.1 1.363 1.605 1.487 1.488 3.757 2.839 6.286 3.445 2.547.61 5.448.482 8.073-1.143.128-.078.206-.127.263-.16.046.01.109.027.213.054l.042.011c.697.18 1.28.332 1.755.422.478.09.987.148 1.493.045a3.582 3.582 0 002.794-2.797c.103-.506.046-1.015-.044-1.493-.09-.475-.241-1.06-.422-1.757l-.01-.042a11.72 11.72 0 01-.055-.215c.033-.057.081-.134.16-.261 1.623-2.615 1.786-5.487 1.189-8.033-.593-2.527-1.949-4.803-3.488-6.344a13.003 13.003 0 00-1.467-1.265zm-6.006-6.236c-5.038-5.044-13.205-5.044-18.242 0-1.517 1.519-2.9 3.828-3.499 6.38-.595 2.534-.405 5.237 1.1 7.661l.044.07c.143.23.298.478.388.704.158.4.213.761.18 1.19a4.124 4.124 0 01-.155.768c-.235.908-.395 1.528-.485 2.003-.09.48-.078.67-.062.75a1.581 1.581 0 001.234 1.235c.078.016.267.029.747-.062.473-.09 1.093-.25 2-.485l.06-.016c.218-.057.466-.122.707-.14.428-.033.787.021 1.187.18.224.089.473.243.705.387a51.163 51.163 0 00.207.127c-1.507-4.5-.472-9.666 3.108-13.25a12.894 12.894 0 0113.724-2.94 12.87 12.87 0 00-2.948-4.562zM30.8 16.36c-4.046-2.736-9.588-2.31-13.169 1.275-3.55 3.555-4 9.045-1.341 13.087a10.44 10.44 0 001.341 1.647c1.161 1.162 3.02 2.282 5.1 2.78 2.06.494 4.244.358 6.175-.837.02-.011.039-.024.059-.036.186-.116.41-.255.614-.336a2.29 2.29 0 011.076-.163c.22.017.444.076.619.122l.051.013c.75.195 1.252.324 1.633.396.387.073.508.057.53.052.424-.086.757-.418.844-.845.004-.023.02-.145-.052-.533-.072-.382-.202-.884-.396-1.635l-.013-.05c-.046-.177-.105-.401-.122-.62a2.3 2.3 0 01.164-1.08c.082-.205.221-.427.336-.612l.037-.059c1.202-1.937 1.358-4.1.879-6.143-.484-2.06-1.602-3.925-2.823-5.148-.482-.483-1-.908-1.542-1.275z"/><path d="M21.667 25a1.667 1.667 0 11-3.333 0 1.667 1.667 0 013.333 0zm5 0a1.667 1.667 0 11-3.333 0 1.667 1.667 0 013.333 0zm5 0a1.667 1.667 0 11-3.333 0 1.667 1.667 0 013.333 0z"/></symbol><symbol viewBox="0 0 21 20" id="phone" xmlns="http://www.w3.org/2000/svg"><g clip-path="url(#ia)"><path d="M16.935 7.973a.255.255 0 01-.003.037 1.2 1.2 0 000 .2c.01.275.03.847-.615.942-.065.01-.127.014-.184.014-.692 0-.73-.626-.75-.927a1.811 1.811 0 00-.02-.217c-.429-2.52-1.307-3.411-3.915-3.979-.065-.014-.142-.024-.223-.035-.279-.037-.626-.084-.823-.345-.117-.155-.156-.353-.115-.589.042-.243.201-.65.796-.65.15 0 .298.024.442.047.067.011.13.021.187.028 2.904.34 5.246 2.795 5.223 5.474zm-6.02-6.457c-.32-.023-.986-.07-.947-.74.017-.29.151-.776.853-.776.08 0 .16.005.228.01a2.403 2.403 0 00.208.005.283.283 0 01.053-.003c4.411.145 8.233 4.043 8.178 8.343 0 .057.003.123.005.193.014.285.03.64-.204.88-.135.136-.323.206-.56.206h-.023c-.753-.015-.764-.698-.77-1.026a2.33 2.33 0 00-.012-.251c-.546-4.204-2.515-6.18-6.798-6.822-.06-.009-.134-.014-.212-.02l.001.001zm6.802 12.274c.69.512 1.547 1.15 1.077 2.442C18.258 17.706 16.514 19 15.06 19h-.024a.299.299 0 01-.077-.011c-.046-.012-.109-.026-.18-.042a4.465 4.465 0 01-.785-.226c-3.09-1.296-5.758-3.021-7.928-5.127C3.848 11.444 2.09 8.837.84 5.847.407 4.813.39 3.82.787 2.973c.413-.876 1.24-1.539 2.393-1.916.458-.15.903-.148 1.328.003 1.002.36 3.382 3.52 3.44 4.57.052.924-.678 1.407-1.07 1.666-.692.457-.82 1.019-.426 1.879.812 1.778 2.232 3.124 4.222 4.003.246.109.472.164.67.164.337 0 .61-.161.834-.493.508-.748 1.122-1.127 1.828-1.127.523 0 1.077.205 1.694.626l.3.203c.48.327.977.665 1.445 1.032.088.069.182.139.273.207zm-6.16-8.86c.66-.015 1.385.32 1.987.915.6.593.952 1.338.944 1.994.021.628-.214.976-.7 1.032a.85.85 0 01-.09.005c-.404 0-.718-.317-.765-.771-.1-.975-.6-1.5-1.575-1.653-.27-.042-.565-.119-.72-.37-.104-.17-.115-.379-.03-.62.182-.513.7-.525.95-.531V4.93z"/></g><defs><clipPath id="ia"><path transform="translate(.5)" d="M0 0h20v20H0z"/></clipPath></defs></symbol><symbol viewBox="0 0 40 40" id="phone2" xmlns="http://www.w3.org/2000/svg"><path d="M21.65 4.583c1.436 0 2.07.002 2.594.048A12.083 12.083 0 0135.202 15.59c.047.524.048 1.159.048 2.594v1.65a1.25 1.25 0 002.5 0V18.1c0-1.329 0-2.084-.058-2.733A14.583 14.583 0 0024.467 2.141c-.65-.058-1.404-.058-2.732-.058H20a1.25 1.25 0 000 2.5h1.65z"/><path fill-rule="evenodd" clip-rule="evenodd" d="M11.854 6.709a4.583 4.583 0 00-6.203 0 9.718 9.718 0 00-.248.242L3.908 8.447A6.226 6.226 0 002.232 14.2 31.106 31.106 0 0025.85 37.817a6.226 6.226 0 005.753-1.675l1.495-1.496c.1-.1.177-.176.243-.248a4.583 4.583 0 00-.243-6.45l-2.448-2.45a5.848 5.848 0 00-6.472-1.225 3.348 3.348 0 01-3.705-.701l-3.995-3.995a3.348 3.348 0 01-.702-3.705A5.848 5.848 0 0014.551 9.4L12.1 6.951a8.421 8.421 0 00-.247-.242zm-4.511 1.84a2.083 2.083 0 012.82 0l.19.188 2.43 2.43a3.348 3.348 0 01.702 3.706 5.848 5.848 0 001.225 6.472l3.995 3.994a5.848 5.848 0 006.472 1.226 3.348 3.348 0 013.705.702l2.43 2.43c.127.127.163.163.188.19a2.083 2.083 0 010 2.82 9.213 9.213 0 01-.188.19l-1.477 1.477c-.9.9-2.2 1.28-3.443 1.003a28.606 28.606 0 01-21.72-21.72 3.726 3.726 0 011.003-3.442l1.478-1.478c.126-.126.162-.162.19-.187z"/><path d="M21.18 7.976a1.25 1.25 0 100 2.5h1.195a7.083 7.083 0 016.982 7.235v.943a1.25 1.25 0 002.5 0v-1.232a9.583 9.583 0 00-9.446-9.445l-.277-.001h-.955z"/></symbol><symbol viewBox="0 0 16 16" id="search" xmlns="http://www.w3.org/2000/svg"><circle cx="7.333" cy="7.333" r="5.333"/><path d="M11 11.305l3.333 3.334"/></symbol><symbol viewBox="0 0 40 40" id="sms" xmlns="http://www.w3.org/2000/svg"><path fill-rule="evenodd" clip-rule="evenodd" d="M29.105 3.956c-1.903-.206-4.303-.206-7.364-.206h-3.484c-3.06 0-5.46 0-7.364.206-1.942.21-3.516.648-4.86 1.624a9.583 9.583 0 00-2.12 2.12 7.26 7.26 0 00-.671 1.126c-.617 1.28-.892 2.766-1.026 4.54-.133 1.759-.133 3.919-.133 6.586V20a1.25 1.25 0 102.5 0c0-2.725 0-4.792.126-6.447.053-.705.128-1.314.228-1.847l2.461 2.46c2.72 2.72 4.852 4.853 6.74 6.293 1.931 1.473 3.752 2.34 5.861 2.34 2.11 0 3.93-.867 5.862-2.34 1.887-1.44 4.02-3.572 6.74-6.293l2.46-2.46c.101.533.176 1.142.23 1.847.124 1.655.125 3.722.125 6.447 0 3.153-.002 5.417-.192 7.17-.187 1.73-.546 2.813-1.16 3.66a7.083 7.083 0 01-1.568 1.567c-.847.615-1.93.974-3.66 1.161-1.753.19-4.017.192-7.17.192h-3.333a1.25 1.25 0 100 2.5h3.409c3.06 0 5.46 0 7.363-.206 1.943-.21 3.517-.648 4.86-1.624a9.58 9.58 0 002.12-2.12c.977-1.344 1.414-2.918 1.625-4.86.206-1.904.206-4.304.206-7.364v-.124c0-2.667 0-4.827-.133-6.587-.134-1.773-.409-3.259-1.026-4.54a7.3 7.3 0 00-.671-1.125 9.583 9.583 0 00-2.12-2.12c-1.344-.976-2.918-1.413-4.86-1.624zM9.098 12.331L5.936 9.169a7.083 7.083 0 011.567-1.566c.846-.615 1.93-.974 3.66-1.161 1.753-.19 4.017-.192 7.17-.192h3.333c3.153 0 5.417.002 7.17.192 1.73.187 2.814.546 3.66 1.16.601.437 1.13.966 1.567 1.567L30.9 12.331c-2.803 2.803-4.818 4.814-6.556 6.14-1.71 1.304-3.003 1.827-4.346 1.827-1.342 0-2.636-.523-4.345-1.827-1.738-1.326-3.753-3.337-6.556-6.14z"/><path d="M1.666 25.417a1.25 1.25 0 100 2.5h5a1.25 1.25 0 000-2.5h-5zm0 5a1.25 1.25 0 100 2.5h10a1.25 1.25 0 000-2.5h-10z"/></symbol><symbol viewBox="0 0 1363 186" id="textLogo" xmlns="http://www.w3.org/2000/svg"><path d="M45.981 149.833h29.486V23.973h46.187V0H0v23.973h45.981v125.86zm77.949 0c34.228 0 45.363-38.026 47.012-87.42l1.444-38.44h42.063v125.86h29.486V0h-99.798l-1.649 51.873c-1.65 43.607-3.918 73.987-23.3 73.987h-3.712v23.973h8.454zm181.163 0V75.64h.207l54.847 74.193h34.228l-57.734-78.326L392.107 0h-32.991L305.3 72.127h-.207V0h-29.485v149.833h29.485zm182.232 0V75.64h.206l54.847 74.193h34.229l-57.735-78.326L574.338 0h-32.991l-53.816 72.127h-.206V0h-29.486v149.833h29.486zm145.548-91.346c15.671 0 26.805 12.606 26.805 35.96 0 23.353-11.134 35.753-26.805 35.753s-26.805-12.4-26.805-35.753c0-23.354 11.134-35.96 26.805-35.96zm0 94.033c28.042 0 55.672-19.22 55.672-58.073 0-39.06-27.63-58.28-55.672-58.28-28.042 0-55.672 19.22-55.672 58.28 0 38.853 27.63 58.073 55.672 58.073zm102.436-2.687v-88.04l29.898 88.04h20.001l29.898-88.04v88.04h27.218V38.647h-41.858l-25.155 79.773-25.362-79.773h-41.857v111.186h27.217zM946.464 186v-34.72c30.929 0 56.496-15.913 56.496-56.42 0-38.853-25.567-56.213-56.496-56.213V0h-26.805v38.647c-30.929 0-56.497 17.36-56.497 56.213 0 40.507 25.568 56.42 56.497 56.42V186h26.805zm-26.805-56.833c-17.114 0-27.63-7.854-27.63-33.274 0-25.626 10.928-35.133 27.63-35.133v68.407zm26.805-68.407c16.908 0 27.63 9.507 27.63 35.133 0 25.42-10.516 33.274-27.63 33.274V60.76zm125.776-2.273c15.67 0 26.81 12.606 26.81 35.96 0 23.353-11.14 35.753-26.81 35.753-15.67 0-26.8-12.4-26.8-35.753 0-23.354 11.13-35.96 26.8-35.96zm0 94.033c28.04 0 55.67-19.22 55.67-58.073 0-39.06-27.63-58.28-55.67-58.28-28.04 0-55.67 19.22-55.67 58.28 0 38.853 27.63 58.073 55.67 58.073zm128.62-21.907c-15.67 0-25.98-13.433-25.98-36.373 0-22.32 10.31-36.167 25.98-36.167 14.85 0 25.37 14.674 25.37 36.374 0 21.7-10.52 36.166-25.37 36.166zM1175.92 186v-50.22c7.21 12.4 20.2 16.74 31.75 16.74 26.39 0 48.45-22.733 48.45-58.28 0-34.927-21.44-58.073-48.24-58.073-14.03 0-25.99 6.2-31.96 16.74v-14.26h-28.46V186h28.46zm151-36.167v-88.66H1363V38.647h-100.62v22.526h36.08v88.66h28.46z"/></symbol><symbol viewBox="0 0 3937 588" id="textOutlined" xmlns="http://www.w3.org/2000/svg"><path d="M310.002 563.056l.149.211h151.153l-.558-.789-200.425-283.152L452.649 30.679l.623-.806H306.481l-.15.206-179.156 245.77V29.873H.5v533.394h126.675V305.548l182.827 257.508zm1134.148.211h.38l.1-.366 118.08-423.131v423.497h123V29.873H1488.6l-.1.369-103.87 380.071-101.68-380.069-.1-.37h-199.32v533.393h123V140.476l118.82 422.426.1.365h118.7zM2117.06 1V.5h-128.88v63.198c-73.73 7.04-131.75 31.47-171.37 70.134-39.7 38.751-60.87 91.758-60.87 155.762 0 67.668 21.17 122.511 60.87 162.183 39.62 39.585 97.64 64.015 171.37 71.056V587.5h128.88v-64.667c73.36-7.042 131.2-31.654 170.72-70.41 39.61-38.842 60.79-91.848 60.79-155.486 0-67.666-20.99-122.51-60.51-162.182-39.43-39.585-97.27-64.016-171-71.057V1zm891.16 28.873h-.5v533.394h126.68V378.949h78.87c69.11 0 129.67-8.627 172.97-34.862 43.35-26.265 69.33-70.135 69.33-140.41 0-69.91-25.98-113.413-69.33-139.402-43.3-25.959-103.86-34.402-172.97-34.402h-205.05zm629.63 532.894v.5h127.41V141.024h171.24V29.874h-469.16v111.15h170.51v421.743zM595.871 296.937c0-56.449 16.141-99.279 42.039-127.99 25.895-28.709 61.584-43.344 100.774-43.344 39.191 0 74.88 14.635 100.775 43.344 25.898 28.711 42.039 71.541 42.039 127.99 0 56.45-16.141 99.279-42.039 127.991-25.895 28.708-61.584 43.344-100.775 43.344-39.19 0-74.879-14.636-100.774-43.344-25.898-28.712-42.039-71.541-42.039-127.991zm419.649 0c0-83.097-28.336-152.074-77.132-200.278C889.593 48.455 820.377 21.06 738.684 21.06c-82.059 0-151.276 27.394-199.979 75.598C490 144.863 461.847 213.84 461.847 296.936c0 83.096 28.153 152.074 76.858 200.279 48.703 48.203 117.92 75.597 199.979 75.597 81.693 0 150.909-27.394 199.704-75.597 48.796-48.204 77.132-117.182 77.132-200.279zm972.66-134.516V424.11c-33.46-6.278-60.7-19.97-79.6-41.494-19.01-21.646-29.64-51.261-29.64-89.35 0-38.09 10.63-67.705 29.64-89.351 18.9-21.523 46.14-35.216 79.6-41.494zm128.88 261.676V162.434c33.46 7 60.51 20.692 79.23 42.031 18.83 21.462 29.27 50.71 29.27 88.801 0 38.09-10.44 67.338-29.27 88.8-18.72 21.339-45.77 35.031-79.23 42.031zm403-127.16c0-56.449 16.14-99.279 42.04-127.99 25.9-28.709 61.59-43.344 100.78-43.344s74.88 14.635 100.77 43.344c25.9 28.711 42.04 71.541 42.04 127.99 0 56.45-16.14 99.279-42.04 127.991-25.89 28.708-61.58 43.344-100.77 43.344s-74.88-14.636-100.78-43.344c-25.9-28.712-42.04-71.541-42.04-127.991zm419.66 0c0-83.097-28.34-152.074-77.14-200.278-48.79-48.204-118.01-75.598-199.7-75.598-82.06 0-151.28 27.394-199.98 75.598-48.71 48.205-76.86 117.182-76.86 200.278 0 83.096 28.15 152.074 76.86 200.279 48.7 48.203 117.92 75.597 199.98 75.597 81.69 0 150.91-27.394 199.7-75.597 48.8-48.204 77.14-117.182 77.14-200.279zm277.23-160.319c29.38 0 55.55 2.94 74.36 12.794 9.4 4.92 16.95 11.561 22.15 20.417 5.21 8.858 8.08 19.965 8.08 33.848 0 13.882-2.87 25.082-8.08 34.079-5.21 8.996-12.76 15.82-22.15 20.924-18.81 10.218-44.98 13.524-74.36 13.524h-82.55V136.618h82.55z"/></symbol><symbol viewBox="0 0 40 40" id="time" xmlns="http://www.w3.org/2000/svg"><path d="M9.948 3.06a1.25 1.25 0 10-1.562-1.953L4.22 4.441a1.25 1.25 0 101.562 1.952l4.166-3.334zm21.667-1.953a1.25 1.25 0 00-1.562 1.952l4.167 3.334a1.25 1.25 0 101.562-1.952l-4.167-3.334zM21.25 13.333a1.25 1.25 0 00-2.5 0v4.543c0 .89 0 1.646.063 2.274.066.67.209 1.29.552 1.884.343.594.809 1.028 1.355 1.42.513.367 1.168.746 1.939 1.19l1.047.605a1.25 1.25 0 101.25-2.165l-.997-.575c-.834-.482-1.382-.8-1.783-1.087-.378-.271-.543-.46-.646-.638-.104-.18-.184-.415-.23-.879-.048-.491-.05-1.124-.05-2.087v-4.485z"/><path fill-rule="evenodd" clip-rule="evenodd" d="M20 2.083C10.106 2.083 2.085 10.105 2.085 20c0 9.895 8.021 17.917 17.917 17.917 9.895 0 17.916-8.022 17.916-17.917 0-9.895-8.021-17.917-17.916-17.917zM4.585 20c0-8.514 6.902-15.417 15.417-15.417 8.514 0 15.416 6.903 15.416 15.417s-6.902 15.417-15.416 15.417c-8.515 0-15.417-6.903-15.417-15.417z"/></symbol><symbol viewBox="0 0 15 16" id="union" xmlns="http://www.w3.org/2000/svg"><path fill-rule="evenodd" clip-rule="evenodd" d="M5 8L0 0h10l5 8-5 8H0l5-8z"/></symbol><symbol viewBox="0 0 23 20" id="vk" xmlns="http://www.w3.org/2000/svg"><path d="M21.29 4.598c.144-.489 0-.848-.696-.848h-2.301c-.586 0-.855.309-1 .652 0 0-1.172 2.856-2.828 4.707-.535.536-.781.707-1.074.707-.145 0-.368-.171-.368-.66V4.598c0-.586-.164-.848-.648-.848H8.758c-.367 0-.586.273-.586.527 0 .555.828.684.914 2.246v3.391c0 .742-.133.879-.426.879-.781 0-2.68-2.867-3.805-6.148-.226-.637-.449-.895-1.039-.895h-2.3c-.657 0-.79.309-.79.652 0 .61.782 3.637 3.637 7.637 1.903 2.73 4.582 4.211 7.02 4.211 1.465 0 1.644-.328 1.644-.895 0-2.609-.132-2.855.602-2.855.34 0 .926.172 2.293 1.488 1.562 1.563 1.82 2.262 2.695 2.262h2.301c.656 0 .988-.328.797-.977-.438-1.363-3.395-4.168-3.527-4.355-.34-.438-.243-.633 0-1.023.003-.004 2.812-3.957 3.101-5.297z"/></symbol><symbol viewBox="0 0 21 20" id="whatsapp" xmlns="http://www.w3.org/2000/svg"><g clip-path="url(#ra)"><path d="M19.5 9.101a9.042 9.042 0 01-2.666 6.436 9.042 9.042 0 01-6.436 2.666c-1.54 0-3.053-.39-4.393-1.13L.5 19l1.927-5.505a9.096 9.096 0 01-1.13-4.394c0-2.43.946-4.716 2.666-6.435A9.042 9.042 0 0110.398 0c2.432 0 4.717.947 6.436 2.666A9.042 9.042 0 0119.5 9.1v.001zm-4.602 2.593l-1.314-1.313a.557.557 0 00-.788 0l-.788.788a7.732 7.732 0 01-3.677-3.677l.788-.789a.557.557 0 000-.788L7.805 4.602a.557.557 0 00-.788 0l-1.05 1.05c-.87.871.188 3.34 2.364 5.517 2.176 2.176 4.646 3.235 5.516 2.364l1.05-1.05a.556.556 0 000-.789h.001z"/></g><defs><clipPath id="ra"><path transform="translate(.5)" d="M0 0h20v20H0z"/></clipPath></defs></symbol></svg>