<svg width="3937" height="588" viewBox="0 0 3937 588" fill="none" xmlns="http://www.w3.org/2000/svg">
<path d="M310.002 563.056L310.151 563.267H310.41H460.337H461.304L460.746 562.478L260.321 279.326L452.649 30.6794L453.272 29.8734H452.253H306.735H306.481L306.331 30.0789L127.175 275.849V30.3734V29.8734H126.675H1H0.5V30.3734V562.767V563.267H1H126.675H127.175V562.767V305.548L310.002 563.056ZM1444.15 563.267H1444.53L1444.63 562.901L1562.71 139.77V562.767V563.267H1563.21H1685.21H1685.71V562.767V30.3734V29.8734H1685.21H1488.98H1488.6L1488.5 30.2416L1384.63 410.313L1282.95 30.2442L1282.85 29.8734H1282.47H1084.03H1083.53V30.3734V562.767V563.267H1084.03H1206.03H1206.53V562.767V140.476L1325.35 562.902L1325.45 563.267H1325.83H1444.15ZM2117.06 1V0.5H2116.56H1988.68H1988.18V1V63.6981C1914.45 70.7389 1856.43 95.1672 1816.81 133.832C1777.11 172.583 1755.94 225.59 1755.94 289.594C1755.94 357.262 1777.11 412.105 1816.81 451.777C1856.43 491.362 1914.45 515.792 1988.18 522.833V587V587.5H1988.68H2116.56H2117.06V587V522.833C2190.42 515.791 2248.26 491.179 2287.78 452.423C2327.39 413.581 2348.57 360.575 2348.57 296.937C2348.57 229.271 2327.58 174.427 2288.06 134.755C2248.63 95.1695 2190.79 70.7389 2117.06 63.6981V1ZM3008.22 29.8734H3007.72V30.3734V562.767V563.267H3008.22H3133.9H3134.4V562.767V378.949H3213.27C3282.38 378.949 3342.94 370.322 3386.24 344.087C3429.59 317.822 3455.57 273.952 3455.57 203.677C3455.57 133.767 3429.59 90.2638 3386.24 64.2748C3342.94 38.3165 3282.38 29.8734 3213.27 29.8734H3008.22ZM3637.85 562.767V563.267H3638.35H3764.76H3765.26V562.767V141.024H3936H3936.5V140.524V30.3734V29.8734H3936H3467.84H3467.34V30.3734V140.524V141.024H3467.84H3637.85V562.767ZM595.871 296.937C595.871 240.488 612.012 197.658 637.91 168.947C663.805 140.238 699.494 125.603 738.684 125.603C777.875 125.603 813.564 140.238 839.459 168.947C865.357 197.658 881.498 240.488 881.498 296.937C881.498 353.387 865.357 396.216 839.459 424.928C813.564 453.636 777.875 468.272 738.684 468.272C699.494 468.272 663.805 453.636 637.91 424.928C612.012 396.216 595.871 353.387 595.871 296.937ZM1015.52 296.937C1015.52 213.84 987.184 144.863 938.388 96.6587C889.593 48.4555 820.377 21.0614 738.684 21.0614C656.625 21.0614 587.408 48.4552 538.705 96.659C490 144.864 461.847 213.841 461.847 296.937C461.847 380.033 490 449.011 538.705 497.216C587.408 545.419 656.625 572.813 738.684 572.813C820.377 572.813 889.593 545.419 938.388 497.216C987.184 449.012 1015.52 380.034 1015.52 296.937ZM1988.18 162.421V424.11C1954.72 417.832 1927.48 404.14 1908.58 382.616C1889.57 360.97 1878.94 331.355 1878.94 293.266C1878.94 255.176 1889.57 225.561 1908.58 203.915C1927.48 182.392 1954.72 168.699 1988.18 162.421ZM2117.06 424.097V162.434C2150.52 169.434 2177.57 183.126 2196.29 204.465C2215.12 225.927 2225.56 255.175 2225.56 293.266C2225.56 331.356 2215.12 360.604 2196.29 382.066C2177.57 403.405 2150.52 417.097 2117.06 424.097ZM2520.06 296.937C2520.06 240.488 2536.2 197.658 2562.1 168.947C2588 140.238 2623.69 125.603 2662.88 125.603C2702.07 125.603 2737.76 140.238 2763.65 168.947C2789.55 197.658 2805.69 240.488 2805.69 296.937C2805.69 353.387 2789.55 396.216 2763.65 424.928C2737.76 453.636 2702.07 468.272 2662.88 468.272C2623.69 468.272 2588 453.636 2562.1 424.928C2536.2 396.216 2520.06 353.387 2520.06 296.937ZM2939.72 296.937C2939.72 213.84 2911.38 144.863 2862.58 96.6587C2813.79 48.4555 2744.57 21.0614 2662.88 21.0614C2580.82 21.0614 2511.6 48.4552 2462.9 96.659C2414.19 144.864 2386.04 213.841 2386.04 296.937C2386.04 380.033 2414.19 449.011 2462.9 497.216C2511.6 545.419 2580.82 572.813 2662.88 572.813C2744.57 572.813 2813.79 545.419 2862.58 497.216C2911.38 449.012 2939.72 380.034 2939.72 296.937ZM3216.95 136.618C3246.33 136.618 3272.5 139.558 3291.31 149.412C3300.71 154.332 3308.26 160.973 3313.46 169.829C3318.67 178.687 3321.54 189.794 3321.54 203.677C3321.54 217.559 3318.67 228.759 3313.46 237.756C3308.25 246.752 3300.7 253.576 3291.31 258.68C3272.5 268.898 3246.33 272.204 3216.95 272.204H3134.4V136.618H3216.95Z"/>
</svg>
