<svg width="1363" height="186" viewBox="0 0 1363 186" fill="none" xmlns="http://www.w3.org/2000/svg">
<path d="M45.9811 149.833H75.4667V23.9733H121.654V0H0V23.9733H45.9811V149.833Z" fill="white"/>
<path d="M123.93 149.833C158.158 149.833 169.293 111.807 170.942 62.4133L172.386 23.9733H214.449V149.833H243.935V0H144.137L142.488 51.8733C140.838 95.48 138.57 125.86 119.188 125.86H115.476V149.833H123.93Z" fill="white"/>
<path d="M305.093 149.833V75.64H305.3L360.147 149.833H394.375L336.641 71.5067L392.107 0H359.116L305.3 72.1267H305.093V0H275.608V149.833H305.093Z" fill="white"/>
<path d="M487.325 149.833V75.64H487.531L542.378 149.833H576.607L518.872 71.5067L574.338 0H541.347L487.531 72.1267H487.325V0H457.839V149.833H487.325Z" fill="white"/>
<path d="M632.873 58.4867C648.544 58.4867 659.678 71.0933 659.678 94.4467C659.678 117.8 648.544 130.2 632.873 130.2C617.202 130.2 606.068 117.8 606.068 94.4467C606.068 71.0933 617.202 58.4867 632.873 58.4867ZM632.873 152.52C660.915 152.52 688.545 133.3 688.545 94.4467C688.545 55.3867 660.915 36.1667 632.873 36.1667C604.831 36.1667 577.201 55.3867 577.201 94.4467C577.201 133.3 604.831 152.52 632.873 152.52Z" fill="white"/>
<path d="M735.309 149.833V61.7933L765.207 149.833H785.208L815.106 61.7933V149.833H842.324V38.6467H800.466L775.311 118.42L749.949 38.6467H708.092V149.833H735.309Z" fill="white"/>
<path d="M946.464 186V151.28C977.393 151.28 1002.96 135.367 1002.96 94.86C1002.96 56.0067 977.393 38.6467 946.464 38.6467V0H919.659V38.6467C888.73 38.6467 863.162 56.0067 863.162 94.86C863.162 135.367 888.73 151.28 919.659 151.28V186H946.464ZM919.659 129.167C902.545 129.167 892.029 121.313 892.029 95.8933C892.029 70.2667 902.957 60.76 919.659 60.76V129.167ZM946.464 60.76C963.372 60.76 974.094 70.2667 974.094 95.8933C974.094 121.313 963.578 129.167 946.464 129.167V60.76Z" fill="white"/>
<path d="M1072.24 58.4867C1087.91 58.4867 1099.05 71.0933 1099.05 94.4467C1099.05 117.8 1087.91 130.2 1072.24 130.2C1056.57 130.2 1045.44 117.8 1045.44 94.4467C1045.44 71.0933 1056.57 58.4867 1072.24 58.4867ZM1072.24 152.52C1100.28 152.52 1127.91 133.3 1127.91 94.4467C1127.91 55.3867 1100.28 36.1667 1072.24 36.1667C1044.2 36.1667 1016.57 55.3867 1016.57 94.4467C1016.57 133.3 1044.2 152.52 1072.24 152.52Z" fill="white"/>
<path d="M1200.86 130.613C1185.19 130.613 1174.88 117.18 1174.88 94.24C1174.88 71.92 1185.19 58.0733 1200.86 58.0733C1215.71 58.0733 1226.23 72.7467 1226.23 94.4467C1226.23 116.147 1215.71 130.613 1200.86 130.613ZM1175.92 186V135.78C1183.13 148.18 1196.12 152.52 1207.67 152.52C1234.06 152.52 1256.12 129.787 1256.12 94.24C1256.12 59.3133 1234.68 36.1667 1207.88 36.1667C1193.85 36.1667 1181.89 42.3667 1175.92 52.9067V38.6467H1147.46V186H1175.92Z" fill="white"/>
<path d="M1326.92 149.833V61.1733H1363V38.6467H1262.38V61.1733H1298.46V149.833H1326.92Z" fill="white"/>
</svg>
