<svg width="40" height="40" viewBox="0 0 40 40" fill="none" xmlns="http://www.w3.org/2000/svg">
<path d="M9.94819 3.05945C10.4873 2.62818 10.5747 1.84157 10.1434 1.30249C9.71214 0.763413 8.92553 0.676011 8.38645 1.10727L4.21978 4.44061C3.6807 4.87187 3.5933 5.65848 4.02456 6.19756C4.45583 6.73664 5.24244 6.82404 5.78152 6.39278L9.94819 3.05945Z" fill="#27869A"/>
<path d="M31.6149 1.10727C31.0758 0.676011 30.2892 0.763413 29.8579 1.30249C29.4266 1.84157 29.514 2.62818 30.0531 3.05945L34.2198 6.39278C34.7589 6.82404 35.5455 6.73664 35.9767 6.19756C36.408 5.65848 36.3206 4.87187 35.7815 4.44061L31.6149 1.10727Z" fill="#27869A"/>
<path d="M21.2507 13.3334C21.2507 12.643 20.691 12.0834 20.0007 12.0834C19.3103 12.0834 18.7507 12.643 18.7507 13.3334L18.7507 17.8758C18.7506 18.7655 18.7506 19.5222 18.8125 20.1502C18.8785 20.8193 19.0215 21.4393 19.3647 22.0339C19.708 22.6284 20.1735 23.0623 20.7199 23.4539C21.2328 23.8215 21.8882 24.1999 22.6588 24.6447L23.7059 25.2492C24.3038 25.5944 25.0683 25.3895 25.4134 24.7917C25.7586 24.1938 25.5537 23.4293 24.9559 23.0842L23.959 22.5086C23.1246 22.0269 22.5772 21.7093 22.1762 21.4219C21.7976 21.1505 21.6331 20.9628 21.5298 20.7838C21.4264 20.6048 21.3461 20.3686 21.3004 19.905C21.2521 19.414 21.2507 18.7812 21.2507 17.8176L21.2507 13.3334Z" fill="#27869A"/>
<path fill-rule="evenodd" clip-rule="evenodd" d="M20.0007 2.08336C10.1055 2.08336 2.08398 10.1049 2.08398 20C2.08398 29.8951 10.1055 37.9167 20.0007 37.9167C29.8958 37.9167 37.9173 29.8951 37.9173 20C37.9173 10.1049 29.8958 2.08336 20.0007 2.08336ZM4.58398 20C4.58398 11.4856 11.4863 4.58336 20.0007 4.58336C28.515 4.58336 35.4173 11.4856 35.4173 20C35.4173 28.5144 28.515 35.4167 20.0007 35.4167C11.4863 35.4167 4.58398 28.5144 4.58398 20Z" fill="#27869A"/>
</svg>
