<svg width="21" height="20" viewBox="0 0 21 20" fill="none" xmlns="http://www.w3.org/2000/svg">
<g clip-path="url(#clip0_164_16278)">
<path d="M19.5 9.10103C19.5033 10.2968 19.2693 11.4813 18.8117 12.5861C18.3541 13.6908 17.6819 14.6938 16.834 15.537C15.9908 16.3849 14.9878 17.0571 13.8831 17.5147C12.7783 17.9723 11.5938 18.2063 10.398 18.203C8.858 18.203 7.345 17.813 6.005 17.073L0.5 19L2.427 13.495C1.68524 12.1493 1.29648 10.6376 1.297 9.10103C1.297 6.67103 2.243 4.38503 3.963 2.66603C4.80608 1.81828 5.80892 1.14614 6.91348 0.688527C8.01805 0.23091 9.2024 -0.00310257 10.398 3.10596e-05C12.83 3.10596e-05 15.115 0.947031 16.834 2.66603C17.6816 3.50899 18.3537 4.51167 18.8113 5.61605C19.2689 6.72044 19.503 7.9046 19.5 9.10003V9.10103ZM14.898 11.694L13.584 10.381C13.5323 10.3293 13.4709 10.2882 13.4032 10.2602C13.3356 10.2322 13.2632 10.2177 13.19 10.2177C13.1168 10.2177 13.0444 10.2322 12.9768 10.2602C12.9091 10.2882 12.8477 10.3293 12.796 10.381L12.008 11.169C10.3946 10.4046 9.09539 9.10545 8.331 7.49203L9.119 6.70303C9.17076 6.6513 9.21183 6.58988 9.23985 6.52228C9.26786 6.45467 9.28228 6.38221 9.28228 6.30903C9.28228 6.23585 9.26786 6.16339 9.23985 6.09578C9.21183 6.02818 9.17076 5.96676 9.119 5.91503L7.805 4.60203C7.75327 4.55027 7.69185 4.5092 7.62425 4.48119C7.55664 4.45317 7.48418 4.43875 7.411 4.43875C7.33782 4.43875 7.26536 4.45317 7.19775 4.48119C7.13015 4.5092 7.06873 4.55027 7.017 4.60203L5.967 5.65203C5.097 6.52303 6.155 8.99203 8.331 11.169C10.507 13.345 12.977 14.404 13.847 13.533L14.897 12.483C14.9489 12.4313 14.9901 12.3698 15.0182 12.3021C15.0463 12.2344 15.0608 12.1618 15.0608 12.0885C15.0608 12.0152 15.0463 11.9427 15.0182 11.875C14.9901 11.8073 14.9489 11.7458 14.897 11.694H14.898Z" fill="#142D3B" />
</g>
<defs>
<clipPath id="clip0_164_16278">
<rect width="20" height="20" fill="white" transform="translate(0.5)"/>
</clipPath>
</defs>
</svg>
