<svg width="437" height="396" viewBox="0 0 437 396" fill="none" xmlns="http://www.w3.org/2000/svg">
<mask id="mask0_663_795" style="mask-type:alpha" maskUnits="userSpaceOnUse" x="0" y="0" width="437" height="396">
<rect width="437" height="396" fill="#D9D9D9"/>
</mask>
<g mask="url(#mask0_663_795)">
<path d="M318.802 332.431L436.571 264.2V134.28L318.802 202.512V332.431Z" fill="#5A6C76"/>
<path d="M205.705 0.624023L436.881 133.971L318.489 202.202L87.6241 68.8553L205.705 0.624023Z" fill="#5A6C76"/>
<path d="M436.882 133.346L437.505 133.969V262.954V264.823V273.858L421.615 282.894L414.138 278.22L337.495 322.462L334.067 333.678L319.424 342.09L317.866 341.778V333.678V331.808V201.889L435.324 134.28L436.882 133.346ZM422.238 281.024L435.947 273.235V265.758L432.208 267.939L419.434 275.416L422.238 281.024ZM319.424 340.22L332.821 332.432L335.625 323.396L319.736 332.743V340.22H319.424ZM319.424 331.185L320.359 330.562L342.48 317.788V313.426L357.746 304.703V309.065L397.937 286.009V281.647L413.203 272.924V277.286L436.259 263.889V135.527L319.736 202.823V331.185H319.424Z" fill="#142D3B"/>
<path d="M205.705 4.36328L433.766 136.152L317.243 203.449L89.182 71.6599L205.705 4.36328ZM318.8 191.61L419.745 134.595L206.016 10.906L105.383 69.1674L318.8 191.61Z" fill="#5A6C76"/>
<path d="M87.6236 67.9189L319.111 201.577L319.423 201.889V331.809V333.678V342.09L318.8 342.402L303.222 333.367L299.795 322.151L110.056 212.482L102.89 217.467L87.0004 208.432V199.397V197.527V68.2305L87.6236 67.9189ZM104.136 214.663L108.498 211.859L106.317 210.613L106.005 210.924L104.136 214.663Z" fill="#142D3B"/>
<path d="M306.963 205.315L307.274 205.627V315.607L295.435 308.753L295.124 308.441L287.023 303.768L286.712 303.456L276.742 297.537L276.119 297.225L267.707 292.552L257.737 286.944L257.114 286.632L248.701 281.647L238.732 276.039L238.109 275.727L229.696 270.743L219.727 265.135L218.792 264.823L210.38 259.838L200.41 253.918L199.787 253.607L198.852 252.984L191.375 248.933L181.405 243.325L180.782 243.014L172.37 238.029L162.4 232.421L161.465 232.109L153.053 227.124L143.395 221.516L142.46 221.205L134.048 216.22L124.39 210.612L123.455 210.3L115.043 205.315L104.45 199.396L96.6609 194.722L96.3495 194.411V85.9885V84.4307L306.963 205.315ZM200.098 252.361V145.808L193.244 142.069V248.622L200.098 252.361ZM295.124 200.33L288.269 196.592V303.145L295.124 306.883V200.33ZM286.712 195.657L277.676 190.361V296.602H286.712V195.657ZM276.119 295.979V189.426L269.264 185.687V292.24L276.119 295.979ZM267.707 184.752L258.671 179.456V285.697H267.707V184.752ZM257.114 285.074V178.521L250.259 174.783V281.336L257.114 285.074ZM249.013 173.848L239.666 168.551V274.793H248.701L249.013 173.848ZM238.109 274.17V167.617L231.254 163.878V270.431L238.109 274.17ZM230.008 162.943L220.661 157.647V263.888H229.696L230.008 162.943ZM219.103 263.265V156.712L212.249 152.973V259.526L219.103 263.265ZM211.314 152.039L201.968 146.742V252.984H211.003L211.314 152.039ZM191.998 141.134L182.963 135.838V242.079H191.998V141.134ZM181.405 241.456V134.903L174.551 131.164V237.717L181.405 241.456ZM173.304 130.23L163.958 124.933V231.175H172.993L173.304 130.23ZM162.4 230.552V123.999L155.546 120.26V226.813L162.4 230.552ZM153.988 119.325L144.952 114.029V220.27H153.988V119.325ZM143.395 219.647V113.094L136.54 109.355V215.908L143.395 219.647ZM134.983 108.421L125.948 103.124V209.366H134.983V108.421ZM124.39 208.742V102.189L117.535 98.4508V205.004L124.39 208.742ZM116.289 97.5161L107.254 92.2196V198.149H116.289V97.5161ZM105.385 197.526V91.2849L98.5304 87.5462V193.788L105.385 197.526ZM296.681 201.265V307.195H305.717V206.25L296.681 201.265Z" fill="#5A6C76"/>
<path d="M390.771 119.328L383.916 115.277L286.087 171.046L292.941 175.097L390.771 119.328Z" fill="#5A6C76"/>
<path d="M407.906 129.298L401.052 125.248L303.223 181.329L309.765 185.067L407.906 129.298Z" fill="#5A6C76"/>
<path d="M373.012 109.047L366.157 104.997L268.017 161.078L274.871 164.816L373.012 109.047Z" fill="#5A6C76"/>
<path d="M355.565 98.4526L348.71 94.4023L250.57 150.483L257.424 154.533L355.565 98.4526Z" fill="#5A6C76"/>
<path d="M338.116 88.1703L331.262 84.4316L233.433 140.201L240.287 144.251L338.116 88.1703Z" fill="#5A6C76"/>
<path d="M320.36 78.2016L313.505 74.1514L215.364 129.92L222.219 133.971L320.36 78.2016Z" fill="#5A6C76"/>
<path d="M302.91 67.6098L296.056 63.5596L197.915 119.64L204.769 123.69L302.91 67.6098Z" fill="#5A6C76"/>
<path d="M284.841 57.6381L277.986 53.8994L179.846 109.668L186.7 113.719L284.841 57.6381Z" fill="#5A6C76"/>
<path d="M267.396 47.3589L260.541 43.3086L162.4 99.0776L169.255 103.128L267.396 47.3589Z" fill="#5A6C76"/>
<path d="M249.012 37.0746L242.157 33.0244L144.017 89.1049L150.871 92.8436L249.012 37.0746Z" fill="#5A6C76"/>
<path d="M230.941 26.7934L224.087 22.7432L126.258 78.8237L133.112 82.8739L230.941 26.7934Z" fill="#5A6C76"/>
<path d="M213.493 16.5132L206.639 12.4629L108.809 68.2318L115.664 72.2821L213.493 16.5132Z" fill="#5A6C76"/>
<path d="M318.491 203.136L318.802 202.824L437.194 134.593L436.571 133.347L205.706 0L205.395 0.311577L87.0028 68.8544V69.789L318.491 203.136ZM435.325 133.97L318.802 201.267L89.4952 68.8544L205.706 1.55779L435.325 133.97Z" fill="#142D3B"/>
<path d="M105.071 69.1677L106.318 68.5446L206.016 10.9063L206.328 10.5947L242.157 31.1576L252.127 37.0772L259.916 41.7506L260.227 41.439L270.197 47.3586L269.886 47.6702L277.674 52.3436H277.986L287.956 58.2632H287.644L330.639 83.1878L340.609 89.1075L419.745 134.595L320.046 191.299L318.8 191.922L318.489 192.233L105.071 69.1677ZM411.956 137.087L407.283 129.922L311.323 186.314L318.489 190.364L411.956 137.087ZM330.639 84.4341L232.499 140.515L239.353 144.565L337.494 88.4843L330.639 84.4341ZM277.363 53.9014L178.911 109.982L185.765 114.032L284.217 57.9516L277.363 53.9014ZM272.066 55.1476L268.328 48.6049L169.875 104.685L177.664 109.359H177.976L272.066 55.1476ZM259.604 43.6199L161.152 99.7004L168.006 103.751L266.458 47.6702L259.604 43.6199ZM253.996 44.8661L250.257 38.3234L151.805 94.4039L159.594 99.0773L253.996 44.8661ZM241.845 33.3385L143.393 89.419L150.247 93.4693L248.7 37.3888L241.845 33.3385ZM125.634 79.1376L132.488 83.1878L230.941 27.1073L224.087 23.0571L125.634 79.1376ZM218.167 24.6149L214.428 18.0722L116.599 73.8411L124.388 78.2029L218.167 24.6149ZM213.182 16.8259L206.328 12.7757L108.498 69.1677L115.041 72.9064L213.182 16.8259ZM134.046 84.1225L141.835 88.4843L235.926 34.5848L232.187 28.042L134.046 84.1225ZM214.428 130.233L221.282 134.283L319.423 78.2029L312.569 74.1527L214.428 130.233ZM306.649 76.022L302.911 69.4793L205.081 125.248L212.87 129.61L306.649 76.022ZM301.665 68.233L294.81 64.1828L292.006 65.7406L196.981 119.952L203.835 123.69L301.665 68.233ZM289.514 65.429L285.775 58.8863L187.323 114.967L195.112 119.329L289.514 65.429ZM222.84 135.218L230.629 139.58L324.72 85.9919L320.981 79.4491L222.84 135.218ZM396.69 127.741L303.222 181.64L309.765 185.379L406.037 128.987L400.428 125.871L396.69 127.741ZM395.132 126.806L391.705 120.575L293.876 176.344L301.353 180.706L395.132 126.806ZM390.459 119.329L383.604 115.278L285.775 171.359L292.629 175.409L390.459 119.329ZM377.373 117.148L373.635 110.605L276.117 166.374L283.906 170.736L377.373 117.148ZM372.388 109.359L365.534 105.308L267.705 161.077L274.559 165.128L372.388 109.359ZM360.237 106.555L356.499 100.012L258.669 155.781L266.458 160.143L360.237 106.555ZM354.941 98.7657L348.087 94.7155L344.66 96.5848L249.946 150.796L256.8 154.846L354.941 98.7657ZM342.479 96.2733L338.74 89.7306L240.599 145.811L248.388 150.173L342.479 96.2733Z" fill="#142D3B"/>
<path d="M326.28 318.723L428.782 259.527V147.366L326.28 206.562V318.723ZM427.225 258.281L328.461 315.296V207.497L427.225 150.482V258.281Z" fill="#142D3B"/>
<path d="M378.31 287.569H380.491L380.18 177.589H378.31V287.569Z" fill="#142D3B"/>
<path d="M400.429 230.864C400.118 231.487 399.806 232.421 399.806 233.356C399.806 234.914 400.741 235.225 401.987 234.602L406.972 231.798C408.218 231.175 409.153 229.306 409.153 228.06C409.153 227.125 408.841 226.813 408.218 226.502H408.53C410.399 225.256 411.957 226.19 411.957 228.683C411.957 230.864 410.399 233.668 408.53 234.914L400.429 239.587C398.56 240.833 397.002 239.899 397.002 237.406C396.691 234.602 398.56 231.798 400.429 230.864Z" fill="#142D3B"/>
<path d="M348.398 260.776C348.087 261.399 347.775 262.333 347.775 263.268C347.775 264.826 348.71 265.137 349.956 264.514L354.941 261.71C356.187 261.087 357.122 259.218 357.122 257.972C357.122 257.037 356.81 256.725 356.187 256.414H356.499C358.368 255.168 359.926 256.102 359.926 258.595C359.926 261.087 358.368 263.58 356.499 264.826L348.398 269.499C346.529 270.746 344.971 269.811 344.971 267.318C344.971 264.514 346.529 261.71 348.398 260.776Z" fill="#142D3B"/>
<path d="M36.0166 101.662L-209.338 243.187L-83.6848 315.603L161.339 174.078L36.0166 101.662Z" fill="#5A6C76"/>
<path d="M36.0168 105.631L-206.031 245.503L-82.3619 316.927L159.686 177.055L36.0168 105.631ZM-84.0153 304.362L-191.151 243.85L35.6861 112.575L142.491 174.41L-84.0153 304.362Z" fill="#5A6C76"/>
<path d="M161.34 173.085L-84.3452 314.941L-84.6758 315.272V453.16V455.144V464.072L-84.0145 464.402L-67.4812 454.813L-63.8438 442.909L137.532 326.514L145.138 331.805L162.001 322.216V312.626V310.642V173.416L161.34 173.085ZM143.815 328.829L139.186 325.853L141.5 324.53L141.831 324.861L143.815 328.829Z" fill="#142D3B"/>
<path d="M-71.4515 318.908L-71.7822 319.239V435.964L-59.2169 428.689L-58.8862 428.359L-50.2889 423.399L-49.9582 423.068L-39.3769 416.785L-38.7156 416.455L-29.7876 411.495L-19.2062 405.543L-18.5449 405.212L-9.61694 399.921L0.964439 393.969L1.62571 393.639L10.5537 388.348L21.1351 382.396L22.1271 382.065L31.0551 376.775L41.6364 370.492L42.2978 370.161L43.2897 369.5L51.2257 365.201L61.8071 359.249L62.4685 358.919L71.3965 353.628L81.9777 347.676L82.9698 347.345L91.8977 342.055L102.148 336.103L103.14 335.772L112.068 330.481L122.319 324.529L123.311 324.199L132.239 318.908L143.482 312.625L151.748 307.665L152.079 307.335V192.263V190.609L-71.4515 318.908ZM41.9671 368.839V255.751L49.2418 251.783V364.871L41.9671 368.839ZM-58.8862 313.617L-51.6115 309.649V422.737L-58.8862 426.705V313.617ZM-49.9582 308.657L-40.3689 303.036V415.793H-49.9582V308.657ZM-38.7156 415.132V302.044L-31.441 298.076V411.164L-38.7156 415.132ZM-29.7876 297.084L-20.1982 291.463V404.22H-29.7876V297.084ZM-18.5449 403.559V290.471L-11.2703 286.503V399.591L-18.5449 403.559ZM-9.94762 285.511L-0.0276184 279.889V392.647H-9.61694L-9.94762 285.511ZM1.62571 391.985V278.897L8.90042 274.929V388.017L1.62571 391.985ZM10.2231 273.937L20.1431 268.316V381.073H10.5537L10.2231 273.937ZM21.7964 380.412V267.324L29.0711 263.356V376.444L21.7964 380.412ZM30.0631 262.364L39.9831 256.743V369.5H30.3938L30.0631 262.364ZM50.5644 250.791L60.1537 245.169V357.927H50.5644V250.791ZM61.8071 357.265V244.177L69.0818 240.209V353.297L61.8071 357.265ZM70.4043 239.217L80.3243 233.596V346.353H70.7351L70.4043 239.217ZM81.9777 345.692V232.604L89.2524 228.636V341.724L81.9777 345.692ZM90.9057 227.644L100.495 222.023V334.78H90.9057V227.644ZM102.148 334.119V221.031L109.423 217.063V330.151L102.148 334.119ZM111.076 216.071L120.666 210.449V323.207H111.076V216.071ZM122.319 322.545V209.457L129.594 205.489V318.577L122.319 322.545ZM130.917 204.497L140.506 198.876V311.303H130.917V204.497ZM142.49 310.641V197.884L149.764 193.916V306.673L142.49 310.641ZM-60.5396 314.609V427.036H-70.1289V319.9L-60.5396 314.609Z" fill="#5A6C76"/>
<path d="M-104.516 194.577L-97.241 190.609L6.58829 249.799L-0.68631 254.097L-104.516 194.577Z" fill="#5A6C76"/>
<path d="M-85.6699 183.997L-78.3952 179.698L25.7648 238.888L18.4901 243.186L-85.6699 183.997Z" fill="#5A6C76"/>
<path d="M-67.1506 172.756L-59.8759 168.457L44.2841 227.977L37.0094 232.276L-67.1506 172.756Z" fill="#5A6C76"/>
<path d="M-47.9727 162.172L-40.6979 158.204L63.4621 217.393L56.1873 221.692L-47.9727 162.172Z" fill="#5A6C76"/>
<path d="M-29.457 151.263L-22.1823 146.964L81.9776 206.153L74.7031 210.452L-29.457 151.263Z" fill="#5A6C76"/>
<path d="M-9.94629 140.347L-2.67158 136.049L101.488 195.569L94.2137 199.537L-9.94629 140.347Z" fill="#5A6C76"/>
<path d="M9.23242 129.436L16.507 125.138L120.336 184.658L113.062 188.956L9.23242 129.436Z" fill="#5A6C76"/>
<path d="M27.751 118.525L35.0256 114.227L138.855 173.416L131.58 177.715L27.751 118.525Z" fill="#5A6C76"/>
<path d="M-83.6869 316.595L-84.0176 316.264L-209.671 243.848L-209.01 242.525L36.0145 101L36.3451 101.331L161.998 174.077V175.069L-83.6869 316.595ZM-207.687 243.187L-84.0176 314.611L159.353 174.077L36.0145 102.653L-207.687 243.187Z" fill="#142D3B"/>
<path d="M142.822 174.409L141.499 173.748L35.686 112.575L35.3553 112.244L-2.67137 134.068L-13.2527 140.351L-21.5194 145.311L-21.85 144.98L-32.4314 151.263L-32.1007 151.594L-40.3674 156.554H-40.698L-51.2794 162.836H-50.9487L-96.5807 189.289L-107.162 195.572L-191.151 243.849L-85.338 304.031L-84.0154 304.692L-83.6847 305.023L142.822 174.409ZM-182.885 246.495L-177.925 238.889L-76.0794 298.74L-83.6847 303.039L-182.885 246.495ZM-96.5807 190.612L7.57932 250.132L0.304611 254.431L-103.855 194.911L-96.5807 190.612ZM-40.0367 158.207L64.4539 217.727L57.1793 222.026L-47.3114 162.506L-40.0367 158.207ZM-34.4154 159.529L-30.4474 152.586L74.0433 212.106L65.7767 217.066H65.446L-34.4154 159.529ZM-21.1887 147.295L83.302 206.815L76.0273 211.114L-28.4633 151.594L-21.1887 147.295ZM-15.2367 148.617L-11.2687 141.674L93.222 201.194L84.9553 206.154L-15.2367 148.617ZM-2.34068 136.383L102.15 195.903L94.8753 200.201L-9.61539 140.681L-2.34068 136.383ZM120.998 184.991L113.723 189.289L9.23265 129.769L16.5073 125.471L120.998 184.991ZM22.79 127.124L26.7579 120.18L130.587 179.369L122.321 183.999L22.79 127.124ZM28.0806 118.857L35.3553 114.559L139.185 174.409L132.241 178.377L28.0806 118.857ZM112.07 190.281L103.803 194.911L3.94196 137.706L7.91 130.761L112.07 190.281ZM26.7579 239.22L19.4833 243.519L-84.6767 183.999L-77.4021 179.7L26.7579 239.22ZM-71.1194 181.684L-67.1514 174.74L36.6779 233.929L28.4113 238.559L-71.1194 181.684ZM-65.8287 173.417L-58.554 169.119L-55.578 170.772L45.2753 228.308L38.0006 232.276L-65.8287 173.417ZM-52.9327 170.441L-48.9647 163.497L55.526 223.017L47.2593 227.647L-52.9327 170.441ZM17.83 244.511L9.56334 249.14L-90.298 192.266L-86.33 185.321L17.83 244.511ZM-166.682 236.575L-67.4821 293.78L-74.4261 297.748L-176.602 237.897L-170.65 234.591L-166.682 236.575ZM-165.029 235.583L-161.391 228.969L-57.5621 288.159L-65.498 292.788L-165.029 235.583ZM-160.069 227.647L-152.794 223.348L-48.9647 282.868L-56.2394 287.167L-160.069 227.647ZM-146.181 225.332L-142.213 218.388L-38.714 277.577L-46.9807 282.207L-146.181 225.332ZM-140.89 217.066L-133.615 212.767L-29.7861 271.956L-37.0607 276.255L-140.89 217.066ZM-127.994 214.089L-124.026 207.146L-20.1967 266.335L-28.4633 270.964L-127.994 214.089ZM-122.373 205.823L-115.098 201.524L-111.461 203.508L-10.938 261.044L-18.2127 265.343L-122.373 205.823ZM-109.146 203.177L-105.178 196.234L-1.01804 255.753L-9.2847 260.383L-109.146 203.177Z" fill="#142D3B"/>
</g>
</svg>
