<svg width="580" height="232" viewBox="0 0 580 232" fill="none" xmlns="http://www.w3.org/2000/svg">
<mask id="mask0_675_5591" style="mask-type:alpha" maskUnits="userSpaceOnUse" x="0" y="0" width="580" height="232">
<rect width="580" height="232" fill="#142D3B"/>
</mask>
<g mask="url(#mask0_675_5591)">
<g clip-path="url(#clip0_675_5591)">
<path d="M568.568 148.069C568.568 148.069 568.568 147.769 568.568 148.069V144.475H566.162C565.861 144.475 565.861 144.175 565.56 144.175L470.199 89.0675C465.988 86.6715 458.768 86.971 453.955 89.6665L331.52 160.348C330.618 160.947 330.016 161.247 329.414 161.846H327.609V170.232C327.609 171.729 328.512 173.227 330.317 174.125L425.978 229.233C430.19 231.629 437.41 231.329 442.223 228.634L564.658 157.952C567.064 156.455 568.568 154.658 568.568 152.861V150.764V148.069Z" fill="#5A6C76"/>
<path d="M568.57 152.561V150.465V148.069C568.57 148.069 568.57 148.069 568.57 147.769V144.175H566.163C565.862 144.175 565.862 143.876 565.561 143.876L530.064 123.51C527.357 123.51 525.552 123.809 524.649 124.109C519.535 125.906 438.313 172.927 436.809 180.115C435.305 187.303 432.297 222.644 432.297 222.644V230.73C435.907 231.03 439.517 230.131 442.525 228.334L564.659 157.653C567.065 156.155 568.57 154.358 568.57 152.561Z" fill="#142D3B"/>
<path d="M433.198 231.629C430.491 231.629 427.783 231.03 425.678 229.832L330.016 175.024C327.91 173.826 326.707 172.328 326.707 170.232V161.247H329.114C329.715 160.648 330.317 160.049 331.219 159.749L453.353 88.768C458.467 85.773 465.988 85.4735 470.5 88.169L566.162 143.277C566.162 143.277 566.463 143.277 566.463 143.576H569.471V152.861C569.471 154.957 567.666 157.054 564.959 158.851L442.825 229.233C440.117 230.73 436.507 231.629 433.198 231.629ZM328.512 162.744V170.232C328.512 171.43 329.414 172.628 330.919 173.526L426.58 228.634C430.491 231.03 437.41 230.73 442.223 228.035L564.357 157.353C566.463 156.155 567.967 154.358 567.967 152.861V148.069V145.373H566.162H565.861C565.56 144.774 565.56 144.774 565.259 144.774L469.598 89.6665C465.687 87.2705 458.768 87.57 453.955 90.2655L332.122 160.947C331.219 161.247 330.618 161.846 330.016 162.445L329.715 162.744H328.512Z" fill="#142D3B"/>
<path d="M425.978 221.147L330.617 166.338C326.406 163.942 327.007 159.749 331.82 157.054L453.954 86.3721C458.768 83.6766 465.987 83.3771 470.199 85.7731L565.86 140.881C570.072 143.277 569.47 147.47 564.657 150.165L442.523 220.548C437.71 223.243 430.189 223.543 425.978 221.147Z" fill="#5A6C76"/>
<path d="M433.198 223.543C430.491 223.543 427.783 222.943 425.678 221.745L330.016 166.937C327.91 165.739 326.707 163.942 326.707 162.145C326.707 160.049 328.211 157.653 331.219 156.155L453.353 85.4736C458.467 82.4786 465.988 82.1791 470.5 84.8746L566.162 139.982C568.268 141.18 569.471 142.977 569.471 144.774C569.471 146.871 567.967 149.267 564.959 150.764L442.825 221.147C440.117 222.943 436.507 223.543 433.198 223.543ZM462.98 84.5751C459.971 84.5751 456.662 85.1741 454.256 86.6716L332.122 157.653C329.715 158.851 328.512 160.648 328.512 162.145C328.512 163.343 329.414 164.541 330.919 165.44L426.58 220.548C430.491 222.944 437.41 222.644 442.223 219.949L564.357 149.267C566.763 148.069 567.967 146.272 567.967 144.774C567.967 143.576 567.064 142.378 565.56 141.48L469.598 86.0726C468.094 85.1741 465.687 84.5751 462.98 84.5751Z" fill="#142D3B"/>
<path d="M435.306 215.755L435.005 215.456L342.652 162.744L458.77 95.3569L459.071 95.6564L551.423 148.668L435.306 215.755Z" fill="#142D3B"/>
<path d="M435.603 210.364L341.746 156.455L460.27 87.8694L554.127 141.779L435.603 210.364Z" fill="#5A6C76"/>
<path d="M435.603 211.562L435.302 211.263L340.242 156.455L460.571 86.9709L460.872 87.2704L555.932 141.779L435.603 211.562ZM343.551 156.455L435.603 209.466L552.623 141.779L460.27 89.0674L343.551 156.455Z" fill="#142D3B"/>
<path d="M539.389 110.631V110.931L529.762 105.54C529.461 105.54 529.461 105.839 529.161 105.839C526.453 107.337 524.949 109.733 522.242 108.235C519.534 106.738 516.827 106.139 519.534 104.641C519.835 104.641 519.835 104.342 520.136 104.342L521.038 97.154L517.428 95.956L516.526 102.245L505.997 91.763C504.192 90.565 500.883 91.164 500.282 92.6615L499.078 95.956H497.875V103.743C497.875 104.342 498.176 104.641 498.777 104.941L527.957 121.713C528.86 122.312 530.063 122.312 530.965 122.312L541.494 120.814C543.299 120.515 544.202 119.616 544.202 118.718V110.931L539.389 110.631Z" fill="#142D3B"/>
<path d="M530.364 123.21C529.461 123.21 528.258 122.911 527.657 122.611L498.477 105.84C498.176 105.54 497.875 105.241 497.574 104.941L497.273 105.241V95.0576L498.778 95.3571L499.981 92.6616C500.282 92.0626 500.883 91.4636 502.087 90.8646C503.591 90.2656 505.696 90.5651 506.9 91.1641H507.201L516.526 100.449L517.128 94.7581L522.543 96.5551V105.54L521.038 104.941C520.738 104.941 520.738 105.241 520.437 105.241C520.136 105.54 519.835 105.54 519.835 105.54C520.136 105.84 520.738 106.139 521.339 106.439C521.941 106.738 522.543 107.038 523.144 107.337C524.648 108.236 525.551 107.637 527.356 106.139C527.957 105.54 528.559 105.241 529.461 104.642C529.461 104.642 529.762 104.642 529.762 104.342L530.063 104.043L530.665 104.342L539.088 109.134L545.104 110.033C545.405 110.033 545.706 110.332 545.706 110.632V118.418C545.706 119.916 544.503 121.114 542.397 121.114L531.868 122.611C530.665 123.21 530.665 123.21 530.364 123.21ZM498.778 103.743C498.778 104.043 499.078 104.342 499.379 104.342L528.559 121.114C529.161 121.413 530.063 121.713 531.266 121.413L541.795 119.916C542.998 119.616 543.6 119.317 543.6 118.718V111.83L540.291 111.231V112.129L530.063 106.139C529.461 106.439 528.86 107.038 528.258 107.337C526.453 108.535 524.648 110.033 522.242 108.535C521.64 108.236 521.038 107.936 520.437 107.637C518.933 107.038 518.03 106.439 517.729 105.241C517.729 104.342 518.632 103.743 519.233 103.444L520.437 104.043V97.4536L518.03 96.8546L517.429 104.043L505.696 92.3621C504.794 91.7631 503.591 91.7631 502.387 92.0626C501.786 92.3621 501.485 92.6616 501.485 92.6616L499.68 96.8546H498.778V103.743Z" fill="#142D3B"/>
<path d="M543.299 110.033L529.762 102.246C529.461 102.246 529.461 102.545 529.16 102.545C526.453 104.043 522.241 104.043 519.534 102.545C516.826 101.048 516.826 98.3521 519.534 96.8546C519.835 96.8546 519.835 96.5551 520.135 96.5551L506.298 88.4686C504.493 87.2706 501.184 87.8696 500.582 89.3671L498.175 95.3571C497.874 95.9561 498.175 96.5551 499.078 97.1541L528.258 113.926C529.16 114.525 530.363 114.525 531.266 114.525L541.795 113.028C544.201 112.728 545.104 110.931 543.299 110.033Z" fill="#5A6C76"/>
<path d="M530.366 115.423C529.463 115.423 528.26 115.124 527.658 114.824L498.478 98.0526C497.275 97.4536 496.673 96.2556 497.275 95.0576L499.682 89.0676C499.983 88.4686 500.584 87.8696 501.787 87.2706C503.292 86.6716 505.397 86.9711 506.601 87.5701L521.943 96.5551L520.438 97.1541C520.138 97.1541 520.138 97.4536 519.837 97.4536C518.934 98.0526 518.333 98.6516 518.333 99.55C518.333 100.449 518.934 101.048 519.837 101.647C522.243 103.144 526.455 103.144 528.861 101.647C528.861 101.647 529.162 101.647 529.162 101.347L529.463 101.048L530.065 101.347L543.602 109.134C544.504 109.733 545.106 110.632 545.106 111.53C544.805 112.728 543.602 113.626 541.797 113.926L531.268 115.423C530.666 115.423 530.666 115.423 530.366 115.423ZM503.592 88.7681C502.991 88.7681 502.69 88.7681 502.088 89.0676C501.487 89.3671 501.186 89.6666 501.186 89.6666L498.779 95.6566C498.779 95.9561 499.08 96.2556 499.381 96.5551L528.561 113.327C529.162 113.626 530.065 113.926 531.268 113.626L541.797 112.129C543 111.829 543.602 111.53 543.602 111.23C543.602 110.931 543.301 110.631 543 110.631L529.764 103.144C526.756 104.941 522.243 104.941 519.235 103.144C517.731 102.246 516.829 101.048 516.829 99.55C516.829 98.3521 517.43 97.1541 518.633 96.5551L505.999 89.3671C505.096 89.0676 504.495 88.7681 503.592 88.7681Z" fill="#142D3B"/>
<path d="M544.805 136.688L469.599 93.5601C467.794 92.6616 468.095 90.5651 470.201 89.3671L474.713 86.6716C476.819 85.4737 479.827 85.4737 481.632 86.3721L556.838 129.5C558.643 130.398 558.342 132.495 556.236 133.693L551.724 136.388C549.919 137.586 546.61 137.886 544.805 136.688Z" fill="#5A6C76"/>
<path d="M547.812 138.485C546.609 138.485 545.405 138.185 544.202 137.586L468.996 94.4586C467.793 93.8597 467.492 92.9612 467.492 92.0627C467.492 90.8647 468.395 89.9662 469.598 89.0677L474.11 86.3722C476.517 84.8747 479.826 84.8747 481.932 86.0727L557.137 129.2C558.341 129.799 558.641 130.698 558.641 131.596C558.641 132.794 557.739 133.693 556.536 134.591L552.023 137.287C551.121 137.886 549.617 138.485 547.812 138.485ZM545.405 136.089C546.909 136.987 549.918 136.987 551.722 135.789L556.235 133.094C557.137 132.495 557.438 131.896 557.438 131.596C557.438 130.997 557.137 130.698 556.536 130.698L481.33 87.5702C479.826 86.6717 476.818 86.6717 475.013 87.8697L470.5 90.5652C469.598 91.1642 469.297 91.7632 469.297 92.0627C469.297 92.6617 469.598 92.9612 470.2 92.9612L545.405 136.089Z" fill="#142D3B"/>
<path d="M521.336 126.804L483.733 105.241C482.831 104.642 482.831 103.743 484.034 103.144L486.441 101.946C487.343 101.347 489.148 101.347 490.05 101.946L527.653 123.51C528.556 124.109 528.556 125.007 527.352 125.606L524.946 126.804C523.743 127.403 522.238 127.403 521.336 126.804Z" fill="#5A6C76"/>
<path d="M522.841 128.002C522.24 128.002 521.337 127.703 520.736 127.403L483.434 105.839C482.832 105.54 482.531 104.941 482.531 104.342C482.531 103.743 483.133 102.844 483.735 102.545L486.141 101.347C487.344 100.448 489.45 100.448 490.653 101.347L528.256 122.911C528.858 123.21 529.159 123.809 529.159 124.408C529.159 125.007 528.557 125.906 527.955 126.205L525.549 127.403C524.646 127.703 523.744 128.002 522.841 128.002ZM488.247 102.245C487.645 102.245 487.044 102.245 486.743 102.545L484.336 103.743C484.035 104.042 484.035 104.042 484.035 104.042C484.035 104.042 484.035 104.042 484.336 104.342L521.939 125.906C522.541 126.205 523.744 126.205 524.646 125.906L527.053 124.708C527.354 124.408 527.354 124.408 527.354 124.408C527.354 124.408 527.354 124.408 527.053 124.109L489.45 102.545C489.149 102.245 488.849 102.245 488.247 102.245Z" fill="#142D3B"/>
<path d="M453.957 145.373C450.949 143.576 445.835 143.576 442.526 145.373C439.517 147.17 439.517 150.165 442.526 151.962C445.534 153.759 450.648 153.759 453.957 151.962C456.965 150.165 456.965 147.17 453.957 145.373Z" fill="#142D3B"/>
<path d="M466.291 136.987C456.063 131.297 440.12 131.297 430.193 136.987C425.079 139.982 422.07 144.175 422.07 148.668C422.07 153.16 425.079 157.353 430.193 160.348C435.307 163.343 441.925 164.841 448.242 164.841C454.86 164.841 461.177 163.343 466.291 160.348C471.405 157.353 474.413 153.16 474.413 148.668C474.413 144.175 471.405 139.982 466.291 136.987ZM464.185 156.455C455.462 161.546 441.022 161.546 432.298 156.455C428.388 154.358 426.282 151.363 426.282 148.668C426.282 145.673 428.388 142.977 432.298 140.881C436.811 138.485 442.526 136.987 448.242 136.987C453.958 136.987 459.673 138.185 464.185 140.881C468.096 142.977 470.202 145.972 470.202 148.668C470.202 151.363 467.795 154.358 464.185 156.455Z" fill="#142D3B"/>
<path d="M453.957 140.881C450.949 139.084 445.835 139.084 442.526 140.881C439.517 142.678 439.517 145.673 442.526 147.47C445.534 149.267 450.648 149.267 453.957 147.47C456.965 145.673 456.965 142.678 453.957 140.881Z" fill="#5A6C76"/>
<path d="M466.291 132.495C456.063 126.804 440.12 126.804 430.193 132.495C425.079 135.49 422.07 139.683 422.07 144.175C422.07 148.668 425.079 152.861 430.193 155.856C435.307 158.851 441.925 160.348 448.242 160.348C454.559 160.348 461.177 158.851 466.291 155.856C471.405 152.861 474.413 148.668 474.413 144.175C474.413 139.683 471.405 135.49 466.291 132.495ZM464.185 152.262C455.462 157.353 441.022 157.353 432.298 152.262C428.388 150.165 426.282 147.17 426.282 144.475C426.282 141.48 428.388 138.784 432.298 136.688C436.811 134.292 442.526 132.794 448.242 132.794C453.958 132.794 459.673 133.992 464.185 136.688C468.096 138.784 470.202 141.779 470.202 144.475C470.202 147.17 467.795 149.866 464.185 152.262Z" fill="#5A6C76"/>
<path d="M444.631 13.5939C427.785 21.3809 412.443 45.0413 410.939 66.9047C410.337 75.5902 412.142 82.7781 415.451 87.5701L439.818 133.693L451.55 139.383C452.753 136.987 469.599 55.8233 470.502 53.4273C472.307 47.7368 484.941 44.1428 484.941 38.4523C485.543 18.0864 461.477 5.80697 444.631 13.5939ZM442.525 65.7067C435.907 69.0012 430.793 64.8082 431.094 56.7218C431.395 48.6353 437.11 39.3508 443.729 36.3558C450.046 33.3609 455.16 37.2543 454.859 45.0413C454.859 53.1278 449.143 62.4122 442.525 65.7067Z" fill="#5A6C76"/>
<path d="M446.736 17.7869C429.589 25.5738 414.548 49.2342 413.044 71.0976C412.743 75.2906 413.044 78.8846 413.645 82.1791C432.898 93.8595 447.638 92.9611 462.68 103.444C467.493 81.5801 472.306 58.8182 472.607 57.6202C474.412 51.9297 483.737 47.7367 484.038 42.0463C484.64 21.6804 463.582 9.9999 446.736 17.7869ZM444.63 69.8997C438.012 73.1941 432.898 69.0012 433.199 60.9147C433.5 52.8282 439.215 43.5438 445.833 40.5488C452.151 37.5538 457.265 41.4473 456.964 49.2342C456.964 57.3207 451.248 66.6052 444.63 69.8997Z" fill="#5A6C76"/>
<path d="M452.452 141.18L439.216 134.591L438.915 134.292L414.548 87.8696C410.938 82.7781 409.133 75.2906 409.735 66.6052C411.239 44.7418 426.581 20.4824 444.33 12.3959C453.054 8.20292 464.786 9.40092 473.81 15.3909C482.233 20.7819 487.047 29.1678 486.746 38.4523C486.746 42.0463 482.835 44.7418 479.225 47.1378C476.217 49.2342 473.209 51.3307 472.306 53.7267C472.005 54.6252 468.696 69.6002 465.387 85.1741C458.769 116.322 453.956 138.485 453.354 139.683L452.452 141.18ZM441.021 132.495L450.948 137.287C452.452 130.997 458.168 104.342 462.68 84.5751C466.891 65.7067 469.298 53.7267 469.599 52.8282C470.501 49.8332 474.111 47.4373 477.42 45.0413C480.729 42.9448 484.038 40.5488 484.038 38.4523C484.038 30.0663 479.827 22.5789 472.306 17.4874C463.883 12.0964 453.354 10.8984 445.533 14.7919C428.687 22.2794 413.646 45.9398 412.443 66.9047C411.841 74.9911 413.345 81.8796 416.654 86.6716L441.021 132.495ZM438.313 68.1027C436.809 68.1027 435.305 67.8032 434.102 66.9047C431.394 65.1077 429.89 61.2142 429.89 56.4222C430.191 47.7368 436.207 38.1528 443.126 34.8583C446.435 33.3608 449.745 33.3608 452.151 34.8583C454.858 36.9548 456.363 40.5488 456.363 45.0413C456.062 53.4272 450.346 63.3107 443.126 66.9047C441.321 67.5037 439.817 68.1027 438.313 68.1027ZM447.94 36.3558C446.736 36.3558 445.533 36.6553 444.33 37.2543C438.313 40.2493 432.898 48.9348 432.598 56.4222C432.297 60.3157 433.5 63.3107 435.606 64.5087C437.411 65.7067 439.817 65.4072 442.224 64.2092C448.541 61.2142 453.655 52.2292 453.956 44.7418C453.956 41.1478 453.054 38.1528 450.948 36.9548C450.045 36.6553 449.143 36.3558 447.94 36.3558Z" fill="#142D3B"/>
<path d="M485.541 42.0463C485.842 21.6803 472.907 11.7969 456.361 19.2844C439.215 27.0713 424.173 50.7317 422.669 72.5951C422.068 81.2806 423.873 88.4686 427.182 93.2605L451.548 139.383L479.525 66.3057C480.728 63.9097 481.631 61.5137 482.232 59.1177C484.338 53.4272 485.541 47.4372 485.541 42.0463Z" fill="#142D3B"/>
<path d="M452.45 141.18L450.946 140.282L426.279 93.5601C422.669 88.4686 420.864 80.9811 421.466 72.2957C422.97 50.4323 438.312 26.1729 456.06 18.0864C463.882 14.4924 471.402 14.4924 477.118 18.3859C483.736 22.5789 487.346 30.9649 487.045 42.0463C487.045 47.7368 485.842 53.4273 484.037 59.4172C483.134 61.8132 482.232 64.5087 481.329 66.9047L452.45 141.18ZM467.191 18.0864C464.182 18.0864 460.572 18.9849 457.263 20.4824C440.417 27.9699 425.376 51.6303 424.173 72.5952C423.571 80.6816 425.075 87.5701 428.384 92.3621L451.548 136.089L478.321 65.7067C479.524 63.3107 480.427 60.9147 481.028 58.5187C482.833 52.8283 483.736 47.1378 484.037 41.7468C484.337 31.8634 481.028 24.0764 475.313 20.1829C473.207 18.6854 470.199 18.0864 467.191 18.0864Z" fill="#142D3B"/>
<path d="M452.753 87.2705L440.42 78.8845C438.615 77.6866 438.916 74.0926 440.72 71.0976C442.525 68.1026 445.534 66.3056 447.339 67.5036L453.656 71.6966L465.388 48.3357C466.892 45.0412 469.9 42.9447 472.006 43.8432C474.112 44.4422 474.413 47.7367 472.608 51.0312L455.16 86.0725C454.558 86.971 453.355 87.57 452.753 87.2705Z" fill="#5A6C76"/>
</g>
<path d="M14.8577 69.7446L-80.225 23.1297C-83.6868 21.4032 -85.6484 18.5258 -85.6484 15.5332C-85.6484 12.8859 -84.1483 10.3538 -81.3789 8.62729L-74.1093 4.36865L-71.1091 5.98003L-79.8789 11.1595C-81.7251 12.3105 -82.7636 13.9218 -82.7636 15.5332C-82.7636 17.4899 -81.3789 19.2164 -78.9557 20.4824L17.7425 67.903L14.8577 69.7446Z" fill="#5A6C76"/>
<path d="M33.7836 77.1106C31.0142 77.1106 28.3602 76.5351 26.1678 75.3841L14.8594 69.8594L17.7442 68.0178L27.4371 72.852C29.2833 73.7728 31.4758 74.2331 33.6682 74.2331C36.0914 74.2331 38.5146 73.6577 40.3609 72.6218L146.175 10.1233L149.521 11.5045L41.861 75.1539C39.6686 76.42 36.7838 77.1106 33.7836 77.1106Z" fill="#5A6C76"/>
<path d="M149.635 11.3895L146.289 10.0083L156.905 3.56282C159.213 2.06654 162.328 1.14575 165.559 1.14575C168.329 1.14575 170.983 1.72124 173.175 2.87223L233.64 33.7186L230.64 35.5602L171.791 5.5195C169.944 4.59871 167.752 4.13832 165.559 4.13832C162.905 4.13832 160.367 4.82891 158.405 6.09499L149.635 11.3895Z" fill="#5A6C76"/>
<path d="M119.977 122.805L116.977 121.194L240.099 49.7174C242.176 48.4514 243.446 46.84 243.446 44.9984C243.446 43.0417 242.061 41.3153 239.638 40.0492L230.637 35.5603L233.637 33.7188L240.907 37.4019C244.254 39.1284 246.331 42.0058 246.331 44.9984C246.331 47.8759 244.6 50.5231 241.6 52.2496L119.977 122.805Z" fill="#5A6C76"/>
<path d="M209.522 187.03L116.748 136.387C113.286 134.66 111.324 131.783 111.324 128.79C111.324 126.143 112.824 123.611 115.594 121.884L122.863 117.625L125.864 119.237L117.094 124.416C115.248 125.567 114.209 127.179 114.209 128.79C114.209 130.747 115.594 132.473 118.017 133.739L212.407 185.188L209.522 187.03Z" fill="#5A6C76"/>
<path d="M233.758 177.822C233.758 189.562 218.295 199 199.371 199C180.447 199 164.984 189.447 164.984 177.822C164.984 166.082 180.447 156.644 199.371 156.644C218.295 156.644 233.758 166.082 233.758 177.822Z" fill="#142D3B"/>
<path d="M226.604 173.794L224.642 165.737H220.026C214.949 162.514 207.679 160.442 199.487 160.442C191.294 160.442 184.024 162.514 178.947 165.737H174.447L172.37 173.678C172.139 174.484 172.023 175.29 172.023 176.211C172.023 184.958 184.37 191.979 199.487 191.979C214.603 191.979 226.95 184.958 226.95 176.211C226.95 175.29 226.834 174.484 226.604 173.794Z" fill="#5A6C76"/>
<path d="M172.023 176.211L174.1 182.081L182.178 188.411L190.948 191.058L192.217 180.699L185.524 179.203L176.524 173.563L174.331 168.499L174.562 165.737L172.023 176.211Z" fill="#142D3B"/>
<path d="M199.488 192.9C183.795 192.9 171.102 185.418 171.102 176.211C171.102 175.635 171.102 175.175 171.217 174.599L171.448 173.448L173.756 164.816H178.602C183.91 161.478 191.526 159.521 199.373 159.521C207.219 159.521 214.835 161.478 220.143 164.816H225.22L227.297 173.563C227.528 174.599 227.643 175.405 227.643 176.211C227.874 185.418 215.181 192.9 199.488 192.9ZM173.525 172.758L173.294 173.909C173.063 174.714 172.948 175.52 172.948 176.211C172.948 184.383 184.833 191.058 199.488 191.058C214.143 191.058 226.028 184.383 226.028 176.211C226.028 175.52 225.913 174.829 225.682 174.024L223.951 166.657H219.797L219.566 166.542C214.489 163.204 207.219 161.363 199.488 161.363C191.872 161.363 184.487 163.204 179.41 166.542L179.179 166.657H175.14L173.525 172.758Z" fill="#5A6C76"/>
<path d="M224.87 167.578C224.87 175.635 213.561 182.081 199.599 182.081C185.636 182.081 174.328 175.52 174.328 167.578C174.328 159.521 185.636 153.076 199.599 153.076C213.561 153.076 224.87 159.521 224.87 167.578Z" fill="#142D3B"/>
<path d="M224.526 171.722C224.526 179.779 213.218 186.224 199.255 186.224C185.293 186.224 173.984 179.663 173.984 171.722C173.984 163.665 185.293 157.219 199.255 157.219C213.218 157.104 224.526 163.665 224.526 171.722Z" fill="#142D3B"/>
<path d="M199.604 152.155C185.18 152.155 173.41 159.061 173.41 167.578C173.41 176.096 185.18 183.001 199.604 183.001C214.028 183.001 225.798 176.096 225.798 167.578C225.798 159.061 214.028 152.155 199.604 152.155ZM199.604 181.16C186.219 181.16 175.256 175.06 175.256 167.578C175.256 160.097 186.219 153.997 199.604 153.997C212.989 153.997 223.952 160.097 223.952 167.578C223.952 175.06 212.989 181.16 199.604 181.16Z" fill="#5A6C76"/>
<path d="M199.488 159.867C192.334 159.867 186.68 162.859 186.68 166.658C186.68 170.456 192.449 173.448 199.488 173.448C206.642 173.448 212.297 170.456 212.297 166.658C212.297 162.859 206.642 159.867 199.488 159.867Z" fill="#5A6C76"/>
<path d="M246.596 121.703L246.741 111.854H327.85L327.705 121.414C327.705 121.703 327.705 121.414 327.705 121.703C327.56 123.152 326.401 124.6 324.374 125.759L294.103 143.284C290.047 145.602 283.964 145.891 280.488 143.863L248.914 125.614C247.175 124.455 246.451 123.152 246.596 121.703Z" fill="#5A6C76"/>
<path d="M246.596 121.703L246.741 111.854H327.85L327.705 121.414C327.705 121.703 327.705 121.414 327.705 121.703C327.56 123.152 326.401 124.6 324.374 125.759L294.103 143.284C290.047 145.602 283.964 145.891 280.488 143.863L248.914 125.614C247.175 124.455 246.451 123.152 246.596 121.703Z" fill="#5A6C76"/>
<path d="M286.425 145.747C284.108 145.747 281.935 145.312 280.197 144.298L248.623 126.049C246.74 125.035 245.871 123.442 246.016 121.704L246.16 112.144L328.428 111.42L328.283 121.559C328.283 121.704 328.283 121.704 328.283 121.848C327.993 123.442 326.835 125.035 324.662 126.194L294.391 143.719C292.219 145.022 289.322 145.747 286.425 145.747ZM247.319 112.434L247.174 121.848C247.029 123.152 247.754 124.311 249.202 125.18L280.776 143.429C284.108 145.312 290.046 145.167 293.957 142.85L324.228 125.325C325.966 124.311 327.124 123.007 327.269 121.704V121.559L327.414 112.434H247.319Z" fill="#142D3B"/>
<path d="M249.054 115.91L280.629 134.16C284.105 136.187 290.188 135.898 294.244 133.58L324.515 116.055C328.57 113.738 329.005 110.117 325.528 108.234L293.954 89.9844C290.478 87.9567 284.395 88.2464 280.339 90.5638L250.068 108.089C246.013 110.406 245.578 113.883 249.054 115.91Z" fill="#5A6C76"/>
<path d="M248.765 119.531L280.34 137.781C283.816 139.808 289.899 139.519 293.955 137.201L324.225 119.676C328.281 117.359 328.715 113.738 325.239 111.855L293.665 93.6053C290.189 91.5775 284.106 91.8672 280.05 94.1846L249.779 111.71C245.724 114.027 245.289 117.648 248.765 119.531Z" fill="#5A6C76"/>
<path d="M286.57 136.043C284.252 136.043 282.08 135.608 280.342 134.594L248.767 116.345C247.029 115.331 246.16 114.027 246.16 112.434C246.16 110.696 247.464 108.813 249.781 107.51L280.052 89.9844C284.252 87.5221 290.625 87.3773 294.246 89.405L325.821 107.654C327.559 108.668 328.428 109.972 328.428 111.565C328.428 113.303 327.124 115.186 324.807 116.49L294.536 134.015C292.363 135.463 289.322 136.043 286.57 136.043ZM288.018 89.1153C285.411 89.1153 282.659 89.6947 280.487 90.9982L250.216 108.524C248.188 109.682 247.174 111.131 247.174 112.579C247.174 113.738 247.898 114.752 249.202 115.476L280.776 133.725C284.107 135.608 290.046 135.463 293.956 133.146L324.372 115.621C326.4 114.462 327.414 113.013 327.414 111.565C327.414 110.406 326.69 109.393 325.386 108.668L293.667 90.4189C292.218 89.5499 290.191 89.1153 288.018 89.1153Z" fill="#142D3B"/>
<path d="M289.175 112.289L287.871 103.02C288.74 102.44 288.306 102.73 289.175 102.151L305.831 111.855C305.976 112 306.555 114.172 306.7 114.317L289.899 113.158C289.609 113.158 289.175 112.724 289.175 112.289Z" fill="#5A6C76"/>
<path d="M311.626 111.855L288.887 110.551L287.004 97.3708L287.873 97.8054C287.873 97.8054 288.018 97.8054 288.018 97.9502L309.743 110.551C310.033 110.696 310.178 110.841 310.323 110.986L311.626 111.855ZM289.756 109.537L308.005 110.551L288.307 99.2537L289.756 109.537Z" fill="#142D3B"/>
<path d="M285.7 115.331C285.7 115.765 286.135 116.055 286.569 116.055L307.571 117.214C307.86 118.227 307.86 118.227 308.005 119.241L293.232 127.787C291.639 128.656 289.032 128.656 287.438 127.642L265.713 115.041C263.975 114.027 263.975 112.579 265.568 111.71L283.093 101.571C283.383 101.426 283.673 101.281 283.962 101.281L285.7 115.331Z" fill="#5A6C76"/>
<path d="M290.478 125.904C289.319 125.904 288.016 125.614 287.147 125.035L265.421 112.434C264.407 111.855 263.828 110.986 263.828 110.117C263.828 109.248 264.263 108.524 265.132 108.089L282.657 97.9504C282.947 97.8056 283.236 97.6608 283.526 97.5159L284.105 97.3711L286.278 112.289L312.493 113.883L311.335 114.752C311.19 114.896 311.045 114.896 310.9 115.041L293.375 125.18C292.651 125.759 291.492 125.904 290.478 125.904ZM283.236 98.9643L265.566 109.103C264.987 109.393 264.697 109.827 264.697 110.262C264.697 110.696 265.132 111.275 265.711 111.565L287.437 124.166C288.885 125.035 291.347 125.035 292.796 124.311L309.162 114.896L285.264 113.448L283.236 98.9643Z" fill="#142D3B"/>
<path d="M287.293 135.608V145.167L291.493 144.443L297.432 141.546L326.109 124.6L327.992 122.428V111.855L326.834 114.896L320.606 118.517L291.493 134.884L287.293 135.608Z" fill="#142D3B"/>
<path d="M283.963 135.318V144.878L281.355 144.153V134.594L283.963 135.318Z" fill="#142D3B"/>
<path d="M248.478 115.765V124.89L247.174 123.876L246.16 117.648L246.595 112.434L248.478 115.765Z" fill="#142D3B"/>
</g>
<defs>
<clipPath id="clip0_675_5591">
<rect width="256" height="239" fill="white" transform="translate(324 10)"/>
</clipPath>
</defs>
</svg>
