<svg width="482" height="423" viewBox="0 0 482 423" fill="none" xmlns="http://www.w3.org/2000/svg">
<mask id="mask0_675_5589" style="mask-type:alpha" maskUnits="userSpaceOnUse" x="0" y="0" width="482" height="423">
<path d="M0 0H482V423H0V0Z" fill="#D9D9D9"/>
</mask>
<g mask="url(#mask0_675_5589)">
<path d="M31.6525 161.391C25.7879 161.391 20.1678 160.17 15.525 157.728L-8.42188 146.006L-2.31298 142.099L18.2129 152.355C22.1226 154.309 26.7654 155.286 31.4081 155.286C36.5396 155.286 41.6711 154.065 45.5808 151.867L269.655 19.2656L276.741 22.196L48.7574 157.239C44.1146 159.926 38.0057 161.391 31.6525 161.391Z" fill="#5A6C76"/>
<path d="M276.985 21.9519L269.898 19.0215L292.379 5.34619C297.266 2.17157 303.864 0.217957 310.706 0.217957C316.57 0.217957 322.191 1.43896 326.833 3.88098L454.876 69.3269L448.523 73.2342L323.901 9.49761C319.991 7.544 315.349 6.5672 310.706 6.5672C305.086 6.5672 299.71 8.03241 295.556 10.7186L276.985 21.9519Z" fill="#5A6C76"/>
<path d="M214.185 258.339L207.832 254.92L468.56 103.271C472.958 100.585 475.646 97.1658 475.646 93.2586C475.646 89.1072 472.714 85.4442 467.582 82.758L448.523 73.2341L454.876 69.3269L470.27 77.1413C477.357 80.8044 481.755 86.9094 481.755 93.2586C481.755 99.3637 478.09 104.98 471.736 108.643L214.185 258.339Z" fill="#5A6C76"/>
<path d="M403.806 394.603L207.344 287.154C200.013 283.491 195.859 277.386 195.859 271.037C195.859 265.421 199.036 260.048 204.901 256.385L220.295 247.35L226.648 250.768L208.077 261.758C204.167 264.2 201.968 267.618 201.968 271.037C201.968 275.189 204.901 278.852 210.032 281.538L409.915 390.696L403.806 394.603Z" fill="#5A6C76"/>
<path d="M455.121 375.067C455.121 399.976 422.377 420 382.302 420C342.228 420 309.484 399.731 309.484 375.067C309.484 350.158 342.228 330.134 382.302 330.134C422.377 330.134 455.121 350.158 455.121 375.067Z" fill="#142D3B"/>
<path d="M439.971 366.52L435.817 349.426H426.043C415.291 342.588 399.897 338.193 382.547 338.193C365.198 338.193 349.804 342.588 339.052 349.426H329.522L325.124 366.276C324.635 367.985 324.391 369.694 324.391 371.648C324.391 390.207 350.537 405.104 382.547 405.104C414.558 405.104 440.704 390.207 440.704 371.648C440.704 369.694 440.46 367.985 439.971 366.52Z" fill="#5A6C76"/>
<path d="M324.391 371.648L328.789 384.102L345.894 397.533L364.465 403.15L367.153 381.172L352.98 377.997L333.92 366.031L329.278 355.287L329.766 349.426L324.391 371.648Z" fill="#142D3B"/>
<path d="M382.547 407.057C349.315 407.057 322.436 391.184 322.436 371.648C322.436 370.427 322.435 369.45 322.68 368.229L323.169 365.787L328.056 347.472H338.319C349.559 340.39 365.687 336.239 382.303 336.239C398.919 336.239 415.046 340.39 426.287 347.472H437.038L441.437 366.031C441.926 368.229 442.17 369.939 442.17 371.648C442.659 391.184 415.779 407.057 382.547 407.057ZM327.567 364.322L327.078 366.764C326.59 368.473 326.345 370.183 326.345 371.648C326.345 388.986 351.514 403.15 382.547 403.15C413.58 403.15 438.749 388.986 438.749 371.648C438.749 370.183 438.505 368.718 438.016 367.008L434.351 351.379H425.554L425.065 351.135C414.313 344.053 398.919 340.146 382.547 340.146C366.42 340.146 350.781 344.053 340.029 351.135L339.54 351.379H330.988L327.567 364.322Z" fill="#5A6C76"/>
<path d="M436.305 353.333C436.305 370.427 412.358 384.102 382.791 384.102C353.224 384.102 329.277 370.183 329.277 353.333C329.277 336.239 353.224 322.564 382.791 322.564C412.358 322.564 436.305 336.239 436.305 353.333Z" fill="#142D3B"/>
<path d="M435.573 362.124C435.573 379.218 411.626 392.894 382.059 392.894C352.492 392.894 328.545 378.974 328.545 362.124C328.545 345.03 352.492 331.355 382.059 331.355C411.626 331.111 435.573 345.03 435.573 362.124Z" fill="#142D3B"/>
<path d="M382.791 320.61C352.247 320.61 327.322 335.262 327.322 353.333C327.322 371.404 352.247 386.056 382.791 386.056C413.336 386.056 438.26 371.404 438.26 353.333C438.26 335.262 413.336 320.61 382.791 320.61ZM382.791 382.149C354.446 382.149 331.232 369.206 331.232 353.333C331.232 337.46 354.446 324.517 382.791 324.517C411.136 324.517 434.35 337.46 434.35 353.333C434.35 369.206 411.136 382.149 382.791 382.149Z" fill="#5A6C76"/>
<path d="M382.547 336.972C367.397 336.972 355.424 343.321 355.424 351.379C355.424 359.438 367.642 365.787 382.547 365.787C397.697 365.787 409.671 359.438 409.671 351.379C409.671 343.321 397.697 336.972 382.547 336.972Z" fill="#5A6C76"/>
</g>
</svg>
