<svg width="576" height="422" viewBox="0 0 576 422" fill="none" xmlns="http://www.w3.org/2000/svg">
<g clip-path="url(#clip0_675_5590)">
<path d="M555.861 243.787C555.861 243.787 555.861 243.258 555.861 243.787V237.441H551.621C551.091 237.441 551.091 236.912 550.562 236.912L382.563 139.609C375.143 135.378 362.424 135.907 353.945 140.667L138.249 265.469C136.659 266.526 135.599 267.055 134.539 268.113H131.359V282.92C131.359 285.564 132.949 288.208 136.129 289.794L304.658 387.098C312.077 391.328 324.796 390.8 333.276 386.04L548.972 261.238C553.211 258.594 555.861 255.421 555.861 252.248V248.546V243.787Z" fill="#5A6C76"/>
<path d="M555.861 251.719V248.018V243.787C555.861 243.787 555.861 243.787 555.861 243.258V236.912H551.621C551.091 236.912 551.091 236.383 550.562 236.383L488.026 200.424C483.256 200.424 480.076 200.952 478.486 201.481C469.477 204.654 326.386 287.679 323.737 300.371C321.087 313.063 315.787 375.464 315.787 375.464V389.742C322.147 390.271 328.506 388.684 333.806 385.511L548.972 260.709C553.211 258.065 555.861 254.892 555.861 251.719Z" fill="#142D3B"/>
<path d="M317.377 391.328C312.607 391.328 307.838 390.271 304.128 388.155L135.599 291.381C131.889 289.266 129.77 286.622 129.77 282.92V267.055H134.009C135.069 265.997 136.129 264.94 137.719 264.411L352.885 139.08C361.894 133.792 375.143 133.263 383.093 138.023L551.621 235.326C551.621 235.326 552.151 235.326 552.151 235.855H557.451V252.248C557.451 255.95 554.271 259.652 549.502 262.825L334.336 387.098C329.566 389.742 323.207 391.328 317.377 391.328ZM132.949 269.699V282.92C132.949 285.035 134.539 287.15 137.189 288.737L305.718 386.04C312.607 390.271 324.797 389.742 333.276 384.982L548.442 260.18C552.151 258.065 554.801 254.892 554.801 252.248V243.787V239.028H551.621H551.092C550.562 237.97 550.562 237.97 550.032 237.97L381.503 140.667C374.613 136.436 362.424 136.965 353.945 141.724L139.309 266.526C137.719 267.055 136.659 268.113 135.599 269.17L135.069 269.699H132.949Z" fill="#142D3B"/>
<path d="M304.658 372.82L136.659 276.045C129.239 271.815 130.299 264.411 138.779 259.652L353.944 134.85C362.424 130.09 375.143 129.561 382.563 133.792L551.091 231.095C558.511 235.326 557.451 242.729 548.971 247.489L333.806 371.762C325.326 376.521 312.077 377.05 304.658 372.82Z" fill="#5A6C76"/>
<path d="M317.377 377.05C312.607 377.05 307.838 375.992 304.128 373.877L135.599 277.103C131.889 274.987 129.77 271.815 129.77 268.642C129.77 264.94 132.419 260.709 137.719 258.065L352.885 133.263C361.894 127.975 375.143 127.446 383.093 132.206L551.621 229.509C555.331 231.624 557.451 234.797 557.451 237.97C557.451 241.672 554.801 245.902 549.502 248.546L334.336 372.82C329.566 375.993 323.207 377.05 317.377 377.05ZM369.844 131.677C364.544 131.677 358.714 132.734 354.475 135.378L139.309 260.709C135.069 262.825 132.949 265.998 132.949 268.642C132.949 270.757 134.539 272.872 137.189 274.459L305.718 371.762C312.607 375.993 324.797 375.464 333.276 370.704L548.442 245.902C552.681 243.787 554.801 240.614 554.801 237.97C554.801 235.855 553.211 233.739 550.562 232.153L381.503 134.321C378.853 132.734 374.613 131.677 369.844 131.677Z" fill="#142D3B"/>
<path d="M321.087 363.301L320.557 362.772L157.857 269.699L362.424 150.714L362.954 151.243L525.653 244.845L321.087 363.301Z" fill="#142D3B"/>
<path d="M321.617 353.782L156.268 258.594L365.074 137.494L530.423 232.682L321.617 353.782Z" fill="#5A6C76"/>
<path d="M321.616 355.897L321.086 355.368L153.617 258.594L365.603 135.907L366.133 136.436L533.602 232.682L321.616 355.897ZM159.447 258.594L321.616 352.195L527.772 232.682L365.073 139.609L159.447 258.594Z" fill="#142D3B"/>
<path d="M504.455 177.684V178.213L487.497 168.694C486.967 168.694 486.967 169.223 486.437 169.223C481.667 171.867 479.017 176.098 474.247 173.454C469.478 170.81 464.708 169.752 469.478 167.108C470.008 167.108 470.008 166.579 470.538 166.579L472.128 153.887L465.768 151.772L464.178 162.877L445.629 144.368C442.45 142.253 436.62 143.311 435.56 145.955L433.44 151.772H431.32V165.521C431.32 166.579 431.85 167.108 432.91 167.637L484.317 197.251C485.907 198.308 488.027 198.308 489.616 198.308L508.165 195.664C511.345 195.135 512.935 193.549 512.935 191.962V178.213L504.455 177.684Z" fill="#142D3B"/>
<path d="M488.556 199.895C486.966 199.895 484.846 199.366 483.786 198.837L432.38 169.223C431.85 168.694 431.32 168.165 430.79 167.637L430.26 168.165V150.186L432.91 150.714L435.029 145.955C435.559 144.897 436.619 143.84 438.739 142.782C441.389 141.724 445.099 142.253 447.219 143.311H447.749L464.178 159.704L465.237 149.657L474.777 152.83V168.694L472.127 167.637C471.597 167.637 471.597 168.165 471.067 168.165C470.537 168.694 470.007 168.694 470.007 168.694C470.537 169.223 471.597 169.752 472.657 170.281C473.717 170.81 474.777 171.338 475.837 171.867C478.487 173.454 480.076 172.396 483.256 169.752C484.316 168.694 485.376 168.165 486.966 167.108C486.966 167.108 487.496 167.108 487.496 166.579L488.026 166.05L489.086 166.579L503.925 175.04L514.524 176.627C515.054 176.627 515.584 177.155 515.584 177.684V191.434C515.584 194.078 513.464 196.193 509.754 196.193L491.206 198.837C489.086 199.895 489.086 199.895 488.556 199.895ZM432.91 165.521C432.91 166.05 433.44 166.579 433.97 166.579L485.376 196.193C486.436 196.722 488.026 197.251 490.146 196.722L508.695 194.078C510.814 193.549 511.874 193.02 511.874 191.962V179.8L506.045 178.742V180.328L488.026 169.752C486.966 170.281 485.906 171.338 484.846 171.867C481.666 173.983 478.487 176.627 474.247 173.983C473.187 173.454 472.127 172.925 471.067 172.396C468.417 171.338 466.827 170.281 466.297 168.165C466.297 166.579 467.887 165.521 468.947 164.993L471.067 166.05V154.416L466.827 153.358L465.767 166.05L445.099 145.426C443.509 144.368 441.389 144.368 439.269 144.897C438.209 145.426 437.679 145.955 437.679 145.955L434.5 153.358H432.91V165.521Z" fill="#142D3B"/>
<path d="M511.344 176.627L487.495 162.877C486.965 162.877 486.965 163.406 486.435 163.406C481.666 166.05 474.246 166.05 469.477 163.406C464.707 160.762 464.707 156.003 469.477 153.358C470.007 153.358 470.007 152.83 470.537 152.83L446.158 138.551C442.978 136.436 437.149 137.494 436.089 140.138L431.849 150.714C431.319 151.772 431.849 152.83 433.439 153.887L484.846 183.501C486.436 184.559 488.555 184.559 490.145 184.559L508.694 181.915C512.934 181.386 514.524 178.213 511.344 176.627Z" fill="#5A6C76"/>
<path d="M488.556 186.145C486.966 186.145 484.846 185.617 483.786 185.088L432.379 155.474C430.26 154.416 429.2 152.301 430.26 150.186L434.499 139.609C435.029 138.551 436.089 137.494 438.209 136.436C440.859 135.378 444.569 135.907 446.688 136.965L473.717 152.83L471.067 153.887C470.537 153.887 470.537 154.416 470.007 154.416C468.417 155.474 467.357 156.531 467.357 158.118C467.357 159.704 468.417 160.762 470.007 161.82C474.247 164.464 481.666 164.464 485.906 161.82C485.906 161.82 486.436 161.82 486.436 161.291L486.966 160.762L488.026 161.291L511.874 175.04C513.464 176.098 514.524 177.684 514.524 179.271C513.994 181.386 511.874 182.972 508.694 183.501L490.146 186.145C489.086 186.145 489.086 186.145 488.556 186.145ZM441.389 139.08C440.329 139.08 439.799 139.08 438.739 139.609C437.679 140.138 437.149 140.667 437.149 140.667L432.909 151.243C432.909 151.772 433.439 152.301 433.969 152.83L485.376 182.444C486.436 182.972 488.026 183.501 490.146 182.972L508.694 180.328C510.814 179.8 511.874 179.271 511.874 178.742C511.874 178.213 511.344 177.684 510.814 177.684L487.496 164.464C482.196 167.637 474.247 167.637 468.947 164.464C466.297 162.877 464.707 160.762 464.707 158.118C464.707 156.003 465.767 153.887 467.887 152.83L445.629 140.138C444.039 139.609 442.979 139.08 441.389 139.08Z" fill="#142D3B"/>
<path d="M513.993 223.692L381.502 147.541C378.322 145.955 378.852 142.253 382.562 140.138L390.511 135.378C394.221 133.263 399.521 133.263 402.701 134.85L535.192 211C538.372 212.586 537.842 216.288 534.132 218.403L526.182 223.163C523.003 225.278 517.173 225.807 513.993 223.692Z" fill="#5A6C76"/>
<path d="M519.294 226.865C517.174 226.865 515.054 226.336 512.934 225.278L380.443 149.128C378.323 148.07 377.793 146.484 377.793 144.897C377.793 142.782 379.383 141.195 381.503 139.609L389.452 134.85C393.692 132.206 399.522 132.206 403.231 134.321L535.722 210.471C537.842 211.529 538.372 213.115 538.372 214.702C538.372 216.817 536.782 218.404 534.663 219.99L526.713 224.749C525.123 225.807 522.473 226.865 519.294 226.865ZM515.054 222.634C517.704 224.221 523.003 224.221 526.183 222.105L534.133 217.346C535.722 216.288 536.252 215.231 536.252 214.702C536.252 213.644 535.722 213.115 534.663 213.115L402.171 136.965C399.522 135.378 394.222 135.378 391.042 137.494L383.093 142.253C381.503 143.311 380.973 144.368 380.973 144.897C380.973 145.955 381.503 146.484 382.563 146.484L515.054 222.634Z" fill="#142D3B"/>
<path d="M472.656 206.241L406.411 168.165C404.821 167.108 404.821 165.521 406.941 164.464L411.18 162.348C412.77 161.291 415.95 161.291 417.54 162.348L483.785 200.424C485.375 201.481 485.375 203.068 483.256 204.125L479.016 206.241C476.896 207.298 474.246 207.298 472.656 206.241Z" fill="#5A6C76"/>
<path d="M475.306 208.356C474.246 208.356 472.656 207.827 471.597 207.298L405.881 169.223C404.821 168.694 404.291 167.637 404.291 166.579C404.291 165.521 405.351 163.935 406.411 163.406L410.651 161.291C412.77 159.704 416.48 159.704 418.6 161.291L484.846 199.366C485.906 199.895 486.436 200.952 486.436 202.01C486.436 203.068 485.376 204.654 484.316 205.183L480.076 207.298C478.486 207.827 476.896 208.356 475.306 208.356ZM414.36 162.877C413.3 162.877 412.24 162.877 411.711 163.406L407.471 165.521C406.941 166.05 406.941 166.05 406.941 166.05C406.941 166.05 406.941 166.05 407.471 166.579L473.716 204.654C474.776 205.183 476.896 205.183 478.486 204.654L482.726 202.539C483.256 202.01 483.256 202.01 483.256 202.01C483.256 202.01 483.256 202.01 482.726 201.481L416.48 163.406C415.95 162.877 415.42 162.877 414.36 162.877Z" fill="#142D3B"/>
<path d="M353.945 239.028C348.646 235.855 339.636 235.855 333.807 239.028C328.507 242.2 328.507 247.489 333.807 250.662C339.106 253.835 348.116 253.835 353.945 250.662C359.245 247.489 359.245 242.2 353.945 239.028Z" fill="#142D3B"/>
<path d="M375.674 224.221C357.656 214.173 329.567 214.173 312.079 224.221C303.069 229.509 297.77 236.912 297.77 244.845C297.77 252.777 303.069 260.18 312.079 265.469C321.088 270.757 332.747 273.401 343.876 273.401C355.536 273.401 366.665 270.757 375.674 265.469C384.684 260.18 389.983 252.777 389.983 244.845C389.983 236.912 384.684 229.509 375.674 224.221ZM371.965 258.594C356.596 267.584 331.157 267.584 315.788 258.594C308.899 254.892 305.189 249.604 305.189 244.845C305.189 239.556 308.899 234.797 315.788 231.095C323.738 226.865 333.807 224.221 343.876 224.221C353.946 224.221 364.015 226.336 371.965 231.095C378.854 234.797 382.564 240.085 382.564 244.845C382.564 249.604 378.324 254.892 371.965 258.594Z" fill="#142D3B"/>
<path d="M353.945 231.095C348.646 227.922 339.636 227.922 333.807 231.095C328.507 234.268 328.507 239.556 333.807 242.729C339.106 245.902 348.116 245.902 353.945 242.729C359.245 239.556 359.245 234.268 353.945 231.095Z" fill="#5A6C76"/>
<path d="M375.674 216.288C357.656 206.241 329.567 206.241 312.079 216.288C303.069 221.576 297.77 228.98 297.77 236.912C297.77 244.845 303.069 252.248 312.079 257.536C321.088 262.825 332.747 265.469 343.876 265.469C355.006 265.469 366.665 262.825 375.674 257.536C384.684 252.248 389.983 244.845 389.983 236.912C389.983 228.98 384.684 221.576 375.674 216.288ZM371.965 251.191C356.596 260.181 331.157 260.181 315.788 251.191C308.899 247.489 305.189 242.201 305.189 237.441C305.189 232.153 308.899 227.394 315.788 223.692C323.738 219.461 333.807 216.817 343.876 216.817C353.946 216.817 364.015 218.932 371.965 223.692C378.854 227.394 382.564 232.682 382.564 237.441C382.564 242.201 378.324 246.96 371.965 251.191Z" fill="#5A6C76"/>
<path d="M337.517 6.34586C307.839 20.0952 280.811 61.8722 278.161 100.476C277.101 115.812 280.281 128.504 286.11 136.965L329.038 218.403L349.706 228.451C351.826 224.221 381.504 80.9098 383.094 76.6792C386.274 66.6316 408.532 60.2857 408.532 50.2381C409.592 14.2782 367.195 -7.40351 337.517 6.34586ZM333.807 98.3609C322.148 104.178 313.139 96.7744 313.669 82.4962C314.199 68.218 324.268 51.8246 335.927 46.5363C347.056 41.2481 356.066 48.1228 355.536 61.8722C355.536 76.1504 345.466 92.5439 333.807 98.3609Z" fill="#5A6C76"/>
<path d="M341.226 13.7494C311.018 27.4988 284.52 69.2757 281.87 107.88C281.34 115.283 281.87 121.629 282.93 127.446C316.848 148.07 342.816 146.484 369.314 164.992C377.794 126.388 386.273 86.198 386.803 84.0827C389.983 74.0351 406.412 66.6316 406.942 56.584C408.002 20.6241 370.904 1.33514e-05 341.226 13.7494ZM337.516 105.764C325.857 111.581 316.848 104.178 317.378 89.8998C317.908 75.6216 327.977 59.2281 339.636 53.9399C350.765 48.6516 359.775 55.5263 359.245 69.2757C359.245 83.5539 349.176 99.9474 337.516 105.764Z" fill="#5A6C76"/>
<path d="M351.296 231.624L327.977 219.99L327.447 219.461L284.52 137.494C278.161 128.504 274.981 115.283 276.041 99.9474C278.691 61.3434 305.719 18.5088 336.987 4.23059C352.356 -3.17292 373.024 -1.05763 388.923 9.51881C403.762 19.0376 412.242 33.8446 411.712 50.2381C411.712 56.584 404.822 61.3434 398.463 65.5739C393.163 69.2757 387.863 72.9775 386.273 77.208C385.743 78.7945 379.914 105.236 374.084 132.734C362.425 187.732 353.946 226.865 352.886 228.98L351.296 231.624ZM331.157 216.288L348.646 224.749C351.296 213.644 361.365 166.579 369.314 131.677C376.734 98.3609 380.974 77.208 381.504 75.6216C383.094 70.3333 389.453 66.1028 395.283 61.8722C401.112 58.1704 406.942 53.9399 406.942 50.2381C406.942 35.4311 399.522 22.2105 386.273 13.2206C371.434 3.70177 352.886 1.58648 339.107 8.46117C309.428 21.6817 282.93 63.4587 280.81 100.476C279.75 114.754 282.4 126.917 288.23 135.378L331.157 216.288ZM326.387 102.591C323.738 102.591 321.088 102.063 318.968 100.476C314.198 97.3033 311.548 90.4286 311.548 81.9674C312.078 66.6316 322.678 49.7093 334.867 43.8922C340.696 41.2481 346.526 41.2481 350.766 43.8922C355.535 47.594 358.185 53.9399 358.185 61.8722C357.655 76.6792 347.586 94.1303 334.867 100.476C331.687 101.534 329.037 102.591 326.387 102.591ZM343.346 46.5364C341.226 46.5364 339.107 47.0652 336.987 48.1228C326.387 53.411 316.848 68.7469 316.318 81.9674C315.788 88.8421 317.908 94.1303 321.618 96.2456C324.797 98.3609 329.037 97.8321 333.277 95.7168C344.406 90.4286 353.416 74.5639 353.946 61.3434C353.946 54.9975 352.356 49.7093 348.646 47.594C347.056 47.0652 345.466 46.5364 343.346 46.5364Z" fill="#142D3B"/>
<path d="M409.592 56.5839C410.122 20.624 387.333 3.17292 358.185 16.3935C327.977 30.1428 301.479 71.9198 298.829 110.524C297.769 125.86 300.949 138.551 306.778 147.013L349.706 228.451L398.992 99.4185C401.112 95.188 402.702 90.9574 403.762 86.7268C407.472 76.6792 409.592 66.1027 409.592 56.5839Z" fill="#142D3B"/>
<path d="M351.295 231.624L348.645 230.038L305.188 147.541C298.829 138.551 295.649 125.331 296.709 109.995C299.358 71.391 326.387 28.5564 357.655 14.2782C371.434 7.93233 384.683 7.93233 394.752 14.807C406.411 22.2105 412.771 37.0175 412.241 56.584C412.241 66.6316 410.121 76.6792 406.941 87.2556C405.351 91.4862 403.762 96.2456 402.172 100.476L351.295 231.624ZM377.263 14.2782C371.964 14.2782 365.604 15.8647 359.774 18.5088C330.096 31.7293 303.598 73.5063 301.478 110.524C300.418 124.802 303.068 136.965 308.898 145.426L349.705 222.634L396.872 98.3609C398.992 94.1303 400.582 89.8997 401.642 85.6692C404.821 75.6216 406.411 65.5739 406.941 56.0551C407.471 38.604 401.642 24.8546 391.572 17.9799C387.863 15.3358 382.563 14.2782 377.263 14.2782Z" fill="#142D3B"/>
<path d="M351.826 136.436L330.097 121.629C326.917 119.514 327.447 113.168 330.627 107.88C333.807 102.591 339.107 99.4185 342.286 101.534L353.416 108.937L374.084 67.6892C376.734 61.8722 382.034 58.1704 385.744 59.7569C389.453 60.8145 389.983 66.6316 386.804 72.4486L356.066 134.321C355.006 135.907 352.886 136.965 351.826 136.436Z" fill="#5A6C76"/>
</g>
<path d="M1.04937 207.457L1.30486 190.082H144.39L144.135 206.946C144.135 207.457 144.135 206.946 144.135 207.457C143.879 210.012 141.835 212.567 138.258 214.611L84.8564 245.528C77.7022 249.616 66.9707 250.127 60.8385 246.55L5.1375 214.356C2.07138 212.312 0.793862 210.012 1.04937 207.457Z" fill="#5A6C76"/>
<path d="M1.04937 207.457L1.30486 190.082H144.39L144.135 206.946C144.135 207.457 144.135 206.946 144.135 207.457C143.879 210.012 141.835 212.567 138.258 214.611L84.8564 245.528C77.7022 249.616 66.9707 250.127 60.8385 246.55L5.1375 214.356C2.07138 212.312 0.793862 210.012 1.04937 207.457Z" fill="#5A6C76"/>
<path d="M71.3145 249.872C67.2263 249.872 63.3937 249.105 60.3276 247.317L4.62655 215.122C1.30493 213.334 -0.228133 210.523 0.0273759 207.457L0.282901 190.594L145.412 189.316L145.157 207.202C145.157 207.457 145.157 207.457 145.157 207.713C144.646 210.523 142.602 213.334 138.769 215.378L85.3675 246.295C81.5349 248.594 76.4247 249.872 71.3145 249.872ZM2.32698 191.105L2.07146 207.713C1.81595 210.012 3.09352 212.056 5.64861 213.589L61.3496 245.784C67.2263 249.105 77.7022 248.85 84.601 244.761L138.002 213.845C141.068 212.056 143.113 209.757 143.368 207.457V207.202L143.624 191.105H2.32698Z" fill="#142D3B"/>
<path d="M5.39393 197.237L61.095 229.431C67.2272 233.008 77.9585 232.497 85.1128 228.409L138.514 197.492C145.669 193.404 146.435 187.016 140.303 183.695L84.6018 151.501C78.4696 147.924 67.7382 148.435 60.5839 152.523L7.18248 183.439C0.0282235 187.527 -0.738297 193.66 5.39393 197.237Z" fill="#5A6C76"/>
<path d="M4.88221 203.625L60.5832 235.819C66.7154 239.396 77.4468 238.885 84.6011 234.797L138.002 203.88C145.157 199.792 145.923 193.404 139.791 190.083L84.0901 157.888C77.9578 154.311 67.2264 154.822 60.0722 158.91L6.67076 189.827C-0.483495 193.915 -1.25002 200.303 4.88221 203.625Z" fill="#5A6C76"/>
<path d="M71.5703 232.753C67.4821 232.753 63.6495 231.986 60.5834 230.197L4.88238 198.003C1.81627 196.215 0.283203 193.915 0.283203 191.105C0.283203 188.038 2.58279 184.717 6.67093 182.417L60.0724 151.501C67.4821 147.157 78.7245 146.901 85.1123 150.479L140.813 182.673C143.879 184.461 145.412 186.761 145.412 189.572C145.412 192.638 143.113 195.959 139.025 198.259L85.6233 229.175C81.7906 231.731 76.4249 232.753 71.5703 232.753ZM74.1254 149.968C69.5262 149.968 64.6715 150.99 60.8389 153.289L7.43747 184.206C3.86034 186.25 2.07176 188.805 2.07176 191.36C2.07176 193.404 3.34933 195.193 5.64891 196.47L61.3499 228.664C67.2266 231.986 77.7025 231.731 84.6013 227.642L138.258 196.726C141.835 194.682 143.624 192.127 143.624 189.572C143.624 187.527 142.346 185.739 140.047 184.461L84.0902 152.267C81.5352 150.734 77.958 149.968 74.1254 149.968Z" fill="#142D3B"/>
<path d="M76.1687 190.849L73.8691 174.496C75.4022 173.474 74.6357 173.985 76.1687 172.963L105.552 190.082C105.808 190.338 106.83 194.171 107.085 194.426L77.4463 192.382C76.9352 192.382 76.1687 191.616 76.1687 190.849Z" fill="#5A6C76"/>
<path d="M115.773 190.083L75.6576 187.783L72.3359 164.532L73.869 165.298C73.869 165.298 74.1245 165.298 74.1245 165.554L112.451 187.783C112.962 188.038 113.217 188.294 113.473 188.549L115.773 190.083ZM77.1906 185.994L109.385 187.783L74.6355 167.853L77.1906 185.994Z" fill="#142D3B"/>
<path d="M70.0382 196.215C70.0382 196.981 70.8047 197.492 71.5712 197.492L108.62 199.536C109.131 201.325 109.131 201.325 109.387 203.114L83.3246 218.189C80.514 219.722 75.9149 219.722 73.1043 217.933L34.7779 195.704C31.7118 193.915 31.7118 191.36 34.5224 189.827L65.439 171.941C65.95 171.686 66.461 171.43 66.9721 171.43L70.0382 196.215Z" fill="#5A6C76"/>
<path d="M78.4688 214.867C76.4247 214.867 74.1251 214.356 72.5921 213.334L34.2657 191.105C32.4771 190.083 31.4551 188.549 31.4551 187.016C31.4551 185.483 32.2216 184.206 33.7547 183.439L64.6713 165.554C65.1823 165.298 65.6933 165.043 66.2044 164.787L67.2264 164.532L71.059 190.849L117.306 193.66L115.262 195.193C115.007 195.448 114.751 195.448 114.496 195.704L83.579 213.589C82.3014 214.611 80.2574 214.867 78.4688 214.867ZM65.6933 167.342L34.5212 185.228C33.4991 185.739 32.9881 186.505 32.9881 187.272C32.9881 188.038 33.7547 189.061 34.7767 189.572L73.1031 211.801C75.6582 213.334 80.0018 213.334 82.5569 212.056L111.429 195.448L69.2705 192.893L65.6933 167.342Z" fill="#142D3B"/>
<path d="M72.8477 231.986V248.85L80.2574 247.572L90.7333 242.462L141.324 212.567L144.646 208.735V190.083L142.602 195.448L131.615 201.836L80.2574 230.709L72.8477 231.986Z" fill="#142D3B"/>
<path d="M66.9703 231.475V248.339L62.3711 247.061V230.197L66.9703 231.475Z" fill="#142D3B"/>
<path d="M4.37137 196.981V213.078L2.07176 211.29L0.283203 200.303L1.04974 191.105L4.37137 196.981Z" fill="#142D3B"/>
<defs>
<clipPath id="clip0_675_5590">
<rect width="451" height="422" fill="white" transform="translate(125)"/>
</clipPath>
</defs>
</svg>
