<svg width="540" height="419" viewBox="0 0 540 419" fill="none" xmlns="http://www.w3.org/2000/svg">
<path d="M535.943 80.6926L496.646 57.9656L457.349 80.6926V126.147L496.646 148.874V103.58L535.943 80.6926Z" fill="white"/>
<path d="M457.349 125.987L496.646 148.874V103.42L457.349 80.5332V125.987Z" fill="white"/>
<path d="M536.742 80.2128L496.646 57.0056L456.55 80.0528H456.39V81.0131V126.467L495.688 149.194L496.486 149.674L497.285 149.194L536.263 126.627L536.582 126.467V81.1731L536.742 80.2128ZM496.646 58.7662L515.176 69.4895L477.477 91.4163L458.946 80.693L496.646 58.7662ZM495.847 147.594L458.147 125.667V81.9734L495.847 103.9V147.594ZM512.62 93.1768L496.646 102.46L478.116 91.7364L515.975 69.9696L534.506 80.693L512.62 93.1768Z" fill="#646D7D"/>
<path d="M480.991 103.42L473.642 99.2591C472.844 98.779 472.045 98.779 471.406 99.0991C470.607 99.5792 470.288 100.54 470.288 101.66C470.288 103.58 471.406 105.821 473.003 106.781L480.352 110.943C480.831 111.263 481.31 111.263 481.63 111.263C481.949 111.263 482.269 111.103 482.588 110.943C483.387 110.463 483.706 109.502 483.706 108.382C483.706 106.621 482.588 104.381 480.991 103.42ZM481.789 109.822C481.63 109.982 481.31 109.822 480.991 109.662L473.642 105.501C472.524 104.861 471.725 103.26 471.725 101.82C471.725 101.18 471.885 100.7 472.205 100.7C472.364 100.54 472.684 100.7 473.003 100.86L473.483 101.18C473.642 102.94 474.601 104.701 475.879 105.501L482.109 109.182C482.109 109.342 481.949 109.662 481.789 109.822Z" fill="#646D7D"/>
<path d="M530.352 112.863C530.033 112.703 529.553 112.703 529.074 112.863L523.323 116.224C522.525 116.704 521.726 117.985 521.726 119.105V125.347C521.726 125.987 522.045 126.467 522.365 126.787C522.525 126.947 522.684 126.947 522.844 126.947C523.004 126.947 523.323 126.947 523.643 126.787L529.394 123.426C530.192 122.946 530.991 121.666 530.991 120.545V114.303C530.991 113.663 530.672 113.183 530.352 112.863Z" fill="white"/>
<path d="M185.624 166.16C186.103 166.48 186.103 166.96 185.624 167.28C185.144 167.6 184.186 167.6 183.707 167.28C183.227 166.96 183.227 166.48 183.707 166.16C184.186 166 184.985 166 185.624 166.16Z" fill="#646D7D"/>
<path d="M190.575 163.278C191.054 163.598 191.054 164.078 190.575 164.398C190.096 164.718 189.137 164.718 188.658 164.398C188.179 164.078 188.179 163.598 188.658 163.278C189.137 163.118 190.096 163.118 190.575 163.278Z" fill="#646D7D"/>
<path d="M194.569 161.838C195.275 161.838 195.847 161.48 195.847 161.038C195.847 160.596 195.275 160.237 194.569 160.237C193.863 160.237 193.291 160.596 193.291 161.038C193.291 161.48 193.863 161.838 194.569 161.838Z" fill="#646D7D"/>
<path d="M200.48 157.517C200.96 157.837 200.96 158.317 200.48 158.637C200.001 158.957 199.043 158.957 198.563 158.637C198.084 158.317 198.084 157.837 198.563 157.517C199.202 157.197 200.001 157.197 200.48 157.517Z" fill="#646D7D"/>
<path d="M205.591 154.635C206.07 154.955 206.07 155.436 205.591 155.756C205.112 156.076 204.153 156.076 203.674 155.756C203.195 155.436 203.195 154.955 203.674 154.635C204.153 154.315 204.952 154.315 205.591 154.635Z" fill="#646D7D"/>
<path d="M210.544 151.754C211.023 152.075 211.023 152.555 210.544 152.875C210.064 153.195 209.106 153.195 208.627 152.875C208.148 152.555 208.148 152.075 208.627 151.754C209.106 151.434 209.905 151.434 210.544 151.754Z" fill="#646D7D"/>
<path d="M215.495 148.874C215.974 149.194 215.974 149.674 215.495 149.994C215.016 150.314 214.058 150.314 213.578 149.994C213.099 149.674 213.099 149.194 213.578 148.874C214.058 148.554 215.016 148.554 215.495 148.874Z" fill="#646D7D"/>
<path d="M220.448 145.993C220.927 146.313 220.927 146.793 220.448 147.113C219.969 147.433 219.01 147.433 218.531 147.113C218.052 146.793 218.052 146.313 218.531 145.993C219.17 145.673 219.969 145.673 220.448 145.993Z" fill="#646D7D"/>
<path d="M225.401 143.113C225.88 143.433 225.88 143.913 225.401 144.233C224.921 144.553 223.963 144.553 223.484 144.233C223.004 143.913 223.004 143.433 223.484 143.113C224.123 142.793 224.921 142.793 225.401 143.113Z" fill="#646D7D"/>
<path d="M230.511 140.231C230.991 140.551 230.991 141.031 230.511 141.351C230.032 141.671 229.074 141.671 228.594 141.351C228.115 141.031 228.115 140.551 228.594 140.231C229.074 139.91 229.872 139.91 230.511 140.231Z" fill="#646D7D"/>
<path d="M235.464 137.35C235.943 137.67 235.943 138.15 235.464 138.47C234.985 138.79 234.026 138.79 233.547 138.47C233.068 138.15 233.068 137.67 233.547 137.35C234.026 137.03 234.985 137.03 235.464 137.35Z" fill="#646D7D"/>
<path d="M175.56 166.16C176.039 166.48 176.039 166.96 175.56 167.28C175.081 167.6 174.122 167.6 173.643 167.28C173.164 166.96 173.164 166.48 173.643 166.16C174.282 166 175.081 166 175.56 166.16Z" fill="#646D7D"/>
<path d="M180.512 163.278C180.991 163.598 180.991 164.078 180.512 164.398C180.032 164.718 179.074 164.718 178.595 164.398C178.115 164.078 178.115 163.598 178.595 163.278C179.234 163.118 180.032 163.118 180.512 163.278Z" fill="#646D7D"/>
<path d="M185.623 160.397C186.103 160.717 186.103 161.198 185.623 161.518C185.144 161.838 184.186 161.838 183.706 161.518C183.227 161.198 183.227 160.717 183.706 160.397C184.186 160.077 184.984 160.077 185.623 160.397Z" fill="#646D7D"/>
<path d="M190.575 157.517C191.054 157.837 191.054 158.317 190.575 158.637C190.096 158.957 189.137 158.957 188.658 158.637C188.179 158.317 188.179 157.837 188.658 157.517C189.137 157.197 190.096 157.197 190.575 157.517Z" fill="#646D7D"/>
<path d="M195.528 154.635C196.007 154.955 196.007 155.436 195.528 155.756C195.048 156.076 194.09 156.076 193.611 155.756C193.132 155.436 193.132 154.955 193.611 154.635C194.09 154.315 195.048 154.315 195.528 154.635Z" fill="#646D7D"/>
<path d="M200.48 151.754C200.96 152.075 200.96 152.555 200.48 152.875C200.001 153.195 199.043 153.195 198.563 152.875C198.084 152.555 198.084 152.075 198.563 151.754C199.202 151.434 200.001 151.434 200.48 151.754Z" fill="#646D7D"/>
<path d="M205.591 148.874C206.07 149.194 206.07 149.674 205.591 149.994C205.112 150.314 204.153 150.314 203.674 149.994C203.195 149.674 203.195 149.194 203.674 148.874C204.153 148.554 204.952 148.554 205.591 148.874Z" fill="#646D7D"/>
<path d="M210.544 145.993C211.023 146.313 211.023 146.793 210.544 147.113C210.064 147.433 209.106 147.433 208.627 147.113C208.147 146.793 208.147 146.313 208.627 145.993C209.106 145.673 209.905 145.673 210.544 145.993Z" fill="#646D7D"/>
<path d="M215.495 143.113C215.974 143.433 215.974 143.913 215.495 144.233C215.016 144.553 214.058 144.553 213.578 144.233C213.099 143.913 213.099 143.433 213.578 143.113C214.058 142.793 215.016 142.793 215.495 143.113Z" fill="#646D7D"/>
<path d="M220.448 140.231C220.927 140.551 220.927 141.031 220.448 141.351C219.969 141.671 219.01 141.671 218.531 141.351C218.052 141.031 218.052 140.551 218.531 140.231C219.17 139.91 219.969 139.91 220.448 140.231Z" fill="#646D7D"/>
<path d="M225.401 137.35C225.88 137.67 225.88 138.15 225.401 138.47C224.921 138.79 223.963 138.79 223.484 138.47C223.004 138.15 223.004 137.67 223.484 137.35C224.123 137.03 224.921 137.03 225.401 137.35Z" fill="#646D7D"/>
<path d="M230.511 134.469C230.991 134.789 230.991 135.27 230.511 135.59C230.032 135.91 229.074 135.91 228.594 135.59C228.115 135.27 228.115 134.789 228.594 134.469C229.074 134.149 229.872 134.149 230.511 134.469Z" fill="#646D7D"/>
<path d="M235.464 131.588C235.943 131.909 235.943 132.389 235.464 132.709C234.984 133.029 234.026 133.029 233.547 132.709C233.067 132.389 233.067 131.909 233.547 131.588C234.026 131.268 234.984 131.268 235.464 131.588Z" fill="#646D7D"/>
<path d="M170.607 163.278C171.087 163.598 171.087 164.078 170.607 164.398C170.128 164.718 169.17 164.718 168.69 164.398C168.211 164.078 168.211 163.598 168.69 163.278C169.17 163.118 170.128 163.118 170.607 163.278Z" fill="#646D7D"/>
<path d="M175.559 160.398C176.038 160.718 176.038 161.198 175.559 161.518C175.08 161.838 174.121 161.838 173.642 161.518C173.163 161.198 173.163 160.718 173.642 160.398C174.281 160.077 175.08 160.077 175.559 160.398Z" fill="#646D7D"/>
<path d="M180.512 157.517C180.991 157.837 180.991 158.317 180.512 158.637C180.032 158.957 179.074 158.957 178.595 158.637C178.115 158.317 178.115 157.837 178.595 157.517C179.234 157.197 180.032 157.197 180.512 157.517Z" fill="#646D7D"/>
<path d="M185.624 154.635C186.103 154.955 186.103 155.436 185.624 155.756C185.144 156.076 184.186 156.076 183.707 155.756C183.227 155.436 183.227 154.955 183.707 154.635C184.186 154.315 184.985 154.315 185.624 154.635Z" fill="#646D7D"/>
<path d="M190.575 151.754C191.054 152.075 191.054 152.555 190.575 152.875C190.096 153.195 189.137 153.195 188.658 152.875C188.179 152.555 188.179 152.075 188.658 151.754C189.137 151.434 190.096 151.434 190.575 151.754Z" fill="#646D7D"/>
<path d="M195.527 148.874C196.007 149.194 196.007 149.674 195.527 149.994C195.048 150.314 194.09 150.314 193.611 149.994C193.131 149.674 193.131 149.194 193.611 148.874C194.09 148.554 195.048 148.554 195.527 148.874Z" fill="#646D7D"/>
<path d="M200.479 145.993C200.958 146.313 200.958 146.793 200.479 147.113C200 147.433 199.042 147.433 198.562 147.113C198.083 146.793 198.083 146.313 198.562 145.993C199.201 145.673 200 145.673 200.479 145.993Z" fill="#646D7D"/>
<path d="M205.591 143.113C206.07 143.433 206.07 143.913 205.591 144.233C205.112 144.553 204.153 144.553 203.674 144.233C203.195 143.913 203.195 143.433 203.674 143.113C204.153 142.793 204.952 142.793 205.591 143.113Z" fill="#646D7D"/>
<path d="M210.544 140.231C211.023 140.551 211.023 141.031 210.544 141.351C210.064 141.671 209.106 141.671 208.627 141.351C208.148 141.031 208.148 140.551 208.627 140.231C209.106 139.91 209.905 139.91 210.544 140.231Z" fill="#646D7D"/>
<path d="M215.495 137.35C215.974 137.67 215.974 138.15 215.495 138.47C215.016 138.79 214.058 138.79 213.578 138.47C213.099 138.15 213.099 137.67 213.578 137.35C214.058 137.03 215.016 137.03 215.495 137.35Z" fill="#646D7D"/>
<path d="M220.448 134.469C220.927 134.789 220.927 135.27 220.448 135.59C219.969 135.91 219.01 135.91 218.531 135.59C218.052 135.27 218.052 134.789 218.531 134.469C219.17 134.149 219.969 134.149 220.448 134.469Z" fill="#646D7D"/>
<path d="M225.399 131.588C225.879 131.909 225.879 132.389 225.399 132.709C224.92 133.029 223.962 133.029 223.482 132.709C223.003 132.389 223.003 131.909 223.482 131.588C224.121 131.268 224.92 131.268 225.399 131.588Z" fill="#646D7D"/>
<path d="M229.553 130.148C230.259 130.148 230.831 129.79 230.831 129.348C230.831 128.906 230.259 128.547 229.553 128.547C228.847 128.547 228.275 128.906 228.275 129.348C228.275 129.79 228.847 130.148 229.553 130.148Z" fill="#646D7D"/>
<path d="M165.495 160.397C165.975 160.717 165.975 161.198 165.495 161.518C165.016 161.838 164.058 161.838 163.579 161.518C163.099 161.198 163.099 160.717 163.579 160.397C164.218 160.077 165.016 160.077 165.495 160.397Z" fill="#646D7D"/>
<path d="M170.607 157.517C171.087 157.837 171.087 158.317 170.607 158.637C170.128 158.957 169.17 158.957 168.69 158.637C168.211 158.317 168.211 157.837 168.69 157.517C169.17 157.197 169.968 157.197 170.607 157.517Z" fill="#646D7D"/>
<path d="M175.56 154.635C176.039 154.955 176.039 155.436 175.56 155.756C175.081 156.076 174.122 156.076 173.643 155.756C173.164 155.436 173.164 154.955 173.643 154.635C174.122 154.315 175.081 154.315 175.56 154.635Z" fill="#646D7D"/>
<path d="M180.512 151.754C180.991 152.075 180.991 152.555 180.512 152.875C180.032 153.195 179.074 153.195 178.595 152.875C178.115 152.555 178.115 152.075 178.595 151.754C179.074 151.434 180.032 151.434 180.512 151.754Z" fill="#646D7D"/>
<path d="M185.463 148.874C185.942 149.194 185.942 149.674 185.463 149.994C184.984 150.314 184.026 150.314 183.546 149.994C183.067 149.674 183.067 149.194 183.546 148.874C184.185 148.554 184.984 148.554 185.463 148.874Z" fill="#646D7D"/>
<path d="M190.575 145.993C191.054 146.313 191.054 146.793 190.575 147.113C190.096 147.433 189.137 147.433 188.658 147.113C188.179 146.793 188.179 146.313 188.658 145.993C189.137 145.673 189.936 145.673 190.575 145.993Z" fill="#646D7D"/>
<path d="M195.528 143.113C196.007 143.433 196.007 143.913 195.528 144.233C195.048 144.553 194.09 144.553 193.611 144.233C193.132 143.913 193.132 143.433 193.611 143.113C194.09 142.793 195.048 142.793 195.528 143.113Z" fill="#646D7D"/>
<path d="M200.48 140.231C200.96 140.551 200.96 141.031 200.48 141.351C200.001 141.671 199.043 141.671 198.563 141.351C198.084 141.031 198.084 140.551 198.563 140.231C199.043 139.91 200.001 139.91 200.48 140.231Z" fill="#646D7D"/>
<path d="M205.432 137.35C205.911 137.67 205.911 138.15 205.432 138.47C204.953 138.79 203.994 138.79 203.515 138.47C203.036 138.15 203.036 137.67 203.515 137.35C204.154 137.03 204.953 137.03 205.432 137.35Z" fill="#646D7D"/>
<path d="M210.383 134.469C210.863 134.789 210.863 135.27 210.383 135.59C209.904 135.91 208.946 135.91 208.466 135.59C207.987 135.27 207.987 134.789 208.466 134.469C209.105 134.149 209.904 134.149 210.383 134.469Z" fill="#646D7D"/>
<path d="M214.537 132.869C215.243 132.869 215.815 132.511 215.815 132.069C215.815 131.627 215.243 131.269 214.537 131.269C213.831 131.269 213.259 131.627 213.259 132.069C213.259 132.511 213.831 132.869 214.537 132.869Z" fill="#646D7D"/>
<path d="M220.448 128.708C220.927 129.028 220.927 129.508 220.448 129.828C219.969 130.148 219.01 130.148 218.531 129.828C218.052 129.508 218.052 129.028 218.531 128.708C219.01 128.388 219.969 128.388 220.448 128.708Z" fill="#646D7D"/>
<path d="M225.401 125.826C225.88 126.146 225.88 126.626 225.401 126.946C224.921 127.266 223.963 127.266 223.484 126.946C223.004 126.626 223.004 126.146 223.484 125.826C224.123 125.506 224.921 125.506 225.401 125.826Z" fill="#646D7D"/>
<path d="M160.543 157.517C161.022 157.837 161.022 158.317 160.543 158.637C160.064 158.957 159.105 158.957 158.626 158.637C158.147 158.317 158.147 157.837 158.626 157.517C159.265 157.197 160.064 157.197 160.543 157.517Z" fill="#646D7D"/>
<path d="M165.496 154.635C165.975 154.955 165.975 155.436 165.496 155.756C165.016 156.076 164.058 156.076 163.579 155.756C163.099 155.436 163.099 154.955 163.579 154.635C164.218 154.315 165.016 154.315 165.496 154.635Z" fill="#646D7D"/>
<path d="M170.607 151.754C171.087 152.075 171.087 152.555 170.607 152.875C170.128 153.195 169.17 153.195 168.69 152.875C168.211 152.555 168.211 152.075 168.69 151.754C169.17 151.434 169.968 151.434 170.607 151.754Z" fill="#646D7D"/>
<path d="M175.559 148.874C176.038 149.194 176.038 149.674 175.559 149.994C175.08 150.314 174.121 150.314 173.642 149.994C173.163 149.674 173.163 149.194 173.642 148.874C174.121 148.554 175.08 148.554 175.559 148.874Z" fill="#646D7D"/>
<path d="M180.512 145.993C180.991 146.313 180.991 146.793 180.512 147.113C180.032 147.433 179.074 147.433 178.595 147.113C178.115 146.793 178.115 146.313 178.595 145.993C179.074 145.673 180.032 145.673 180.512 145.993Z" fill="#646D7D"/>
<path d="M185.463 143.113C185.942 143.433 185.942 143.913 185.463 144.233C184.984 144.553 184.026 144.553 183.546 144.233C183.067 143.913 183.067 143.433 183.546 143.113C184.185 142.793 184.984 142.793 185.463 143.113Z" fill="#646D7D"/>
<path d="M190.575 140.231C191.054 140.551 191.054 141.031 190.575 141.351C190.096 141.671 189.137 141.671 188.658 141.351C188.179 141.031 188.179 140.551 188.658 140.231C189.137 139.91 189.936 139.91 190.575 140.231Z" fill="#646D7D"/>
<path d="M195.528 137.35C196.007 137.67 196.007 138.15 195.528 138.47C195.048 138.79 194.09 138.79 193.611 138.47C193.132 138.15 193.132 137.67 193.611 137.35C194.09 137.03 195.048 137.03 195.528 137.35Z" fill="#646D7D"/>
<path d="M200.479 134.469C200.958 134.789 200.958 135.27 200.479 135.59C200 135.91 199.042 135.91 198.562 135.59C198.083 135.27 198.083 134.789 198.562 134.469C199.042 134.149 200 134.149 200.479 134.469Z" fill="#646D7D"/>
<path d="M205.432 131.588C205.911 131.909 205.911 132.389 205.432 132.709C204.953 133.029 203.994 133.029 203.515 132.709C203.036 132.389 203.036 131.909 203.515 131.588C204.154 131.268 204.953 131.268 205.432 131.588Z" fill="#646D7D"/>
<path d="M210.383 128.708C210.863 129.028 210.863 129.508 210.383 129.828C209.904 130.148 208.946 130.148 208.466 129.828C207.987 129.508 207.987 129.028 208.466 128.708C209.105 128.388 209.904 128.388 210.383 128.708Z" fill="#646D7D"/>
<path d="M215.495 125.826C215.974 126.146 215.974 126.626 215.495 126.946C215.016 127.266 214.058 127.266 213.578 126.946C213.099 126.626 213.099 126.146 213.578 125.826C214.058 125.506 214.856 125.506 215.495 125.826Z" fill="#646D7D"/>
<path d="M220.448 122.945C220.927 123.265 220.927 123.746 220.448 124.066C219.969 124.386 219.01 124.386 218.531 124.066C218.052 123.746 218.052 123.265 218.531 122.945C219.01 122.625 219.969 122.625 220.448 122.945Z" fill="#646D7D"/>
<path d="M155.591 154.635C156.071 154.955 156.071 155.436 155.591 155.756C155.112 156.076 154.154 156.076 153.674 155.756C153.195 155.436 153.195 154.955 153.674 154.635C154.154 154.315 155.112 154.315 155.591 154.635Z" fill="#646D7D"/>
<path d="M160.543 151.754C161.022 152.075 161.022 152.555 160.543 152.875C160.064 153.195 159.105 153.195 158.626 152.875C158.147 152.555 158.147 152.075 158.626 151.754C159.265 151.434 160.064 151.434 160.543 151.754Z" fill="#646D7D"/>
<path d="M165.495 148.874C165.975 149.194 165.975 149.674 165.495 149.994C165.016 150.314 164.058 150.314 163.579 149.994C163.099 149.674 163.099 149.194 163.579 148.874C164.218 148.554 165.016 148.554 165.495 148.874Z" fill="#646D7D"/>
<path d="M170.607 145.993C171.087 146.313 171.087 146.793 170.607 147.113C170.128 147.433 169.17 147.433 168.69 147.113C168.211 146.793 168.211 146.313 168.69 145.993C169.17 145.673 169.968 145.673 170.607 145.993Z" fill="#646D7D"/>
<path d="M175.56 143.113C176.039 143.433 176.039 143.913 175.56 144.233C175.081 144.553 174.122 144.553 173.643 144.233C173.164 143.913 173.164 143.433 173.643 143.113C174.122 142.793 175.081 142.793 175.56 143.113Z" fill="#646D7D"/>
<path d="M180.512 140.231C180.991 140.551 180.991 141.031 180.512 141.351C180.032 141.671 179.074 141.671 178.595 141.351C178.115 141.031 178.115 140.551 178.595 140.231C179.074 139.91 180.032 139.91 180.512 140.231Z" fill="#646D7D"/>
<path d="M185.463 137.35C185.942 137.67 185.942 138.15 185.463 138.47C184.984 138.79 184.026 138.79 183.546 138.47C183.067 138.15 183.067 137.67 183.546 137.35C184.185 137.03 184.984 137.03 185.463 137.35Z" fill="#646D7D"/>
<path d="M190.575 134.469C191.054 134.789 191.054 135.27 190.575 135.59C190.096 135.91 189.137 135.91 188.658 135.59C188.179 135.27 188.179 134.789 188.658 134.469C189.137 134.149 189.936 134.149 190.575 134.469Z" fill="#646D7D"/>
<path d="M195.527 131.588C196.007 131.909 196.007 132.389 195.527 132.709C195.048 133.029 194.09 133.029 193.611 132.709C193.131 132.389 193.131 131.909 193.611 131.588C194.09 131.268 195.048 131.268 195.527 131.588Z" fill="#646D7D"/>
<path d="M200.48 128.708C200.96 129.028 200.96 129.508 200.48 129.828C200.001 130.148 199.043 130.148 198.563 129.828C198.084 129.508 198.084 129.028 198.563 128.708C199.043 128.388 200.001 128.388 200.48 128.708Z" fill="#646D7D"/>
<path d="M205.432 125.826C205.911 126.146 205.911 126.626 205.432 126.946C204.953 127.266 203.994 127.266 203.515 126.946C203.036 126.626 203.036 126.146 203.515 125.826C204.154 125.506 204.953 125.506 205.432 125.826Z" fill="#646D7D"/>
<path d="M210.383 122.945C210.863 123.265 210.863 123.746 210.383 124.066C209.904 124.386 208.946 124.386 208.466 124.066C207.987 123.746 207.987 123.265 208.466 122.945C209.105 122.625 209.904 122.625 210.383 122.945Z" fill="#646D7D"/>
<path d="M214.537 121.346C215.243 121.346 215.815 120.987 215.815 120.545C215.815 120.103 215.243 119.745 214.537 119.745C213.831 119.745 213.259 120.103 213.259 120.545C213.259 120.987 213.831 121.346 214.537 121.346Z" fill="#646D7D"/>
<path d="M150.64 151.754C151.119 152.075 151.119 152.555 150.64 152.875C150.161 153.195 149.202 153.195 148.723 152.875C148.244 152.555 148.244 152.075 148.723 151.754C149.202 151.434 150.001 151.434 150.64 151.754Z" fill="#646D7D"/>
<path d="M155.591 148.874C156.071 149.194 156.071 149.674 155.591 149.994C155.112 150.314 154.154 150.314 153.674 149.994C153.195 149.674 153.195 149.194 153.674 148.874C154.154 148.554 155.112 148.554 155.591 148.874Z" fill="#646D7D"/>
<path d="M160.543 145.993C161.022 146.313 161.022 146.793 160.543 147.113C160.064 147.433 159.105 147.433 158.626 147.113C158.147 146.793 158.147 146.313 158.626 145.993C159.265 145.673 160.064 145.673 160.543 145.993Z" fill="#646D7D"/>
<path d="M165.496 143.113C165.975 143.433 165.975 143.913 165.496 144.233C165.016 144.553 164.058 144.553 163.579 144.233C163.099 143.913 163.099 143.433 163.579 143.113C164.218 142.793 165.016 142.793 165.496 143.113Z" fill="#646D7D"/>
<path d="M170.607 140.231C171.087 140.551 171.087 141.031 170.607 141.351C170.128 141.671 169.17 141.671 168.69 141.351C168.211 141.031 168.211 140.551 168.69 140.231C169.17 139.91 169.968 139.91 170.607 140.231Z" fill="#646D7D"/>
<path d="M175.56 137.35C176.039 137.67 176.039 138.15 175.56 138.47C175.081 138.79 174.122 138.79 173.643 138.47C173.164 138.15 173.164 137.67 173.643 137.35C174.122 137.03 175.081 137.03 175.56 137.35Z" fill="#646D7D"/>
<path d="M180.512 134.469C180.991 134.789 180.991 135.27 180.512 135.59C180.032 135.91 179.074 135.91 178.595 135.59C178.115 135.27 178.115 134.789 178.595 134.469C179.074 134.149 180.032 134.149 180.512 134.469Z" fill="#646D7D"/>
<path d="M185.463 131.588C185.942 131.909 185.942 132.389 185.463 132.709C184.984 133.029 184.026 133.029 183.546 132.709C183.067 132.389 183.067 131.909 183.546 131.588C184.185 131.268 184.984 131.268 185.463 131.588Z" fill="#646D7D"/>
<path d="M190.575 128.708C191.054 129.028 191.054 129.508 190.575 129.828C190.096 130.148 189.137 130.148 188.658 129.828C188.179 129.508 188.179 129.028 188.658 128.708C189.137 128.388 189.936 128.388 190.575 128.708Z" fill="#646D7D"/>
<path d="M195.528 125.826C196.007 126.146 196.007 126.626 195.528 126.946C195.048 127.266 194.09 127.266 193.611 126.946C193.132 126.626 193.132 126.146 193.611 125.826C194.09 125.506 195.048 125.506 195.528 125.826Z" fill="#646D7D"/>
<path d="M200.48 122.945C200.96 123.265 200.96 123.746 200.48 124.066C200.001 124.386 199.043 124.386 198.563 124.066C198.084 123.746 198.084 123.265 198.563 122.945C199.043 122.625 200.001 122.625 200.48 122.945Z" fill="#646D7D"/>
<path d="M205.432 120.065C205.911 120.385 205.911 120.865 205.432 121.185C204.953 121.505 203.994 121.505 203.515 121.185C203.036 120.865 203.036 120.385 203.515 120.065C204.154 119.745 204.953 119.745 205.432 120.065Z" fill="#646D7D"/>
<path d="M210.383 117.184C210.863 117.504 210.863 117.984 210.383 118.305C209.904 118.625 208.946 118.625 208.466 118.305C207.987 117.984 207.987 117.504 208.466 117.184C209.105 116.864 209.904 116.864 210.383 117.184Z" fill="#646D7D"/>
<path d="M145.687 148.874C146.166 149.194 146.166 149.674 145.687 149.994C145.208 150.314 144.25 150.314 143.77 149.994C143.291 149.674 143.291 149.194 143.77 148.874C144.25 148.554 145.048 148.554 145.687 148.874Z" fill="#646D7D"/>
<path d="M150.639 145.993C151.118 146.313 151.118 146.793 150.639 147.113C150.16 147.433 149.201 147.433 148.722 147.113C148.243 146.793 148.243 146.313 148.722 145.993C149.201 145.673 150 145.673 150.639 145.993Z" fill="#646D7D"/>
<path d="M155.591 143.113C156.071 143.433 156.071 143.913 155.591 144.233C155.112 144.553 154.154 144.553 153.674 144.233C153.195 143.913 153.195 143.433 153.674 143.113C154.154 142.793 155.112 142.793 155.591 143.113Z" fill="#646D7D"/>
<path d="M160.543 140.231C161.022 140.551 161.022 141.031 160.543 141.351C160.064 141.671 159.105 141.671 158.626 141.351C158.147 141.031 158.147 140.551 158.626 140.231C159.265 139.91 160.064 139.91 160.543 140.231Z" fill="#646D7D"/>
<path d="M165.496 137.35C165.975 137.67 165.975 138.15 165.496 138.47C165.016 138.79 164.058 138.79 163.579 138.47C163.099 138.15 163.099 137.67 163.579 137.35C164.218 137.03 165.016 137.03 165.496 137.35Z" fill="#646D7D"/>
<path d="M170.607 134.469C171.087 134.789 171.087 135.27 170.607 135.59C170.128 135.91 169.17 135.91 168.69 135.59C168.211 135.27 168.211 134.789 168.69 134.469C169.17 134.149 169.968 134.149 170.607 134.469Z" fill="#646D7D"/>
<path d="M175.559 131.588C176.038 131.909 176.038 132.389 175.559 132.709C175.08 133.029 174.121 133.029 173.642 132.709C173.163 132.389 173.163 131.909 173.642 131.588C174.121 131.268 175.08 131.268 175.559 131.588Z" fill="#646D7D"/>
<path d="M180.512 128.708C180.991 129.028 180.991 129.508 180.512 129.828C180.032 130.148 179.074 130.148 178.595 129.828C178.115 129.508 178.115 129.028 178.595 128.708C179.074 128.388 180.032 128.388 180.512 128.708Z" fill="#646D7D"/>
<path d="M185.463 125.826C185.942 126.146 185.942 126.626 185.463 126.946C184.984 127.266 184.026 127.266 183.546 126.946C183.067 126.626 183.067 126.146 183.546 125.826C184.185 125.506 184.984 125.506 185.463 125.826Z" fill="#646D7D"/>
<path d="M190.575 122.945C191.054 123.265 191.054 123.746 190.575 124.066C190.096 124.386 189.137 124.386 188.658 124.066C188.179 123.746 188.179 123.265 188.658 122.945C189.137 122.625 189.936 122.625 190.575 122.945Z" fill="#646D7D"/>
<path d="M195.527 120.065C196.007 120.385 196.007 120.865 195.527 121.185C195.048 121.505 194.09 121.505 193.611 121.185C193.131 120.865 193.131 120.385 193.611 120.065C194.09 119.745 195.048 119.745 195.527 120.065Z" fill="#646D7D"/>
<path d="M200.479 117.184C200.958 117.504 200.958 117.984 200.479 118.305C200 118.625 199.042 118.625 198.562 118.305C198.083 117.984 198.083 117.504 198.562 117.184C199.042 116.864 200 116.864 200.479 117.184Z" fill="#646D7D"/>
<path d="M205.432 114.303C205.911 114.623 205.911 115.104 205.432 115.424C204.953 115.744 203.994 115.744 203.515 115.424C203.036 115.104 203.036 114.623 203.515 114.303C204.154 113.983 204.953 113.983 205.432 114.303Z" fill="#646D7D"/>
<path d="M140.575 145.993C141.055 146.313 141.055 146.793 140.575 147.113C140.096 147.433 139.138 147.433 138.658 147.113C138.179 146.793 138.179 146.313 138.658 145.993C139.297 145.673 140.096 145.673 140.575 145.993Z" fill="#646D7D"/>
<path d="M145.687 143.113C146.166 143.433 146.166 143.913 145.687 144.233C145.208 144.553 144.25 144.553 143.77 144.233C143.291 143.913 143.291 143.433 143.77 143.113C144.25 142.793 145.048 142.793 145.687 143.113Z" fill="#646D7D"/>
<path d="M150.64 140.231C151.119 140.551 151.119 141.031 150.64 141.351C150.161 141.671 149.202 141.671 148.723 141.351C148.244 141.031 148.244 140.551 148.723 140.231C149.202 139.91 150.001 139.91 150.64 140.231Z" fill="#646D7D"/>
<path d="M155.591 137.35C156.071 137.67 156.071 138.15 155.591 138.47C155.112 138.79 154.154 138.79 153.674 138.47C153.195 138.15 153.195 137.67 153.674 137.35C154.154 137.03 155.112 137.03 155.591 137.35Z" fill="#646D7D"/>
<path d="M160.543 134.469C161.022 134.789 161.022 135.27 160.543 135.59C160.064 135.91 159.105 135.91 158.626 135.59C158.147 135.27 158.147 134.789 158.626 134.469C159.265 134.149 160.064 134.149 160.543 134.469Z" fill="#646D7D"/>
<path d="M165.495 131.588C165.975 131.909 165.975 132.389 165.495 132.709C165.016 133.029 164.058 133.029 163.579 132.709C163.099 132.389 163.099 131.909 163.579 131.588C164.218 131.268 165.016 131.268 165.495 131.588Z" fill="#646D7D"/>
<path d="M170.607 128.708C171.087 129.028 171.087 129.508 170.607 129.828C170.128 130.148 169.17 130.148 168.69 129.828C168.211 129.508 168.211 129.028 168.69 128.708C169.17 128.388 169.968 128.388 170.607 128.708Z" fill="#646D7D"/>
<path d="M175.56 125.826C176.039 126.146 176.039 126.626 175.56 126.946C175.081 127.266 174.122 127.266 173.643 126.946C173.164 126.626 173.164 126.146 173.643 125.826C174.122 125.506 175.081 125.506 175.56 125.826Z" fill="#646D7D"/>
<path d="M180.512 122.945C180.991 123.265 180.991 123.746 180.512 124.066C180.032 124.386 179.074 124.386 178.595 124.066C178.115 123.746 178.115 123.265 178.595 122.945C179.074 122.625 180.032 122.625 180.512 122.945Z" fill="#646D7D"/>
<path d="M185.463 120.065C185.942 120.385 185.942 120.865 185.463 121.185C184.984 121.505 184.026 121.505 183.546 121.185C183.067 120.865 183.067 120.385 183.546 120.065C184.185 119.745 184.984 119.745 185.463 120.065Z" fill="#646D7D"/>
<path d="M190.575 117.184C191.054 117.504 191.054 117.984 190.575 118.305C190.096 118.625 189.137 118.625 188.658 118.305C188.179 117.984 188.179 117.504 188.658 117.184C189.137 116.864 189.936 116.864 190.575 117.184Z" fill="#646D7D"/>
<path d="M195.528 114.303C196.007 114.623 196.007 115.104 195.528 115.424C195.048 115.744 194.09 115.744 193.611 115.424C193.132 115.104 193.132 114.623 193.611 114.303C194.09 113.983 195.048 113.983 195.528 114.303Z" fill="#646D7D"/>
<path d="M200.48 111.423C200.96 111.743 200.96 112.223 200.48 112.543C200.001 112.863 199.043 112.863 198.563 112.543C198.084 112.223 198.084 111.743 198.563 111.423C199.043 111.103 200.001 111.103 200.48 111.423Z" fill="#646D7D"/>
<path d="M135.623 143.113C136.102 143.433 136.102 143.913 135.623 144.233C135.144 144.553 134.185 144.553 133.706 144.233C133.227 143.913 133.227 143.433 133.706 143.113C134.185 142.793 135.144 142.793 135.623 143.113Z" fill="#646D7D"/>
<path d="M140.575 140.231C141.055 140.551 141.055 141.031 140.575 141.351C140.096 141.671 139.138 141.671 138.658 141.351C138.179 141.031 138.179 140.551 138.658 140.231C139.297 139.91 140.096 139.91 140.575 140.231Z" fill="#646D7D"/>
<path d="M145.687 137.35C146.166 137.67 146.166 138.15 145.687 138.47C145.208 138.79 144.25 138.79 143.77 138.47C143.291 138.15 143.291 137.67 143.77 137.35C144.25 137.03 145.048 137.03 145.687 137.35Z" fill="#646D7D"/>
<path d="M150.639 134.469C151.118 134.789 151.118 135.27 150.639 135.59C150.16 135.91 149.201 135.91 148.722 135.59C148.243 135.27 148.243 134.789 148.722 134.469C149.201 134.149 150 134.149 150.639 134.469Z" fill="#646D7D"/>
<path d="M155.591 131.588C156.071 131.909 156.071 132.389 155.591 132.709C155.112 133.029 154.154 133.029 153.674 132.709C153.195 132.389 153.195 131.909 153.674 131.588C154.154 131.268 155.112 131.268 155.591 131.588Z" fill="#646D7D"/>
<path d="M160.543 128.708C161.022 129.028 161.022 129.508 160.543 129.828C160.064 130.148 159.105 130.148 158.626 129.828C158.147 129.508 158.147 129.028 158.626 128.708C159.265 128.388 160.064 128.388 160.543 128.708Z" fill="#646D7D"/>
<path d="M165.496 125.826C165.975 126.146 165.975 126.626 165.496 126.946C165.016 127.266 164.058 127.266 163.579 126.946C163.099 126.626 163.099 126.146 163.579 125.826C164.218 125.506 165.016 125.506 165.496 125.826Z" fill="#646D7D"/>
<path d="M170.607 122.945C171.087 123.265 171.087 123.746 170.607 124.066C170.128 124.386 169.17 124.386 168.69 124.066C168.211 123.746 168.211 123.265 168.69 122.945C169.17 122.625 169.968 122.625 170.607 122.945Z" fill="#646D7D"/>
<path d="M175.559 120.065C176.038 120.385 176.038 120.865 175.559 121.185C175.08 121.505 174.121 121.505 173.642 121.185C173.163 120.865 173.163 120.385 173.642 120.065C174.121 119.745 175.08 119.745 175.559 120.065Z" fill="#646D7D"/>
<path d="M180.512 117.184C180.991 117.504 180.991 117.984 180.512 118.305C180.032 118.625 179.074 118.625 178.595 118.305C178.115 117.984 178.115 117.504 178.595 117.184C179.074 116.864 180.032 116.864 180.512 117.184Z" fill="#646D7D"/>
<path d="M185.463 114.303C185.942 114.623 185.942 115.104 185.463 115.424C184.984 115.744 184.026 115.744 183.546 115.424C183.067 115.104 183.067 114.623 183.546 114.303C184.185 113.983 184.984 113.983 185.463 114.303Z" fill="#646D7D"/>
<path d="M189.617 112.702C190.322 112.702 190.895 112.344 190.895 111.902C190.895 111.46 190.322 111.102 189.617 111.102C188.911 111.102 188.339 111.46 188.339 111.902C188.339 112.344 188.911 112.702 189.617 112.702Z" fill="#646D7D"/>
<path d="M195.528 108.541C196.007 108.861 196.007 109.341 195.528 109.661C195.048 109.981 194.09 109.981 193.611 109.661C193.132 109.341 193.132 108.861 193.611 108.541C194.09 108.221 195.048 108.221 195.528 108.541Z" fill="#646D7D"/>
<path d="M130.671 140.231C131.151 140.551 131.151 141.031 130.671 141.351C130.192 141.671 129.234 141.671 128.754 141.351C128.275 141.031 128.275 140.551 128.754 140.231C129.234 139.91 130.192 139.91 130.671 140.231Z" fill="#646D7D"/>
<path d="M135.623 137.35C136.102 137.67 136.102 138.15 135.623 138.47C135.144 138.79 134.185 138.79 133.706 138.47C133.227 138.15 133.227 137.67 133.706 137.35C134.185 137.03 135.144 137.03 135.623 137.35Z" fill="#646D7D"/>
<path d="M140.575 134.469C141.055 134.789 141.055 135.27 140.575 135.59C140.096 135.91 139.138 135.91 138.658 135.59C138.179 135.27 138.179 134.789 138.658 134.469C139.297 134.149 140.096 134.149 140.575 134.469Z" fill="#646D7D"/>
<path d="M145.687 131.588C146.166 131.909 146.166 132.389 145.687 132.709C145.208 133.029 144.25 133.029 143.77 132.709C143.291 132.389 143.291 131.909 143.77 131.588C144.25 131.268 145.048 131.268 145.687 131.588Z" fill="#646D7D"/>
<path d="M150.64 128.708C151.119 129.028 151.119 129.508 150.64 129.828C150.161 130.148 149.202 130.148 148.723 129.828C148.244 129.508 148.244 129.028 148.723 128.708C149.202 128.388 150.001 128.388 150.64 128.708Z" fill="#646D7D"/>
<path d="M155.591 125.826C156.071 126.146 156.071 126.626 155.591 126.946C155.112 127.266 154.154 127.266 153.674 126.946C153.195 126.626 153.195 126.146 153.674 125.826C154.154 125.506 155.112 125.506 155.591 125.826Z" fill="#646D7D"/>
<path d="M160.543 122.945C161.022 123.265 161.022 123.746 160.543 124.066C160.064 124.386 159.105 124.386 158.626 124.066C158.147 123.746 158.147 123.265 158.626 122.945C159.265 122.625 160.064 122.625 160.543 122.945Z" fill="#646D7D"/>
<path d="M165.495 120.065C165.975 120.385 165.975 120.865 165.495 121.185C165.016 121.505 164.058 121.505 163.579 121.185C163.099 120.865 163.099 120.385 163.579 120.065C164.218 119.745 165.016 119.745 165.495 120.065Z" fill="#646D7D"/>
<path d="M170.607 117.184C171.087 117.504 171.087 117.984 170.607 118.305C170.128 118.625 169.17 118.625 168.69 118.305C168.211 117.984 168.211 117.504 168.69 117.184C169.17 116.864 169.968 116.864 170.607 117.184Z" fill="#646D7D"/>
<path d="M175.56 114.303C176.039 114.623 176.039 115.104 175.56 115.424C175.081 115.744 174.122 115.744 173.643 115.424C173.164 115.104 173.164 114.623 173.643 114.303C174.122 113.983 175.081 113.983 175.56 114.303Z" fill="#646D7D"/>
<path d="M180.512 111.423C180.991 111.743 180.991 112.223 180.512 112.543C180.032 112.863 179.074 112.863 178.595 112.543C178.115 112.223 178.115 111.743 178.595 111.423C179.074 111.103 180.032 111.103 180.512 111.423Z" fill="#646D7D"/>
<path d="M185.463 108.541C185.942 108.861 185.942 109.341 185.463 109.661C184.984 109.981 184.026 109.981 183.546 109.661C183.067 109.341 183.067 108.861 183.546 108.541C184.185 108.221 184.984 108.221 185.463 108.541Z" fill="#646D7D"/>
<path d="M190.575 105.66C191.054 105.98 191.054 106.46 190.575 106.781C190.096 107.101 189.137 107.101 188.658 106.781C188.179 106.46 188.179 105.98 188.658 105.66C189.137 105.34 189.936 105.34 190.575 105.66Z" fill="#646D7D"/>
<path d="M125.559 137.35C126.039 137.67 126.039 138.15 125.559 138.47C125.08 138.79 124.122 138.79 123.642 138.47C123.163 138.15 123.163 137.67 123.642 137.35C124.281 137.03 125.08 137.03 125.559 137.35Z" fill="#646D7D"/>
<path d="M130.671 134.469C131.15 134.789 131.15 135.27 130.671 135.59C130.192 135.91 129.233 135.91 128.754 135.59C128.275 135.27 128.275 134.789 128.754 134.469C129.233 134.149 130.032 134.149 130.671 134.469Z" fill="#646D7D"/>
<path d="M135.623 131.588C136.102 131.909 136.102 132.389 135.623 132.709C135.144 133.029 134.185 133.029 133.706 132.709C133.227 132.389 133.227 131.909 133.706 131.588C134.185 131.268 134.984 131.268 135.623 131.588Z" fill="#646D7D"/>
<path d="M140.575 128.708C141.055 129.028 141.055 129.508 140.575 129.828C140.096 130.148 139.138 130.148 138.658 129.828C138.179 129.508 138.179 129.028 138.658 128.708C139.138 128.388 140.096 128.388 140.575 128.708Z" fill="#646D7D"/>
<path d="M145.528 125.826C146.007 126.146 146.007 126.626 145.528 126.946C145.049 127.266 144.09 127.266 143.611 126.946C143.132 126.626 143.132 126.146 143.611 125.826C144.25 125.506 145.049 125.506 145.528 125.826Z" fill="#646D7D"/>
<path d="M150.479 122.945C150.959 123.265 150.959 123.746 150.479 124.066C150 124.386 149.042 124.386 148.563 124.066C148.083 123.746 148.083 123.265 148.563 122.945C149.202 122.625 150 122.625 150.479 122.945Z" fill="#646D7D"/>
<path d="M155.591 120.065C156.071 120.385 156.071 120.865 155.591 121.185C155.112 121.505 154.154 121.505 153.674 121.185C153.195 120.865 153.195 120.385 153.674 120.065C154.154 119.745 154.952 119.745 155.591 120.065Z" fill="#646D7D"/>
<path d="M159.584 118.465C160.29 118.465 160.862 118.106 160.862 117.665C160.862 117.223 160.29 116.864 159.584 116.864C158.879 116.864 158.307 117.223 158.307 117.665C158.307 118.106 158.879 118.465 159.584 118.465Z" fill="#646D7D"/>
<path d="M165.496 114.303C165.975 114.623 165.975 115.104 165.496 115.424C165.016 115.744 164.058 115.744 163.579 115.424C163.099 115.104 163.099 114.623 163.579 114.303C164.218 113.983 165.016 113.983 165.496 114.303Z" fill="#646D7D"/>
<path d="M170.448 111.423C170.927 111.743 170.927 112.223 170.448 112.543C169.969 112.863 169.011 112.863 168.531 112.543C168.052 112.223 168.052 111.743 168.531 111.423C169.17 111.103 169.969 111.103 170.448 111.423Z" fill="#646D7D"/>
<path d="M125.559 131.588C126.039 131.909 126.039 132.389 125.559 132.709C125.08 133.029 124.122 133.029 123.642 132.709C123.163 132.389 123.163 131.909 123.642 131.588C124.281 131.268 125.08 131.268 125.559 131.588Z" fill="#646D7D"/>
<path d="M130.671 128.708C131.151 129.028 131.151 129.508 130.671 129.828C130.192 130.148 129.234 130.148 128.754 129.828C128.275 129.508 128.275 129.028 128.754 128.708C129.234 128.388 130.032 128.388 130.671 128.708Z" fill="#646D7D"/>
<path d="M135.623 125.826C136.102 126.146 136.102 126.626 135.623 126.946C135.144 127.266 134.185 127.266 133.706 126.946C133.227 126.626 133.227 126.146 133.706 125.826C134.185 125.506 134.984 125.506 135.623 125.826Z" fill="#646D7D"/>
<path d="M140.575 122.945C141.055 123.265 141.055 123.746 140.575 124.066C140.096 124.386 139.138 124.386 138.658 124.066C138.179 123.746 138.179 123.265 138.658 122.945C139.138 122.625 140.096 122.625 140.575 122.945Z" fill="#646D7D"/>
<path d="M145.527 120.065C146.006 120.385 146.006 120.865 145.527 121.185C145.048 121.505 144.089 121.505 143.61 121.185C143.131 120.865 143.131 120.385 143.61 120.065C144.249 119.745 145.048 119.745 145.527 120.065Z" fill="#646D7D"/>
<path d="M150.479 117.184C150.959 117.504 150.959 117.984 150.479 118.305C150 118.625 149.042 118.625 148.563 118.305C148.083 117.984 148.083 117.504 148.563 117.184C149.202 116.864 150 116.864 150.479 117.184Z" fill="#646D7D"/>
<path d="M155.591 114.303C156.071 114.623 156.071 115.104 155.591 115.424C155.112 115.744 154.154 115.744 153.674 115.424C153.195 115.104 153.195 114.623 153.674 114.303C154.154 113.983 154.952 113.983 155.591 114.303Z" fill="#646D7D"/>
<path d="M160.543 111.423C161.022 111.743 161.022 112.223 160.543 112.543C160.064 112.863 159.105 112.863 158.626 112.543C158.147 112.223 158.147 111.743 158.626 111.423C159.105 111.103 160.064 111.103 160.543 111.423Z" fill="#646D7D"/>
<path d="M165.495 108.381C165.975 108.701 165.975 109.182 165.495 109.502C165.016 109.822 164.058 109.822 163.579 109.502C163.099 109.182 163.099 108.701 163.579 108.381C164.218 108.221 165.016 108.221 165.495 108.381Z" fill="#646D7D"/>
<path d="M170.447 105.5C170.926 105.821 170.926 106.301 170.447 106.621C169.968 106.941 169.009 106.941 168.53 106.621C168.051 106.301 168.051 105.821 168.53 105.5C169.169 105.34 169.968 105.34 170.447 105.5Z" fill="#646D7D"/>
<path d="M172.684 88.8557L133.387 66.1287L94.0894 88.8557V134.31L133.387 157.197V111.743L172.684 88.8557Z" fill="white"/>
<path d="M173.483 88.3754L133.387 65.1682L93.4504 88.3754H93.2906V89.3357V134.79L132.588 157.677L133.387 158.157L134.185 157.677L173.163 135.11L173.483 134.95V89.3357V88.3754ZM133.387 66.9288L151.917 77.6521L114.057 99.5789L95.5271 88.8556L133.387 66.9288ZM132.588 155.756L94.8881 133.99V90.296L132.588 112.063V155.756ZM149.361 101.499L133.387 110.782L114.856 100.059L152.556 78.1322L171.086 88.8556L149.361 101.499Z" fill="#646D7D"/>
<path d="M117.732 111.743L110.383 107.581C109.585 107.101 108.786 107.101 108.147 107.421C107.348 107.901 107.029 108.862 107.029 109.982C107.029 111.903 108.147 114.143 109.744 115.104L117.093 119.265C117.572 119.585 118.051 119.585 118.371 119.585C118.69 119.585 119.01 119.425 119.329 119.265C120.128 118.785 120.447 117.825 120.447 116.704C120.447 114.784 119.329 112.543 117.732 111.743ZM118.53 117.985C118.371 118.145 118.051 117.985 117.732 117.825L110.543 113.663C109.425 113.023 108.626 111.423 108.626 109.982C108.626 109.342 108.786 108.862 109.105 108.862C109.265 108.702 109.585 108.862 109.904 109.022L110.383 109.342C110.543 111.102 111.502 112.863 112.779 113.663L119.01 117.344C118.85 117.504 118.69 117.825 118.53 117.985ZM118.85 115.904L113.099 112.543C112.141 112.063 111.502 110.782 111.182 109.502L117.093 112.863C117.891 113.503 118.53 114.784 118.85 115.904Z" fill="#646D7D"/>
<path d="M167.093 121.026C166.774 120.866 166.294 120.866 165.815 121.026L160.064 124.387C159.266 124.867 158.467 126.147 158.467 127.268V133.51C158.467 134.15 158.786 134.63 159.106 134.95C159.266 135.11 159.425 135.11 159.585 135.11C159.745 135.11 160.064 135.11 160.384 134.95L166.135 131.589C166.933 131.109 167.732 129.829 167.732 128.708V122.466C167.732 121.826 167.413 121.346 167.093 121.026Z" fill="white"/>
<path d="M133.387 111.743L94.0894 88.856L54.6324 111.743V157.197L94.0894 179.924V134.63L133.387 111.743Z" fill="white"/>
<path d="M54.6324 157.357L94.0894 180.084V134.79L54.6324 111.903V157.357Z" fill="white"/>
<path d="M134.185 111.263L94.0893 88.0557L53.9934 111.103H53.8336V112.063V157.517L93.1308 180.244L93.9296 180.724L94.7283 180.244L133.706 157.677L134.026 157.517V112.063L134.185 111.263ZM94.0893 89.8162L112.62 100.54L74.7602 122.306L56.2298 111.583L94.0893 89.8162ZM93.2906 178.644L55.4311 156.717V113.023L93.1308 134.95V178.644H93.2906ZM110.064 124.227L94.0893 133.51L75.5589 122.786L113.259 100.86L131.789 111.583L110.064 124.227Z" fill="#646D7D"/>
<path d="M78.434 134.47L71.0857 130.309C70.287 129.829 69.4883 129.829 68.8493 130.149C68.0506 130.629 67.7311 131.589 67.7311 132.71C67.7311 134.63 68.8493 136.871 70.4467 137.831L77.795 141.993C78.2742 142.313 78.7535 142.313 79.073 142.313C79.3924 142.313 79.7119 142.153 80.0314 141.993C80.8301 141.512 81.1496 140.552 81.1496 139.432C81.1496 137.671 79.8717 135.431 78.434 134.47ZM79.073 140.872C78.9132 141.032 78.5937 140.872 78.2742 140.712L70.926 136.551C69.8078 135.911 69.009 134.31 69.009 132.87C69.009 132.23 69.1688 131.749 69.4883 131.749C69.648 131.589 69.9675 131.749 70.287 131.909L70.7662 132.23C70.926 133.99 71.8844 135.751 73.1624 136.551L79.3925 140.232C79.5522 140.392 79.3924 140.712 79.073 140.872Z" fill="#646D7D"/>
<path d="M127.636 143.913C127.316 143.753 126.837 143.753 126.358 143.913L120.607 147.274C119.808 147.754 119.01 149.034 119.01 150.155V156.397C119.01 157.037 119.329 157.517 119.649 157.837C119.808 157.997 119.968 157.997 120.128 157.997C120.288 157.997 120.607 157.997 120.927 157.837L126.677 154.476C127.476 153.996 128.275 152.715 128.275 151.595V145.353C128.435 144.713 128.115 144.073 127.636 143.913Z" fill="white"/>
<path d="M172.684 42.7612L133.387 20.0342L94.0894 42.7612V88.2153L133.387 111.102V65.6483L172.684 42.7612Z" fill="white"/>
<path d="M94.0895 88.2158L133.387 111.103V65.6488L94.0895 42.7617V88.2158Z" fill="white"/>
<path d="M173.483 42.2812L133.387 19.074L93.4504 42.2812H93.2906V43.2415V88.6955L132.588 111.423L133.387 111.903L134.185 111.423L173.163 88.8556L173.483 88.6955V43.2415V42.2812ZM133.387 20.8345L151.917 31.5578L114.057 53.4846L95.5271 42.7613L133.387 20.8345ZM132.588 109.662L94.8881 87.8953V44.0417L132.588 65.9685V109.662ZM149.361 55.4052L133.387 64.6881L114.856 53.9648L152.716 32.038L171.246 42.7613L149.361 55.4052Z" fill="#646D7D"/>
<path d="M117.732 65.6484L110.383 61.4871C109.585 61.007 108.786 61.007 108.147 61.3271C107.348 61.8072 107.029 62.7675 107.029 63.8879C107.029 65.8085 108.147 68.0492 109.744 69.0095L117.093 73.1708C117.572 73.4909 118.051 73.4909 118.371 73.4909C118.69 73.4909 119.01 73.3308 119.329 73.1708C120.128 72.6906 120.447 71.7303 120.447 70.61C120.447 68.6894 119.329 66.4487 117.732 65.6484ZM118.53 71.8904C118.371 72.0504 118.051 71.8904 117.732 71.7303L110.383 67.569C109.265 66.9288 108.466 65.3283 108.466 63.8879C108.466 63.2477 108.626 62.7675 108.946 62.7675C109.105 62.6075 109.425 62.7675 109.744 62.9276L110.224 63.2477C110.383 65.0082 111.342 66.7688 112.62 67.569L118.85 71.2502C118.85 71.4102 118.69 71.7303 118.53 71.8904Z" fill="#646D7D"/>
<path d="M167.093 74.9316C166.774 74.7715 166.294 74.7715 165.815 74.9316L160.064 78.2926C159.266 78.7728 158.467 80.0531 158.467 81.1735V87.4154C158.467 88.0556 158.786 88.5358 159.106 88.8559C159.266 89.0159 159.425 89.0159 159.585 89.0159C159.745 89.0159 160.064 89.0159 160.384 88.8559L166.135 85.4948C166.933 85.0147 167.732 83.7343 167.732 82.6139V76.372C167.732 75.7318 167.413 75.2517 167.093 74.9316Z" fill="white"/>
<path d="M134.504 157.357L133.865 157.837V110.943H134.025L173.482 88.0554V88.8557L134.504 111.423V157.357Z" fill="white"/>
<path d="M492.015 365.261L486.584 362.22C485.945 361.9 485.146 361.58 484.507 361.42C479.076 360.46 473.485 366.061 472.047 373.584C470.929 379.506 472.846 384.787 476.36 386.708L481.472 389.589C482.43 390.229 483.389 390.709 484.507 390.709C489.459 391.189 494.731 386.228 496.328 379.346C497.926 373.104 496.009 367.182 492.015 365.261Z" fill="white"/>
<path d="M495.689 367.502C494.89 366.381 494.091 365.581 493.133 364.941L486.264 361.1C485.785 360.94 485.305 360.78 484.666 360.619C478.915 359.659 472.845 365.421 471.408 373.423C470.289 379.185 471.887 384.627 475.401 387.028L481.312 390.229C482.27 390.869 483.388 391.349 484.666 391.509C484.986 391.509 485.305 391.509 485.465 391.509C490.577 391.509 495.689 386.387 497.286 379.505C498.245 375.024 497.765 370.543 495.689 367.502ZM489.938 368.302C490.098 368.622 490.098 369.102 490.098 369.422C489.938 369.422 489.618 369.262 489.459 369.262C485.944 368.782 482.27 372.303 481.312 377.425C480.673 380.306 481.152 383.186 482.59 385.107C482.749 385.427 483.069 385.587 483.229 385.907C482.909 386.067 482.59 386.227 482.27 386.387L481.951 386.547L481.152 388.468C480.832 388.148 480.513 387.828 480.193 387.508C478.277 384.947 477.638 381.106 478.436 377.105C479.714 370.543 484.347 365.421 488.979 365.421C489.299 365.421 489.618 365.421 489.938 365.581C490.257 365.581 490.577 365.741 490.896 365.901L489.778 368.302H489.938ZM483.229 384.627C481.951 383.026 481.631 380.306 482.11 377.585C482.909 373.263 485.944 370.062 488.82 370.062C488.979 370.062 489.139 370.062 489.459 370.062C489.778 370.062 490.098 370.222 490.417 370.382C490.577 372.143 490.417 374.064 490.098 375.984C489.139 379.985 486.903 383.507 484.027 385.427C483.708 385.107 483.388 384.947 483.229 384.627ZM491.535 376.304C491.855 374.704 492.015 373.263 492.015 371.823C492.015 371.823 492.015 371.823 492.174 371.983C493.293 373.744 493.772 376.464 493.133 379.185C492.174 383.507 488.979 386.708 485.944 386.387C485.785 386.387 485.625 386.387 485.465 386.227C488.34 383.987 490.577 380.466 491.535 376.304ZM476.679 386.067C473.324 384.147 471.727 379.025 472.685 373.744C473.963 366.701 479.235 361.42 484.187 362.22C484.826 362.38 485.465 362.54 486.104 362.86L487.701 363.82C482.749 364.461 478.117 369.742 476.839 376.624C476.04 380.466 476.519 384.147 477.957 386.868L476.839 386.227L476.679 386.067ZM495.689 379.185C494.251 385.587 489.299 390.549 484.666 390.069C483.868 389.909 483.069 389.748 482.43 389.268L483.069 387.668C483.548 387.508 484.027 387.188 484.507 386.868C484.826 387.028 485.305 387.188 485.625 387.188C485.785 387.188 485.944 387.188 486.104 387.188C489.299 387.188 492.494 383.827 493.612 379.345C494.251 376.464 493.932 373.423 492.654 371.503C492.334 371.183 492.174 370.863 491.855 370.543C491.855 369.742 491.695 368.942 491.535 368.142L492.334 366.221C493.133 366.701 493.772 367.342 494.251 368.302C496.168 371.023 496.647 375.184 495.689 379.185Z" fill="#646D7D"/>
<path d="M514.698 389.429C515.976 388.629 515.816 387.349 514.219 386.388L492.653 373.904C491.056 372.944 488.659 372.944 487.381 373.744L455.432 392.15C454.793 392.47 454.474 393.11 454.474 393.591V395.991V396.311C454.474 396.952 454.953 397.432 455.752 397.912L477.317 410.396C478.915 411.356 481.311 411.356 482.589 410.556L514.538 392.15C515.816 391.51 515.816 390.229 514.698 389.429Z" fill="white"/>
<path d="M516.295 388.149C516.295 387.188 515.656 386.388 514.538 385.748L492.972 373.264C491.215 372.144 488.5 372.144 486.902 373.104L454.953 391.51C454.154 391.99 453.675 392.63 453.675 393.59V396.471C453.835 397.271 454.314 398.072 455.273 398.712L476.838 411.196C477.797 411.836 479.075 411.996 480.193 411.996C481.151 411.996 482.11 411.836 482.908 411.356L514.857 392.95C515.656 392.47 516.135 391.83 516.135 391.03C516.135 390.549 515.976 389.909 515.656 389.429C516.135 389.109 516.295 388.629 516.295 388.149ZM455.432 393.43C455.432 393.27 455.432 392.95 455.912 392.63L487.861 374.224C488.979 373.584 491.055 373.744 492.333 374.384L513.899 386.868C514.538 387.188 514.857 387.668 514.857 387.989C514.857 388.309 514.538 388.469 514.378 388.629L513.42 389.269L513.739 389.589L482.749 407.515C481.471 408.155 479.234 408.155 477.797 407.355L456.231 394.871C455.912 394.711 455.752 394.551 455.592 394.391L455.432 393.43ZM514.218 391.51L482.269 409.915C481.151 410.556 479.075 410.396 477.797 409.755L456.231 397.271C455.752 396.951 455.432 396.631 455.273 396.311V395.351C455.432 395.351 455.432 395.511 455.592 395.511L477.158 407.995C478.116 408.475 479.234 408.795 480.353 408.795C481.311 408.795 482.11 408.635 482.908 408.155L514.218 390.069C514.538 390.389 514.698 390.549 514.698 390.869C514.698 391.19 514.378 391.35 514.218 391.51Z" fill="#646D7D"/>
<path d="M489.458 373.103C488.499 373.103 487.541 372.303 487.541 371.183V312.285C487.541 304.122 491.854 296.6 498.723 292.438L511.343 284.916C512.142 284.436 513.42 284.756 513.899 285.556C514.378 286.356 514.059 287.637 513.26 288.117L500.64 295.639C494.729 299.16 491.215 305.402 491.215 312.285V371.183C491.375 372.303 490.576 373.103 489.458 373.103Z" fill="white"/>
<path d="M489.458 373.904C488.02 373.904 486.742 372.784 486.742 371.183V312.285C486.742 303.962 491.215 296.12 498.404 291.799L511.024 284.276C512.302 283.476 513.899 283.956 514.698 285.237C515.017 285.877 515.177 286.517 515.017 287.317C514.857 287.957 514.378 288.598 513.739 288.918L501.119 296.44C495.528 299.801 492.174 305.883 492.174 312.285V371.183C492.174 372.784 490.896 373.904 489.458 373.904ZM512.461 285.557C512.301 285.557 512.142 285.557 511.982 285.717L499.362 293.239C492.653 297.24 488.5 304.603 488.5 312.285V371.183C488.5 371.823 488.979 372.303 489.618 372.303C490.257 372.303 490.736 371.823 490.736 371.183V312.285C490.736 305.243 494.41 298.681 500.48 295L513.1 287.477C513.42 287.317 513.579 287.157 513.579 286.837C513.579 286.517 513.579 286.197 513.42 286.037C513.1 285.717 512.781 285.557 512.461 285.557Z" fill="#646D7D"/>
<path d="M514.378 386.388C513.42 386.388 512.461 385.587 512.461 384.467V325.569C512.461 317.406 516.774 309.884 523.643 305.723L536.263 298.2C537.062 297.72 538.34 298.04 538.819 298.84C539.298 299.641 538.979 300.921 538.18 301.401L525.56 308.924C519.65 312.445 516.135 318.687 516.135 325.569V384.467C516.295 385.427 515.496 386.388 514.378 386.388Z" fill="white"/>
<path d="M514.378 387.188C512.94 387.188 511.662 386.068 511.662 384.467V325.569C511.662 317.246 516.135 309.404 523.324 305.083L535.944 297.56C536.583 297.24 537.222 297.08 538.02 297.24C538.659 297.4 539.298 297.88 539.618 298.521C539.937 299.161 540.097 299.801 539.937 300.601C539.777 301.242 539.298 301.882 538.659 302.202L526.039 309.724C520.448 313.085 517.094 319.167 517.094 325.569V384.467C517.094 385.908 515.975 387.188 514.378 387.188ZM537.381 298.841C537.222 298.841 537.062 298.841 536.902 299.001L524.282 306.523C517.573 310.524 513.42 317.887 513.42 325.569V384.467C513.42 385.107 513.899 385.588 514.538 385.588C515.177 385.588 515.656 385.107 515.656 384.467V325.569C515.656 318.527 519.33 311.965 525.4 308.284L538.02 300.761C538.34 300.601 538.5 300.441 538.5 300.121C538.5 299.801 538.499 299.481 538.34 299.321C538.18 299.001 538.02 298.841 537.701 298.841C537.541 298.841 537.541 298.841 537.381 298.841Z" fill="#646D7D"/>
<path d="M510.863 354.378C510.065 354.378 509.266 354.218 508.467 353.738L492.972 344.775C490.256 343.174 488.18 339.333 488.18 335.972V335.012C488.18 332.931 488.978 331.171 490.416 330.37C491.694 329.57 493.291 329.73 494.729 330.53L510.224 339.493C512.94 341.094 515.017 344.935 515.017 348.296V349.256C515.017 351.337 514.218 353.097 512.78 353.898C512.141 354.218 511.502 354.378 510.863 354.378ZM510.224 350.537C510.704 350.697 510.863 350.697 510.863 350.697C511.023 350.697 511.183 350.217 511.183 349.256V348.296C511.183 346.215 509.905 343.494 508.307 342.694L492.812 333.731C492.493 333.571 492.173 333.571 492.173 333.571C492.013 333.571 491.854 334.052 491.854 335.012V335.972C491.854 338.053 493.132 340.774 494.729 341.574L510.224 350.537Z" fill="white"/>
<path d="M510.863 355.178C509.905 355.178 508.946 354.858 507.988 354.378L492.492 345.415C489.617 343.814 487.381 339.493 487.381 335.812V334.852C487.381 332.451 488.339 330.53 489.937 329.57C491.374 328.61 493.291 328.77 495.048 329.73L510.544 338.693C513.419 340.293 515.655 344.615 515.655 348.296V349.256C515.655 351.657 514.697 353.577 513.1 354.538C512.461 355.018 511.662 355.178 510.863 355.178ZM492.333 330.53C491.854 330.53 491.215 330.69 490.895 330.85C489.777 331.491 488.978 332.931 488.978 334.852V335.812C488.978 339.013 490.895 342.534 493.291 343.974L508.786 352.937C510.064 353.577 511.342 353.737 512.301 353.097C513.419 352.457 514.218 351.017 514.218 349.096V348.136C514.218 344.935 512.301 341.414 509.905 339.973L494.409 331.01C493.611 330.85 492.972 330.53 492.333 330.53ZM510.863 351.497C510.544 351.497 510.064 351.337 509.905 351.177L494.409 342.214C492.652 341.254 491.215 338.373 491.215 335.812V334.852C491.215 333.731 491.534 332.931 492.013 332.771C492.492 332.451 492.972 332.771 493.451 332.931L508.946 341.894C510.703 342.854 512.141 345.895 512.141 348.296V349.256C512.141 350.216 511.822 351.017 511.502 351.337C511.183 351.497 511.023 351.497 510.863 351.497ZM492.652 334.532C492.652 334.692 492.652 334.852 492.652 335.012V335.972C492.652 337.893 493.77 340.133 495.048 340.934L510.384 349.896C510.384 349.736 510.384 349.576 510.384 349.416V348.456C510.384 346.535 509.266 344.295 507.988 343.494L492.652 334.532Z" fill="#646D7D"/>
<path d="M501.759 343.654L462.461 320.767L423.004 343.654V389.109L462.461 411.836V366.542L501.759 343.654Z" fill="white"/>
<path d="M423.004 388.948L462.461 411.675V366.381L423.004 343.494V388.948Z" fill="white"/>
<path d="M502.557 343.174L462.461 319.967L422.365 343.174H422.206V344.134V389.588L461.503 412.315L462.302 412.795L463.1 412.315L502.078 389.748L502.397 389.588V344.134L502.557 343.174ZM462.461 321.727L480.992 332.45L443.292 354.377L424.761 343.654L462.461 321.727ZM461.663 410.555L423.963 388.628V344.934L461.663 366.861V410.555ZM478.436 356.138L462.461 365.421L443.931 354.697L481.631 332.771L500.161 343.494L478.436 356.138Z" fill="#646D7D"/>
<path d="M446.806 366.381L439.458 362.22C438.659 361.74 437.86 361.74 437.221 362.06C436.422 362.54 436.103 363.5 436.103 364.621C436.103 366.541 437.221 368.782 438.819 369.742L446.167 373.904C446.646 374.224 447.125 374.224 447.445 374.224C447.764 374.224 448.084 374.064 448.403 373.904C449.202 373.424 449.521 372.463 449.521 371.343C449.521 369.582 448.244 367.342 446.806 366.381ZM447.445 372.783C447.285 372.943 446.966 372.783 446.646 372.623L439.298 368.462C438.18 367.822 437.381 366.221 437.381 364.781C437.381 364.141 437.541 363.66 437.86 363.66C438.02 363.5 438.339 363.661 438.659 363.821L439.138 364.141C439.298 365.901 440.256 367.662 441.534 368.462L447.764 372.143C447.924 372.303 447.605 372.623 447.445 372.783Z" fill="#646D7D"/>
<path d="M496.008 375.824C495.688 375.664 495.209 375.664 494.73 375.824L488.979 379.185C488.18 379.665 487.381 380.946 487.381 382.066V388.308C487.381 388.948 487.701 389.428 488.02 389.748C488.18 389.908 488.34 389.909 488.5 389.909C488.659 389.909 488.979 389.908 489.298 389.748L495.049 386.387C495.848 385.907 496.647 384.627 496.647 383.507V377.265C496.806 376.624 496.487 375.984 496.008 375.824Z" fill="white"/>
<path d="M518.851 380.466L513.419 377.425C512.781 377.105 511.982 376.785 511.343 376.625C505.911 375.665 500.32 381.266 498.883 388.789C497.764 394.71 499.681 399.992 503.196 401.913L508.308 404.794L509.426 402.233C513.1 400.792 516.455 396.631 517.573 391.349C518.212 388.469 518.212 385.748 517.573 383.347L518.851 380.466Z" fill="white"/>
<path d="M522.525 382.707C521.726 381.587 520.927 380.787 519.969 380.146L513.1 376.305C512.621 376.145 511.982 375.985 511.503 375.825C505.752 374.865 499.681 380.627 498.244 388.629C497.125 394.711 499.042 400.473 502.876 402.713L508.148 405.594C509.106 406.234 510.225 406.715 511.503 406.875C511.822 406.875 512.141 406.875 512.301 406.875C517.413 406.875 522.525 401.753 524.122 394.871C525.081 390.39 524.602 385.908 522.525 382.707ZM499.681 388.949C500.959 382.387 505.592 377.265 510.225 377.265C510.544 377.265 510.864 377.265 511.343 377.426C511.982 377.586 512.621 377.746 513.26 378.066L514.857 379.026C509.905 379.666 505.272 384.948 503.994 391.83C503.196 395.671 503.675 399.192 505.113 402.073L503.675 401.273C500.161 399.512 498.563 394.391 499.681 388.949Z" fill="#646D7D"/>
<path d="M513.26 402.393C513.1 402.393 512.94 402.393 512.781 402.393C511.503 402.233 510.384 401.593 509.586 400.313C508.308 398.392 507.828 395.671 508.308 392.79C509.266 387.669 513.1 384.148 516.455 384.628C517.733 384.788 518.851 385.588 519.65 386.708C520.928 388.629 521.407 391.51 520.608 394.551C519.65 399.192 516.455 402.393 513.26 402.393ZM515.656 385.428C512.781 385.428 509.745 388.789 508.947 392.95C508.467 395.671 508.787 398.232 510.065 399.992C510.704 400.953 511.662 401.593 512.781 401.753C515.656 402.073 518.851 398.872 519.969 394.551C520.608 391.83 520.289 389.109 519.011 387.349C518.372 386.388 517.413 385.748 516.295 385.588C516.135 385.428 515.816 385.428 515.656 385.428Z" fill="white"/>
<path d="M516.614 394.07C515.975 396.631 514.218 398.391 512.461 398.231C510.704 398.071 509.586 395.831 510.225 393.11C510.704 390.389 512.621 388.468 514.538 388.789C516.295 389.109 517.253 391.509 516.614 394.07Z" fill="white"/>
<path d="M518.052 394.871C517.413 397.431 515.656 399.192 513.898 399.032C512.141 398.872 511.023 396.631 511.662 393.91C512.141 391.19 514.058 389.269 515.975 389.589C517.573 389.909 518.531 392.31 518.052 394.871Z" fill="white"/>
<path d="M43.4515 317.086V321.887L130.672 372.143V367.501L43.4515 317.086Z" fill="white"/>
<path d="M130.671 367.502L43.4506 317.087L53.834 311.005L141.055 361.421L130.671 367.502Z" fill="white"/>
<path d="M130.672 367.502L45.2086 318.047L53.8348 312.926L139.618 362.541L130.672 367.502Z" fill="white"/>
<path d="M141.694 361.9V361.1L141.055 360.78L54.1539 310.525L53.8344 310.365L43.451 316.446L42.812 316.766V317.567V322.368L130.033 372.784L130.672 373.104L131.311 372.784L141.694 366.702V361.9ZM139.777 361.42L137.221 362.861L130.512 366.702L99.5214 348.776L44.729 317.087L53.8344 311.805L139.777 361.42ZM44.09 321.408V318.047L130.033 367.822V371.023L44.09 321.408Z" fill="#646D7D"/>
<path d="M29.0739 324.608V329.57L116.454 379.825V375.184L29.0739 324.608Z" fill="white"/>
<path d="M116.454 375.185L29.0739 324.609L39.617 318.687L126.838 369.103L116.454 375.185Z" fill="white"/>
<path d="M116.454 375.185L30.8311 325.729L39.617 320.608L125.4 370.223L116.454 375.185Z" fill="white"/>
<path d="M127.477 369.423V368.622L126.838 368.302L39.9367 318.047L39.6172 317.887L29.2338 323.969L28.5948 324.289V325.089V329.89L115.815 380.306L116.454 380.626L117.093 380.306L127.477 374.224V369.423ZM125.56 369.103L123.004 370.543L116.295 374.384L85.3042 356.459L30.352 324.609L39.4575 319.327L125.56 369.103ZM29.7131 329.09V325.729L115.656 375.505V378.706L29.7131 329.09Z" fill="#646D7D"/>
<path d="M14.8567 332.931V337.733L102.237 388.149V383.347L14.8567 332.931Z" fill="white"/>
<path d="M102.237 383.347L14.8568 332.932L25.4 326.85L112.621 377.426L102.237 383.347Z" fill="white"/>
<path d="M102.237 383.348L16.6138 333.892L25.3997 328.931L111.183 378.546L102.237 383.348Z" fill="white"/>
<path d="M113.26 377.746V376.945L112.621 376.625L25.7194 326.37L25.4 326.21L15.0165 332.292L14.3776 332.612V333.412V338.213L101.598 388.629L102.237 388.949L102.876 388.629L113.26 382.547V377.746ZM111.343 377.426L108.787 378.866L102.077 382.707L71.087 364.782L16.1348 332.932L25.2402 327.65L111.343 377.426ZM15.4958 337.413V334.052L101.438 383.828V387.029L15.4958 337.413Z" fill="#646D7D"/>
<path d="M0.639404 341.253V346.055L87.86 396.471V391.669L0.639404 341.253Z" fill="white"/>
<path d="M87.8592 391.67L0.63855 341.254L11.022 335.172L98.4024 385.588L87.8592 391.67Z" fill="white"/>
<path d="M87.8601 391.67L2.39661 342.214L11.0228 337.253L96.8058 386.868L87.8601 391.67Z" fill="white"/>
<path d="M99.0418 386.068V385.268L98.4028 384.948L11.3419 334.692L11.0224 334.532L0.638979 340.614L0 340.774V341.574V346.376L87.2206 396.791L87.8596 397.111L88.4986 396.791L98.882 390.709V386.068H99.0418ZM97.1248 385.588L94.5689 387.028L87.8596 390.869L56.8691 372.944L1.91694 341.254L11.0224 335.972L97.1248 385.588ZM1.27796 345.735V342.374L87.2206 392.15V395.351L1.27796 345.735Z" fill="#646D7D"/>
<path d="M43.4515 301.721V306.683L130.672 356.939V352.297L43.4515 301.721Z" fill="white"/>
<path d="M130.672 352.298L43.4515 301.722L53.8349 295.801L141.056 346.216L130.672 352.298Z" fill="white"/>
<path d="M130.672 352.297L45.2086 302.842L53.8348 297.72L139.618 347.336L130.672 352.297Z" fill="white"/>
<path d="M141.694 346.536V345.736L141.055 345.416L54.1539 295.16L53.8344 295L43.451 301.082L42.812 301.402V302.202V307.004L130.033 357.419L130.672 357.739L131.311 357.419L141.694 351.337V346.536ZM139.777 346.216L137.221 347.656L130.512 351.497L99.5214 333.572L44.729 301.722L53.8344 296.44L139.777 346.216ZM44.09 306.203V302.842L130.033 352.618V355.819L44.09 306.203Z" fill="#646D7D"/>
<path d="M29.0729 309.404V314.206L116.453 364.621V359.98L29.0729 309.404Z" fill="white"/>
<path d="M116.453 359.98L29.073 309.405L39.6162 303.323L126.837 353.898L116.453 359.98Z" fill="white"/>
<path d="M116.453 359.98L30.83 310.365L39.6159 305.404L125.399 355.019L116.453 359.98Z" fill="white"/>
<path d="M127.476 354.219V353.418L126.837 353.098L39.9356 302.843L39.6161 302.683L29.2327 308.764L28.5938 309.085V309.885V314.686L115.814 364.942L116.453 365.262L117.092 364.942L127.476 358.86V354.219ZM125.559 353.898L123.003 355.339L116.294 359.18L85.3032 341.255L30.3509 309.405L39.4564 304.123L125.559 353.898ZM29.712 313.886V310.525L115.655 360.3V363.501L29.712 313.886Z" fill="#646D7D"/>
<path d="M14.8558 317.726V322.528L102.236 372.943V368.142L14.8558 317.726Z" fill="white"/>
<path d="M102.236 368.143L14.8558 317.727L25.399 311.645L112.62 362.061L102.236 368.143Z" fill="white"/>
<path d="M102.236 368.142L16.6129 318.687L25.3989 313.726L111.182 363.341L102.236 368.142Z" fill="white"/>
<path d="M113.259 362.541V361.741L112.62 361.421L25.7189 311.165L25.3994 311.005L14.8563 316.927L14.2173 317.247V318.047V322.849L101.438 373.264L102.077 373.584L102.716 373.264L113.099 367.182V362.541H113.259ZM111.342 362.061L108.786 363.501L102.077 367.342L71.0864 349.417L16.1342 317.567L25.2397 312.285L111.342 362.061ZM15.4952 322.208V318.847L101.438 368.623V371.824L15.4952 322.208Z" fill="#646D7D"/>
<path d="M0.639404 325.889V330.85L87.86 381.106V376.465L0.639404 325.889Z" fill="white"/>
<path d="M87.8601 376.466L0.639404 325.89L11.0228 319.968L98.4032 370.384L87.8601 376.466Z" fill="white"/>
<path d="M87.8601 376.465L2.39661 327.01L11.0228 321.888L96.8058 371.504L87.8601 376.465Z" fill="white"/>
<path d="M99.0418 370.863V370.063L98.4028 369.743L11.3419 319.327L11.0224 319.167L0.638979 325.249L0 325.569V326.369V331.171L87.2206 381.587L87.8596 381.907L88.4986 381.587L98.882 375.505V370.863H99.0418ZM97.1248 370.383L94.5689 371.824L87.8596 375.665L56.8691 357.739L1.91694 325.889L11.0224 320.608L97.1248 370.383ZM1.27796 330.371V327.01L87.2206 376.785V379.986L1.27796 330.371Z" fill="#646D7D"/>
<path d="M64.3773 378.066V367.503L77.4764 375.185V385.749L64.3773 378.066Z" fill="white"/>
<path d="M86.5816 380.466L78.1151 375.504V374.704L63.5784 366.382V378.545L78.1151 386.868V385.428L86.5816 380.466ZM76.8372 384.627L64.8563 377.745V368.622L76.8372 375.504V384.627Z" fill="#646D7D"/>
<path d="M9.90515 346.536V336.133L23.164 343.815V354.219L9.90515 346.536Z" fill="white"/>
<path d="M32.2689 348.937L23.8024 343.975V343.495L9.26562 335.012V346.856L23.8024 355.338V353.898L32.2689 348.937ZM22.5244 353.098L10.5436 346.056V337.253L22.5244 344.295V353.098Z" fill="#646D7D"/>
<path d="M36.422 361.901V351.498L49.6808 359.18V369.583L36.422 361.901Z" fill="white"/>
<path d="M58.7867 364.301L50.3202 359.34V358.86L35.7834 350.377V362.221L50.3202 370.703V369.263L58.7867 364.301ZM49.0423 368.463L37.0614 361.42V352.618L49.0423 359.66V368.463Z" fill="#646D7D"/>
<path d="M107.987 290.838L68.6902 268.111L29.2333 290.838V336.452L68.6902 359.179V313.725L107.987 290.838Z" fill="white"/>
<path d="M29.2333 336.292L68.6902 359.019V313.565L29.2333 290.678V336.292Z" fill="white"/>
<path d="M108.786 290.358L68.6903 267.151L28.5943 290.358H28.4346V291.319V336.773L67.7318 359.5L68.6903 360.14L69.489 359.66L108.467 337.093L108.786 336.933V291.319V290.358ZM68.6903 269.072L87.2207 279.795L49.5209 301.722L30.9905 290.999L68.6903 269.072ZM67.8915 357.899L30.1918 335.972V292.279L67.8915 314.206V357.899ZM84.6647 303.482L68.6903 312.765L50.1599 302.042L87.8596 280.115L106.39 290.838L84.6647 303.482Z" fill="#646D7D"/>
<path d="M53.0348 313.725L45.6866 309.564C44.8878 309.084 44.0891 309.084 43.4501 309.404C42.6514 309.884 42.3319 310.844 42.3319 311.965C42.3319 313.885 43.4501 316.126 45.0476 317.086L52.3958 321.247C52.8751 321.568 53.3543 321.568 53.6738 321.568C53.9933 321.568 54.3128 321.407 54.6323 321.247C55.431 320.767 55.7505 319.807 55.7505 318.687C55.7505 316.766 54.4725 314.525 53.0348 313.725ZM53.6738 319.967C53.514 320.127 53.1946 319.967 52.8751 319.807L45.5268 315.646C44.4086 315.005 43.6099 313.405 43.6099 311.965C43.6099 311.324 43.7696 310.844 44.0891 310.844C44.2488 310.684 44.5683 310.844 44.8878 311.004L45.3671 311.324C45.5268 313.085 46.4853 314.845 47.7632 315.646L53.9933 319.327C54.153 319.647 53.9933 319.967 53.6738 319.967Z" fill="#646D7D"/>
<path d="M102.396 323.168C102.077 323.008 101.598 323.008 101.118 323.168L95.3675 326.529C94.5687 327.009 93.77 328.29 93.77 329.41V335.652C93.77 336.292 94.0895 336.772 94.409 337.092C94.5687 337.253 94.7285 337.253 94.8882 337.253C95.048 337.253 95.3675 337.253 95.687 337.092L101.438 333.731C102.236 333.251 103.035 331.971 103.035 330.851V324.609C103.035 323.808 102.716 323.328 102.396 323.168Z" fill="white"/>
<path d="M249.521 343.014L128.115 272.752V138.63L249.521 208.892V343.014Z" fill="white"/>
<path d="M365.815 0.988037L128.115 138.471L249.681 208.732L487.221 71.2498L365.815 0.988037Z" fill="white"/>
<path d="M128.115 137.67L127.316 138.311V271.312V273.232V282.675L143.61 292.118L151.438 287.157L230.352 332.771L233.866 344.294L248.882 352.937L250.48 352.777V344.454V342.534V208.412L129.553 138.471L128.115 137.67ZM142.971 289.717L128.914 281.555V274.033L132.588 276.113L145.687 283.636L142.971 289.717ZM248.722 351.016L234.984 343.174L232.109 333.891L248.563 343.494V351.016H248.722ZM248.722 341.574L247.764 340.933L225.08 327.809V323.328L209.425 314.365V319.007L168.211 295.159V290.518L152.556 281.555V286.196L128.914 272.432V139.911L248.722 209.213V341.574Z" fill="#646D7D"/>
<path d="M365.655 4.8291L130.83 140.711L250.799 210.013L485.624 74.1306L365.655 4.8291ZM249.521 197.849L145.527 138.791L365.655 11.3911L469.33 71.2497L249.521 197.849Z" fill="white"/>
<path d="M487.222 70.2896L249.202 207.932L248.723 208.092V342.214V344.134V352.777L249.362 353.097L265.336 343.814L268.851 332.291L464.219 219.296L471.726 224.417L488.02 214.974V205.531V203.611V70.7697L487.222 70.2896ZM470.129 221.376L465.816 218.656L468.212 217.215L468.372 217.535L470.129 221.376Z" fill="#646D7D"/>
<path d="M261.662 211.773L261.183 211.933V325.408L273.323 318.366L273.803 318.206L282.109 313.404L282.429 313.244L292.812 307.322L293.451 307.002L301.918 302.041L312.141 296.119L312.78 295.799L321.247 290.837L331.47 284.915L332.269 284.595L340.736 279.634L350.8 273.872L351.598 273.552L360.065 268.43L370.448 262.508L370.927 262.188L371.886 261.708L379.554 257.387V257.227L389.777 251.305L390.576 250.985L399.043 246.023L409.106 240.262L409.905 239.941L418.372 234.82L428.436 229.058L429.394 228.738L437.861 223.616L447.765 217.855L448.723 217.534L457.19 212.413L468.052 206.171H468.212V206.011L476.359 201.369L476.838 201.209V201.049V89.1747V87.5742L261.662 211.773ZM371.407 260.268V150.474L378.276 146.472V256.266L371.407 260.268ZM273.803 206.651L280.672 202.65V312.444L273.803 316.285V206.651ZM282.429 201.69L291.854 196.248V305.722H282.429V201.69ZM293.451 305.242V195.448L300.32 191.446V301.24L293.451 305.242ZM301.918 190.486L311.343 185.044V294.518H301.918V190.486ZM312.94 293.878V184.084L319.809 180.083V289.877L312.94 293.878ZM321.247 179.443L330.672 174.001V283.475H321.247V179.443ZM332.429 282.675V172.881L339.298 168.879V278.673L332.429 282.675ZM340.736 168.239L350.32 162.798V272.431H340.895V168.239H340.736ZM351.918 271.471V161.677L358.787 157.676V267.47L351.918 271.471ZM360.225 157.036L369.809 151.434V260.908H360.384V157.036H360.225ZM379.873 145.672L389.298 140.231V249.704H379.873V145.672ZM390.896 249.064V139.27L397.765 135.269V245.063L390.896 249.064ZM399.202 134.469L408.787 129.027V238.501H399.362V134.469H399.202ZM410.384 237.861V128.067L417.253 124.066V233.86L410.384 237.861ZM419.011 123.105L428.436 117.664V227.298H419.011V123.105ZM429.873 226.497V116.863L436.742 112.862V222.496L429.873 226.497ZM438.499 111.902L447.924 106.46V216.094H438.499V111.902ZM449.362 215.294V105.5L456.231 101.499V211.293L449.362 215.294ZM457.988 100.698L467.413 95.2566V204.41H457.988V100.698ZM468.851 203.93V94.2963L475.72 90.2951V199.929L468.851 203.93ZM272.205 207.611V316.925H262.78V212.893L272.205 207.611Z" fill="white"/>
<path d="M175.24 123.106L182.429 118.944L283.227 176.562L276.199 180.723L175.24 123.106Z" fill="white"/>
<path d="M157.668 133.348L164.857 129.347L265.656 186.965L258.627 191.126L157.668 133.348Z" fill="white"/>
<path d="M193.77 112.542L200.799 108.38L301.598 166.158L294.569 170.16L193.77 112.542Z" fill="white"/>
<path d="M211.822 101.659L218.85 97.6577L319.649 155.276L312.62 159.277L211.822 101.659Z" fill="white"/>
<path d="M229.393 91.2563L236.422 87.095L337.381 144.713L330.352 148.874L229.393 91.2563Z" fill="white"/>
<path d="M247.924 80.6925L254.953 76.5312L355.752 134.309L348.723 138.31L247.924 80.6925Z" fill="white"/>
<path d="M265.816 69.8096L273.004 65.8083L373.803 123.426L366.774 127.587L265.816 69.8096Z" fill="white"/>
<path d="M284.346 59.726L291.534 55.5647L392.333 113.183L385.304 117.344L284.346 59.726Z" fill="white"/>
<path d="M302.397 48.843L309.426 44.8418L410.384 102.46L403.356 106.461L302.397 48.843Z" fill="white"/>
<path d="M321.247 38.4396L328.276 34.2783L429.075 91.8962L422.206 96.0574L321.247 38.4396Z" fill="white"/>
<path d="M339.618 27.8759L346.806 23.7146L447.605 81.4925L440.576 85.4937L339.618 27.8759Z" fill="white"/>
<path d="M357.669 16.9929L364.698 12.9917L465.657 70.6096L458.628 74.6108L357.669 16.9929Z" fill="white"/>
<path d="M249.681 209.693L249.202 209.533L127.316 139.111L127.955 137.831L365.815 0.0280762L366.294 0.188126L488.18 70.77V71.7303L249.681 209.693ZM129.712 138.471L249.681 207.772L485.624 71.2501L365.815 1.94867L129.712 138.471Z" fill="#646D7D"/>
<path d="M469.17 71.4098L467.892 70.7696L365.496 11.5513L365.176 11.2312L328.435 32.5178H328.275L318.052 38.4396L318.211 38.5997L310.224 43.2411L309.905 43.0811L299.681 49.0029L300.001 49.163L292.013 53.8044L291.694 53.6443L281.47 59.5662L281.79 59.7262L237.381 85.4942L227.157 91.416L145.687 138.791L248.083 197.209L249.521 198.009L249.841 198.169L469.17 71.4098ZM153.515 141.352L158.467 133.989L257.349 192.087L249.841 196.409L153.515 141.352ZM237.381 87.4148L338.499 145.193L331.47 149.194L230.352 91.416L237.381 87.4148ZM292.013 55.5649L393.291 113.503L386.263 117.504L284.984 59.5662L292.013 55.5649ZM297.604 56.8453L301.598 49.9632L402.876 107.901L394.729 112.543L394.569 112.383V112.222L297.604 56.8453ZM310.224 45.0017L411.502 102.94L404.474 106.941L303.195 49.0029L310.224 45.0017ZM316.135 46.4421L320.128 39.56L421.247 97.3379L413.1 101.979V101.819L316.135 46.4421ZM328.595 34.4384L429.873 92.3763L422.844 96.3776L321.566 38.4396L328.595 34.4384ZM448.084 81.8131L441.055 85.8143L339.777 27.8764L346.806 23.7151L448.084 81.8131ZM353.036 25.4756L357.029 18.5935L457.828 76.2113L449.841 80.8528L353.036 25.4756ZM358.307 17.4731L365.336 13.3118L466.135 71.2498L459.426 75.091L358.307 17.4731ZM439.458 86.7746L431.47 91.416L334.505 35.8788L338.499 28.9967L439.458 86.7746ZM356.71 134.629L349.681 138.631L248.563 80.8528L255.591 76.6915L356.71 134.629ZM261.821 78.452L265.815 71.5699L366.454 129.028L358.467 133.669L261.821 78.452ZM267.093 70.4495L274.122 66.2883L277.157 68.0488V68.2089L374.921 124.066L368.052 128.067L267.093 70.4495ZM279.393 67.4086L283.227 60.6865L384.505 118.464L376.678 122.946L279.393 67.4086ZM348.084 139.591L340.096 144.232L243.291 88.8552L247.285 81.9731L348.084 139.591ZM169.329 131.909L265.496 187.446L258.946 191.287L159.745 133.029L165.495 129.828L169.329 131.909ZM170.927 130.948L174.601 124.386L275.08 181.844L267.572 186.165L170.927 130.948ZM175.879 123.266L182.908 119.105L283.707 176.722L276.678 180.724L175.879 123.266ZM188.978 120.865L192.971 113.983L293.291 171.281L285.304 175.922L188.978 120.865ZM194.249 112.863L201.278 108.701L302.077 166.159L294.889 170.32L194.249 112.863ZM206.869 109.982L210.863 103.1L311.662 160.718L303.675 165.359L206.869 109.982ZM212.141 101.979L219.17 97.818L222.684 99.8987L320.128 155.596L313.1 159.597L212.141 101.979ZM224.92 99.4185L228.914 92.5364L329.873 150.154L321.886 154.796L224.92 99.4185Z" fill="#646D7D"/>
<path d="M152.876 267.79L239.138 217.535V317.566L152.876 267.79Z" fill="white"/>
<path d="M139.457 268.271L144.728 265.07L239.137 319.327V325.889L139.457 268.271Z" fill="white"/>
<path d="M137.061 153.515V266.991L137.86 267.471L240.735 327.009V316.766V213.534L137.061 153.515ZM143.93 159.437V261.869L140.735 263.79L138.499 265.07V156.236L143.93 159.437ZM139.457 266.51L141.694 265.23L144.889 263.309L239.138 317.726V324.288L139.457 266.51ZM152.876 266.03L238.978 215.775V315.646L152.876 266.03Z" fill="#646D7D"/>
<path d="M313.739 76.8509V68.2083L354.633 92.0556L353.834 100.058L313.739 76.8509Z" fill="white"/>
<path d="M393.93 68.2084L353.834 91.4156L313.739 68.2084L353.834 45.0012L393.93 68.2084Z" fill="white"/>
<path d="M380.511 68.2085L353.834 83.5733L327.316 68.2085L353.834 52.8438L380.511 68.2085Z" fill="white"/>
<path d="M353.835 47.8818L316.295 69.6486L356.071 92.8558L393.931 70.929L353.835 47.8818ZM353.835 83.5729L331.151 69.4885L353.835 53.3235L380.033 67.888L353.835 83.5729Z" fill="white"/>
<path d="M394.729 67.7284L393.93 67.2482L353.834 44.041L313.739 67.2482L312.94 67.7284V68.6887V77.4914L353.036 100.699L353.834 101.179L354.633 100.699L394.729 77.8115V68.6887V67.7284ZM353.036 98.938L314.537 76.6911V69.6489L353.036 91.8958V98.938ZM353.834 90.4554L315.336 68.2085L353.834 45.9616L392.333 68.2085L353.834 90.4554Z" fill="#646D7D"/>
<path d="M380.831 68.849L382.109 68.2088L354.633 52.3639L353.834 51.8838L325.559 68.2088L353.834 84.5339L378.115 70.4495L380.831 68.849ZM354.633 54.1245L378.914 68.2088L374.761 70.6096L354.633 59.2461V54.1245ZM334.665 71.5699L353.994 60.6865L373.323 71.5699L353.994 82.7734L334.665 71.5699Z" fill="#646D7D"/>
<path d="M205.432 245.544V217.535L228.754 231.619V259.308L205.432 245.544Z" fill="white"/>
<path d="M205.432 217.535L225.24 205.852L239.617 214.174V225.058L228.754 231.62L205.432 217.535Z" fill="white"/>
<path d="M225.24 204.891L205.432 216.735L204.633 217.215V218.175V246.184L227.956 259.788L228.754 260.268L229.553 259.788L240.416 253.546V225.698V223.777V213.694L225.24 204.891ZM225.24 206.652L238.818 214.494V224.577L228.754 230.499L211.342 220.096L206.869 217.535L225.24 206.652ZM206.23 245.064V218.975L210.703 221.696L227.956 232.1V257.868L206.23 245.064Z" fill="#646D7D"/>
<path d="M216.934 274.513V256.107L232.269 265.23V283.475L216.934 274.513Z" fill="white"/>
<path d="M216.934 256.107L230.033 248.264L239.617 253.706V261.068L232.269 265.23L216.934 256.107Z" fill="white"/>
<path d="M230.033 247.624L216.934 255.467L216.454 255.787V256.427V274.993L231.95 283.956L232.429 284.276L232.908 283.956L240.097 279.794V261.389V260.108V253.386L230.033 247.624ZM230.033 248.905L238.978 254.026V260.748L232.269 264.75L220.767 257.867L217.892 256.107L230.033 248.905ZM217.413 274.193V256.907L220.288 258.668L231.79 265.55V282.515L217.413 274.193Z" fill="#646D7D"/>
<path d="M213.1 230.66L186.422 215.135L159.745 230.66V261.549L186.422 276.914V246.185L213.1 230.66Z" fill="white"/>
<path d="M159.745 261.389L186.422 276.754V246.025L159.745 230.5V261.389Z" fill="white"/>
<path d="M213.578 230.339L186.422 214.654L159.265 230.339H159.105V230.979V261.869L185.783 277.234L186.262 277.554L186.741 277.234L213.099 262.029L213.419 261.869V230.979L213.578 230.339ZM186.422 215.775L198.882 222.977L173.323 237.861L160.863 230.659L186.422 215.775ZM185.943 275.953L160.383 261.069V231.46L185.943 246.344V275.953ZM197.284 239.142L186.422 245.384L173.962 238.182L199.521 223.297L211.981 230.499L197.284 239.142Z" fill="#646D7D"/>
<path d="M175.879 246.024L170.927 243.143C170.447 242.823 169.808 242.823 169.329 242.983C168.85 243.303 168.53 243.943 168.53 244.743C168.53 246.024 169.329 247.624 170.288 248.264L175.24 251.145C175.559 251.305 175.879 251.465 176.198 251.465C176.358 251.465 176.677 251.465 176.837 251.305C177.316 250.985 177.636 250.345 177.636 249.545C177.636 248.264 176.837 246.664 175.879 246.024ZM176.358 250.345C176.198 250.505 176.038 250.345 175.879 250.185L170.927 247.304C170.288 246.824 169.649 245.704 169.649 244.743C169.649 244.263 169.808 243.943 169.968 243.943C170.128 243.783 170.288 243.943 170.447 244.103L170.767 244.263C170.927 245.384 171.566 246.664 172.364 247.144L176.518 249.545C176.677 250.025 176.518 250.345 176.358 250.345Z" fill="#646D7D"/>
<path d="M209.265 252.426C208.946 252.266 208.786 252.266 208.467 252.426L204.473 254.666C203.834 254.987 203.355 255.947 203.355 256.587V260.748C203.355 261.228 203.514 261.549 203.834 261.709C203.994 261.709 203.994 261.869 204.153 261.869C204.313 261.869 204.473 261.869 204.633 261.709L208.626 259.468C209.265 259.148 209.745 258.187 209.745 257.547V253.386C209.745 252.906 209.585 252.586 209.265 252.426Z" fill="white"/>
<path d="M366.614 349.576L327.317 326.849L288.02 349.576V395.191L327.317 417.918V372.463L366.614 349.576Z" fill="white"/>
<path d="M288.02 395.031L327.317 417.758V372.304L288.02 349.417V395.031Z" fill="white"/>
<path d="M367.413 349.096L327.317 325.889L287.221 349.096H287.061V350.057V395.511L326.358 418.238L327.157 418.718L327.956 418.238L366.933 395.671L367.253 395.511V350.057L367.413 349.096ZM327.317 327.81L345.847 338.533L308.147 360.46L289.617 349.737L327.317 327.81ZM326.518 416.477L288.818 394.55V350.857L326.518 372.784V416.477ZM343.291 362.22L327.317 371.503L308.786 360.78L346.646 338.853L365.176 349.576L343.291 362.22Z" fill="#646D7D"/>
<path d="M311.661 372.464L304.313 368.302C303.514 367.822 302.716 367.822 302.077 368.142C301.278 368.622 300.958 369.583 300.958 370.703C300.958 372.624 302.077 374.864 303.674 375.825L311.022 379.986C311.502 380.306 311.981 380.306 312.3 380.306C312.62 380.306 312.939 380.146 313.259 379.986C314.058 379.506 314.377 378.546 314.377 377.425C314.377 375.505 313.259 373.264 311.661 372.464ZM312.46 378.706C312.3 378.866 311.981 378.706 311.661 378.545L304.313 374.384C303.195 373.744 302.396 372.144 302.396 370.703C302.396 370.063 302.556 369.583 302.875 369.583C303.035 369.423 303.355 369.583 303.674 369.743L304.153 370.063C304.313 371.823 305.272 373.584 306.55 374.384L312.78 378.065C312.78 378.225 312.62 378.546 312.46 378.706Z" fill="#646D7D"/>
<path d="M361.023 381.746C360.703 381.586 360.224 381.586 359.745 381.746L353.994 385.107C353.195 385.587 352.397 386.868 352.397 387.988V394.23C352.397 394.87 352.716 395.35 353.036 395.671C353.195 395.831 353.355 395.831 353.515 395.831C353.675 395.831 353.994 395.831 354.314 395.671L360.064 392.31C360.863 391.829 361.662 390.549 361.662 389.429V383.187C361.662 382.546 361.342 382.066 361.023 381.746Z" fill="white"/>
</svg>
