<svg width="320" height="282" viewBox="0 0 320 282" fill="none" xmlns="http://www.w3.org/2000/svg">
<path d="M318.842 226.586L301.085 230.06L153.245 145.138C137.804 136.26 119.662 128.926 99.5897 123.908C80.2893 119.276 58.2869 116.188 43.2326 121.978L36.2845 117.346H21.6162C21.6162 117.346 22.3882 138.962 37.0565 157.491C37.4425 158.263 37.8285 158.649 38.2145 159.421C46.7067 171.001 59.4449 181.423 74.8852 190.301L228.516 278.697C234.306 282.171 243.956 282.171 249.746 278.697L306.876 245.5C308.806 244.342 310.35 242.798 310.736 241.254L318.842 226.586C319.228 226.586 318.842 226.586 318.842 226.586Z" fill="#F8F8F9"/>
<path d="M319.228 226.2C319.228 225.814 318.842 225.814 318.456 225.814L301.086 229.288L153.631 144.367C137.805 135.102 119.662 128.154 99.5899 123.136C74.8855 116.96 55.5851 116.188 43.2329 121.206L36.6708 116.574H21.2305V116.96C21.2305 117.346 22.3885 138.962 36.6708 157.491C37.0568 158.263 37.4428 158.649 37.8288 159.421C46.3209 171.001 58.6732 181.423 74.4995 190.687L228.13 279.083C231.604 281.013 235.464 281.785 239.325 281.785C243.185 281.785 247.045 281.013 250.133 279.083L307.262 245.886C309.192 244.728 310.736 243.184 311.508 241.64L319.228 226.972C319.614 226.972 319.614 226.586 319.228 226.2ZM310.736 241.64C309.964 243.184 308.806 244.342 306.876 245.5L249.747 278.697C245.887 281.013 240.483 281.785 235.85 281.013C245.887 281.013 247.045 268.661 247.045 268.661L203.812 244.342L92.2558 183.353L37.8288 137.032L25.4765 117.732H36.2848L43.2329 122.364H43.6189C55.9711 117.732 74.8855 118.118 99.5899 124.294C119.276 129.312 137.419 136.26 153.245 145.525L301.086 230.446L318.07 227.358L310.736 241.64Z" fill="#435762"/>
<path d="M37.8289 104.993C24.3187 112.714 29.3368 126.224 37.4429 137.418C45.1631 148.226 56.7433 157.876 71.0255 165.983L238.939 262.484C244.343 265.572 253.993 265.958 259.397 262.87L309.578 233.92C314.982 230.832 316.526 223.884 311.122 220.796L143.209 124.294C128.927 116.188 112.328 109.24 93.8 104.993C74.4996 99.9754 51.3392 97.2733 37.8289 104.993Z" fill="#F8F8F9"/>
<path d="M94.1862 121.979C74.4999 117.346 51.7254 114.258 38.2152 121.979C35.5131 123.523 33.1971 125.453 32.0391 127.383C33.5831 130.857 35.5131 134.331 37.8292 137.419C45.5493 148.227 57.1295 157.877 71.4118 165.983L239.325 262.485C244.729 265.573 254.379 265.959 259.783 262.871L307.262 235.465L143.595 141.279C129.313 133.173 112.715 126.611 94.1862 121.979Z" fill="#F8F8F9"/>
<path d="M249.747 265.187C245.887 265.187 241.641 264.415 238.553 262.485L70.6396 165.983C55.9713 157.491 44.7771 147.841 36.6709 137.418C30.1088 128.54 27.4068 120.82 28.9508 114.644C29.7228 110.398 32.8109 106.924 37.443 104.222C48.6372 97.6596 67.9375 97.6596 93.8 103.836C111.942 108.468 128.541 115.03 143.209 123.136L311.122 219.638C313.438 220.796 314.596 223.112 314.596 225.428C314.596 228.516 312.666 231.604 309.192 233.534L259.011 262.485C257.081 264.415 253.221 265.187 249.747 265.187ZM38.215 105.38C33.9689 108.082 31.2668 111.17 30.4948 115.03C29.3368 120.82 32.0388 128.154 38.215 136.646C45.9351 147.069 57.1293 156.719 71.7976 165.211L239.711 261.713C245.115 264.801 254.765 264.801 259.783 262.099L309.964 233.148C312.666 231.604 314.596 228.516 314.596 225.814C314.596 223.884 313.438 221.954 311.508 220.796L143.595 124.294C128.927 115.802 112.328 109.24 94.186 104.994C76.0437 101.134 52.1112 97.2736 38.215 105.38Z" fill="#435762"/>
<path d="M218.094 211.146L198.022 222.726L177.949 211.146L198.022 199.566L218.094 211.146Z" fill="#F8F8F9"/>
<path d="M218.094 211.146V216.164L198.022 227.744V222.726L218.094 211.146Z" fill="#F8F8F9"/>
<path d="M216.936 233.92V216.936L198.022 227.744V244.728L216.936 233.92Z" fill="#F8F8F9"/>
<path d="M218.094 213.848L198.022 225.428L177.949 213.848L198.022 202.267L218.094 213.848Z" fill="#F8F8F9"/>
<path d="M198.022 198.794L177.563 210.76V216.55L178.721 217.322V234.306L198.022 245.501L217.322 234.306V217.322L218.48 216.55V210.76L198.022 198.794ZM198.022 200.338L216.936 211.146L198.022 221.954L179.108 211.146L198.022 200.338ZM216.164 233.534L198.408 243.957V228.902V228.13L216.164 217.708V233.534ZM217.322 215.778L202.654 224.27L198.408 226.586V222.726L217.322 211.918V215.778Z" fill="#435762"/>
<path d="M197.25 227.745L179.494 217.708V216.55L197.25 226.587V227.745Z" fill="#F8F8F9"/>
<path d="M27.7925 78.3594L28.1785 76.8154L5.79011 59.8311L0.772014 57.901H0.386007L0 58.287V60.9891C0 61.3751 0 62.9191 0.772014 63.3051L29.7226 89.1676L38.2147 85.6935L27.7925 78.3594Z" fill="#435762"/>
<path d="M30.1087 84.1499L1.15811 59.0594C0.386098 58.6734 0.386098 57.5154 1.15811 57.1294C1.93013 56.7434 3.47416 56.7434 4.63218 57.1294L37.4428 79.9038L30.1087 84.1499Z" fill="#F8F8F9"/>
<path d="M1.5439 59.0596C1.15789 59.0596 1.15789 59.0596 1.5439 59.0596C1.15789 59.4456 1.15789 59.4456 1.5439 59.4456L30.4944 84.5361L36.2845 81.062L4.63196 59.0596C3.85994 58.2876 2.31591 58.2876 1.5439 59.0596Z" fill="#F8F8F9"/>
<path d="M30.1086 84.9218L1.15802 59.4453C0.386007 59.0593 0 58.6733 0 58.2873C0 57.9013 0.386007 57.1293 1.15802 56.7433C2.31604 55.9712 3.86007 55.9712 5.01809 56.7433L38.6007 80.2897L30.1086 84.9218ZM3.08806 57.5153C2.70205 57.5153 1.93004 57.5153 1.54403 57.9013C1.15802 57.9013 1.15802 58.2873 1.15802 58.2873C1.15802 58.2873 1.15802 58.6733 1.54403 58.6733L30.1086 83.7638L36.2847 80.2897L4.24608 57.9013C3.86007 57.5153 3.47407 57.5153 3.08806 57.5153Z" fill="#435762"/>
<path d="M314.982 217.321L152.473 123.908C136.26 114.643 116.96 106.923 95.7295 101.519C73.3411 96.1151 46.7066 92.6411 31.2663 101.905C15.826 111.169 21.2301 126.224 30.8803 138.962C39.7585 151.314 53.2687 162.508 69.481 171.773L231.99 265.186C238.166 268.66 248.202 268.66 254.378 265.186L261.713 260.94L256.309 257.466L253.606 259.01C248.202 262.098 239.324 262.098 233.92 259.01L71.025 165.982C56.7428 157.876 45.1626 148.226 37.4424 137.418C28.9503 126.224 24.3182 112.713 37.8284 104.993C51.3387 97.2732 74.4991 99.9752 93.7995 104.993C112.328 109.625 128.926 116.188 143.208 124.294L306.103 217.707C311.508 220.795 311.508 225.814 306.103 228.902L301.085 231.604L306.489 235.078L314.596 230.446C321.158 226.972 321.158 221.181 314.982 217.321Z" fill="#F8F8F9"/>
<path d="M314.21 219.638L151.701 126.224C135.488 116.96 116.188 109.24 94.9575 103.836C72.569 98.4316 45.9345 94.9575 30.4943 104.222C26.2482 106.538 23.5461 109.626 22.0021 113.1C19.6861 120.82 24.3181 130.47 30.8803 138.962C39.7584 151.315 53.2687 162.509 69.481 171.773L231.99 265.187C238.166 268.661 248.202 268.661 254.378 265.187L259.397 262.485L255.536 259.783L252.834 261.327C247.43 264.415 238.552 264.415 233.148 261.327L70.253 168.299C55.9707 160.193 44.3905 150.543 36.6704 139.734C30.4943 131.628 26.2482 122.364 29.7222 114.644C30.4943 110.784 33.1963 107.696 37.8284 104.994C51.3386 97.2735 74.4991 99.9756 93.7994 104.994C112.328 109.626 128.926 116.188 143.208 124.294L306.103 217.708C309.964 220.024 311.122 223.112 309.191 226.2C309.191 228.13 307.647 230.06 305.331 231.604L303.015 233.148L306.875 235.85L314.982 231.218C316.912 230.06 318.07 228.902 318.842 227.744C319.228 224.27 317.684 221.568 314.21 219.638Z" fill="#F8F8F9"/>
<path d="M243.184 268.661C238.938 268.661 234.692 267.889 231.604 265.959L69.0952 172.545C52.1109 162.895 39.3726 151.701 30.1085 139.734C22.7743 129.698 19.6863 120.82 20.8443 113.872C22.0023 108.854 25.0904 104.994 30.4945 101.906C43.6187 94.1855 65.2351 94.1855 95.3437 101.52C116.188 106.538 135.488 114.258 152.473 123.908L314.982 217.322C318.07 219.252 320 221.568 320 224.27C320 226.972 318.07 229.288 314.982 231.218L306.49 236.236L300.314 231.604L305.718 228.516C308.034 226.972 309.578 225.428 309.578 223.498C309.578 221.568 308.42 219.638 305.718 218.48L142.823 124.68C128.154 116.188 111.556 109.626 93.4137 105.38C75.6573 101.134 51.7249 97.6596 37.8286 105.38C33.5825 108.082 30.8805 111.17 30.1085 115.03C28.9504 120.82 31.6525 128.154 37.8286 136.646C45.5488 147.069 56.743 156.719 71.4112 165.211L234.306 258.625C239.71 261.713 248.203 261.713 253.221 258.625L256.309 256.695L262.871 260.941L254.765 265.959C251.677 267.889 247.431 268.661 243.184 268.661ZM57.515 96.8876C47.8648 96.8876 38.6006 98.4316 31.6525 102.292C26.6344 105.38 23.5463 108.854 22.3883 113.486C20.8443 120.048 23.9323 128.54 31.2665 138.576C40.1447 150.543 52.8829 161.737 69.8672 171.387L232.376 264.801C238.552 268.275 248.203 268.275 254.379 264.801L260.941 260.941L256.695 258.239L253.993 259.783C248.589 262.871 239.324 262.871 233.92 259.783L70.6392 166.369C55.9709 157.877 44.7767 148.227 36.6706 137.804C30.1085 128.926 27.4064 121.206 28.9504 115.03C29.7225 110.784 32.8105 107.31 37.4426 104.608C48.6368 98.0456 67.9372 98.0456 93.7997 104.222C111.942 108.854 128.54 115.416 143.209 123.522L306.104 216.936C308.806 218.48 310.35 220.796 310.35 223.112C310.35 225.428 308.806 227.744 306.104 229.288L302.244 231.604L306.49 234.306L314.596 229.674C317.298 228.13 318.842 225.814 318.842 223.498C318.842 221.182 317.298 219.252 314.596 217.322L152.087 124.294C135.488 114.644 116.188 107.31 95.3437 101.906C84.1495 99.2036 70.2532 96.8876 57.515 96.8876Z" fill="#435762"/>
<path d="M50.9527 122.365C64.4629 114.645 87.6234 117.347 106.924 122.365C125.452 126.997 142.05 133.559 156.333 141.665L307.262 228.517C311.508 225.429 311.122 220.797 306.103 218.095L143.208 124.295C128.926 116.189 112.328 109.241 93.7995 104.994C74.1131 100.362 51.3387 97.2743 37.8284 104.994C24.3182 112.715 29.3363 126.225 37.4424 137.419C39.7585 140.507 42.4605 143.595 45.5486 146.683C40.9165 137.419 40.5305 128.155 50.9527 122.365Z" fill="#F8F8F9"/>
<path d="M306.49 217.322L143.595 123.522C128.926 115.03 112.328 108.468 94.1858 104.222C67.9373 97.6599 49.0229 98.046 37.8287 104.608C33.1967 107.31 30.4946 110.784 29.3366 115.03C28.1786 121.206 30.8806 128.927 37.0567 137.805C39.3728 140.893 42.0748 143.981 45.1629 147.069L47.4789 149.385L45.9349 146.297C40.5308 135.489 42.0748 127.769 50.953 122.75C64.8492 114.644 88.7817 118.118 106.538 122.75C124.68 126.996 141.279 133.559 155.947 142.051L307.262 228.902L307.648 228.516C309.578 226.972 310.736 225.042 310.736 222.726C310.736 220.796 309.192 218.866 306.49 217.322ZM73.7274 116.96C64.0772 116.96 56.3571 118.504 50.567 121.978C42.0748 126.997 39.7588 134.331 43.6188 144.367C41.3028 142.051 39.3728 139.735 37.8287 137.419C31.6526 128.927 28.9506 121.592 30.1086 115.802C30.8806 111.942 33.5827 108.468 37.8287 106.152C48.6369 99.976 67.9373 99.976 93.4138 106.152C110.784 110.398 126.61 116.574 140.893 124.294V133.945C130.47 129.313 118.89 125.452 106.924 122.364C94.1858 118.504 82.9916 116.96 73.7274 116.96Z" fill="#435762"/>
<path d="M81.4474 152.859L65.6211 139.735C50.5668 126.611 27.7924 106.924 26.2484 105.38C25.8624 103.836 20.4583 93.0279 19.3002 91.0979L15.8262 88.0098V89.1679C15.8262 89.1679 15.8262 103.836 20.8443 120.82C20.8443 121.978 21.2303 122.75 21.6163 123.908H22.0023H21.6163C22.0023 125.067 22.3883 125.839 22.7743 126.997C22.7743 126.997 22.7743 126.997 22.7743 127.383C24.3183 131.243 26.6344 135.489 30.1084 140.121C38.9866 152.087 52.1108 163.281 69.0952 172.931L95.7297 187.214L81.4474 152.859Z" fill="#435762"/>
<path d="M161.351 108.468C161.351 108.468 154.788 101.906 151.314 99.9762C144.366 96.1161 147.068 98.4322 118.504 85.3079C89.9392 72.1837 75.6569 71.7977 75.6569 71.7977L40.9163 70.6396L22.7739 81.0618L25.09 102.292L27.02 104.994L29.336 108.854L32.4241 110.012C34.3541 107.31 36.6702 105.766 37.8282 104.994C51.3385 97.2742 74.4989 99.9762 93.7993 104.994C112.328 109.626 128.926 116.189 143.208 124.295L171.773 140.507L171.001 134.717L169.843 123.909L161.351 108.468Z" fill="#F8F8F9"/>
<path d="M172.545 141.665L143.208 124.681C128.54 116.188 111.942 109.626 93.7995 105.38C76.0432 101.134 52.1107 97.66 38.2145 105.38C36.6704 106.152 34.7404 108.082 32.8104 110.398L32.4244 110.784L28.5643 109.626L26.2483 105.38L23.9322 102.678L22.3882 81.0617L40.9165 70.6395L75.6572 71.7976C75.6572 71.7976 90.7115 72.1836 118.89 85.3078C134.716 92.6419 140.892 94.958 144.752 96.502C147.455 97.66 148.999 98.046 152.087 99.9761C155.561 101.906 161.737 108.082 162.123 108.468L170.615 124.295L172.159 135.103L172.545 141.665ZM60.6029 99.5901C69.8671 99.5901 81.0613 101.134 94.1855 104.222C112.328 108.854 128.926 115.416 143.594 123.523L171.001 139.349L170.615 134.331L169.071 123.909L160.579 108.468C159.807 107.696 154.017 101.906 150.929 100.362C147.841 98.8181 146.683 98.046 143.98 96.888C140.12 95.344 134.33 93.028 118.118 85.6938C89.9394 72.5696 75.6572 72.1836 75.2712 72.1836L40.5305 71.0255L22.7742 81.0617L24.7042 101.906L26.6343 104.222L28.5643 108.082L31.2663 108.854C33.5824 105.766 35.8984 104.222 36.6705 103.836C43.2326 101.134 50.9527 99.5901 60.6029 99.5901Z" fill="#435762"/>
<path d="M88.0091 148.998C87.2371 148.612 86.8511 148.612 86.4651 148.226L64.8487 135.874C51.3384 128.154 40.1442 118.89 32.4241 108.468C24.3179 97.6593 19.6859 84.9211 32.8101 77.201C45.9343 69.8668 67.9368 72.5689 86.8511 77.201C104.607 81.447 120.82 86.8511 134.33 94.9573C134.33 94.9573 154.016 105.379 159.034 108.468L164.439 105.379L145.91 95.7293C129.698 86.4651 112.328 78.745 91.0972 73.7269C68.7088 68.3228 42.0743 64.8487 26.634 74.1129C11.1937 82.9911 16.5978 98.4313 26.248 111.17C35.1261 123.522 48.6364 134.716 64.8487 143.98L81.061 153.244L88.0091 148.998Z" fill="#F8F8F9"/>
<path d="M162.122 106.537L146.296 98.4312C130.084 89.167 112.714 81.4469 91.4831 76.4288C69.0947 70.6387 42.4602 67.5506 27.0199 76.4288C18.5278 81.4469 16.2117 88.395 17.7557 95.7292C19.2998 100.747 22.3878 106.151 25.8619 111.169C34.7401 123.522 48.2503 134.716 64.4626 143.98L80.6749 153.244L85.693 150.542L65.2346 138.576C51.7244 130.856 40.5302 121.592 32.81 111.169C29.336 106.151 26.2479 100.747 25.4759 95.7292C23.1598 88.781 24.3179 81.8329 32.424 77.2008C45.5483 69.8667 67.5507 72.5687 86.465 77.2008C104.221 81.4469 120.434 86.851 133.944 94.9571C133.944 94.9571 153.63 105.379 158.648 108.467L162.122 106.537Z" fill="#F8F8F9"/>
<path d="M81.0612 153.63L64.4629 144.366C47.4786 134.716 34.7403 123.522 25.4761 111.556C18.142 101.52 15.0539 92.6413 16.212 85.6932C17.37 80.6751 20.458 76.815 25.8621 73.727C38.9864 66.0068 60.6028 66.0068 90.7114 73.341C110.398 77.9731 127.768 85.3072 145.524 95.3434L164.439 104.994L164.825 105.766L158.649 109.24H158.263C153.245 106.152 133.558 95.7294 133.558 95.7294C121.206 88.3953 106.152 82.9912 86.0793 77.9731C69.095 73.727 45.9345 70.2529 32.4243 77.9731C28.1782 80.2891 25.4761 83.3772 24.7041 87.2372C24.3181 92.6413 26.6342 99.5895 32.8103 108.082C40.1444 118.118 50.9526 127.382 64.8489 135.488L86.4653 147.84C86.8513 148.226 87.6233 148.226 88.0093 148.612L89.1673 148.998L81.0612 153.63ZM52.4966 68.7089C42.8465 68.7089 33.5823 70.2529 26.6342 74.113C21.6161 77.201 18.528 81.0611 17.756 85.6932C16.212 92.2553 19.3 100.747 26.6342 110.784C35.5123 122.75 48.2506 133.944 65.2349 143.594L81.0612 152.858L86.8513 149.77C86.4653 149.77 86.4653 149.384 86.0793 149.384L64.4629 137.032C50.5666 128.926 39.3724 119.662 32.0383 109.626C25.8621 101.133 23.1601 93.7994 24.3181 88.0092C25.0901 83.7632 27.7922 80.6751 32.4243 77.9731C43.2325 71.7969 61.7608 71.4109 86.8513 77.5871C106.924 82.6052 121.978 88.0093 134.33 95.3434C134.33 95.3434 153.631 105.766 159.035 108.854L163.281 106.538L145.524 97.2734C127.768 86.8512 110.398 79.9031 90.7114 75.271C79.1311 71.4109 65.2349 68.7089 52.4966 68.7089Z" fill="#435762"/>
<path d="M164.439 105.38L176.791 137.805L171.773 140.507L159.035 108.468L164.439 105.38Z" fill="#F8F8F9"/>
<path d="M171.387 140.507L158.263 108.082L164.439 104.608L164.825 104.994L177.178 138.191L172.159 140.893C171.773 141.279 171.387 140.893 171.387 140.507ZM159.807 108.468L172.159 139.735L176.02 137.419L164.053 106.152L159.807 108.468Z" fill="#435762"/>
<path d="M179.107 221.182L135.488 196.091C134.716 195.705 133.558 195.705 132.786 196.091C132.786 196.091 132.4 196.477 132.014 196.477L127.382 199.951L140.893 210.76L176.405 233.534L181.809 229.674V226.2C181.809 224.27 181.037 222.34 179.107 221.182Z" fill="#F8F8F9"/>
<path d="M179.107 223.498L135.488 198.408C134.716 198.022 133.558 198.022 132.786 198.408C132.786 198.408 132.4 198.794 132.014 198.794L127.382 202.268L140.893 213.076L176.019 230.06L181.423 226.2C181.423 225.042 180.651 224.27 179.107 223.498Z" fill="#F8F8F9"/>
<path d="M176.791 234.306L140.893 211.146L126.61 199.952L132.014 196.092L132.786 195.706H133.172C133.944 195.32 135.103 195.32 135.875 196.092L179.493 221.182C181.423 222.34 182.581 224.27 182.581 226.586V230.446L176.791 234.306ZM128.54 199.952L141.665 209.988L176.791 232.762L181.809 229.288V226.2C181.809 224.27 180.651 222.726 179.107 221.954L135.489 196.864C134.717 196.478 133.944 196.478 133.558 196.864L133.172 197.25L128.54 199.952Z" fill="#435762"/>
<path d="M176.791 233.534L126.224 204.584V202.654C126.224 200.724 128.54 199.18 130.47 200.338L173.703 225.042C175.633 226.2 176.405 227.744 176.405 230.06V233.534H176.791Z" fill="#435762"/>
<path d="M177.177 234.693L125.452 204.584V202.268C125.452 201.11 126.224 199.952 126.996 199.566C128.154 198.794 129.312 198.794 130.084 199.566L173.703 224.656C175.633 225.814 176.791 227.744 176.791 230.061V234.693H177.177ZM126.61 204.198L176.019 232.763V230.061C176.019 228.131 174.861 226.586 173.317 225.814L130.084 200.724C129.312 200.338 128.54 200.338 127.768 200.724C126.996 201.11 126.61 201.882 126.61 202.654V204.198Z" fill="#435762"/>
<path d="M306.876 235.078L302.244 244.343L297.226 240.869L301.086 231.604L306.876 235.078Z" fill="#F8F8F9"/>
<path d="M302.63 245.115L296.454 241.255L301.086 230.833L307.648 235.079L302.63 245.115ZM297.998 240.869L302.244 243.571L306.104 235.465L301.472 232.763L297.998 240.869Z" fill="#435762"/>
<path d="M261.713 261.327L265.573 265.573L302.244 244.342L297.226 240.868L261.713 261.327Z" fill="#F8F8F9"/>
<path d="M263.257 262.099L266.731 266.731L303.788 245.115L298.384 242.026L263.257 262.099Z" fill="#F8F8F9"/>
<path d="M265.573 266.345L260.941 260.941L297.226 240.096L303.402 243.956L265.573 266.345ZM262.485 261.327L265.573 264.801L301.086 243.956L297.226 241.64L262.485 261.327Z" fill="#435762"/>
<path d="M141.278 143.981L140.892 89.5538L87.6233 74.1135L47.4785 69.4814L47.8645 124.68C52.8826 128.54 58.2867 132.401 64.4628 136.261L86.0792 148.613C86.4652 148.999 87.2373 148.999 87.6233 149.385L89.5533 154.403L102.292 161.737C106.538 164.053 113.486 163.667 118.118 160.965L137.418 149.771C139.734 148.613 140.892 146.683 141.278 145.139C141.664 144.753 141.664 144.367 141.278 143.981Z" fill="#F8F8F9"/>
<path d="M109.24 163.667C106.538 163.667 103.836 163.281 101.906 162.123L89.5536 154.403L87.6235 149.385C86.8515 148.999 86.4655 148.999 86.0795 148.613L64.4631 136.26C58.287 132.786 52.4969 128.926 47.8648 124.68H47.4788V124.294L47.0928 68.3231L88.0095 73.3412L141.665 89.1675L142.051 143.98C142.051 144.367 142.051 144.753 142.051 145.139V145.911C141.665 147.455 140.121 148.999 138.19 150.157L118.89 161.351C116.188 162.895 112.714 163.667 109.24 163.667ZM90.3256 153.631L102.678 160.965C106.538 163.281 113.486 162.895 118.118 160.193L137.418 148.999C139.348 147.841 140.893 146.297 140.893 144.753C140.893 144.367 140.893 143.981 140.893 143.594L140.507 89.5535L87.6235 74.1132L48.2508 69.4811L48.6368 123.908C53.6549 127.768 59.059 131.628 65.2351 135.102L86.8515 147.455C87.2375 147.841 88.0095 147.841 88.3955 148.227H88.7816L90.3256 153.631Z" fill="#435762"/>
<path d="M102.292 106.152L53.6548 77.9731C45.1626 72.955 45.9346 64.0769 55.9708 58.2868C66.007 52.4967 81.0613 51.7246 89.9394 56.7427L138.576 84.9213C142.822 87.2373 142.05 91.4834 137.418 94.1854L118.118 105.38C113.486 108.082 106.152 108.468 102.292 106.152Z" fill="#F8F8F9"/>
<path d="M140.506 92.6414C140.12 91.8694 139.348 91.4834 138.576 90.7114L89.9393 62.5329C81.4471 57.5148 66.0068 58.2868 55.9706 64.0769C51.7246 66.3929 49.0225 69.481 48.2505 72.569V77.9731C49.0225 80.2892 50.9525 82.2192 53.6546 83.7633L102.292 111.942C106.538 114.258 113.486 113.872 118.118 111.17L137.418 99.9756C138.962 99.2035 140.12 98.0455 140.506 96.8875V92.6414Z" fill="#F8F8F9"/>
<path d="M138.576 84.9217L89.9396 56.7432C81.0614 51.7251 65.6211 52.1111 55.5849 58.2872C50.1808 61.3753 47.0928 65.6214 47.0928 69.8674C47.0928 71.0255 47.4788 72.1835 47.8648 72.9555V96.5019V124.68C52.8829 128.541 58.287 132.401 64.4631 136.261L86.0795 148.613C86.4655 148.999 87.2375 149.385 87.6235 149.385L88.3955 150.929L110.784 163.281V108.468C113.486 108.082 116.188 107.31 118.118 106.152L137.418 94.9579C140.121 93.4139 141.665 91.4838 141.665 89.1678C141.665 87.6238 140.507 86.0797 138.576 84.9217ZM137.032 93.7999L117.732 104.994C113.1 107.696 106.152 108.082 102.292 105.766L54.0409 77.5876C50.5668 75.6575 48.6368 72.5695 48.6368 69.4814C48.6368 65.6214 51.7249 61.7613 56.743 59.0592C62.1471 55.9712 69.0952 54.4271 75.6573 54.4271C81.0614 54.4271 86.0795 55.5852 89.9396 57.9012L138.576 86.0797C140.121 86.8518 140.893 88.3958 140.893 89.5538C140.507 91.0978 139.348 92.6419 137.032 93.7999Z" fill="#435762"/>
<path d="M59.8311 132.786C61.3751 133.944 62.9191 134.716 64.8491 135.874L86.4656 148.227C86.8516 148.613 87.6236 148.613 88.0096 148.999L82.9915 151.701L94.5717 158.649L108.468 150.929L68.7092 128.154L59.8311 132.786Z" fill="#F8F8F9"/>
<path d="M62.9189 134.716C64.463 135.874 86.4654 148.227 88.0094 148.999L86.4654 151.315C86.8514 151.701 87.6234 152.087 88.0094 152.087L82.9913 154.789L94.5715 161.737L108.468 154.017L68.7091 131.242L62.9189 134.716Z" fill="#F8F8F9"/>
<path d="M88.0097 148.999L100.748 182.968L94.5718 186.442L81.0615 153.245L88.0097 148.999Z" fill="#F8F8F9"/>
<path d="M93.7998 186.055L80.2896 152.859L88.0097 148.613L88.3957 148.999L101.134 183.353L95.3438 186.828C94.9578 186.828 94.1858 186.828 93.7998 186.055ZM81.8336 153.245L94.9578 185.669L99.9759 182.581L88.0097 149.771L81.8336 153.245Z" fill="#435762"/>
<path d="M113.1 159.421L99.5896 167.141L94.9575 164.825L108.854 156.719L113.1 159.421Z" fill="#F8F8F9"/>
<path d="M113.1 161.352L99.5896 169.458L94.9575 166.756L108.854 159.036L113.1 161.352Z" fill="#F8F8F9"/>
<path d="M117.732 168.299L104.222 176.019L99.5898 173.703L113.1 165.597L117.732 168.299Z" fill="#F8F8F9"/>
<path d="M117.732 170.229L104.222 177.949L99.5898 175.633L113.1 167.527L117.732 170.229Z" fill="#F8F8F9"/>
<path d="M122.364 176.792L108.854 184.898L104.222 182.196L117.732 174.09L122.364 176.792Z" fill="#F8F8F9"/>
<path d="M122.364 178.722L108.468 186.828L103.836 184.126L117.732 176.02L122.364 178.722Z" fill="#F8F8F9"/>
<path d="M94.958 158.648V164.825L99.5901 167.527V173.703L104.222 176.019V182.195L108.468 184.897V187.599L100.748 182.967L90.7119 155.946L94.958 158.648Z" fill="#F8F8F9"/>
<path d="M109.24 188.371L99.9759 183.353L89.5537 155.175L95.3438 158.649V164.825L99.9759 167.527V173.703L104.608 176.405V182.581L109.24 185.283V188.371ZM101.134 182.581L108.082 186.827V185.283L103.45 182.581V176.405L98.8179 173.703V167.527L94.5718 165.211L101.134 182.581ZM91.8697 157.491L94.5718 164.825V159.035L91.8697 157.491Z" fill="#435762"/>
<path d="M91.8695 140.892L79.9033 133.944V104.994L91.8695 111.942V140.892Z" fill="#F8F8F9"/>
<path d="M196.478 175.247L180.265 184.511L156.719 170.615L172.931 161.35L196.478 175.247Z" fill="#F8F8F9"/>
<path d="M180.265 182.195L155.175 167.913L172.545 157.877L197.636 172.159L180.265 182.195ZM157.491 167.527L180.265 180.651L195.32 171.773L172.545 158.649L157.491 167.527Z" fill="#435762"/>
<path d="M176.019 165.983L166.755 171.387L162.895 169.457L172.545 163.667L176.019 165.983Z" fill="#F8F8F9"/>
<path d="M166.755 170.229L162.123 167.527L172.545 161.35L177.177 164.052L166.755 170.229ZM164.053 167.527L166.369 169.071L174.861 164.052L172.545 162.508L164.053 167.527Z" fill="#435762"/>
<path d="M134.33 129.312L120.82 137.033V113.872L134.33 106.152V129.312Z" fill="#F8F8F9"/>
<path d="M120.434 113.872V132.787V138.191L135.102 129.699V105.38L120.434 113.872ZM121.592 114.258L130.47 109.24V126.611L121.592 131.629V114.258ZM133.944 128.927L121.592 135.875V133.173L131.242 127.383V108.468L133.558 106.924V128.927H133.944Z" fill="#435762"/>
<path d="M79.1313 103.836V134.33L92.2556 141.664V136.26V111.17L79.1313 103.836ZM91.0976 140.12L80.2894 133.944V106.152L82.9914 107.696V132.786L91.0976 137.418V140.12ZM84.1494 131.628V108.082L91.0976 112.328V135.874L84.1494 131.628Z" fill="#435762"/>
<path d="M71.0257 100.362L53.6553 90.3255C49.7953 88.0095 47.8652 84.9214 47.8652 81.8333V104.222C47.8652 107.31 49.7953 110.398 53.6553 112.328L71.0257 122.364V100.362Z" fill="#F8F8F9"/>
<path d="M41.3027 87.2377C41.3027 89.5537 39.7586 92.6418 37.4426 93.7998C35.5126 94.9578 33.5825 94.1858 33.5825 91.4838C33.5825 89.1677 35.1265 86.0797 37.4426 84.9216C39.3726 83.7636 41.3027 84.9216 41.3027 87.2377Z" fill="#435762"/>
<path d="M33.5825 91.4837C33.5825 91.8697 33.5825 92.6417 33.9685 93.0277C34.3545 92.6417 34.3545 92.6417 34.7405 92.6417C36.6706 91.4837 38.6006 88.3956 38.6006 86.0796C38.6006 85.6936 38.6006 85.3075 38.2146 84.9215C37.8286 84.9215 37.8286 84.9215 37.4426 84.9215C35.5126 86.0796 33.5825 89.1676 33.5825 91.4837Z" fill="#F8F8F9"/>
<path d="M40.5307 84.1494C40.1446 83.7634 39.3726 83.7634 38.6006 83.7634H38.2146C37.8286 83.7634 37.8286 84.1494 37.4426 84.1494C35.1265 85.3074 33.5825 88.3955 33.5825 91.0975C33.5825 92.6415 33.9685 93.4135 35.1266 93.7995C35.5126 94.1856 35.8986 94.1856 36.2846 94.1856C37.0566 94.1856 37.4426 93.7996 38.2146 93.4135C40.5306 92.2555 42.0747 89.1675 42.0747 86.4654C41.6887 85.6934 41.3027 84.9214 40.5307 84.1494ZM37.8286 86.0794C37.8286 88.3954 36.2846 91.0975 34.3545 92.2555C34.3545 91.8695 34.3545 91.8695 34.3545 91.4835C34.3545 89.1675 35.8986 86.8514 37.8286 85.6934C37.8286 85.6934 37.8286 85.6934 37.8286 86.0794ZM37.0566 93.4135C36.2846 93.7996 35.5126 93.7995 35.1266 93.7995L34.7405 93.4135H35.1266C37.4426 92.2555 38.9866 89.1675 38.9866 86.4654C38.9866 86.0794 38.9866 85.6934 38.9866 85.6934C39.3726 85.6934 39.3726 85.6934 39.7586 85.6934C40.1446 86.0794 40.5307 86.8514 40.5307 87.6234C40.5307 89.5535 38.9866 92.2555 37.0566 93.4135Z" fill="#435762"/>
<path d="M154.403 152.859L141.665 160.193V152.087L154.403 144.753V152.859Z" fill="#F8F8F9"/>
<path d="M147.068 140.507L154.402 144.753L141.664 152.087L134.33 147.841L147.068 140.507Z" fill="#F8F8F9"/>
<path d="M147.068 143.209L154.402 147.455L141.664 154.789L134.33 150.543L147.068 143.209Z" fill="#F8F8F9"/>
<path d="M147.069 140.121L133.944 147.841V156.333L141.664 160.965L154.789 153.245V144.753L147.069 140.121ZM141.664 151.315L135.488 147.841L147.069 141.279L153.245 144.753L141.664 151.315ZM153.631 152.473L142.05 159.035V152.087L153.631 145.525V152.473Z" fill="#435762"/>
<path d="M117.732 79.9037V67.9375L57.9009 55.1992V66.3935C57.9009 68.7095 58.6729 70.6395 61.761 72.5696L93.0275 90.7119C95.7296 92.2559 100.362 91.8699 103.064 90.3259L115.416 83.3778C116.96 82.2198 117.732 81.0617 117.732 79.9037Z" fill="#F8F8F9"/>
<path d="M97.2735 92.2562C95.3435 92.2562 93.7994 91.8702 92.6414 91.0982L61.3748 72.9559C58.6728 71.4118 57.1287 69.0958 57.5148 66.3937V54.4275L118.504 67.1658V67.5518C118.504 72.9559 118.504 79.132 118.504 79.518C118.504 80.676 117.346 82.22 115.802 82.9921L103.45 89.9402C101.52 91.4842 99.5895 92.2562 97.2735 92.2562ZM58.2868 55.9715V66.3937C58.2868 68.7098 59.4448 70.6398 61.7608 71.7978L93.0274 89.9402C95.3435 91.4842 99.9756 91.0982 102.678 89.5542L115.03 82.606C116.188 81.834 116.96 81.062 117.346 79.904C117.346 79.518 117.346 72.9559 117.346 68.3238L58.2868 55.9715Z" fill="#435762"/>
<path d="M93.0272 78.3599L61.7606 60.2176C56.3565 57.1295 56.7425 51.3394 63.3047 47.4794C69.8668 43.6193 79.517 43.2333 84.9211 46.7073L116.188 64.8497C118.89 66.3937 118.504 69.0958 115.416 70.6398L103.063 77.5879C99.9754 79.904 95.3433 79.904 93.0272 78.3599Z" fill="#F8F8F9"/>
<path d="M117.346 69.8676C116.96 69.4816 116.574 69.0956 116.188 68.7096L84.9211 50.5672C79.517 47.4792 69.4808 47.8652 63.3047 51.3392C56.7425 55.1993 56.3565 60.6034 61.7606 64.0775L93.0272 82.2198C95.7293 83.7638 100.361 83.3778 103.063 81.8338L115.416 74.8857C116.188 74.4997 116.96 73.7277 117.346 73.3417V69.8676Z" fill="#F8F8F9"/>
<path d="M107.696 69.4814L96.8882 75.6575L86.8521 70.2534L98.0463 63.6913L107.696 69.4814Z" fill="#F8F8F9"/>
<path d="M96.8881 74.1136L85.6938 67.9374L98.0461 60.9893L109.24 67.1654L96.8881 74.1136ZM88.0099 67.9374L96.8881 72.9555L106.924 67.1654L98.0461 62.1473L88.0099 67.9374Z" fill="#435762"/>
<path d="M116.574 64.4633L84.9214 46.3209C79.1313 42.8469 69.0951 43.6189 62.533 47.0929C59.0589 49.023 57.1289 51.725 57.1289 54.8131C57.1289 55.1991 57.1289 55.5851 57.1289 55.5851L57.9009 67.5513L59.4449 70.6394L91.8696 89.9397L97.2737 91.4838V79.9036C99.2037 79.9036 101.52 79.5175 103.45 78.3595L115.802 71.4114C117.732 70.2534 118.504 69.0954 118.504 67.5513C118.504 66.3933 117.732 65.2353 116.574 64.4633ZM115.03 70.2534L102.678 77.2015C99.9757 78.7455 95.3436 79.1315 93.0276 77.5875L61.761 59.8312C59.4449 58.6732 58.2869 56.7431 58.2869 54.8131C58.2869 52.497 60.217 50.181 63.305 48.251C69.4811 44.7769 79.1313 44.3909 84.5354 47.4789L115.802 65.6213C116.96 66.0073 117.346 66.7793 117.346 67.5513C117.346 68.7093 116.574 69.4814 115.03 70.2534Z" fill="#435762"/>
<path d="M71.4112 7.71995L78.3593 3.47387L73.7272 0.77182L66.3931 5.0179L71.4112 7.71995Z" fill="#F8F8F9"/>
<path d="M79.9038 61.7608L87.2379 57.5147L78.3597 3.47369L71.4116 7.71977L79.9038 61.7608Z" fill="#F8F8F9"/>
<path d="M71.4112 9.65056L78.3593 5.01847L73.7272 2.31642L66.3931 6.5625L71.4112 9.65056Z" fill="#F8F8F9"/>
<path d="M88.0097 57.5151L79.1316 3.08806L73.7275 0L66.0073 4.63209V54.041L80.2896 62.1472L88.0097 57.5151ZM86.4657 57.1291L80.2896 60.9891L71.7974 8.10615L73.3415 7.33414L78.3596 4.63209L86.4657 57.1291ZM73.7275 1.15802L77.5875 3.47407L72.1834 6.56212L71.0254 7.33414L67.1653 5.01809L73.7275 1.15802Z" fill="#435762"/>
<path d="M122.751 176.405L118.504 173.703V167.527L113.872 164.825V158.649L109.24 155.947V150.543L68.7095 127.382L58.6733 133.172L59.4454 133.558C60.9894 134.717 62.9194 135.489 64.4635 136.647L86.0799 148.999C86.4659 148.999 86.4659 149.385 86.8519 149.385H88.3959V148.999C87.6239 148.613 87.2379 148.613 86.8519 148.227L65.2355 135.875C63.6914 135.103 62.5334 134.331 60.9894 133.558L69.0955 129.312L107.696 151.701L94.958 159.035L91.0979 156.719L91.484 158.263L94.186 159.807V165.983L98.8181 168.685V173.703L103.45 176.405V182.581L108.082 185.283V187.986L111.556 189.916L122.751 183.353V176.405ZM96.116 164.825L99.2041 162.895L108.854 157.491L112.328 159.421L99.5901 166.755L96.116 164.825ZM104.222 175.633L100.748 173.703H101.134L113.486 166.755L116.96 168.685L104.222 175.633ZM108.854 184.125L105.38 182.195L106.538 181.423L118.118 174.861L121.593 176.791L108.854 184.125Z" fill="#435762"/>
<path d="M70.6394 118.505L56.7431 110.398C54.0411 108.854 52.111 106.538 51.339 104.608L48.251 106.538C49.023 108.854 50.953 110.784 53.6551 112.328L71.0254 122.365V118.505H70.6394Z" fill="#F8F8F9"/>
<path d="M54.0411 89.9397C52.8831 89.1677 51.7251 88.3957 50.5671 87.2376C50.1811 86.8516 50.1811 86.8516 50.1811 86.4656C50.1811 86.4656 50.1811 86.4656 50.1811 86.0796C50.1811 85.6936 49.795 85.6936 49.795 85.3076C49.795 84.9216 49.409 84.5356 49.409 84.1496C49.409 84.1496 49.409 84.1496 49.409 83.7636C49.409 83.3776 49.409 83.3776 49.409 82.9916V82.6056C49.409 82.2195 49.409 81.8335 49.409 81.4475V81.0615H47.479V103.836V104.222C47.865 107.31 49.795 110.398 53.6551 112.714L71.7975 123.136V118.118V99.9759L54.0411 89.9397ZM70.2534 121.206L54.0411 111.942C50.5671 110.012 48.637 107.31 48.637 104.222V86.4656C49.023 87.2376 49.409 88.0097 50.1811 88.3957C50.1811 88.7817 50.5671 88.7817 50.9531 89.1677V102.678V103.064C51.3391 106.152 53.2691 109.24 57.1292 111.556L71.0254 119.662V121.206H70.2534ZM57.1292 110.012C53.6551 108.082 51.7251 105.38 51.7251 102.292V89.5537C52.1111 89.9397 52.8831 90.3257 53.6551 90.7117L70.6394 100.362V117.346L57.1292 110.012Z" fill="#435762"/>
<path d="M80.2896 133.945L82.9916 132.401L91.0978 137.033V140.121L80.2896 133.945Z" fill="#F8F8F9"/>
<path d="M131.242 127.382L133.945 128.926L121.592 135.875V133.172L131.242 127.382Z" fill="#F8F8F9"/>
<path d="M109.24 155.947L108.082 156.719V151.315L109.24 150.543V155.947Z" fill="#F8F8F9"/>
<path d="M291.435 199.952L271.363 211.532L251.291 199.952L271.363 188.372L291.435 199.952Z" fill="#F8F8F9"/>
<path d="M291.436 199.952V205.356L271.363 216.936V211.532L291.436 199.952Z" fill="#F8F8F9"/>
<path d="M290.278 222.726V205.742L271.363 216.936V233.921L290.278 222.726Z" fill="#F8F8F9"/>
<path d="M291.435 202.654L271.363 214.234L251.291 202.654L271.363 191.074L291.435 202.654Z" fill="#F8F8F9"/>
<path d="M271.363 187.985L250.905 199.566V205.356L252.063 206.128V223.112L271.363 234.306L290.664 223.112V206.128L291.822 205.356V199.566L271.363 187.985ZM271.363 189.143L290.278 199.952L271.363 210.76L252.449 199.952L271.363 189.143ZM289.892 222.726L272.135 233.148V218.094V217.322L289.892 206.9V222.726ZM291.05 204.97L276.381 213.462L272.135 215.778V211.918L291.05 201.11V204.97Z" fill="#435762"/>
<path d="M270.591 216.936L252.835 206.514V205.356L270.591 215.778V216.936Z" fill="#F8F8F9"/>
<path d="M231.99 235.85L219.252 243.184V235.078L231.99 227.744V235.85Z" fill="#F8F8F9"/>
<path d="M224.656 223.498L231.99 227.744L219.252 235.078L211.917 230.832L224.656 223.498Z" fill="#F8F8F9"/>
<path d="M224.656 226.2L231.99 230.446L219.252 237.78L211.917 233.534L224.656 226.2Z" fill="#F8F8F9"/>
<path d="M224.656 222.726L211.532 230.446V238.938L219.252 243.57L232.376 235.85V227.358L224.656 222.726ZM219.252 234.306L213.076 230.832L224.656 224.27L230.832 227.744L219.252 234.306ZM231.218 235.464L219.638 242.026V235.464L231.218 228.902V235.464Z" fill="#435762"/>
<path d="M295.681 240.483C295.295 239.711 295.295 238.939 295.295 238.167C295.295 234.307 297.997 229.288 301.472 227.358C302.244 226.972 303.016 226.586 303.788 226.586C303.788 226.586 309.578 226.2 310.736 230.832C312.28 235.079 304.946 238.167 304.946 238.167L301.086 244.729C301.086 244.729 296.839 243.957 295.681 240.483C295.681 240.869 295.681 240.869 295.681 240.483Z" fill="#F8F8F9"/>
<path d="M297.225 242.799C297.225 242.799 297.225 242.413 297.225 242.799C296.839 241.641 295.295 241.255 295.295 240.483C295.295 236.623 297.997 231.605 301.472 229.675C302.244 229.289 303.016 228.903 303.788 228.903C303.788 228.903 309.578 228.517 310.736 233.149C312.28 237.395 304.946 240.483 304.946 240.483L302.63 245.115C302.63 245.115 299.541 244.729 297.225 242.799Z" fill="#F8F8F9"/>
<path d="M301.472 245.115C301.086 245.115 296.453 244.343 294.909 240.869C294.523 240.097 294.523 239.325 294.523 238.167C294.523 233.921 297.225 228.903 300.7 226.586C301.472 226.2 302.244 225.814 303.016 225.814H303.402C303.788 225.814 309.578 225.428 311.122 230.447C312.666 235.079 306.49 238.167 305.332 238.553L301.472 245.115ZM296.067 240.483C296.839 242.799 299.928 243.957 301.086 243.957L304.56 237.395C304.56 237.395 311.122 234.307 309.964 230.447C308.806 226.586 304.174 226.586 303.402 226.586C302.63 226.586 302.244 226.973 301.472 227.359C298.383 229.289 295.681 233.921 295.681 237.781C295.681 238.939 295.681 239.711 296.067 240.483Z" fill="#435762"/>
<path d="M298.769 240.097C298.769 243.957 301.471 245.887 304.945 243.571C308.419 241.641 311.121 236.623 311.121 232.763C311.121 228.903 308.419 226.973 304.945 229.289C301.471 231.219 298.769 236.237 298.769 240.097Z" fill="#F8F8F9"/>
<path d="M302.243 245.501C301.471 245.501 301.085 245.501 300.313 245.115C298.769 244.343 298.383 242.799 298.383 240.483C298.383 236.237 301.085 231.219 304.559 228.903C306.489 227.745 308.033 227.745 309.191 228.517C310.736 229.289 311.122 230.833 311.122 233.149C311.122 237.395 308.419 242.413 304.945 244.729C304.173 245.115 303.015 245.501 302.243 245.501ZM307.647 228.903C306.875 228.903 306.103 229.289 305.331 229.675C302.243 231.605 299.541 236.237 299.541 240.097C299.541 242.027 299.927 243.185 301.085 243.571C301.857 243.957 303.401 243.957 304.945 243.185C308.033 241.255 310.736 236.623 310.736 232.763C310.736 230.833 310.35 229.675 309.191 229.289C308.419 229.289 308.033 228.903 307.647 228.903Z" fill="#435762"/>
<path d="M307.648 231.991C306.876 231.605 306.104 231.605 304.946 232.377C303.016 233.535 301.472 236.237 301.472 238.553C301.472 239.711 301.858 240.869 302.63 241.255C303.016 241.255 303.402 241.641 303.788 241.641C304.174 241.641 304.946 241.641 305.718 241.255C307.648 240.097 309.192 237.395 309.192 235.079C309.192 233.535 308.42 232.377 307.648 231.991Z" fill="#435762"/>
<path d="M305.332 232.762C305.332 232.762 305.718 232.762 305.718 232.376V232.762C305.718 235.078 304.174 237.394 302.63 238.552C302.63 238.552 302.63 238.552 302.244 238.552V238.166C301.858 236.622 303.402 233.92 305.332 232.762Z" fill="#F8F8F9"/>
<path d="M301.472 239.71V238.938V238.552C301.472 236.236 303.016 233.534 304.946 232.376L305.332 231.99L306.104 231.604V232.376V232.762C306.104 235.078 304.56 237.78 302.63 238.938C302.63 238.938 302.244 238.938 302.244 239.324L301.472 239.71ZM304.946 233.534C303.788 234.692 302.63 236.622 302.244 238.166C303.788 237.008 304.946 235.078 304.946 233.534Z" fill="#435762"/>
<path d="M296.067 233.534L299.541 235.85L298.769 238.938V241.255L299.541 243.957L295.681 241.641L295.295 238.166L296.067 233.534Z" fill="#435762"/>
<path d="M141.278 98.8182V123.137L171.773 140.507L159.035 108.468L141.278 98.8182Z" fill="#435762"/>
<path d="M171.387 140.892L170.615 139.348L143.595 123.908C143.209 123.522 142.437 123.136 142.051 123.136V124.294C142.437 124.68 142.823 124.68 143.209 125.066L171.387 140.892Z" fill="#F8F8F9"/>
<path d="M256.694 176.792L213.076 151.701C212.304 151.315 211.146 151.315 210.374 151.701C209.988 151.701 209.988 152.087 209.602 152.087L205.355 154.789L218.866 165.597L254.378 188.372L259.01 185.284V181.81C259.396 179.88 258.624 177.95 256.694 176.792Z" fill="#F8F8F9"/>
<path d="M256.308 178.722L212.689 153.631C211.917 153.245 210.759 153.245 209.987 153.631C209.601 153.631 209.601 154.017 209.215 154.017L204.969 156.719L218.479 167.527L253.992 185.284L258.624 182.196V182.582C259.396 180.266 258.238 179.494 256.308 178.722Z" fill="#F8F8F9"/>
<path d="M254.764 188.757L218.866 165.597L204.583 154.789L209.602 151.701C209.988 151.315 209.988 151.315 210.374 151.315C211.532 150.929 212.69 150.929 213.462 151.315L257.08 176.405C259.011 177.563 260.169 179.493 260.169 181.809V185.669L254.764 188.757ZM206.514 154.789L219.638 164.825L254.764 187.599L259.011 184.897V181.809C259.011 179.879 257.853 178.335 256.308 177.563L212.69 152.473C211.918 152.087 211.146 152.087 210.76 152.473C210.374 152.473 210.374 152.859 210.374 152.859L206.514 154.789Z" fill="#435762"/>
<path d="M254.764 188.372L204.197 159.421V157.491C204.197 155.561 206.513 154.017 208.443 155.175L252.062 180.265C253.992 181.423 254.764 182.967 254.764 185.284V188.372Z" fill="#435762"/>
<path d="M255.15 189.144L203.812 159.421V157.105C203.812 155.947 204.584 154.789 205.356 154.403C206.514 153.631 207.672 153.631 208.444 154.403L252.062 179.494C253.992 180.652 255.15 182.582 255.15 184.898V189.144ZM204.97 159.035L254.378 187.6V184.898C254.378 182.968 253.22 181.424 251.676 180.652L208.058 155.561C207.286 155.175 206.514 155.175 205.742 155.561C204.97 155.947 204.584 156.719 204.584 157.491V159.035H204.97Z" fill="#435762"/>
<path d="M253.992 188.758V187.214L204.197 158.649V159.807L253.992 188.758Z" fill="#F8F8F9"/>
<path d="M176.02 233.921V232.763L126.225 203.812V205.356L176.02 233.921Z" fill="#F8F8F9"/>
<path d="M92.2557 185.669L91.4837 184.125L69.4812 172.159C52.8829 162.509 39.7587 151.7 30.8805 139.348C27.7925 135.102 25.0904 130.856 23.5464 126.996C23.5464 126.996 23.9324 128.926 24.3184 131.628C25.8624 134.33 27.4065 137.418 29.7225 140.12C38.6007 152.086 51.7249 163.281 68.7092 172.931L92.2557 185.669Z" fill="#F8F8F9"/>
<path d="M79.1317 173.703C79.5177 172.931 79.5177 172.159 79.5177 171.001C79.5177 166.755 76.8156 162.123 72.9556 159.807C72.1835 159.421 71.4115 159.035 70.6395 159.035C70.6395 159.035 64.8494 158.649 63.3054 163.281C61.7613 167.527 69.0955 171.001 69.0955 171.001L72.9556 177.563C73.3416 177.949 77.9736 177.177 79.1317 173.703Z" fill="#F8F8F9"/>
<path d="M78.7457 174.862C77.9736 174.09 78.7457 174.862 78.7457 174.862C79.1317 174.09 79.5177 174.09 79.5177 173.318C79.5177 169.072 76.8156 164.439 72.9556 162.123C72.1835 161.737 71.4115 161.351 70.6395 161.351C70.6395 161.351 64.8494 160.965 63.3054 165.598C61.7613 169.844 69.0955 173.318 69.0955 173.318L70.6395 176.792C70.6395 176.792 76.8156 178.722 77.9736 175.634L78.7457 174.862C78.7457 174.862 79.1317 176.02 78.7457 174.862Z" fill="#F8F8F9"/>
<path d="M72.9554 178.336L68.7093 171.388C67.5513 171.002 60.9892 167.527 62.5332 163.281C64.0773 158.649 70.2534 158.649 70.6394 158.649H71.0254C71.7974 158.649 72.5694 159.035 73.3414 159.421C77.2015 161.737 79.9036 166.755 79.9036 171.002C79.9036 172.16 79.9035 172.932 79.5175 173.704C78.3595 177.564 73.7274 178.336 72.9554 178.336ZM70.6394 159.807C69.8674 159.807 65.2353 159.807 63.6912 163.667C62.1472 167.527 69.0953 170.616 69.4814 170.616L73.3414 177.178C74.4994 176.792 77.5875 176.02 78.3595 173.704C78.7455 172.932 78.7455 172.16 78.7455 171.388C78.7455 167.527 76.0435 162.895 72.5694 160.579C72.1834 160.193 71.7974 159.807 70.6394 159.807C71.0254 159.807 71.0254 159.807 70.6394 159.807Z" fill="#435762"/>
<path d="M69.8673 161.737C67.9373 160.579 66.0073 160.579 64.8492 161.351C63.3052 162.123 62.5332 163.667 62.5332 165.983C62.5332 170.229 65.6213 175.247 69.0953 177.563C70.2533 178.335 71.4114 178.335 72.1834 178.335C72.9554 178.335 73.7274 178.335 74.1134 177.949C75.6574 177.177 76.4295 175.633 76.4295 173.317C76.4295 169.071 73.3414 164.053 69.8673 161.737Z" fill="#435762"/>
<path d="M72.5692 171.774C72.5692 174.09 71.0252 174.862 69.0952 173.704C67.1651 172.546 65.6211 169.844 65.6211 167.914C65.6211 165.598 67.1651 164.826 69.0952 165.984C71.0252 166.756 72.5692 169.458 72.5692 171.774Z" fill="#F8F8F9"/>
<path d="M70.6392 174.861C70.2532 174.861 69.4812 174.861 68.7092 174.475C66.7792 173.317 64.8491 170.615 64.8491 167.913C64.8491 166.755 65.2351 165.597 66.0071 165.211C66.7792 164.825 67.9372 164.825 69.0952 165.597C71.0252 166.755 72.9553 169.457 72.9553 172.159C72.9553 173.317 72.5693 174.475 71.7973 174.861C71.4112 174.475 71.0252 174.861 70.6392 174.861ZM67.5512 165.983C67.1652 165.983 67.1652 165.983 66.7792 165.983C66.3932 166.369 66.0071 166.755 66.0071 167.913C66.0071 169.843 67.5512 172.545 69.0952 173.317C69.8672 173.703 70.6392 173.703 71.0252 173.703C71.4112 173.317 71.7973 172.931 71.7973 171.773C71.7973 169.843 70.2532 167.141 68.7092 166.369C68.3232 165.983 67.9372 165.983 67.5512 165.983Z" fill="#435762"/>
<path d="M69.095 165.984C69.095 165.984 68.709 165.984 68.709 165.598V165.984C68.709 168.3 70.253 171.002 72.1831 171.774C72.1831 171.774 72.183 171.774 72.5691 171.774V171.388C72.5691 169.458 71.025 167.142 69.095 165.984Z" fill="#F8F8F9"/>
<path d="M72.9551 172.932L72.1831 172.546H71.7971C69.481 171.388 67.937 168.3 67.937 165.984V165.598V164.826L68.709 165.212C68.709 165.212 69.095 165.212 69.095 165.598C71.0251 166.756 72.9551 169.458 72.9551 172.16C72.9551 172.546 72.9551 172.546 72.5691 172.546L72.9551 172.932ZM69.095 166.37C69.095 168.3 70.6391 170.23 71.7971 171.002C71.7971 169.458 70.6391 167.528 69.095 166.37Z" fill="#435762"/>
<path d="M73.3414 177.95C72.1834 178.336 71.0254 177.95 69.4814 177.178C66.0073 175.248 62.9192 170.23 62.9192 165.984C62.9192 165.598 62.9192 165.212 62.9192 164.826C62.9192 163.668 63.6913 162.51 64.0773 161.738C64.4633 161.352 64.4633 160.966 64.4633 160.966C64.4633 160.966 64.0773 160.966 64.0773 161.352C62.9193 161.738 61.7612 163.668 61.7612 165.984C61.7612 170.23 64.8493 175.634 68.7094 177.95C69.8674 178.722 71.0254 179.108 72.1834 179.108C72.9554 179.108 73.7275 178.722 74.4995 178.722C75.2715 178.336 75.6575 177.95 76.0435 177.178C74.8855 177.95 73.3414 177.95 73.3414 177.95Z" fill="#F8F8F9"/>
<path d="M69.3098 8.23928L3.58887 58.2817L4.05655 58.8959L69.7775 8.8535L69.3098 8.23928Z" fill="#435762"/>
<path d="M214.547 175.037L157.024 208.194L157.409 208.863L214.933 175.706L214.547 175.037Z" fill="#435762"/>
<path d="M259.789 225.528L217.994 249.639L218.38 250.308L260.175 226.197L259.789 225.528Z" fill="#435762"/>
</svg>
