<svg width="320" height="252" viewBox="0 0 320 252" fill="none" xmlns="http://www.w3.org/2000/svg">
<path d="M206.552 87.5732L203.021 43.7864C202.668 41.6677 203.727 39.549 205.846 38.4896L209.73 36.3709C210.79 35.6647 212.555 36.3709 212.908 37.4303L228.446 74.1547L206.552 87.5732Z" fill="#F8F8F9"/>
<path d="M206.905 87.5736L203.374 43.7868C203.021 41.6681 204.081 39.5494 206.199 38.4901L206.905 38.8432C207.965 38.1369 209.024 38.8432 209.73 39.9025L224.915 76.2738L206.905 87.5736Z" fill="#F8F8F9"/>
<path d="M213.262 37.0775C212.909 36.3713 212.202 35.6651 211.496 35.6651C210.79 35.3119 209.731 35.6651 209.024 36.0182L205.14 38.1369C203.021 39.1963 201.962 41.6681 201.962 44.1399L205.493 88.9861L228.446 74.8613L213.262 37.0775ZM205.14 60.7365C205.493 55.7929 206.552 47.6711 207.612 46.6118C209.377 44.8462 213.262 42.7275 213.262 42.7275L214.321 42.0212L227.74 73.4488L207.259 86.1611L205.14 60.7365Z" fill="#435762"/>
<path d="M63.5395 117.588C61.0677 116.176 58.9489 115.823 57.1833 116.882L31.4056 128.535C29.9932 129.594 28.9338 131.36 28.5807 134.185C28.2276 139.835 32.1119 146.544 36.7024 149.722C39.1743 151.134 41.293 151.488 43.0586 150.428L67.0707 134.891C68.4832 133.832 69.5425 132.066 69.8956 129.241C70.2488 123.591 68.4832 120.413 63.5395 117.588Z" fill="#F8F8F9"/>
<path d="M63.8927 117.235C61.774 115.823 59.3021 115.47 57.5365 116.176L31.4057 128.182L30.6995 128.535C29.287 129.594 28.2276 131.713 28.2276 134.185C27.8745 139.835 31.7588 147.25 36.7025 150.075C38.115 151.135 39.8806 151.488 40.9399 151.488C41.6462 151.488 42.3524 151.488 43.0586 151.135L43.7649 150.782L67.777 135.244L68.4832 134.891C69.8957 133.832 70.9551 131.713 70.9551 129.241C70.6019 123.591 68.8363 120.06 63.8927 117.235ZM42.7055 149.722C41.293 150.428 39.1743 150.428 37.0556 149.016C32.4651 146.191 28.9339 139.482 28.9339 134.185C28.9339 131.713 29.9932 129.947 31.4057 129.241H31.7588L57.1834 117.941L57.8896 117.588C59.3021 116.882 61.4208 117.235 63.5396 118.295C66.0114 119.707 67.777 121.473 68.8363 123.591L44.8242 137.363L45.8836 139.129L69.5426 125.357C69.8957 126.063 69.8957 127.123 69.8957 127.829L45.8836 141.247V144.779L45.1774 148.31L43.4118 149.722H42.7055Z" fill="#435762"/>
<path d="M61.7739 108.407C61.4208 108.407 52.2397 108.407 50.121 114.763C48.7085 118.294 46.2367 121.826 44.4711 124.297C42.7055 126.416 41.9993 127.476 41.9993 128.182C41.9993 128.888 42.3524 129.241 42.3524 129.241C42.7055 129.594 43.4117 129.594 43.7649 129.594C44.118 129.594 44.8242 129.594 44.8242 129.594L57.1834 123.238C59.6552 121.826 61.4208 119.707 61.7739 116.882L62.8333 108.76L61.7739 108.407Z" fill="#435762"/>
<path d="M38.8212 152.547L37.4087 150.782C37.0556 150.782 36.7025 150.429 36.3493 150.076C32.1119 147.251 28.2276 141.248 27.8745 135.951L26.1089 133.479L29.9932 128.888C32.1119 127.123 34.9369 127.123 37.7618 128.888C42.7055 132.067 46.5898 139.129 46.2367 144.779C46.2367 147.604 44.8242 149.723 43.0586 150.782C42.7055 151.135 41.6461 151.488 40.9399 151.488L38.8212 152.547ZM27.5214 133.126L28.9338 135.245C29.287 140.541 32.8182 146.191 37.0556 148.663C37.4087 149.016 37.7618 149.016 38.1149 149.369L38.8212 150.782L41.293 150.076C41.6461 150.076 42.3524 149.723 42.7055 149.723C44.118 149.016 45.1773 146.898 45.1773 144.426C45.5304 139.129 41.6461 132.42 37.0556 129.595C34.2306 127.829 31.7588 127.829 30.3463 129.595L27.5214 133.126Z" fill="#435762"/>
<path d="M41.2929 146.897C40.9398 151.841 37.4086 153.959 32.8181 151.488C28.5806 149.016 25.0494 142.66 25.4026 137.716C25.7557 132.772 29.2869 130.654 33.8774 133.125C38.1149 135.597 41.646 141.6 41.2929 146.897Z" fill="#F8F8F9"/>
<path d="M37.5431 149.28C40.4569 147.699 40.7076 142.526 38.1029 137.727C35.4981 132.927 31.0244 130.319 28.1105 131.9C25.1966 133.481 24.946 138.654 27.5507 143.453C30.1555 148.253 34.6292 150.861 37.5431 149.28Z" fill="#F8F8F9"/>
<path d="M36.7024 152.9C35.29 152.9 34.2306 152.547 32.8181 151.487C28.2276 149.015 24.6964 142.659 25.0495 137.362C25.0495 134.538 26.1089 132.772 27.8744 131.713C29.64 130.653 31.7588 131.006 34.2306 132.419C38.8211 135.244 42.3523 141.6 41.9992 146.897C41.9992 149.722 40.9399 151.487 39.1743 152.547C38.468 152.9 37.4087 152.9 36.7024 152.9ZM30.3463 132.419C29.64 132.419 28.9338 132.419 28.5807 132.772C27.1682 133.478 26.462 135.244 26.462 137.362C26.1089 142.306 29.64 148.309 33.5244 150.781C35.29 151.84 37.4087 152.194 38.8211 151.487C40.2336 150.781 40.9399 149.015 40.9399 146.897C41.293 141.953 37.7618 135.95 33.8775 133.478C32.465 132.772 31.4056 132.419 30.3463 132.419Z" fill="#435762"/>
<path d="M34.9369 148.663C34.2307 148.663 33.5244 148.31 32.4651 147.956C29.6401 146.191 27.8745 142.66 27.8745 139.482C27.8745 138.069 28.5807 136.657 29.6401 136.304C30.6995 135.597 32.1119 135.95 33.5244 136.657C35.9963 138.422 38.115 141.953 38.115 145.131C38.115 146.544 37.4087 147.956 36.3494 148.31C35.6431 148.663 35.29 148.663 34.9369 148.663Z" fill="#435762"/>
<path d="M34.2303 38.4899L28.5804 41.668C26.8148 42.7273 25.7555 45.1992 26.4617 46.9648L70.9547 174.441L122.863 143.013L66.7173 84.7485L38.4677 39.1961C37.4084 38.1368 35.6428 37.4305 34.2303 38.4899Z" fill="#F8F8F9"/>
<path d="M32.4648 43.7868L29.993 45.1993C28.2274 46.2586 27.1681 48.7304 27.8743 50.496L72.3673 177.972L121.098 148.31L64.5987 90.3985L36.3492 44.8461C35.6429 43.4337 33.5242 43.0805 32.4648 43.7868Z" fill="#F8F8F9"/>
<path d="M67.0704 84.3954L38.8209 38.843C38.4678 38.1368 37.4084 37.4306 36.7022 37.0774C35.6428 36.7243 34.9366 37.0774 33.8772 37.4306L28.2273 40.9617C26.1086 42.3742 25.0492 44.8461 25.7555 46.9648L70.6016 175.147L123.923 142.66L67.0704 84.3954ZM34.2303 67.4457C33.5241 63.2083 32.4648 55.7928 33.5241 54.0272C34.9366 51.5553 40.9396 48.3772 42.3521 47.3179L66.0111 85.1017L122.157 142.66L71.3079 173.381L34.2303 67.4457Z" fill="#435762"/>
<path d="M173.006 204.103C170.534 202.69 168.416 202.337 166.65 203.397L140.872 215.05C139.46 216.109 138.4 217.875 138.047 220.7C137.694 225.996 141.225 233.059 146.169 235.884C148.641 237.296 150.76 237.649 152.525 236.59L176.537 221.053C177.95 219.993 179.009 218.228 179.362 215.403C179.715 210.106 177.597 206.928 173.006 204.103Z" fill="#F8F8F9"/>
<path d="M173.359 203.397C171.241 201.984 168.769 201.631 167.003 202.337L140.872 214.343L140.166 214.697C138.754 215.756 137.694 217.875 137.694 220.346C137.341 225.996 141.225 233.412 146.169 236.237C147.582 237.296 149.347 237.649 150.406 237.649C151.113 237.649 151.819 237.649 152.525 237.296L153.231 236.943L177.244 221.406L177.95 221.053C179.362 219.993 180.422 217.875 180.422 215.403C180.068 209.753 178.303 206.575 173.359 203.397ZM152.172 236.237C150.76 236.943 148.641 236.943 146.522 235.531C141.932 232.706 138.4 225.996 138.4 220.7C138.4 218.228 139.46 216.462 140.872 215.756H141.225L166.65 204.456L167.356 204.103C168.769 203.397 170.887 203.75 173.006 204.809C175.478 206.222 177.244 207.987 178.303 210.106L154.291 223.878L155.35 225.643L179.009 211.872C179.362 212.578 179.362 213.637 179.362 214.343L155.35 227.409V230.94L154.644 234.471L152.878 235.884L152.172 236.237Z" fill="#435762"/>
<path d="M171.24 194.569C170.887 194.569 161.706 194.569 159.588 200.925C158.175 204.456 155.703 207.987 153.938 210.459C152.172 212.578 151.466 213.637 151.466 214.343C151.466 215.05 151.819 215.403 151.819 215.403C152.172 215.756 152.878 215.756 153.231 215.756C153.585 215.756 154.291 215.756 154.291 215.756L166.65 209.4C169.122 207.987 170.887 205.869 171.24 203.044L172.3 194.922L171.24 194.569Z" fill="#435762"/>
<path d="M148.288 238.708L146.875 236.943C146.522 236.943 146.169 236.59 145.816 236.236C141.225 233.411 137.694 227.408 137.341 221.759L135.575 219.287L139.46 214.696C141.578 212.931 144.403 212.931 147.228 214.696C152.172 217.874 156.056 224.937 155.703 230.587C155.703 233.411 154.291 235.53 152.525 236.59C152.172 236.943 151.113 237.296 150.406 237.296L148.288 238.708ZM136.988 219.64L138.4 221.759C138.754 227.055 142.285 232.705 146.522 235.177C146.875 235.53 147.228 235.53 147.581 235.883L148.288 237.296L150.76 236.59C151.113 236.59 151.819 236.236 152.172 236.236C153.585 235.53 154.644 233.411 154.644 230.94C154.997 225.643 151.113 218.934 146.522 216.109C143.697 214.343 141.225 214.343 139.813 216.109L136.988 219.64Z" fill="#435762"/>
<path d="M150.759 233.059C150.406 238.002 146.875 240.121 142.285 237.649C138.047 235.178 134.516 228.821 134.869 223.878C135.222 218.934 138.753 216.815 143.344 219.287C147.581 221.759 151.113 228.115 150.759 233.059Z" fill="#F8F8F9"/>
<path d="M149.347 230.94C148.994 235.531 145.816 237.296 141.931 234.824C138.047 232.353 135.222 227.056 135.222 222.465C135.575 217.875 138.753 216.109 142.638 218.581C146.522 221.053 149.347 226.703 149.347 230.94Z" fill="#F8F8F9"/>
<path d="M146.169 239.415C144.757 239.415 143.697 239.061 142.285 238.002C137.694 235.177 134.163 228.821 134.516 223.524C134.516 220.699 135.575 218.934 137.341 217.874C139.107 216.815 141.225 217.168 143.697 218.58C148.288 221.405 151.819 227.762 151.466 233.058C151.466 235.883 150.406 237.649 148.641 238.708C147.581 239.061 146.875 239.415 146.169 239.415ZM139.46 218.58C138.753 218.58 138.047 218.58 137.694 218.934C136.282 219.64 135.575 221.405 135.575 223.524C135.222 228.468 138.753 234.471 142.638 236.943C144.403 238.002 146.522 238.355 147.935 237.649C149.347 236.943 150.053 235.177 150.053 233.058C150.406 228.115 146.875 222.112 142.991 219.64C141.932 218.934 140.519 218.58 139.46 218.58Z" fill="#435762"/>
<path d="M144.05 235.177C143.344 235.177 142.638 234.824 141.578 234.471C138.753 232.706 136.988 229.174 136.988 225.996C136.988 224.584 137.694 223.171 138.753 222.818C139.813 222.112 141.225 222.465 142.638 223.171C145.11 224.937 147.228 228.468 147.228 231.646C147.228 233.059 146.522 234.471 145.463 234.824C145.11 234.824 144.756 235.177 144.05 235.177Z" fill="#435762"/>
<path d="M40.5866 227.762L36.3491 230.234V236.943C36.3491 237.296 36.3491 237.649 36.7022 238.002H37.0554L37.7616 238.355L38.1147 237.649L38.821 237.296C39.5272 236.943 40.2334 235.53 40.2334 234.471V230.94L41.2928 228.115L40.5866 227.762Z" fill="#435762"/>
<path d="M39.8805 237.649L38.8212 238.355C38.1149 238.709 37.4087 238.355 37.4087 237.296V230.587L41.293 228.468V235.177C41.293 236.237 40.5868 237.296 39.8805 237.649Z" fill="#F8F8F9"/>
<path d="M38.468 238.709C38.1149 238.709 38.1149 238.709 38.1149 238.709C37.7618 238.355 37.4087 238.002 37.4087 237.296V230.587L41.6461 228.115V235.177C41.6461 236.237 40.9399 237.649 40.2336 238.002L39.1743 238.709C38.8212 238.709 38.468 238.709 38.468 238.709ZM37.7618 230.94V237.296C37.7618 237.649 37.7618 238.002 38.1149 238.002C38.468 238.002 38.468 238.002 38.8212 238.002L39.8805 237.296C40.5868 236.943 40.9399 235.884 40.9399 235.177V229.174L37.7618 230.94Z" fill="#435762"/>
<path d="M39.174 242.946L39.8803 241.18L38.4678 240.474C38.4678 240.474 38.4678 240.474 38.1147 240.474C37.4084 240.121 37.0553 240.474 36.3491 240.827C35.2897 241.887 34.5835 244.005 34.9366 245.771C34.9366 246.477 35.2897 246.83 35.9959 247.183H36.3491L37.7615 247.89L38.4678 246.124C38.8209 245.418 39.174 244.005 39.174 242.946Z" fill="#F8F8F9"/>
<path d="M40.9396 242.593C40.9396 241.887 40.2334 241.18 39.8803 241.18L38.4678 240.121C38.4678 240.121 38.4678 240.121 38.1147 240.121H37.7616C37.0553 240.121 36.3491 240.121 35.996 240.827C34.5835 241.887 33.8772 244.358 34.2304 246.124C34.5835 246.83 34.9366 247.536 35.2897 247.536L36.7022 248.596C36.7022 248.596 36.7022 248.596 37.0553 248.596H37.4084C37.7616 248.596 38.4678 248.243 38.8209 247.89C40.5865 246.477 41.2928 244.358 40.9396 242.593ZM35.996 246.83C35.6428 246.477 35.2897 246.124 35.2897 245.771C34.9366 244.358 35.6428 242.24 36.7022 241.18C37.0553 240.827 37.4084 240.474 37.7616 240.474H38.1147H38.4678C38.1147 240.474 37.7616 240.827 37.4084 241.18C36.3491 242.593 35.6428 245.065 35.996 246.83Z" fill="#435762"/>
<path d="M38.8209 245.771C38.1147 246.124 37.7616 246.124 37.4084 245.418C37.4084 244.712 37.4084 243.652 38.1147 243.299C38.8209 242.946 39.174 242.946 39.5272 243.652C39.5272 244.358 39.5272 245.418 38.8209 245.771Z" fill="#F8F8F9"/>
<path d="M43.4113 245.065L44.1176 243.299L42.7051 242.593C42.7051 242.593 42.7051 242.593 42.352 242.593C41.6457 242.24 41.2926 242.593 40.5864 242.946C39.527 244.005 38.8208 246.124 39.1739 247.89C39.1739 248.596 39.527 248.949 40.2332 249.302H40.5864L41.9988 250.008L42.7051 248.243C42.7051 247.536 43.4113 246.477 43.4113 245.065Z" fill="#F8F8F9"/>
<path d="M45.1769 244.711C45.1769 244.005 44.4707 243.299 44.1176 243.299L42.7051 242.593C42.7051 242.593 42.7051 242.593 42.352 242.593H41.9989C41.2926 242.593 40.5864 242.593 40.2333 243.299C38.8208 244.358 38.1146 246.83 38.4677 248.596C38.8208 249.302 39.1739 250.008 39.527 250.008L40.9395 251.068C40.9395 251.068 40.9395 251.068 41.2926 251.068H41.6457C41.9989 251.068 42.7051 250.715 43.0582 250.361C44.8238 248.596 45.5301 246.477 45.1769 244.711ZM39.8802 248.949C39.527 248.596 39.1739 248.243 39.1739 247.89C38.8208 246.477 39.527 244.358 40.5864 243.299C40.9395 242.946 41.2926 242.593 41.6457 242.593H41.9989H42.352C41.9989 242.593 41.6457 242.946 41.2926 243.299C40.5864 244.711 39.8802 247.183 39.8802 248.949C40.2333 248.949 40.2333 248.949 39.8802 248.949Z" fill="#435762"/>
<path d="M43.0582 248.243C42.352 248.596 41.9989 248.596 41.6458 247.89C41.6458 247.183 41.6458 246.124 42.352 245.771C43.0582 245.418 43.4113 245.418 43.7645 246.124C43.7645 246.477 43.4113 247.536 43.0582 248.243Z" fill="#F8F8F9"/>
<path d="M42.7052 240.474H41.2927L40.9396 240.121C40.5865 239.768 39.8802 239.768 39.5271 240.121L38.8209 240.474L36.7021 240.828V241.887C36.7021 242.24 36.7021 242.24 37.0553 242.24L38.4677 243.299C38.8209 243.299 38.8209 243.653 39.174 243.653C39.5271 243.653 39.5271 243.653 39.8802 243.653L42.3521 242.24C42.7052 242.24 42.7052 241.887 42.7052 241.534V240.474Z" fill="#435762"/>
<path d="M37.4084 240.475L39.8803 239.062C40.2334 239.062 40.5865 239.062 40.9396 239.062L42.3521 240.122C42.7052 240.122 42.7052 240.475 42.3521 240.828L39.8803 242.24C39.5272 242.24 39.174 242.24 38.8209 242.24L37.4084 241.534C37.4084 241.181 37.4084 240.828 37.4084 240.475Z" fill="#F8F8F9"/>
<path d="M39.527 242.593C39.1739 242.593 39.1739 242.593 38.8208 242.24L37.4083 241.534C37.0552 241.534 37.0552 241.18 37.0552 240.827C37.0552 240.474 37.0552 240.474 37.4083 240.474L39.8801 239.062C40.2332 238.709 40.5864 239.062 41.2926 239.062L42.352 240.121C42.7051 240.121 42.7051 240.474 42.7051 240.827C42.7051 241.18 42.7051 241.18 42.352 241.18L39.8801 242.593C39.8801 242.593 39.8801 242.593 39.527 242.593ZM37.7614 240.827L39.1739 241.887C39.527 241.887 39.527 241.887 39.8801 241.887L42.352 240.474L40.9395 239.768C40.5864 239.768 40.5864 239.768 40.2332 239.768L37.7614 240.827Z" fill="#435762"/>
<path d="M39.8803 241.18C39.5272 241.18 39.1741 240.827 39.1741 240.474V231.293C39.1741 230.94 39.5272 230.586 39.8803 230.586C40.2334 230.586 40.5865 230.94 40.5865 231.293V240.474C40.5865 240.827 40.2334 241.18 39.8803 241.18Z" fill="#F8F8F9"/>
<path d="M39.8804 241.533C39.5273 241.533 38.821 241.18 38.821 240.474V231.293C38.821 230.939 39.1742 230.233 39.8804 230.233C40.2335 230.233 40.9398 230.586 40.9398 231.293V240.474C40.5866 241.18 40.2335 241.533 39.8804 241.533ZM39.8804 231.293C39.5273 231.293 39.5273 231.293 39.5273 231.646V240.827C39.5273 241.18 39.5273 241.18 39.8804 241.18C40.2335 241.18 40.2335 241.18 40.2335 240.827V231.646C40.2335 231.293 39.8804 231.293 39.8804 231.293Z" fill="#435762"/>
<path d="M43.4115 229.174L39.1741 231.646V238.355C39.1741 238.708 39.1741 239.062 39.5272 239.415H39.8803L40.5865 239.768L40.9397 239.062L41.6459 238.708C42.3521 238.355 43.0584 236.943 43.0584 235.883V232.352L44.1177 229.527L43.4115 229.174Z" fill="#435762"/>
<path d="M42.7052 239.062L41.6459 239.768C40.9396 240.121 40.2334 239.768 40.2334 238.709V231.999L44.1177 229.881V236.59C44.1177 237.649 43.4115 238.709 42.7052 239.062Z" fill="#F8F8F9"/>
<path d="M40.9397 240.121C40.5866 240.121 40.5866 240.121 40.5866 240.121C40.2335 239.768 39.8804 239.415 39.8804 238.708V231.999L44.1178 229.527V236.59C44.1178 237.649 43.4116 239.062 42.7053 239.415L41.646 240.121C41.646 240.121 41.2928 240.121 40.9397 240.121ZM40.5866 232.352V238.708C40.5866 239.062 40.5866 239.415 40.9397 239.415C41.2928 239.415 41.2928 239.415 41.646 239.415L42.7053 238.708C43.4116 238.355 43.7647 237.296 43.7647 236.59V230.587L40.5866 232.352Z" fill="#435762"/>
<path d="M26.4617 183.269C9.8651 198.453 -1.43471 228.821 0.684002 235.53C3.50896 244.358 11.9838 241.534 22.2243 239.062C43.7646 234.118 108.738 198.453 148.994 175.147C189.25 151.841 206.906 142.307 216.44 135.245C233.036 122.885 255.636 79.4518 261.286 64.9739C265.17 54.3803 254.577 54.7334 244.336 58.9709C234.096 62.8552 172.653 96.7546 120.038 126.064C67.4235 154.666 46.2364 164.907 26.4617 183.269Z" fill="#F8F8F9"/>
<path d="M224.562 80.1581C224.915 77.3331 223.855 74.8613 221.383 73.0957C198.784 84.7486 162.766 104.876 120.745 128.182C68.4829 157.491 47.2957 167.732 27.521 186.094C27.521 186.094 20.1055 193.509 25.4023 196.334C30.6991 199.159 39.8802 197.747 70.9547 180.797C102.029 163.847 202.315 105.936 202.315 105.936C202.315 105.936 222.443 93.5766 224.562 80.1581Z" fill="#F8F8F9"/>
<path d="M29.9929 195.275C27.8742 195.275 26.1086 194.922 24.6961 193.863C23.2836 193.156 22.5774 192.097 22.5774 191.038C21.8712 187.506 26.4617 182.916 26.8148 182.563C44.1177 167.025 61.7736 157.138 100.264 135.951C106.267 132.42 112.976 128.889 120.391 124.651C130.632 119.001 140.519 113.351 149.7 108.408C178.656 92.1642 203.728 78.3925 220.677 69.5645L221.03 69.2114L221.384 69.5645C223.855 71.6833 225.268 74.1551 224.562 76.98C222.443 90.3986 203.021 102.758 201.962 103.464C200.903 103.817 101.323 161.376 70.6016 178.325C47.6489 191.038 36.3491 195.275 29.9929 195.275ZM220.677 70.6239C203.374 79.4519 178.656 93.2235 150.053 109.467C140.872 114.764 130.985 120.061 120.745 125.711C113.329 129.595 106.62 133.479 100.617 137.01C62.1268 158.197 44.4708 168.085 27.5211 183.622C27.5211 183.622 23.2836 187.86 23.6368 191.038C23.6368 191.744 24.343 192.45 25.0492 193.156C29.9929 195.981 39.8802 194.216 69.8954 177.619C100.617 160.669 200.196 103.464 201.256 102.758C201.609 102.758 221.03 90.3986 223.149 77.3332C223.502 74.5082 222.796 72.3895 220.677 70.6239Z" fill="#435762"/>
<path d="M62.833 198.806L61.7737 199.512C60.7143 200.218 60.0081 199.512 60.0081 198.1V195.628C60.0081 194.569 60.7143 193.156 61.7737 192.45L62.833 191.744C63.8924 191.037 64.5986 191.744 64.5986 193.156V195.628C64.2455 197.04 63.5392 198.453 62.833 198.806Z" fill="#F8F8F9"/>
<path d="M61.0675 198.1C60.7144 198.1 60.7144 198.1 60.3613 197.747C59.655 197.394 59.655 196.687 59.655 195.981V193.509C59.655 192.097 60.3613 190.331 61.7737 189.978L62.8331 189.272C63.5393 188.919 63.8925 188.919 64.5987 189.272C65.3049 189.625 65.3049 190.331 65.3049 191.037V193.509C65.3049 194.922 64.5987 196.687 63.1862 197.04L62.1269 197.747C61.7737 197.747 61.4206 198.1 61.0675 198.1ZM63.5393 189.978H63.1862L62.1269 190.684C61.4206 191.037 60.7144 192.45 60.7144 193.509V195.981C60.7144 196.334 60.7144 196.687 61.0675 196.687H61.4206L62.48 195.981C63.1862 195.628 63.8925 194.215 63.8925 193.156V190.684C63.8925 190.331 63.5393 189.978 63.5393 189.978Z" fill="#435762"/>
<path d="M70.9548 194.215L69.8955 194.922C68.8361 195.628 68.1299 194.922 68.1299 193.509V191.037C68.1299 189.978 68.8361 188.566 69.8955 187.859L70.9548 187.153C72.0142 186.447 72.7204 187.153 72.7204 188.566V191.037C72.7204 192.097 72.0142 193.509 70.9548 194.215Z" fill="#F8F8F9"/>
<path d="M69.1893 193.156C68.8362 193.156 68.8362 193.156 68.4831 192.803C67.7769 192.45 67.7769 191.744 67.7769 191.037V188.566C67.7769 187.153 68.4831 185.388 69.8956 185.034L70.9549 184.328C71.6612 183.975 72.0143 183.975 72.7205 184.328C73.4268 184.681 73.4268 185.388 73.4268 186.094V188.566C73.4268 189.978 72.7205 191.744 71.308 192.097L70.2487 192.803C69.8956 193.156 69.5425 193.156 69.1893 193.156ZM71.6612 185.388H71.308L70.2487 186.094C69.5424 186.447 68.8362 187.859 68.8362 188.919V191.391C68.8362 191.744 68.8362 192.097 69.1893 192.097H69.5425L70.6018 191.391C71.308 191.037 72.0143 189.625 72.0143 188.566V186.094C72.0143 185.741 72.0143 185.388 71.6612 185.388Z" fill="#435762"/>
<path d="M77.311 190.684L76.2517 191.39C75.1923 192.097 74.4861 191.39 74.4861 189.978V187.506C74.4861 186.447 75.1923 185.034 76.2517 184.328L77.311 183.622C78.3704 182.916 79.0766 183.622 79.0766 185.034V187.506C79.0766 188.565 78.0173 189.978 77.311 190.684Z" fill="#F8F8F9"/>
<path d="M75.5453 189.625C75.1922 189.625 75.1922 189.625 74.8391 189.272C74.1328 188.919 74.1328 188.213 74.1328 187.506V185.034C74.1328 183.622 74.8391 181.856 76.2515 181.503L77.3109 180.797C78.0171 180.444 78.3702 180.444 79.0765 180.797C79.7827 181.15 79.7827 181.856 79.7827 182.563V185.034C79.7827 186.447 79.0765 188.213 77.664 188.566L76.6047 189.272C76.2515 189.625 75.8984 189.625 75.5453 189.625ZM78.0171 181.503H77.664L76.6047 182.209C75.8984 182.563 75.1922 183.975 75.1922 185.034V187.506C75.1922 187.859 75.1922 188.213 75.5453 188.213H75.8984L76.9578 187.506C77.664 187.153 78.3702 185.741 78.3702 184.681V182.209C78.3702 181.856 78.0171 181.856 78.0171 181.503Z" fill="#435762"/>
<path d="M83.667 186.8L82.6076 187.506C81.5483 188.213 80.842 187.506 80.842 186.094V183.622C80.842 182.563 81.5483 181.15 82.6076 180.444L83.667 179.738C84.7264 179.031 85.4326 179.738 85.4326 181.15V183.622C85.4326 185.034 84.7264 186.447 83.667 186.8Z" fill="#F8F8F9"/>
<path d="M81.9015 185.741C81.5484 185.741 81.5484 185.741 81.1953 185.387C80.489 185.034 80.489 184.328 80.489 183.622V181.15C80.489 179.738 81.1953 177.972 82.6077 177.619L83.6671 176.913C84.3733 176.559 84.7265 176.559 85.4327 176.913C86.1389 177.266 86.1389 177.972 86.1389 178.678V181.15C86.1389 182.562 85.4327 184.328 84.0202 184.681L82.9609 185.387C82.6077 185.741 82.2546 185.741 81.9015 185.741ZM84.3733 177.972H84.0202L82.9609 178.678C82.2546 179.031 81.5484 180.444 81.5484 181.503V183.975C81.5484 184.328 81.5484 184.681 81.9015 184.681H82.2546L83.314 183.975C84.0202 183.622 84.7264 182.209 84.7264 181.15V178.678C84.7264 178.325 84.7264 177.972 84.3733 177.972Z" fill="#435762"/>
<path d="M90.0232 183.269L88.9638 183.975C87.9045 184.681 87.1982 183.975 87.1982 182.563V180.091C87.1982 179.031 87.9045 177.619 88.9638 176.913L90.0232 176.206C91.0826 175.5 91.7888 176.206 91.7888 177.619V180.091C91.4357 181.15 90.7294 182.563 90.0232 183.269Z" fill="#F8F8F9"/>
<path d="M88.2577 182.209C87.9046 182.209 87.9046 182.209 87.5514 181.856C86.8452 181.503 86.8452 180.797 86.8452 180.091V177.619C86.8452 176.206 87.5515 174.441 88.9639 174.088L90.0233 173.381C90.7295 173.028 91.0826 173.028 91.7889 173.381C92.4951 173.735 92.4951 174.441 92.4951 175.147V177.619C92.4951 179.031 91.7889 180.797 90.3764 181.15L89.317 181.856C88.9639 182.209 88.6108 182.209 88.2577 182.209ZM90.3764 174.441H90.0233L88.9639 175.147C88.2577 175.5 87.5514 176.913 87.5514 177.972V180.444C87.5514 180.797 87.5515 181.15 87.9046 181.15H88.2577L89.317 180.444C90.0233 180.091 90.7295 178.678 90.7295 177.619V175.147C91.0826 174.794 90.7295 174.441 90.3764 174.441C90.7295 174.441 90.7295 174.441 90.3764 174.441Z" fill="#435762"/>
<path d="M96.3794 179.738L95.32 180.091C94.2607 180.797 93.5544 180.091 93.5544 178.678V176.206C93.5544 175.147 94.2607 173.734 95.32 173.028L96.3794 172.322C97.4388 171.616 98.145 172.322 98.145 173.734V176.206C97.7919 177.619 97.0856 179.031 96.3794 179.738Z" fill="#F8F8F9"/>
<path d="M94.6139 178.678C94.2608 178.678 94.2608 178.678 93.9077 178.325C93.2014 177.972 93.2014 177.266 93.2014 176.56V174.088C93.2014 172.675 93.9077 170.91 95.3201 170.556L96.3795 169.85C97.0857 169.497 97.4388 169.497 98.1451 169.85C98.8513 170.203 98.8513 170.91 98.8513 171.616V174.088C98.8513 175.5 98.1451 177.266 96.7326 177.619L95.6733 178.325C95.3201 178.678 94.967 178.678 94.6139 178.678ZM97.0857 170.556H96.7326L95.6733 171.263C94.967 171.616 94.2608 173.028 94.2608 174.088V176.56C94.2608 176.913 94.2608 177.266 94.6139 177.266H94.967L96.0264 176.56C96.7326 176.206 97.4388 174.794 97.4388 173.735V171.263C97.4388 170.91 97.0857 170.91 97.0857 170.556Z" fill="#435762"/>
<path d="M102.383 175.853L101.323 176.56C100.264 177.266 99.5576 176.56 99.5576 175.147V172.675C99.5576 171.616 100.264 170.203 101.323 169.497L102.383 168.791C103.442 168.085 104.148 168.791 104.148 170.203V172.675C104.148 174.088 103.442 175.5 102.383 175.853Z" fill="#F8F8F9"/>
<path d="M100.97 175.147C100.617 175.147 100.617 175.147 100.264 174.794C99.5576 174.441 99.5576 173.735 99.5576 173.028V170.556C99.5576 169.144 100.264 167.378 101.676 167.025L102.736 166.319C103.442 165.966 103.795 165.966 104.501 166.319C105.208 166.672 105.208 167.378 105.208 168.085V170.556C105.208 171.969 104.501 173.735 103.089 174.088L102.029 174.794C101.323 174.794 100.97 175.147 100.97 175.147ZM103.089 167.025H102.736L101.676 167.732C100.97 168.085 100.264 169.497 100.264 170.556V173.028C100.264 173.381 100.264 173.735 100.617 173.735H100.97L102.029 173.028C102.736 172.675 103.442 171.263 103.442 170.203V167.732C103.442 167.378 103.442 167.025 103.089 167.025Z" fill="#435762"/>
<path d="M108.739 172.322L108.032 173.028C106.973 173.735 106.267 173.028 106.267 171.616V169.144C106.267 168.085 106.973 166.672 108.032 165.966L109.092 165.26C110.151 164.553 110.857 165.26 110.857 166.672V169.144C110.504 170.203 109.798 171.616 108.739 172.322Z" fill="#F8F8F9"/>
<path d="M107.326 171.263C106.973 171.263 106.973 171.263 106.62 170.909C105.914 170.556 105.914 169.85 105.914 169.144V166.672C105.914 165.26 106.62 163.494 108.032 163.141L109.092 162.435C109.798 162.081 110.151 162.081 110.857 162.435C111.563 162.788 111.563 163.494 111.563 164.2V166.672C111.563 168.085 110.857 169.85 109.445 170.203L108.385 170.909C107.679 171.263 107.679 171.263 107.326 171.263ZM109.445 163.494H109.092L108.032 164.2C107.326 164.553 106.62 165.966 106.62 167.025V169.497C106.62 169.85 106.62 170.203 106.973 170.203H107.326L108.385 169.497C109.092 169.144 109.798 167.731 109.798 166.672V164.2C109.798 163.847 109.798 163.494 109.445 163.494C109.798 163.494 109.445 163.494 109.445 163.494Z" fill="#435762"/>
<path d="M115.095 168.791L114.035 169.497C112.976 170.203 112.27 169.497 112.27 168.085V165.613C112.27 164.553 112.976 163.141 114.035 162.435L115.095 161.728C116.154 161.022 116.86 161.728 116.86 163.141V165.613C116.86 166.672 116.154 168.085 115.095 168.791Z" fill="#F8F8F9"/>
<path d="M113.329 167.731C112.976 167.731 112.976 167.731 112.623 167.378C111.917 167.025 111.917 166.319 111.917 165.613V163.141C111.917 161.728 112.623 159.963 114.035 159.61L115.095 158.904C115.801 158.55 116.154 158.55 116.86 158.904C117.567 159.257 117.567 159.963 117.567 160.669V163.141C117.567 164.553 116.86 166.319 115.448 166.672L114.389 167.378C114.035 167.731 113.682 167.731 113.329 167.731ZM115.801 159.61H115.448L114.389 160.316C113.682 160.669 112.976 162.082 112.976 163.141V165.613C112.976 165.966 112.976 166.319 113.329 166.319H113.682L114.742 165.613C115.448 165.26 116.154 163.847 116.154 162.788V160.316C116.154 159.963 116.154 159.963 115.801 159.61Z" fill="#435762"/>
<path d="M121.451 164.907L120.392 165.613C119.332 166.32 118.626 165.613 118.626 164.201V161.729C118.626 160.67 119.332 159.257 120.392 158.551L121.451 157.845C122.51 157.138 123.217 157.845 123.217 159.257V161.729C123.217 163.141 122.51 164.554 121.451 164.907Z" fill="#F8F8F9"/>
<path d="M119.685 163.848C119.332 163.848 119.332 163.848 118.979 163.495C118.273 163.141 118.273 162.435 118.273 161.729V159.257C118.273 157.845 118.979 156.079 120.392 155.726L121.451 155.02C122.157 154.667 122.51 154.667 123.217 155.02C123.923 155.373 123.923 156.079 123.923 156.785V159.257C123.923 160.67 123.217 162.435 121.804 162.788L120.745 163.495C120.392 163.848 120.039 163.848 119.685 163.848ZM122.157 156.079H121.804L120.745 156.785C120.039 157.138 119.332 158.551 119.332 159.61V162.082C119.332 162.435 119.332 162.788 119.685 162.788H120.039L121.098 162.082C121.804 161.729 122.51 160.317 122.51 159.257V156.785C122.51 156.432 122.51 156.079 122.157 156.079Z" fill="#435762"/>
<path d="M127.807 161.376L126.748 162.082C125.688 162.788 124.982 162.082 124.982 160.67V158.198C124.982 157.138 125.688 155.726 126.748 155.02L127.807 154.313C128.866 153.607 129.573 154.313 129.573 155.726V158.198C129.573 159.257 128.513 160.67 127.807 161.376Z" fill="#F8F8F9"/>
<path d="M126.041 160.316C125.688 160.316 125.688 160.316 125.335 159.963C124.629 159.61 124.629 158.904 124.629 158.198V155.726C124.629 154.313 125.335 152.548 126.748 152.195L127.807 151.488C128.513 151.135 128.866 151.135 129.573 151.488C130.279 151.842 130.279 152.548 130.279 153.254V155.726C130.279 157.138 129.573 158.904 128.16 159.257L127.101 159.963C126.748 160.316 126.395 160.316 126.041 160.316ZM128.513 152.548H128.16L127.101 153.254C126.395 153.607 125.688 155.02 125.688 156.079V158.551C125.688 158.904 125.688 159.257 126.041 159.257H126.395L127.454 158.551C128.16 158.198 128.866 156.785 128.866 155.726V153.254C128.866 152.901 128.513 152.548 128.513 152.548Z" fill="#435762"/>
<path d="M134.163 157.845L133.104 158.551C132.044 159.257 131.338 158.551 131.338 157.138V154.667C131.338 153.607 132.044 152.195 133.104 151.489L134.163 150.782C135.222 150.076 135.929 150.782 135.929 152.195V154.667C135.929 155.726 135.222 157.138 134.163 157.845Z" fill="#F8F8F9"/>
<path d="M132.398 156.785C132.045 156.785 132.045 156.785 131.692 156.432C130.985 156.079 130.985 155.373 130.985 154.667V152.195C130.985 150.782 131.692 149.017 133.104 148.663L134.163 147.957C134.87 147.604 135.223 147.604 135.929 147.957C136.635 148.31 136.635 149.017 136.635 149.723V152.195C136.635 153.607 135.929 155.373 134.517 155.726L133.457 156.432C133.104 156.432 132.751 156.785 132.398 156.785ZM134.87 148.663H134.517L133.457 149.37C132.751 149.723 132.045 151.135 132.045 152.195V154.667C132.045 155.02 132.045 155.373 132.398 155.373H132.751L133.81 154.667C134.517 154.313 135.223 152.901 135.223 151.842V149.37C135.223 149.017 135.223 148.663 134.87 148.663Z" fill="#435762"/>
<path d="M140.519 153.959L139.46 154.666C138.401 155.372 137.694 154.666 137.694 153.253V150.781C137.694 149.722 138.401 148.31 139.46 147.603L140.519 146.897C141.579 146.191 142.285 146.897 142.285 148.31V150.781C141.932 152.194 141.226 153.606 140.519 153.959Z" fill="#F8F8F9"/>
<path d="M138.754 152.9C138.401 152.9 138.401 152.9 138.048 152.547C137.341 152.194 137.341 151.488 137.341 150.781V148.31C137.341 146.897 138.048 145.131 139.46 144.778L140.519 144.072C141.226 143.719 141.579 143.719 142.285 144.072C142.991 144.425 142.991 145.131 142.991 145.838V148.31C142.991 149.722 142.285 151.488 140.873 151.841L139.813 152.547C139.46 152.9 139.107 152.9 138.754 152.9ZM140.873 145.131H140.519L139.46 145.838C138.754 146.191 138.048 147.603 138.048 148.663V151.135C138.048 151.488 138.048 151.841 138.401 151.841H138.754L139.813 151.135C140.519 150.781 141.226 149.369 141.226 148.31V145.838C141.579 145.485 141.226 145.131 140.873 145.131C141.226 145.131 141.226 145.131 140.873 145.131Z" fill="#435762"/>
<path d="M146.875 150.428L145.816 151.134C144.757 151.841 144.051 151.134 144.051 149.722V147.25C144.051 146.191 144.757 144.778 145.816 144.072L146.875 143.366C147.935 142.66 148.641 143.366 148.641 144.778V147.25C148.288 148.31 147.582 149.722 146.875 150.428Z" fill="#F8F8F9"/>
<path d="M145.11 149.369C144.757 149.369 144.757 149.369 144.404 149.016C143.697 148.663 143.697 147.956 143.697 147.25V144.778C143.697 143.366 144.403 141.6 145.816 141.247L146.875 140.541C147.582 140.188 147.935 140.188 148.641 140.541C149.347 140.894 149.347 141.6 149.347 142.306V144.778C149.347 146.191 148.641 147.956 147.228 148.31L146.169 149.016C145.816 149.369 145.463 149.369 145.11 149.369ZM147.582 141.6H147.228L146.169 142.306C145.11 142.66 144.757 143.719 144.757 144.778V147.25C144.757 147.603 144.757 147.956 145.11 147.956H145.463L146.522 147.25C147.228 146.897 147.935 145.485 147.935 144.425V141.953L147.582 141.6Z" fill="#435762"/>
<path d="M152.878 146.897L151.819 147.251C150.76 147.957 150.053 147.251 150.053 145.838V143.366C150.053 142.307 150.76 140.894 151.819 140.188L152.878 139.482C153.938 138.776 154.644 139.482 154.644 140.894V143.366C154.644 144.779 153.938 146.191 152.878 146.897Z" fill="#F8F8F9"/>
<path d="M151.466 145.838C151.113 145.838 151.113 145.838 150.76 145.485C150.054 145.131 150.054 144.425 150.054 143.719V141.247C150.054 139.835 150.76 138.069 152.172 137.716L153.232 137.01C153.938 136.657 154.291 136.657 154.997 137.01C155.704 137.363 155.704 138.069 155.704 138.775V141.247C155.704 142.66 154.997 144.425 153.585 144.778L152.526 145.485C151.819 145.838 151.466 145.838 151.466 145.838ZM153.585 137.716H153.232L152.172 138.422C151.466 138.775 150.76 140.188 150.76 141.247V143.719C150.76 144.072 150.76 144.425 151.113 144.425H151.466L152.526 143.719C153.232 143.366 153.938 141.953 153.938 140.894V138.422C153.938 138.069 153.938 138.069 153.585 137.716Z" fill="#435762"/>
<path d="M159.235 143.013L158.175 143.719C157.116 144.426 156.41 143.719 156.41 142.307V139.835C156.41 138.776 157.116 137.363 158.175 136.657L159.235 135.951C160.294 135.244 161 135.951 161 137.363V139.835C161 141.247 160.294 142.66 159.235 143.013Z" fill="#F8F8F9"/>
<path d="M157.822 141.954C157.469 141.954 157.469 141.954 157.116 141.601C156.41 141.248 156.41 140.541 156.41 139.835V137.363C156.41 135.951 157.116 134.185 158.528 133.832L159.588 133.126C160.294 132.773 160.647 132.773 161.353 133.126C162.06 133.479 162.06 134.185 162.06 134.891V137.363C162.06 138.776 161.353 140.541 159.941 140.894L158.882 141.601C158.175 141.954 158.175 141.954 157.822 141.954ZM159.941 134.185H159.588L158.528 134.891C157.822 135.245 157.116 136.657 157.116 137.716V140.188C157.116 140.541 157.116 140.894 157.469 140.894H157.822L158.882 140.188C159.588 139.835 160.294 138.423 160.294 137.363V134.891C160.294 134.538 160.294 134.185 159.941 134.185C160.294 134.185 159.941 134.185 159.941 134.185Z" fill="#435762"/>
<path d="M165.591 139.482L164.531 140.188C163.472 140.894 162.766 140.188 162.766 138.776V136.304C162.766 135.245 163.472 133.832 164.531 133.126L165.591 132.42C166.65 131.713 167.356 132.42 167.356 133.832V136.304C167.356 137.716 166.65 139.129 165.591 139.482Z" fill="#F8F8F9"/>
<path d="M163.825 138.423C163.472 138.423 163.472 138.423 163.119 138.069C162.413 137.716 162.413 137.01 162.413 136.304V133.832C162.413 132.42 163.119 130.654 164.532 130.301L165.591 129.595C166.297 129.242 166.65 129.242 167.357 129.595C168.063 129.948 168.063 130.654 168.063 131.36V133.832C168.063 135.245 167.357 137.01 165.944 137.363L164.885 138.069C164.532 138.423 164.178 138.423 163.825 138.423ZM166.297 130.654H165.944L164.885 131.36C164.178 131.713 163.472 133.126 163.472 134.185V136.657C163.472 137.01 163.472 137.363 163.825 137.363H164.178L165.238 136.657C165.944 136.304 166.65 134.891 166.65 133.832V131.36C166.65 131.007 166.65 130.654 166.297 130.654Z" fill="#435762"/>
<path d="M171.947 135.951L170.888 136.657C169.828 137.363 169.122 136.657 169.122 135.245V132.773C169.122 131.713 169.828 130.301 170.888 129.595L171.947 128.888C173.006 128.182 173.713 128.888 173.713 130.301V132.773C173.713 133.832 173.006 135.245 171.947 135.951Z" fill="#F8F8F9"/>
<path d="M170.181 134.892C169.828 134.892 169.828 134.892 169.475 134.538C168.769 134.185 168.769 133.479 168.769 132.773V130.301C168.769 128.889 169.475 127.123 170.888 126.77L171.947 126.064C172.653 125.71 173.006 125.71 173.712 126.064C174.419 126.417 174.419 127.123 174.419 127.829V130.301C174.419 131.713 173.712 133.479 172.3 133.832L171.241 134.538C170.888 134.892 170.534 134.892 170.181 134.892ZM172.653 126.77H172.3L171.241 127.476C170.534 127.829 169.828 129.242 169.828 130.301V132.773C169.828 133.126 169.828 133.479 170.181 133.479H170.534L171.594 132.773C172.3 132.42 173.006 131.007 173.006 129.948V127.476C173.006 127.123 173.006 127.123 172.653 126.77Z" fill="#435762"/>
<path d="M178.303 132.066L177.244 132.773C176.184 133.479 175.478 132.773 175.478 131.36V128.888C175.478 127.829 176.184 126.417 177.244 125.71L178.303 125.004C179.362 124.298 180.069 125.004 180.069 126.417V128.888C179.715 130.301 179.009 131.713 178.303 132.066Z" fill="#F8F8F9"/>
<path d="M176.537 131.36C176.184 131.36 176.184 131.36 175.831 131.007C175.125 130.654 175.125 129.948 175.125 129.242V126.77C175.125 125.357 175.831 123.592 177.244 123.239L178.303 122.532C179.009 122.179 179.362 122.179 180.069 122.532C180.775 122.885 180.775 123.592 180.775 124.298V126.77C180.775 128.182 180.069 129.948 178.656 130.301L177.597 131.007C177.244 131.007 176.891 131.36 176.537 131.36ZM179.009 123.239H178.656L177.597 123.945C176.891 124.298 176.184 125.71 176.184 126.77V129.242C176.184 129.595 176.184 129.948 176.537 129.948H176.891L177.95 129.242C178.656 128.888 179.362 127.476 179.362 126.417V123.945C179.362 123.592 179.009 123.239 179.009 123.239Z" fill="#435762"/>
<path d="M184.659 128.535L183.6 129.242C182.54 129.948 181.834 129.242 181.834 127.829V125.357C181.834 124.298 182.54 122.885 183.6 122.179L184.659 121.473C185.719 120.767 186.425 121.473 186.425 122.885V125.357C186.425 126.77 185.719 128.182 184.659 128.535Z" fill="#F8F8F9"/>
<path d="M182.894 127.476C182.541 127.476 182.541 127.476 182.187 127.123C181.481 126.77 181.481 126.063 181.481 125.357V122.885C181.481 121.473 182.187 119.707 183.6 119.354L184.659 118.648C185.366 118.295 185.719 118.295 186.425 118.648C187.131 119.001 187.131 119.707 187.131 120.413V122.885C187.131 124.298 186.425 126.063 185.012 126.417L183.953 127.123C183.6 127.476 183.247 127.476 182.894 127.476ZM185.366 119.707H185.012L183.953 120.413C183.247 120.767 182.541 122.179 182.541 123.238V125.71C182.541 126.063 182.541 126.417 182.894 126.417H183.247L184.306 125.71C185.012 125.357 185.719 123.945 185.719 122.885V120.413C185.719 120.06 185.366 119.707 185.366 119.707Z" fill="#435762"/>
<path d="M191.015 125.004L189.956 125.71C188.897 126.417 188.19 125.71 188.19 124.298V121.826C188.19 120.767 188.897 119.354 189.956 118.648L191.015 117.942C192.075 117.236 192.781 117.942 192.781 119.354V121.826C192.428 122.885 191.722 124.298 191.015 125.004Z" fill="#F8F8F9"/>
<path d="M189.25 123.945C188.897 123.945 188.897 123.945 188.544 123.592C187.837 123.239 187.837 122.532 187.837 121.826V119.354C187.837 117.942 188.544 116.176 189.956 115.823L191.015 115.117C191.722 114.764 192.075 114.764 192.781 115.117C193.487 115.47 193.487 116.176 193.487 116.882V119.354C193.487 120.767 192.781 122.532 191.369 122.885L189.956 123.592C189.956 123.945 189.603 123.945 189.25 123.945ZM191.369 115.823H191.015L189.956 116.529C189.25 116.882 188.544 118.295 188.544 119.354V121.826C188.544 122.179 188.544 122.532 188.897 122.532H189.25L190.309 121.826C191.015 121.473 191.722 120.06 191.722 119.001V116.529C192.075 116.529 191.722 116.176 191.369 115.823C191.722 116.176 191.369 115.823 191.369 115.823Z" fill="#435762"/>
<path d="M197.372 121.12L196.312 121.826C195.253 122.532 194.547 121.826 194.547 120.413V117.942C194.547 116.882 195.253 115.47 196.312 114.764L197.372 114.057C198.431 113.351 199.137 114.057 199.137 115.47V117.942C198.784 119.354 198.078 120.767 197.372 121.12Z" fill="#F8F8F9"/>
<path d="M195.606 120.414C195.253 120.414 195.253 120.414 194.9 120.06C194.193 119.707 194.193 119.001 194.193 118.295V115.823C194.193 114.411 194.9 112.645 196.312 112.292L197.371 111.586C198.078 111.232 198.431 111.232 199.137 111.586C199.843 111.939 199.843 112.645 199.843 113.351V115.823C199.843 117.235 199.137 119.001 197.725 119.354L196.665 120.06C196.312 120.06 195.959 120.414 195.606 120.414ZM197.725 112.292H197.371L196.665 112.998C195.959 113.351 195.253 114.764 195.253 115.823V118.295C195.253 118.648 195.253 119.001 195.606 119.001H195.959L197.018 118.295C197.725 117.942 198.431 116.529 198.431 115.47V112.998C198.431 112.645 198.078 112.292 197.725 112.292C198.078 112.292 198.078 112.292 197.725 112.292Z" fill="#435762"/>
<path d="M59.655 207.281C59.3019 207.281 58.9488 207.281 58.9488 206.928C58.2425 206.575 57.8894 205.515 57.8894 204.456V192.803C57.8894 190.684 59.3019 188.212 60.7144 187.506L63.5393 185.741C64.2456 185.387 64.9518 185.387 65.658 185.741C66.3643 186.094 66.7174 187.153 66.7174 188.212V199.865C66.7174 201.984 65.3049 204.456 63.8924 205.162L61.0675 206.928C60.3612 207.281 60.0081 207.281 59.655 207.281ZM64.9518 186.447C64.5987 186.447 64.2456 186.447 64.2456 186.8L61.4206 188.566C60.0081 189.272 58.9488 191.39 58.9488 193.156V204.809C58.9488 205.515 59.3019 206.222 59.655 206.575C60.0081 206.928 60.7144 206.575 61.0675 206.575L63.8924 204.809C65.3049 204.103 66.3643 201.984 66.3643 200.218V188.566C66.3643 187.859 66.0112 187.153 65.658 186.8C64.9518 186.447 64.9518 186.447 64.9518 186.447Z" fill="#435762"/>
<path d="M40.9397 205.516V203.397C40.9397 202.338 40.2335 201.632 39.1741 201.985C35.9961 203.75 28.5806 207.988 19.7526 211.519C16.2214 212.932 12.6902 213.285 10.2184 211.519C8.09964 209.753 10.2184 204.81 10.5715 204.104C8.45276 207.282 7.04028 210.46 5.6278 213.638C5.27468 214.697 4.92157 215.756 5.27468 216.463C5.98092 218.581 8.09964 219.994 10.9246 219.994C16.9276 220.7 31.0524 213.638 37.4085 209.753C39.1741 208.694 40.2335 207.282 40.9397 205.516Z" fill="#F8F8F9"/>
<path d="M41.9991 199.16C41.6459 198.807 40.9397 198.807 40.2335 199.16C39.5272 199.513 38.4679 200.219 37.4085 200.572C36.3491 201.279 35.2898 201.632 33.8773 202.338L31.7586 203.397C27.8743 205.516 24.3431 206.928 20.8119 208.341C19.7525 208.694 18.6932 209.047 17.6338 209.4H17.2807C16.2214 209.4 15.5151 209.753 14.4558 209.4L13.7495 209.047C13.0433 209.047 12.337 208.694 11.9839 208.341C11.6308 208.341 11.6308 207.988 11.6308 207.635V207.282C11.2777 205.516 12.337 202.338 12.6902 201.632L11.6308 201.279C9.8652 204.104 8.09961 207.282 6.68713 210.46V210.813C6.33401 211.872 5.98089 212.932 6.33401 213.991C7.04025 216.11 9.15896 217.875 12.337 218.228C12.6902 218.228 13.0433 218.228 13.3964 218.228C20.1057 218.228 33.5242 211.519 39.1741 207.635C40.9397 206.575 42.3522 204.81 42.7053 203.044V200.925C42.7053 200.219 42.3522 199.513 41.9991 199.16ZM41.6459 203.044C41.2928 204.81 39.8803 206.222 38.821 206.928C32.818 210.813 18.6932 217.875 12.6902 217.169C11.2777 217.169 8.45273 216.463 7.74649 213.991C7.39337 213.285 7.74649 212.225 8.09961 211.519V211.166C8.80585 209.4 9.51208 207.988 10.2183 206.222C10.2183 206.928 10.2183 207.282 10.5714 207.988L8.45273 211.872L8.80585 212.225C9.51208 213.285 10.5714 213.991 11.6308 214.344L11.9839 214.697L12.337 214.344C13.0433 213.285 12.337 213.991 12.6902 213.285L14.1026 210.46C14.8089 210.46 15.8682 210.813 16.9276 210.46L15.162 214.344H16.2213C19.7525 213.991 25.4025 211.519 28.5805 210.107L32.4648 204.457C34.5835 203.397 36.3491 202.338 38.1147 201.632C39.1741 200.925 40.2335 200.572 40.9397 200.219C41.2928 200.219 41.2928 200.219 41.2928 200.219C41.2928 200.219 41.6459 200.572 41.6459 200.925V203.044Z" fill="#435762"/>
<path d="M261.639 56.8525C258.461 53.6744 250.692 55.0869 244.336 57.5587C236.215 60.7368 194.546 83.3364 119.685 124.651C112.27 128.536 105.56 132.42 99.5574 135.951C61.0674 157.138 43.4114 167.026 26.1086 182.563C9.51196 197.747 -2.14098 228.468 0.330857 235.178C2.09645 240.121 5.27453 241.534 9.15884 241.534C12.3369 241.534 15.8681 240.828 19.7524 239.768C20.8118 239.415 21.518 239.415 22.5774 239.062C43.0583 234.118 103.795 201.631 149.347 175.147C160.294 168.791 169.828 163.495 177.597 158.904C198.431 146.898 209.731 140.189 216.793 135.245C233.036 122.886 255.989 79.4521 261.639 64.6211C263.405 61.0899 263.052 58.6181 261.639 56.8525ZM26.8148 183.622C43.7645 168.085 61.4205 158.198 99.9105 137.011C105.914 133.479 112.623 129.948 120.038 125.711C194.546 84.3958 236.568 61.7962 244.336 58.6181C248.927 56.8525 252.811 56.1463 255.989 56.1463C251.752 65.3274 245.043 78.0396 237.627 89.6926C233.39 91.1051 227.74 92.8707 227.387 94.6363C225.974 104.877 219.971 113.352 219.618 113.705C217.852 115.47 216.087 116.883 214.674 118.295C205.14 125.358 188.897 133.126 148.288 156.432C108.385 180.091 54.005 212.225 22.2243 223.525C11.2776 227.409 5.62765 227.409 2.80269 223.878C6.33388 212.225 15.1619 194.216 26.8148 183.622Z" fill="#435762"/>
<path d="M7.74628 237.296C7.74628 239.415 6.33381 240.121 4.56821 239.062C2.80261 238.003 1.39014 235.531 1.39014 233.765C1.39014 231.646 2.80261 230.94 4.56821 232C6.33381 233.059 7.74628 235.531 7.74628 237.296Z" fill="#F8F8F9"/>
<path d="M192.781 145.838C192.428 145.132 192.781 144.425 193.134 144.072C196.665 142.307 207.612 136.304 212.202 132.773C216.793 129.241 219.971 126.063 221.03 124.651C221.383 124.298 222.09 124.298 222.796 124.651C223.149 125.004 223.502 125.71 222.796 126.416C221.383 127.829 218.205 131.36 213.615 134.891C208.671 138.422 197.724 144.425 194.193 146.544C193.84 146.544 193.134 146.544 192.781 145.838Z" fill="#F8F8F9"/>
<path d="M225.268 121.826C224.915 121.473 224.562 120.766 225.268 120.06C225.621 119.354 226.327 118.648 227.033 117.588C227.387 117.235 228.093 116.882 228.446 117.235C229.152 117.588 229.152 118.295 228.799 119.001C228.093 120.06 227.387 121.12 226.68 121.826C226.327 122.179 225.621 122.179 225.268 121.826Z" fill="#F8F8F9"/>
<path d="M96.7325 190.331C97.7918 185.74 135.929 164.553 148.641 157.138C151.466 155.725 154.644 155.372 157.116 156.784L225.974 183.268L316.726 207.987C318.844 208.34 319.198 211.165 317.432 212.577L310.723 217.168C306.838 219.64 302.248 221.052 297.657 220.346L120.038 204.102C114.742 203.749 109.092 202.337 104.501 199.865C100.264 197.746 95.6731 195.275 96.7325 190.331Z" fill="#F8F8F9"/>
<path d="M102.735 192.45C103.795 187.859 134.516 171.262 147.581 164.2C150.406 162.787 153.584 162.434 156.056 163.847L225.268 188.565L312.135 210.459C314.254 210.812 313.901 211.871 312.135 212.93L306.485 216.815C302.601 219.287 298.01 220.699 293.42 219.993L122.863 204.456C117.566 204.102 114.741 204.102 110.151 201.631C106.266 199.512 101.676 197.04 102.735 192.45Z" fill="#F8F8F9"/>
<path d="M319.904 209.753C319.551 208.693 318.844 207.634 317.785 207.281L314.96 206.575L227.033 182.563L158.175 156.079C155.35 154.666 151.819 155.019 148.994 156.432L148.288 156.785C124.982 169.85 97.7917 185.388 96.7323 189.978C95.3198 195.275 100.617 198.1 104.501 199.865C109.091 202.337 114.741 203.75 120.391 204.103L273.998 217.875L299.07 219.993C299.776 219.993 300.482 219.993 300.835 219.993C305.073 219.993 308.957 218.934 312.488 216.462L319.197 211.872C319.551 212.225 320.257 211.165 319.904 209.753ZM120.038 203.397C114.388 203.044 109.091 201.278 104.501 199.159C99.9104 196.687 96.0261 194.569 97.0854 190.684C98.1448 186.447 135.575 165.26 147.935 158.551L148.641 158.197C151.113 156.785 153.938 156.785 156.763 157.844L225.621 184.328L298.717 204.103C296.598 205.515 288.829 211.165 284.592 213.637C280.707 216.109 264.111 216.462 256.342 216.109L120.038 203.397Z" fill="#435762"/>
<path d="M230.564 97.4613C228.799 97.4613 227.74 95.6957 228.799 94.2832C233.036 87.574 248.574 77.3335 249.986 76.6273C251.752 75.5679 258.814 78.0397 258.814 78.0397L303.307 91.1052C304.72 91.4583 304.72 93.2239 303.66 93.9301L298.716 97.1082C296.598 98.5207 294.126 99.2269 291.301 99.2269L230.564 97.4613Z" fill="#F8F8F9"/>
<path d="M234.449 97.4608C232.683 97.4608 230.565 96.7546 230.565 96.7546C235.155 90.7515 248.574 81.5704 251.046 80.5111C252.811 79.8048 259.874 81.9236 259.874 81.9236L297.657 92.8702C299.07 93.2234 300.835 92.8703 299.423 93.5765L294.479 96.7546C292.361 98.167 291.301 98.167 288.476 98.167L234.449 97.4608Z" fill="#F8F8F9"/>
<path d="M305.073 92.5171C305.073 92.164 305.073 92.164 305.073 91.8109C305.073 91.1047 304.72 90.7516 304.013 90.3984C304.013 90.3984 303.66 90.0453 303.307 90.0453L258.814 76.9799C257.402 76.6268 251.399 74.8612 249.633 75.9205C248.221 76.9799 232.683 87.2204 228.446 93.9296C227.74 94.6359 227.74 95.6952 228.446 96.7546C228.799 97.8139 229.858 98.1671 230.918 98.1671L291.654 99.2264H292.007C294.479 99.2264 297.304 98.5202 299.423 97.1077L304.367 93.9296C304.367 93.5765 304.72 93.2234 305.073 92.5171ZM230.565 96.7546C229.858 96.7546 229.505 96.4015 229.152 96.0483C228.799 95.6952 228.799 94.989 229.152 94.2827C233.39 87.9266 248.574 77.6861 249.986 76.6268C251.046 75.9205 255.283 76.9799 258.461 78.0393L293.42 88.2797C291.301 89.6922 286.711 92.8703 284.592 93.9296C281.414 96.0483 273.292 97.1077 269.761 97.4608L230.565 96.7546Z" fill="#435762"/>
<path d="M212.909 81.9237C212.909 81.9237 234.802 12.3592 237.627 9.53422C239.393 7.41551 247.161 2.82496 251.399 0.706241C252.458 2.32458e-06 253.871 1.05936 253.871 2.47184L248.221 62.8552C247.868 64.9739 246.808 67.0927 244.689 68.152L215.734 84.7486C215.734 84.3955 212.556 86.1611 212.909 81.9237Z" fill="#F8F8F9"/>
<path d="M253.164 0.353119C252.811 0.353119 252.811 0 252.458 0C252.105 0 251.399 0 250.692 0.353119C246.455 2.82495 238.686 7.41551 236.921 9.53422C234.096 12.3592 214.321 74.8613 212.202 81.9237C212.202 82.2768 212.202 82.6299 212.202 82.983C212.202 84.0424 212.556 84.7486 213.262 85.1018C213.615 85.4549 213.968 85.4549 214.321 85.4549C215.027 85.4549 216.087 85.1018 216.087 85.1018L217.852 84.0424L218.559 83.6893L245.042 68.5051C247.161 67.4458 248.574 65.3271 248.574 62.8552L254.224 2.47184C254.224 1.7656 253.87 0.706239 253.164 0.353119ZM247.514 62.5021C247.161 64.6208 246.102 66.3864 244.336 67.4458L217.499 82.6299C217.499 81.9237 217.146 80.8643 217.852 78.7456C219.265 75.5675 239.393 40.2556 251.399 19.7747L247.514 62.5021Z" fill="#435762"/>
<path d="M249.986 13.0654C249.986 15.8903 247.867 19.4215 245.395 20.834C242.924 22.2465 240.805 21.1871 240.805 18.3622C240.805 15.5372 242.924 12.006 245.395 10.5935C247.867 9.18105 249.986 10.2404 249.986 13.0654Z" fill="#F8F8F9"/>
</svg>
