<svg width="320" height="266" viewBox="0 0 320 266" fill="none" xmlns="http://www.w3.org/2000/svg">
<path d="M10.6674 233.194L0.736328 226.942V224.735L7.72483 226.942L11.0352 228.781L10.6674 233.194Z" fill="#F8F8F9"/>
<path d="M11.0359 228.781L20.2313 222.528L16.921 220.689L7.72559 226.574L11.0359 228.781Z" fill="#F8F8F9"/>
<path d="M0.736328 224.735L9.93173 218.85L16.9202 220.689L7.72483 226.574L0.736328 224.735Z" fill="#F8F8F9"/>
<path d="M16.5522 222.895L9.5637 221.424L2.5752 225.838L9.5637 227.677L11.035 228.78L18.3913 223.999L16.5522 222.895Z" fill="#F8F8F9"/>
<path d="M17.2874 219.585L9.93103 217.746L0 224.367V227.31L11.7701 234.298L12.1379 229.149L22.069 222.528L17.2874 219.585ZM9.93103 231.723L1.10345 226.574V225.838L6.9885 227.677L9.56322 229.149H10.2988L9.93103 231.723ZM11.0345 227.677L9.1954 226.574L7.72414 225.838L2.57471 224.367L9.93103 219.585L14.7126 220.689L16.5517 221.424L18.3908 222.528L11.0345 227.677Z" fill="#435762"/>
<path d="M33.1033 220.69L22.8044 214.437V212.23L29.7929 214.437L33.1033 216.276V220.69Z" fill="#F8F8F9"/>
<path d="M33.1039 216.277L42.2993 210.024L38.989 207.817L29.7936 214.07L33.1039 216.277Z" fill="#F8F8F9"/>
<path d="M22.8044 212.23L31.9998 206.345L38.9883 207.816L29.7929 214.069L22.8044 212.23Z" fill="#F8F8F9"/>
<path d="M38.9881 210.391L31.9996 208.919L24.6433 213.333L31.6318 215.172L33.4709 216.276L40.4594 211.494L38.9881 210.391Z" fill="#F8F8F9"/>
<path d="M39.3558 207.08L31.9995 205.241L22.4363 211.493V214.436L34.2064 221.425L34.5742 216.275L44.5052 209.654L39.3558 207.08ZM32.3673 219.218L23.5397 214.068V213.333L29.4248 215.172L31.9995 216.643L32.3673 217.011V219.218ZM33.1029 215.172L31.2639 214.068L29.7926 213.333L25.011 212.229L32.3673 207.448L37.1489 208.551L38.988 209.287L40.8271 210.39L33.1029 215.172Z" fill="#435762"/>
<path d="M55.1709 207.816L44.872 201.931V199.724L52.2283 201.563L55.1709 203.402V207.816Z" fill="#F8F8F9"/>
<path d="M55.1718 203.403L64.3672 197.518L61.0568 195.311L51.8615 201.564L55.1718 203.403Z" fill="#F8F8F9"/>
<path d="M44.872 199.724L54.0674 193.839L61.0559 195.311L51.8605 201.563L44.872 199.724Z" fill="#F8F8F9"/>
<path d="M61.0558 197.517L54.0673 196.046L47.0788 200.46L53.6995 202.299L55.5386 203.402L62.5271 198.621L61.0558 197.517Z" fill="#F8F8F9"/>
<path d="M61.4244 194.575L54.0681 192.736L44.5049 198.988V201.931L56.275 208.919L56.6428 203.77L66.5738 197.149L61.4244 194.575ZM54.4359 206.345L45.6083 201.195V200.46L51.4934 202.299L54.0681 203.77L54.4359 204.138V206.345ZM55.1715 202.667L53.3325 201.563L51.8612 200.828L47.0796 199.356L54.4359 194.575L59.2175 195.678L61.0566 196.414L62.8957 197.517L55.1715 202.667Z" fill="#435762"/>
<path d="M77.2402 195.311L66.9413 189.058L67.3092 186.851L74.2977 189.058L77.608 190.897L77.2402 195.311Z" fill="#F8F8F9"/>
<path d="M77.6081 190.897L86.4357 184.645L83.1254 182.438L74.2978 188.69L77.6081 190.897Z" fill="#F8F8F9"/>
<path d="M67.3095 186.851L76.1371 180.966L83.1256 182.437L74.298 188.69L67.3095 186.851Z" fill="#F8F8F9"/>
<path d="M83.1254 185.012L76.1369 183.541L69.1484 187.955L76.1369 189.794L77.6081 190.53L84.9645 186.116L83.1254 185.012Z" fill="#F8F8F9"/>
<path d="M83.4928 181.701L76.1365 179.862L66.5732 186.114V189.057L78.3434 196.045L78.7112 190.896L88.6422 184.275L83.4928 181.701ZM76.5043 193.839L67.6767 188.689V187.954L73.5618 189.793L76.1365 191.264H76.5043V193.839ZM77.6077 189.793L75.7686 188.689L74.2974 187.954L69.148 186.482L76.5043 181.701L81.2859 182.804L83.125 183.54L84.964 184.643L77.6077 189.793Z" fill="#435762"/>
<path d="M99.3119 182.436L89.3809 176.183V173.976L96.3694 176.183L99.6797 178.022L99.3119 182.436Z" fill="#F8F8F9"/>
<path d="M99.6803 178.022L108.876 172.137L105.565 169.93L96.37 175.815L99.6803 178.022Z" fill="#F8F8F9"/>
<path d="M89.3809 173.976L98.2084 168.091L105.565 169.93L96.3694 175.815L89.3809 173.976Z" fill="#F8F8F9"/>
<path d="M105.197 172.137L98.2082 170.665L91.2197 175.079L98.2082 176.918L99.6795 178.022L107.036 173.24L105.197 172.137Z" fill="#F8F8F9"/>
<path d="M105.563 169.194L98.2068 167.355L88.6436 173.608V176.55L100.414 183.539L100.781 178.389L110.713 171.769L105.563 169.194ZM98.5746 180.964L89.747 175.815V175.079L95.6321 176.918L98.2068 178.389L98.5746 178.757V180.964ZM99.678 177.286L97.839 176.182L96.3677 175.447L91.2183 173.975L98.5746 169.194L103.356 170.297L105.195 171.033L107.034 172.136L99.678 177.286Z" fill="#435762"/>
<path d="M121.748 169.93L111.449 164.045V161.838L118.438 163.677L121.748 165.884V169.93Z" fill="#F8F8F9"/>
<path d="M121.749 165.885L130.944 159.632L127.634 157.425L118.438 163.678L121.749 165.885Z" fill="#F8F8F9"/>
<path d="M111.449 161.839L120.645 155.954L127.633 157.426L118.438 163.678L111.449 161.839Z" fill="#F8F8F9"/>
<path d="M127.633 160L120.277 158.161L113.288 162.943L120.277 164.782L122.116 165.517L129.104 160.736L127.633 160Z" fill="#F8F8F9"/>
<path d="M128.001 156.688L120.644 154.849L111.081 161.102V164.044L122.851 171.033L123.219 165.883L133.15 159.263L128.001 156.688ZM121.012 168.826L112.185 163.676V162.941L118.07 164.78L120.644 166.251L121.012 166.619V168.826ZM121.748 164.78L119.909 163.676L118.437 162.941L113.288 161.47L120.644 156.688L125.426 157.791L127.265 158.527L129.104 159.63L121.748 164.78Z" fill="#435762"/>
<path d="M143.816 157.423L133.517 151.17V148.963L140.873 151.17L143.816 153.009V157.423Z" fill="#F8F8F9"/>
<path d="M143.816 153.01L153.012 146.757L149.701 144.918L140.506 150.803L143.816 153.01Z" fill="#F8F8F9"/>
<path d="M133.517 148.963L142.712 143.078L149.701 144.917L140.505 150.802L133.517 148.963Z" fill="#F8F8F9"/>
<path d="M149.7 147.124L142.712 145.652L135.356 150.066L142.344 151.905L144.183 153.009L151.172 148.227L149.7 147.124Z" fill="#F8F8F9"/>
<path d="M150.069 144.183L142.713 142.344L133.149 148.597V151.539L144.92 158.528L145.287 153.378L155.218 146.758L150.069 144.183ZM143.08 155.953L134.253 150.804V150.068L140.138 151.907L142.713 153.378L143.08 153.746V155.953ZM143.816 151.907L141.977 150.804L140.506 150.068L135.724 148.965L143.08 144.183L147.862 145.287L149.701 146.022L151.54 147.126L143.816 151.907Z" fill="#435762"/>
<path d="M165.887 144.551L155.588 138.666L155.956 136.459L162.944 138.298L166.255 140.137L165.887 144.551Z" fill="#F8F8F9"/>
<path d="M166.255 140.505L175.083 134.252L171.773 132.045L162.577 138.298L166.255 140.505Z" fill="#F8F8F9"/>
<path d="M155.956 136.46L164.784 130.574L171.772 132.046L162.577 138.299L155.956 136.46Z" fill="#F8F8F9"/>
<path d="M171.772 134.62L164.784 132.781L157.795 137.195L164.784 139.034L166.255 140.138L173.243 135.356L171.772 134.62Z" fill="#F8F8F9"/>
<path d="M172.138 131.309L164.782 129.47L154.851 136.091V139.033L166.621 146.022L166.989 140.872L176.92 134.252L172.138 131.309ZM165.149 143.079L156.322 137.93V137.194L162.207 139.033L164.782 140.504L165.149 140.872V143.079ZM166.253 139.401L164.414 138.298L162.943 137.562L157.793 136.091L165.149 131.309L169.931 132.412L171.77 133.148L173.609 134.252L166.253 139.401Z" fill="#435762"/>
<path d="M187.953 132.046L177.654 125.793L178.022 123.586L185.011 125.793L188.321 127.632L187.953 132.046Z" fill="#F8F8F9"/>
<path d="M188.321 127.633L197.517 121.38L193.838 119.173L185.011 125.426L188.321 127.633Z" fill="#F8F8F9"/>
<path d="M178.022 123.586L186.849 117.701L193.838 119.173L185.01 125.425L178.022 123.586Z" fill="#F8F8F9"/>
<path d="M193.837 121.747L186.849 120.276L179.86 124.689L186.849 126.528L188.32 127.632L195.677 122.85L193.837 121.747Z" fill="#F8F8F9"/>
<path d="M194.206 118.436L186.849 116.597L177.286 122.85V125.792L189.056 132.781L189.424 127.631L199.355 121.011L194.206 118.436ZM187.217 130.574L178.39 125.424V124.689L184.275 126.528L186.849 127.999L187.217 128.367V130.574ZM188.321 126.528L186.482 125.424L185.01 124.689L180.229 123.585L187.585 118.804L192.367 119.907L194.206 120.643L196.045 121.746L188.321 126.528Z" fill="#435762"/>
<path d="M210.392 119.537L200.093 113.284V111.077L207.081 113.284L210.392 115.123V119.537Z" fill="#F8F8F9"/>
<path d="M210.392 115.124L219.588 109.239L216.277 107.032L207.082 112.917L210.392 115.124Z" fill="#F8F8F9"/>
<path d="M200.093 111.078L209.288 105.193L216.277 107.032L207.081 112.917L200.093 111.078Z" fill="#F8F8F9"/>
<path d="M216.276 109.238L208.92 107.767L201.932 112.181L208.92 114.02L210.759 115.123L217.748 110.342L216.276 109.238Z" fill="#F8F8F9"/>
<path d="M216.644 106.297L209.288 104.458L199.725 110.711V113.654L211.495 120.642L211.863 115.493L221.794 108.872L216.644 106.297ZM209.656 118.067L200.828 112.918V112.182L206.713 114.021L209.288 115.493L209.656 115.861V118.067ZM210.391 114.389L208.552 113.286L207.081 112.55L202.299 111.447L209.656 106.665L214.437 107.769L216.276 108.504L218.115 109.608L210.391 114.389Z" fill="#435762"/>
<path d="M232.461 106.666L222.162 100.781V98.5745L229.518 100.414L232.461 102.62V106.666Z" fill="#F8F8F9"/>
<path d="M232.462 102.62L241.657 96.3673L238.347 94.1604L229.151 100.413L232.462 102.62Z" fill="#F8F8F9"/>
<path d="M222.162 98.5738L231.358 92.6887L238.346 94.16L229.151 100.413L222.162 98.5738Z" fill="#F8F8F9"/>
<path d="M238.346 96.7346L231.357 94.8955L224.001 99.6771L230.99 101.516L232.829 102.252L239.817 97.4702L238.346 96.7346Z" fill="#F8F8F9"/>
<path d="M238.714 93.4243L231.358 91.5852L221.795 97.8381V100.781L233.565 107.769L233.933 102.62L243.864 95.999L238.714 93.4243ZM231.726 105.562L222.898 100.413V99.6772L228.783 101.516L231.358 102.988L231.726 103.355V105.562ZM232.462 101.516L230.623 100.413L229.151 99.3093L224.37 97.8381L231.726 93.0565L236.508 94.1599L238.347 94.8955L240.186 95.999L232.462 101.516Z" fill="#435762"/>
<path d="M254.528 94.1602L244.229 87.9073V85.7004L251.586 87.9073L254.896 89.7464L254.528 94.1602Z" fill="#F8F8F9"/>
<path d="M254.897 89.7475L263.725 83.4946L260.414 81.6555L251.219 87.5406L254.897 89.7475Z" fill="#F8F8F9"/>
<path d="M244.229 85.7007L253.425 79.8157L260.413 81.6548L251.218 87.5398L244.229 85.7007Z" fill="#F8F8F9"/>
<path d="M260.414 83.8612L253.425 82.3899L246.437 86.8037L253.425 88.6428L254.896 89.7462L261.885 84.9646L260.414 83.8612Z" fill="#F8F8F9"/>
<path d="M260.782 80.9194L253.426 79.0803L243.862 85.3332V88.2757L255.632 95.2642L256 90.1148L265.931 83.4941L260.782 80.9194ZM253.793 92.6895L244.966 87.5401V86.8045L250.851 88.6435L253.426 90.1148L253.793 90.4826V92.6895ZM254.897 88.6435L253.058 87.5401L251.586 86.8045L246.805 85.3332L254.161 80.5516L258.943 81.655L260.782 82.3907L262.621 83.4941L254.897 88.6435Z" fill="#435762"/>
<path d="M283.218 77.9743L7.72358 236.871L1.4707 233.193L276.597 74.2961L283.218 77.9743Z" fill="#F8F8F9"/>
<path d="M283.218 80.9177L7.72358 239.814L1.4707 236.136L276.597 77.2395L283.218 80.9177Z" fill="#F8F8F9"/>
<path d="M7.72559 236.872V242.39L283.22 83.4931V77.9758L7.72559 236.872Z" fill="#F8F8F9"/>
<path d="M1.4707 233.194V238.711L7.72358 242.389V236.872L1.4707 233.194Z" fill="#F8F8F9"/>
<path d="M283.955 77.6077L276.598 73.5618L0.736328 232.826V239.079L8.09265 243.493L283.587 84.2284L283.955 83.8606V77.6077ZM276.598 75.4008L281.38 78.3434L131.679 164.412L7.72483 236.136L2.94322 233.194L276.598 75.4008ZM2.20759 238.343V234.665L6.9892 237.608V241.286L2.20759 238.343Z" fill="#435762"/>
<path d="M19.1276 233.563L18.7598 237.241L51.8632 256.735V253.057L19.1276 233.563Z" fill="#F8F8F9"/>
<path d="M52.232 252.689L61.0596 246.804L27.5883 226.942L18.7607 232.827L52.232 252.689Z" fill="#F8F8F9"/>
<path d="M53.7017 254.161L61.058 249.38L27.5868 229.518L20.2305 234.299L53.7017 254.161Z" fill="#F8F8F9"/>
<path d="M62.5298 246.805L27.5873 226.207L17.6562 232.828V237.61L52.5988 258.207L52.9666 253.058L62.5298 246.805ZM27.5873 227.679L59.5873 246.805L51.8631 251.954L19.8631 233.196L27.5873 227.679ZM19.1275 236.874V234.299L51.1275 253.058V255.633L19.1275 236.874Z" fill="#435762"/>
<path d="M41.1962 220.689L40.8284 224.735L73.9318 244.229V240.551L41.1962 220.689Z" fill="#F8F8F9"/>
<path d="M74.3002 240.183L83.4956 234.298L50.0243 214.436L40.8289 220.321L74.3002 240.183Z" fill="#F8F8F9"/>
<path d="M75.7714 241.653L83.1277 236.871L49.6565 217.009L42.668 221.791L75.7714 241.653Z" fill="#F8F8F9"/>
<path d="M84.966 234.297L50.0235 213.331L40.0924 219.952L39.7246 225.101L74.6671 245.699L75.035 240.55L84.966 234.297ZM50.0235 215.17L82.0235 234.297L74.2993 239.446L42.2993 220.688L50.0235 215.17ZM41.5637 224.366V221.791L73.5637 240.55V243.124L41.5637 224.366Z" fill="#435762"/>
<path d="M63.2653 208.182L62.8975 212.228L96.0009 231.722V227.676L63.2653 208.182Z" fill="#F8F8F9"/>
<path d="M96.3697 227.676L105.565 221.423L72.0938 201.561L62.8984 207.814L96.3697 227.676Z" fill="#F8F8F9"/>
<path d="M98.2086 229.148L105.197 224.366L71.7258 204.504L64.7373 209.286L98.2086 229.148Z" fill="#F8F8F9"/>
<path d="M107.035 221.424L72.0928 200.826L62.1618 207.447L61.7939 212.597L96.7365 233.194L97.1043 228.045L107.035 221.424ZM72.0928 202.665L104.093 221.792L96.3687 226.941L64.3687 208.183L72.0928 202.665ZM63.633 211.493V208.918L95.633 227.677V230.252L63.633 211.493Z" fill="#435762"/>
<path d="M85.3346 195.31L84.9667 199.356L118.07 218.85V215.172L85.3346 195.31Z" fill="#F8F8F9"/>
<path d="M118.439 214.805L127.634 208.92L94.1631 189.058L84.9677 194.943L118.439 214.805Z" fill="#F8F8F9"/>
<path d="M120.278 216.275L127.266 211.493L93.7951 191.631L86.8066 196.413L120.278 216.275Z" fill="#F8F8F9"/>
<path d="M129.105 208.551L94.1621 187.953L84.231 194.574L83.8632 199.724L118.806 220.321L119.174 215.172L129.105 208.551ZM94.1621 189.793L126.162 208.919L118.438 214.068L86.4379 194.942L94.1621 189.793ZM85.7023 198.988V196.413L117.702 215.172V217.747L85.7023 198.988Z" fill="#435762"/>
<path d="M107.771 182.802L107.403 186.848L140.507 206.342V202.296L107.771 182.802Z" fill="#F8F8F9"/>
<path d="M140.507 202.295L149.702 196.042L116.231 176.18L107.403 182.433L140.507 202.295Z" fill="#F8F8F9"/>
<path d="M142.346 203.399L149.702 198.985L116.231 179.123L108.875 183.537L142.346 203.399Z" fill="#F8F8F9"/>
<path d="M151.173 196.043L116.23 175.446L106.299 182.066L105.931 187.216L140.874 207.813L141.242 202.664L151.173 196.043ZM116.23 177.285L148.23 196.043L140.506 201.193L108.506 182.434L116.23 177.285ZM107.77 186.112V183.538L139.77 202.296V204.871L107.77 186.112Z" fill="#435762"/>
<path d="M129.472 169.93L129.104 173.976L162.208 193.47V189.792L129.472 169.93Z" fill="#F8F8F9"/>
<path d="M162.577 189.425L171.772 183.54L138.301 163.678L129.105 169.563L162.577 189.425Z" fill="#F8F8F9"/>
<path d="M164.416 190.895L171.404 186.113L137.933 166.251L130.944 171.033L164.416 190.895Z" fill="#F8F8F9"/>
<path d="M173.242 183.171L138.3 162.573L128.369 169.194L128.001 174.344L162.944 194.941L163.311 189.792L173.242 183.171ZM138.3 164.413L170.3 183.539L162.576 188.688L130.576 169.93L138.3 164.413ZM129.84 173.608V171.033L161.84 189.792V192.367L129.84 173.608Z" fill="#435762"/>
<path d="M150.804 157.057L150.437 160.735L183.54 180.229V176.551L150.804 157.057Z" fill="#F8F8F9"/>
<path d="M183.907 176.182L193.102 170.297L159.631 150.435L150.436 156.688L183.907 176.182Z" fill="#F8F8F9"/>
<path d="M185.748 177.655L192.736 172.873L159.633 153.011L152.276 157.793L185.748 177.655Z" fill="#F8F8F9"/>
<path d="M194.574 170.298L159.632 149.7L149.701 156.321L149.333 161.471L184.276 182.068L184.643 176.919L194.574 170.298ZM159.632 151.172L164.046 153.746L191.632 170.298L183.908 175.448L151.908 156.689L159.632 151.172ZM151.172 160.367V157.792L183.172 176.551V179.126L151.172 160.367Z" fill="#435762"/>
<path d="M173.242 144.184L172.874 148.23L205.977 167.724V164.046L173.242 144.184Z" fill="#F8F8F9"/>
<path d="M206.345 163.677L215.173 157.792L181.702 137.93L172.874 143.815L206.345 163.677Z" fill="#F8F8F9"/>
<path d="M207.815 165.15L215.171 160.368L181.7 140.506L174.344 145.288L207.815 165.15Z" fill="#F8F8F9"/>
<path d="M216.643 157.793L181.701 137.196L172.137 143.448L171.77 148.598L206.712 169.196L207.08 164.046L216.643 157.793ZM181.701 138.667L213.701 157.793L205.976 162.943L173.976 144.184L181.701 138.667ZM173.241 147.862V145.288L205.241 164.046V166.621L173.241 147.862Z" fill="#435762"/>
<path d="M195.679 131.678L195.312 135.724L228.415 155.218V151.172L195.679 131.678Z" fill="#F8F8F9"/>
<path d="M228.784 151.172L237.979 144.919L204.508 125.057L195.312 131.31L228.784 151.172Z" fill="#F8F8F9"/>
<path d="M230.255 152.644L237.611 147.862L204.14 128L197.151 132.782L230.255 152.644Z" fill="#F8F8F9"/>
<path d="M239.449 144.92L204.507 124.323L194.576 130.943L194.208 136.093L229.151 156.69L229.518 151.541L239.449 144.92ZM204.507 126.162L236.507 145.288L228.783 150.437L196.783 131.679L204.507 126.162ZM196.047 134.989V132.414L228.047 151.173V153.748L196.047 134.989Z" fill="#435762"/>
<path d="M217.38 119.171L217.012 123.217L250.115 142.711V139.033L217.38 119.171Z" fill="#F8F8F9"/>
<path d="M250.484 138.666L259.679 132.781L226.208 112.919L217.013 118.804L250.484 138.666Z" fill="#F8F8F9"/>
<path d="M252.323 140.136L259.312 135.355L225.84 115.493L218.852 120.274L252.323 140.136Z" fill="#F8F8F9"/>
<path d="M261.15 132.413L226.207 111.815L216.276 118.436L215.908 123.585L250.851 143.815L251.219 139.033L261.15 132.413ZM226.207 113.654L258.207 132.413L250.483 137.562L218.483 118.803L226.207 113.654ZM217.748 122.849V120.275L249.748 139.033V141.608L217.748 122.849Z" fill="#435762"/>
<path d="M239.448 106.298L239.08 110.344L272.184 129.838V126.16L239.448 106.298Z" fill="#F8F8F9"/>
<path d="M272.551 125.794L281.379 119.541L248.275 100.046L239.08 105.931L272.551 125.794Z" fill="#F8F8F9"/>
<path d="M274.022 127.264L281.378 122.483L247.907 102.621L240.551 107.402L274.022 127.264Z" fill="#F8F8F9"/>
<path d="M282.85 119.54L247.908 98.9419L238.344 105.563L237.977 110.712L272.551 131.31L272.919 126.16L282.85 119.54ZM248.275 100.781L280.275 119.907L272.551 125.057L240.551 106.298L248.275 100.781ZM239.448 109.976V107.402L271.448 126.16V128.735L239.448 109.976Z" fill="#435762"/>
<path d="M261.517 93.425L261.149 97.471L294.253 116.965V113.287L261.517 93.425Z" fill="#F8F8F9"/>
<path d="M294.621 112.921L303.816 106.668L270.345 87.1738L261.149 93.0589L294.621 112.921Z" fill="#F8F8F9"/>
<path d="M296.092 114.391L303.448 109.609L269.977 89.7473L262.988 94.5289L296.092 114.391Z" fill="#F8F8F9"/>
<path d="M305.286 106.667L270.344 86.0696L260.413 92.6903L260.045 97.8397L294.252 118.07L294.987 113.288L305.286 106.667ZM270.344 87.9087L302.344 107.035L294.62 112.185L262.62 93.4259L270.344 87.9087ZM261.884 97.1041V94.5294L293.884 113.288V115.863L261.884 97.1041Z" fill="#435762"/>
<path d="M319.263 99.3093L44.1363 258.206L37.5156 254.528L312.642 95.6311L319.263 99.3093Z" fill="#F8F8F9"/>
<path d="M319.263 102.253L44.1363 261.149L37.5156 257.471L312.642 98.5745L319.263 102.253Z" fill="#F8F8F9"/>
<path d="M44.1377 258.207V263.725L319.264 104.828V99.3108L44.1377 258.207Z" fill="#F8F8F9"/>
<path d="M37.5156 254.529V260.046L44.1363 263.724V258.207L37.5156 254.529Z" fill="#F8F8F9"/>
<path d="M320 98.9427L312.643 94.8967L36.7812 254.161V260.414L44.1376 264.828L319.632 105.563L320 105.196V98.9427ZM312.643 96.7358L317.425 99.6783L168.092 185.747L44.1376 257.471L39.356 254.529L312.643 96.7358ZM38.2525 259.678V256L43.0341 258.943V262.621L38.2525 259.678Z" fill="#435762"/>
<path d="M65.4727 264.458L55.1738 258.573V254.159L58.4842 255.999L65.4727 262.251V264.458Z" fill="#F8F8F9"/>
<path d="M55.1738 254.159L64.3692 247.906L67.3118 249.746L58.4842 255.998L55.1738 254.159Z" fill="#F8F8F9"/>
<path d="M65.4729 262.251L74.6683 255.998L67.312 249.745L58.4844 255.998L65.4729 262.251Z" fill="#F8F8F9"/>
<path d="M66.9444 251.953L64.0018 250.114L56.6455 254.895L59.9559 256.734L66.9444 262.987L73.9329 258.205L66.9444 251.953Z" fill="#F8F8F9"/>
<path d="M68.0463 249.01L64.3682 246.803L54.4372 253.791L54.0693 258.941L65.1038 265.562L75.0349 258.941V255.998L68.0463 249.01ZM64.3682 262.987L55.5406 257.837V255.263L57.3797 256.366L62.5291 260.78L64.0004 262.251L64.3682 262.987ZM65.4716 261.148L59.5866 255.998L58.1153 254.895L57.0119 254.159L64.736 249.01L66.2073 250.113L67.6785 251.217L73.5636 256.366L65.4716 261.148Z" fill="#435762"/>
<path d="M87.541 251.953L77.2422 246.068V241.655L80.5525 243.494L87.541 249.747V251.953Z" fill="#F8F8F9"/>
<path d="M77.2422 241.654L86.4376 235.402L89.7479 237.241L80.5525 243.494L77.2422 241.654Z" fill="#F8F8F9"/>
<path d="M87.5412 249.746L96.7366 243.493L89.7481 237.24L80.5527 243.493L87.5412 249.746Z" fill="#F8F8F9"/>
<path d="M89.38 239.447L86.0697 237.608L79.0812 242.39L82.0237 244.229L89.0122 250.482L96.3685 245.7L89.38 239.447Z" fill="#F8F8F9"/>
<path d="M90.116 236.505L86.4379 234.298L76.5068 241.287V246.436L87.5413 253.057L97.4724 246.436V243.493L90.116 236.505ZM86.8057 250.482L77.9781 245.333V242.758L79.8172 243.861L84.9666 248.275L86.4379 249.746L86.8057 250.482ZM87.5413 248.643L81.6563 243.493L80.185 242.39V242.39L79.0816 241.654L86.8057 236.505L88.277 237.608L89.7482 238.712L95.6333 243.861L87.5413 248.643Z" fill="#435762"/>
<path d="M109.61 239.079L99.3116 233.194L99.6795 228.781L102.622 230.62L109.61 236.872V239.079Z" fill="#F8F8F9"/>
<path d="M99.6798 228.781L108.507 222.896L111.818 224.735L102.622 230.62L99.6798 228.781Z" fill="#F8F8F9"/>
<path d="M109.611 236.872L118.806 230.987L111.818 224.734L102.622 230.62L109.611 236.872Z" fill="#F8F8F9"/>
<path d="M111.449 226.941L108.139 225.102L101.151 229.516L104.093 231.355L111.082 237.976L118.438 233.194L111.449 226.941Z" fill="#F8F8F9"/>
<path d="M112.185 223.999L108.506 221.792L98.5753 228.413V233.562L109.61 240.183L119.541 233.562V230.62L112.185 223.999ZM108.874 237.976L100.047 232.827V230.252L101.886 231.355L107.035 235.769L108.506 237.24L108.874 237.976ZM109.61 236.137L103.725 230.988L102.253 229.884V229.516L101.15 228.781L108.874 223.631L110.345 224.735L111.817 225.838L117.702 230.988L109.61 236.137Z" fill="#435762"/>
<path d="M131.678 226.573L121.38 220.321L121.747 216.275L124.69 218.114L131.678 224.366V226.573Z" fill="#F8F8F9"/>
<path d="M121.748 216.274L130.943 210.022L133.886 211.861L124.69 218.114L121.748 216.274Z" fill="#F8F8F9"/>
<path d="M131.679 224.366L140.874 218.113L133.886 211.86L124.69 218.113L131.679 224.366Z" fill="#F8F8F9"/>
<path d="M133.517 214.067L130.207 212.228L123.219 217.01L126.529 218.849L133.517 225.102L140.506 220.32L133.517 214.067Z" fill="#F8F8F9"/>
<path d="M134.621 211.126L130.943 208.919L121.012 215.54L120.644 221.057L131.679 227.678L141.61 221.057V218.114L134.621 211.126ZM130.943 225.103L122.116 219.954V217.379L123.955 218.482L129.104 222.896L130.575 224.367L130.943 225.103ZM132.047 223.264L126.162 218.114L124.69 217.011L124.322 216.643L123.219 215.908L130.943 210.758L132.414 211.862L133.886 212.965L139.771 218.114L132.047 223.264Z" fill="#435762"/>
<path d="M153.749 213.699L143.818 207.814V203.4L147.129 205.239L154.117 211.492L153.749 213.699Z" fill="#F8F8F9"/>
<path d="M143.818 203.4L153.014 197.147L155.956 198.986L147.129 205.239L143.818 203.4Z" fill="#F8F8F9"/>
<path d="M154.117 211.492L162.945 205.607L155.956 198.986L147.129 205.239L154.117 211.492Z" fill="#F8F8F9"/>
<path d="M155.589 201.193L152.646 199.354L145.29 204.135L148.6 205.975L155.589 212.595L162.577 207.814L155.589 201.193Z" fill="#F8F8F9"/>
<path d="M156.691 198.619L153.013 196.412L143.081 203.033L142.714 208.183L153.748 214.803L163.679 208.183V205.24L156.691 198.619ZM153.013 212.596L144.185 207.447V204.872L146.392 205.976L151.541 210.389L153.013 211.861V212.596ZM154.116 210.757L148.231 205.608L146.76 204.504L146.392 204.137L145.288 203.401L153.013 198.252L154.484 199.355L155.955 200.458L161.84 205.608L154.116 210.757Z" fill="#435762"/>
<path d="M176.186 200.825L165.887 194.94V190.527L169.197 192.366L176.186 198.619V200.825Z" fill="#F8F8F9"/>
<path d="M165.887 190.527L175.082 184.274L178.392 186.113L169.197 192.366L165.887 190.527Z" fill="#F8F8F9"/>
<path d="M176.186 198.618L185.381 192.733L178.393 186.113L169.197 192.365L176.186 198.618Z" fill="#F8F8F9"/>
<path d="M177.657 188.32L174.714 186.481L167.726 191.262L170.668 193.101L177.657 199.722L185.013 194.94L177.657 188.32Z" fill="#F8F8F9"/>
<path d="M178.759 185.745L175.081 183.538L165.15 190.159L164.782 195.308L175.817 201.929L185.748 195.308V192.366L178.759 185.745ZM175.449 199.722L166.621 194.573V191.998L168.46 193.102L173.61 197.515L175.081 198.987L175.449 199.722ZM176.185 197.883L170.299 192.734L168.828 191.63V191.262L167.725 190.527L175.449 185.377L176.92 186.481L178.391 187.584L184.276 192.734L176.185 197.883Z" fill="#435762"/>
<path d="M198.253 187.954L187.954 182.069L188.322 177.655L191.264 179.494L198.253 185.747V187.954Z" fill="#F8F8F9"/>
<path d="M188.322 177.655L197.15 171.402L200.46 173.242L191.265 179.494L188.322 177.655Z" fill="#F8F8F9"/>
<path d="M198.253 185.747L207.448 179.494L200.46 173.241L191.264 179.494L198.253 185.747Z" fill="#F8F8F9"/>
<path d="M200.092 175.448L196.781 173.609L189.793 178.391L192.735 180.23L199.724 186.483L207.08 181.701L200.092 175.448Z" fill="#F8F8F9"/>
<path d="M200.827 172.506L197.149 170.299L187.218 176.92L186.85 182.069L197.885 188.69L207.816 182.069V179.127L200.827 172.506ZM197.517 186.483L188.689 181.333V178.759L190.529 179.862L195.678 184.276L197.149 185.747L197.517 186.483ZM198.253 184.644L192.368 179.494L190.896 178.391L190.529 178.023L189.425 177.287L197.149 172.138L198.621 173.241L200.092 174.345L205.977 179.494L198.253 184.644Z" fill="#435762"/>
<path d="M220.323 175.447L210.024 169.561L210.392 165.148L213.335 166.987L220.323 173.24V175.447Z" fill="#F8F8F9"/>
<path d="M210.393 165.148L219.588 158.895L222.531 160.734L213.335 166.987L210.393 165.148Z" fill="#F8F8F9"/>
<path d="M220.323 173.239L229.519 167.354L222.53 160.734L213.335 166.987L220.323 173.239Z" fill="#F8F8F9"/>
<path d="M222.162 162.941L218.852 161.102L211.863 165.883L215.174 167.722L222.162 173.975L229.151 169.561L222.162 162.941Z" fill="#F8F8F9"/>
<path d="M222.897 160.367L219.219 158.16L209.288 164.781L208.92 169.931L219.954 176.551L229.885 169.931V166.988L222.897 160.367ZM219.587 173.976L210.759 168.827V166.252L212.598 167.356L217.748 171.77L219.219 173.241L219.587 173.976ZM220.69 172.137L214.805 166.988L213.334 165.885L212.966 165.517L211.862 164.781L219.587 159.632L221.058 160.735L222.529 161.839L228.414 166.988L220.69 172.137Z" fill="#435762"/>
<path d="M242.39 162.573L232.459 156.32V152.274L235.769 154.113L242.758 160.366L242.39 162.573Z" fill="#F8F8F9"/>
<path d="M232.459 152.274L241.654 146.021L244.597 147.86L235.769 154.113L232.459 152.274Z" fill="#F8F8F9"/>
<path d="M242.758 160.365L251.586 154.112L244.597 147.86L235.77 154.112L242.758 160.365Z" fill="#F8F8F9"/>
<path d="M244.229 150.067L241.287 148.228L233.931 153.009L237.241 154.848L244.229 161.101L251.218 156.32L244.229 150.067Z" fill="#F8F8F9"/>
<path d="M245.333 147.125L241.655 144.918L231.724 151.539L231.356 156.688L242.391 163.309L252.322 156.688V153.746L245.333 147.125ZM241.655 161.102L232.828 155.953V153.378L234.667 154.481L239.816 158.895L241.287 160.366L241.655 161.102ZM242.759 159.263L236.874 154.114L235.402 153.01L235.035 152.642L233.931 151.907L241.655 146.757L243.127 147.861L244.598 148.964L250.483 154.114L242.759 159.263Z" fill="#435762"/>
<path d="M264.828 149.699L254.529 143.814V139.401L257.84 141.24L264.828 147.493V149.699Z" fill="#F8F8F9"/>
<path d="M254.529 139.401L263.725 133.148L267.035 134.987L257.84 141.24L254.529 139.401Z" fill="#F8F8F9"/>
<path d="M264.828 147.492L274.024 141.607L267.035 134.987L257.84 141.239L264.828 147.492Z" fill="#F8F8F9"/>
<path d="M266.299 137.194L263.357 135.354L256.368 140.136L259.311 141.975L266.299 148.228L273.656 143.814L266.299 137.194Z" fill="#F8F8F9"/>
<path d="M267.404 134.62L263.726 132.413L253.795 139.034L253.427 144.183L264.461 150.804L274.392 144.183V141.241L267.404 134.62ZM264.093 148.229L255.266 143.08V140.505L257.105 141.609L262.254 146.023L263.726 147.494L264.093 148.229ZM264.829 146.39L258.944 141.241L257.473 140.137L257.105 139.77L256.001 139.034L263.726 133.885L265.197 134.988L266.668 136.091L272.553 141.241L264.829 146.39Z" fill="#435762"/>
<path d="M286.896 136.459L276.598 130.574L276.965 126.16L279.908 127.999L286.896 134.252V136.459Z" fill="#F8F8F9"/>
<path d="M276.966 126.16L285.793 119.907L289.104 122.114L279.908 127.999L276.966 126.16Z" fill="#F8F8F9"/>
<path d="M286.897 134.252L296.092 128.367L289.104 122.115L279.908 128L286.897 134.252Z" fill="#F8F8F9"/>
<path d="M288.735 124.321L285.425 122.114L278.437 126.896L281.379 128.735L288.368 135.356L295.724 130.574L288.735 124.321Z" fill="#F8F8F9"/>
<path d="M289.472 121.379L285.794 119.172L275.863 125.793L275.495 130.942L286.53 137.563L296.461 130.942V128L289.472 121.379ZM286.162 135.356L277.334 130.207V127.632L279.173 128.735L284.323 133.149L285.794 134.62L286.162 135.356ZM286.897 133.517L281.012 128.368L279.541 127.264L279.173 126.896L278.07 126.161L285.794 121.011L287.265 122.115L288.736 123.218L294.622 128.368L286.897 133.517Z" fill="#435762"/>
<path d="M309.334 124.322L299.035 118.069V113.655L302.346 115.494L309.334 122.115V124.322Z" fill="#F8F8F9"/>
<path d="M299.035 113.655L308.231 107.77L311.541 109.609L302.346 115.494L299.035 113.655Z" fill="#F8F8F9"/>
<path d="M309.334 122.115L318.53 115.862L311.541 109.609L302.346 115.494L309.334 122.115Z" fill="#F8F8F9"/>
<path d="M310.805 111.816L307.863 109.977L300.874 114.758L303.817 116.597L310.805 122.85L317.794 118.069L310.805 111.816Z" fill="#F8F8F9"/>
<path d="M311.909 108.873L308.231 106.666L298.299 113.287L297.932 118.436L308.966 125.057L318.897 118.436V115.494L311.909 108.873ZM308.598 122.85L299.771 117.701V115.126L301.61 116.229L306.759 120.643L308.231 122.115L308.598 122.85ZM309.334 121.011L303.449 115.862L301.978 114.758L301.61 114.39L300.506 113.655L308.231 108.505L309.702 109.609L311.173 110.712L317.058 115.862L309.334 121.011Z" fill="#435762"/>
<path d="M248.278 117.703C248.278 117.335 248.278 117.335 248.278 116.968V108.14H237.611L197.887 85.3354C193.105 82.3928 185.381 82.025 181.335 84.5997L45.2431 164.048H34.5764V172.14V172.508C34.5764 174.347 36.0477 176.554 38.6224 178.025L84.5994 204.508C89.381 207.45 97.1051 207.818 101.151 205.243L244.599 121.381C247.542 120.646 248.278 119.542 248.278 117.703V117.335V117.703Z" fill="#F8F8F9"/>
<path d="M94.5301 207.818C91.2197 207.818 87.5416 207.082 84.5991 205.243L38.622 178.76C35.6795 177.289 34.2083 175.082 34.2083 172.875V172.507V163.68H45.2427L180.967 84.2316C185.381 81.6568 193.105 82.0247 198.254 84.9672L237.611 107.772H248.645V117.335C248.645 117.335 248.645 117.703 248.645 118.071C248.645 119.91 247.542 121.381 245.335 122.484L102.254 205.979C100.415 207.45 97.4726 207.818 94.5301 207.818ZM35.6795 165.151V172.875V173.243C35.6795 175.082 37.1508 176.921 39.3577 178.025L85.3347 204.507C90.1163 207.082 97.4726 207.45 101.519 205.243L244.967 121.381C246.438 120.278 247.542 119.542 247.542 118.071V117.703V109.243H237.611L197.886 86.0706C193.105 83.4959 185.748 83.1281 181.702 85.335L45.6106 164.783H35.6795V165.151Z" fill="#435762"/>
<path d="M245.702 112.919L102.254 196.781C97.84 199.356 90.4836 198.988 85.702 196.046L39.725 169.563C34.9434 166.621 34.2078 162.575 38.6216 160L182.07 76.1378C186.484 73.5631 193.84 73.9309 198.622 76.8734L244.599 103.356C249.38 105.931 249.748 110.345 245.702 112.919Z" fill="#F8F8F9"/>
<path d="M244.231 107.404L198.254 80.9214C193.473 77.9789 185.748 77.6111 181.702 80.1858L38.2541 164.048C37.1507 164.783 36.4151 165.519 36.0472 166.255V170.669C36.7829 171.772 37.8863 172.875 39.3576 173.979L85.3346 200.462C90.1162 203.404 97.8403 203.772 101.886 201.197L245.335 117.335C249.748 114.76 249.381 110.347 244.231 107.404Z" fill="#F8F8F9"/>
<path d="M94.5301 198.99C91.2197 198.99 87.5416 198.254 84.5991 196.415L38.622 169.932C35.6795 168.461 34.2083 166.254 34.2083 164.047C34.2083 162.208 35.3117 160.369 37.5186 159.265L180.967 75.4034C185.381 72.8287 193.105 73.1965 198.254 76.1391L244.231 102.622C247.174 104.093 248.645 106.3 248.645 108.507C248.645 110.346 247.542 112.185 245.335 113.288L102.254 197.151C100.415 198.254 97.4726 198.99 94.5301 198.99ZM188.691 75.0356C186.116 75.0356 183.542 75.4034 181.702 76.5069L38.2542 160.369C36.783 161.472 35.6795 162.576 35.6795 164.047C35.6795 165.886 37.1508 167.725 39.3577 168.829L85.3347 195.311C90.1163 197.886 97.4726 198.254 101.519 196.047L244.967 112.185C246.806 111.082 247.542 109.978 247.542 108.507C247.542 106.668 246.07 104.829 243.863 103.725L197.886 77.2425C195.312 75.7712 192.001 75.0356 188.691 75.0356Z" fill="#435762"/>
<path d="M94.5305 198.99V207.818L101.887 205.611L248.645 119.91L249.013 109.979L244.232 113.289L98.5765 198.254L94.5305 198.99Z" fill="#435762"/>
<path d="M126.162 196.415C126.162 202.3 122.116 209.656 116.599 212.599C111.449 215.541 107.035 213.334 107.035 207.081C107.035 201.196 111.081 193.84 116.599 190.897C121.748 187.955 126.162 190.162 126.162 196.415Z" fill="#435762"/>
<path d="M124.323 192.001L108.507 201.564V203.403L111.817 201.196C111.45 202.3 111.082 203.771 111.082 204.875C111.082 206.714 111.817 207.817 112.921 208.553C113.289 208.921 114.024 208.921 114.392 208.921C115.128 208.921 115.863 208.553 116.967 208.185C119.909 206.714 122.116 202.668 122.116 199.357C122.116 197.886 121.748 196.783 120.645 196.047L124.323 193.84V192.001ZM119.542 197.15C120.277 197.518 120.645 198.254 120.645 199.357C120.645 201.932 118.806 205.61 116.231 206.714C115.128 207.449 114.392 207.449 113.656 207.081C112.921 206.714 112.553 205.978 112.553 204.875C112.553 203.035 113.289 201.196 114.392 199.725L118.806 197.15C119.542 197.15 119.542 197.15 119.542 197.15Z" fill="#F8F8F9"/>
<path d="M146.76 184.277C146.76 190.162 142.714 197.518 137.197 200.461C132.047 203.403 128.001 201.197 128.001 194.944C128.001 188.691 132.047 181.702 137.564 178.76C142.346 175.817 146.76 178.392 146.76 184.277Z" fill="#435762"/>
<path d="M144.922 179.863L129.106 189.426V191.266L132.416 189.059C132.048 190.162 131.68 191.633 131.68 192.737C131.68 194.576 132.416 195.679 133.519 196.415C133.887 196.783 134.623 196.783 134.991 196.783C135.726 196.783 136.462 196.415 137.565 196.047C140.508 194.576 142.715 190.53 142.715 187.22C142.715 185.748 142.347 184.645 141.243 183.909L144.922 181.702V179.863ZM140.14 185.013C140.876 185.381 141.243 186.116 141.243 187.22C141.243 189.794 139.404 193.472 136.83 194.576C135.726 195.312 134.991 195.312 134.255 194.944C133.519 194.576 133.152 193.84 133.152 192.737C133.152 190.898 133.887 189.059 134.991 187.587L139.404 185.013C139.772 185.013 140.14 185.013 140.14 185.013Z" fill="#F8F8F9"/>
<path d="M214.806 145.288C214.806 151.173 210.76 158.529 205.243 161.472C200.093 164.414 195.68 162.207 195.68 155.954C195.68 150.069 199.726 142.713 205.243 139.77C210.76 136.828 214.806 139.035 214.806 145.288Z" fill="#435762"/>
<path d="M213.335 140.874L197.519 150.437V152.276L200.829 150.069C200.461 151.173 200.093 152.644 200.093 153.747C200.093 155.587 200.829 156.69 201.932 157.426C202.3 157.793 203.036 157.793 203.404 157.793C204.139 157.793 204.875 157.426 205.978 157.058C208.921 155.587 211.128 151.541 211.128 148.23C211.128 146.759 210.76 145.656 209.656 144.92L213.335 142.713V140.874ZM208.553 146.023C209.289 146.391 209.656 147.127 209.656 148.23C209.656 150.805 207.817 154.483 205.243 155.587C204.139 156.322 203.404 156.322 202.668 155.954C201.932 155.587 201.565 154.851 201.565 153.747C201.565 151.908 202.3 150.069 203.404 148.598L207.817 146.023C208.185 146.023 208.185 146.023 208.553 146.023Z" fill="#F8F8F9"/>
<path d="M235.403 133.151C235.403 139.036 231.357 146.392 225.84 149.335C220.69 152.277 216.277 150.071 216.277 143.818C216.277 137.933 220.323 130.576 225.84 127.634C230.989 124.691 235.403 126.898 235.403 133.151Z" fill="#435762"/>
<path d="M233.564 128.737L217.748 138.301V140.14L221.059 137.933C220.691 139.036 220.323 140.507 220.323 141.611C220.323 143.45 221.059 144.553 222.162 145.289C222.53 145.657 223.266 145.657 223.633 145.657C224.369 145.657 225.105 145.289 226.208 144.921C229.151 143.45 231.357 139.404 231.357 136.094C231.357 134.622 230.99 133.519 229.886 132.783L233.564 130.576V128.737V128.737ZM228.783 133.887C229.518 134.255 229.886 134.99 229.886 136.094C229.886 138.668 228.047 142.346 225.472 143.45C224.369 144.186 223.633 144.186 222.898 143.818C222.162 143.45 221.794 142.714 221.794 141.611C221.794 139.772 222.53 137.933 223.633 136.461L228.047 133.887C228.783 133.887 228.783 133.887 228.783 133.887Z" fill="#F8F8F9"/>
<path d="M48.9192 94.1621L96.7353 121.748V189.426L48.9192 161.84V94.1621Z" fill="#F8F8F9"/>
<path d="M96.7365 121.012L48.1848 93.0579V162.207L96.7365 190.161L237.242 109.242L237.61 108.874V39.7246L96.7365 121.012ZM96.0009 188.322L49.2883 161.472V95.2648L96.0009 122.115V188.322Z" fill="#435762"/>
<path d="M189.426 0.734375L247.541 34.2056L96.7366 121.01L38.9895 87.539L189.426 0.734375Z" fill="#F8F8F9"/>
<path d="M102.621 130.206V181.333L231.725 106.666V55.5398L102.621 130.206ZM191.265 102.988L195.311 100.413C195.311 100.413 195.311 100.413 195.311 100.781V102.252C195.311 102.988 194.943 103.724 194.575 103.724L191.265 105.563V102.988ZM190.162 102.252V108.505V129.471L185.012 132.413V84.2294L190.162 81.2869V102.252ZM147.863 105.931L149.334 105.195V153.379L147.863 154.114V105.931ZM173.978 138.666V90.4823L183.541 84.9651V133.149L173.978 138.666ZM150.438 104.092L153.012 102.62V150.804L150.438 152.275V104.092ZM154.116 150.069V101.885L169.564 93.057L172.874 91.2179V139.402L154.116 150.069ZM103.725 130.942L146.392 106.666V154.482L103.725 179.126V130.942ZM230.254 105.931L191.265 128.735V107.77L195.311 105.563C196.047 105.195 196.782 104.092 196.782 102.988V101.517C196.782 100.781 196.415 100.413 196.047 100.046C195.679 99.6777 195.311 99.6777 194.575 100.046L191.265 101.885V80.9191L230.254 58.1145V105.931V105.931Z" fill="#F8F8F9"/>
<path d="M205.978 23.1729L231.357 37.8855L96.3688 115.127L70.9895 100.414L205.978 23.1729Z" fill="#F8F8F9"/>
<path d="M186.851 12.1387L197.886 18.3915L62.897 95.6329L51.8625 89.38L186.851 12.1387Z" fill="#F8F8F9"/>
<path d="M63.6326 164.782L52.9659 158.529V146.391L63.6326 152.644V164.782ZM54.4372 158.161L62.5292 162.943V153.748L54.4372 148.966V158.161Z" fill="#435762"/>
<path d="M96.7362 121.379L96.3684 128.736L38.6213 95.2645V87.9082L96.7362 121.379Z" fill="#F8F8F9"/>
<path d="M247.908 33.8391L189.426 0L38.2532 87.1724V95.2643L96.7359 129.103L247.908 41.931L248.276 41.5632L247.908 33.8391ZM189.426 1.47126L246.069 34.2069L133.15 99.3103L96.7359 120.276L40.0923 87.5402L189.426 1.47126ZM96.0003 127.264L39.3566 94.5287V88.6437L96.3681 121.379L96.0003 127.264Z" fill="#435762"/>
<path d="M97.1028 129.104V127.633L236.137 47.0811V48.5523L97.1028 129.104Z" fill="#F8F8F9"/>
<path d="M83.862 112.92V119.541L71.7241 112.552V105.932L69.885 104.828V181.702L71.7241 182.805V166.989L83.862 173.978V189.794L85.7011 190.897V114.024L83.862 112.92ZM83.862 121.748V127.265L71.7241 120.276V114.759L83.862 121.748ZM71.3563 150.069V144.552L83.4942 151.541V157.058L71.3563 150.069ZM83.862 158.897V164.414L71.7241 157.426V151.909L83.862 158.897ZM71.3563 142.345V136.828L83.4942 143.817V149.334L71.3563 142.345ZM71.3563 134.989V129.472L83.4942 136.46V141.978L71.3563 134.989ZM71.3563 127.633V122.115L83.4942 129.104V134.621L71.3563 127.633ZM71.3563 164.782V159.265L83.4942 166.253V171.771L71.3563 164.782Z" fill="#435762"/>
</svg>
